%TF.GenerationSoftware,KiCad,Pcbnew,(5.1.6)-1*%
%TF.CreationDate,2022-02-21T08:46:33-05:00*%
%TF.ProjectId,PICO-AT,5049434f-2d41-4542-9e6b-696361645f70,rev?*%
%TF.SameCoordinates,Original*%
%TF.FileFunction,Legend,Bot*%
%TF.FilePolarity,Positive*%
%FSLAX46Y46*%
G04 Gerber Fmt 4.6, Leading zero omitted, Abs format (unit mm)*
G04 Created by KiCad (PCBNEW (5.1.6)-1) date 2022-02-21 08:46:33*
%MOMM*%
%LPD*%
G01*
G04 APERTURE LIST*
%ADD10C,0.150000*%
%ADD11C,0.500000*%
%ADD12C,0.120000*%
G04 APERTURE END LIST*
D10*
X171394380Y-91440095D02*
X170394380Y-91440095D01*
X170394380Y-91821047D01*
X170442000Y-91916285D01*
X170489619Y-91963904D01*
X170584857Y-92011523D01*
X170727714Y-92011523D01*
X170822952Y-91963904D01*
X170870571Y-91916285D01*
X170918190Y-91821047D01*
X170918190Y-91440095D01*
X170442000Y-92963904D02*
X170394380Y-92868666D01*
X170394380Y-92725809D01*
X170442000Y-92582952D01*
X170537238Y-92487714D01*
X170632476Y-92440095D01*
X170822952Y-92392476D01*
X170965809Y-92392476D01*
X171156285Y-92440095D01*
X171251523Y-92487714D01*
X171346761Y-92582952D01*
X171394380Y-92725809D01*
X171394380Y-92821047D01*
X171346761Y-92963904D01*
X171299142Y-93011523D01*
X170965809Y-93011523D01*
X170965809Y-92821047D01*
X166584380Y-92011523D02*
X166584380Y-91535333D01*
X167060571Y-91487714D01*
X167012952Y-91535333D01*
X166965333Y-91630571D01*
X166965333Y-91868666D01*
X167012952Y-91963904D01*
X167060571Y-92011523D01*
X167155809Y-92059142D01*
X167393904Y-92059142D01*
X167489142Y-92011523D01*
X167536761Y-91963904D01*
X167584380Y-91868666D01*
X167584380Y-91630571D01*
X167536761Y-91535333D01*
X167489142Y-91487714D01*
X166584380Y-92344857D02*
X167584380Y-92678190D01*
X166584380Y-93011523D01*
X163520380Y-91074952D02*
X163520380Y-90503523D01*
X163520380Y-90789238D02*
X162520380Y-90789238D01*
X162663238Y-90694000D01*
X162758476Y-90598761D01*
X162806095Y-90503523D01*
X162615619Y-91455904D02*
X162568000Y-91503523D01*
X162520380Y-91598761D01*
X162520380Y-91836857D01*
X162568000Y-91932095D01*
X162615619Y-91979714D01*
X162710857Y-92027333D01*
X162806095Y-92027333D01*
X162948952Y-91979714D01*
X163520380Y-91408285D01*
X163520380Y-92027333D01*
X162520380Y-92313047D02*
X163520380Y-92646380D01*
X162520380Y-92979714D01*
X159329428Y-89424095D02*
X159329428Y-90186000D01*
X159710380Y-91186000D02*
X159710380Y-90614571D01*
X159710380Y-90900285D02*
X158710380Y-90900285D01*
X158853238Y-90805047D01*
X158948476Y-90709809D01*
X158996095Y-90614571D01*
X158805619Y-91566952D02*
X158758000Y-91614571D01*
X158710380Y-91709809D01*
X158710380Y-91947904D01*
X158758000Y-92043142D01*
X158805619Y-92090761D01*
X158900857Y-92138380D01*
X158996095Y-92138380D01*
X159138952Y-92090761D01*
X159710380Y-91519333D01*
X159710380Y-92138380D01*
X158710380Y-92424095D02*
X159710380Y-92757428D01*
X158710380Y-93090761D01*
X154694000Y-90932095D02*
X154646380Y-90836857D01*
X154646380Y-90694000D01*
X154694000Y-90551142D01*
X154789238Y-90455904D01*
X154884476Y-90408285D01*
X155074952Y-90360666D01*
X155217809Y-90360666D01*
X155408285Y-90408285D01*
X155503523Y-90455904D01*
X155598761Y-90551142D01*
X155646380Y-90694000D01*
X155646380Y-90789238D01*
X155598761Y-90932095D01*
X155551142Y-90979714D01*
X155217809Y-90979714D01*
X155217809Y-90789238D01*
X155646380Y-91408285D02*
X154646380Y-91408285D01*
X155646380Y-91979714D01*
X154646380Y-91979714D01*
X155646380Y-92455904D02*
X154646380Y-92455904D01*
X154646380Y-92694000D01*
X154694000Y-92836857D01*
X154789238Y-92932095D01*
X154884476Y-92979714D01*
X155074952Y-93027333D01*
X155217809Y-93027333D01*
X155408285Y-92979714D01*
X155503523Y-92932095D01*
X155598761Y-92836857D01*
X155646380Y-92694000D01*
X155646380Y-92455904D01*
X150630000Y-90932095D02*
X150582380Y-90836857D01*
X150582380Y-90694000D01*
X150630000Y-90551142D01*
X150725238Y-90455904D01*
X150820476Y-90408285D01*
X151010952Y-90360666D01*
X151153809Y-90360666D01*
X151344285Y-90408285D01*
X151439523Y-90455904D01*
X151534761Y-90551142D01*
X151582380Y-90694000D01*
X151582380Y-90789238D01*
X151534761Y-90932095D01*
X151487142Y-90979714D01*
X151153809Y-90979714D01*
X151153809Y-90789238D01*
X151582380Y-91408285D02*
X150582380Y-91408285D01*
X151582380Y-91979714D01*
X150582380Y-91979714D01*
X151582380Y-92455904D02*
X150582380Y-92455904D01*
X150582380Y-92694000D01*
X150630000Y-92836857D01*
X150725238Y-92932095D01*
X150820476Y-92979714D01*
X151010952Y-93027333D01*
X151153809Y-93027333D01*
X151344285Y-92979714D01*
X151439523Y-92932095D01*
X151534761Y-92836857D01*
X151582380Y-92694000D01*
X151582380Y-92455904D01*
X146820000Y-90932095D02*
X146772380Y-90836857D01*
X146772380Y-90694000D01*
X146820000Y-90551142D01*
X146915238Y-90455904D01*
X147010476Y-90408285D01*
X147200952Y-90360666D01*
X147343809Y-90360666D01*
X147534285Y-90408285D01*
X147629523Y-90455904D01*
X147724761Y-90551142D01*
X147772380Y-90694000D01*
X147772380Y-90789238D01*
X147724761Y-90932095D01*
X147677142Y-90979714D01*
X147343809Y-90979714D01*
X147343809Y-90789238D01*
X147772380Y-91408285D02*
X146772380Y-91408285D01*
X147772380Y-91979714D01*
X146772380Y-91979714D01*
X147772380Y-92455904D02*
X146772380Y-92455904D01*
X146772380Y-92694000D01*
X146820000Y-92836857D01*
X146915238Y-92932095D01*
X147010476Y-92979714D01*
X147200952Y-93027333D01*
X147343809Y-93027333D01*
X147534285Y-92979714D01*
X147629523Y-92932095D01*
X147724761Y-92836857D01*
X147772380Y-92694000D01*
X147772380Y-92455904D01*
X143010000Y-90932095D02*
X142962380Y-90836857D01*
X142962380Y-90694000D01*
X143010000Y-90551142D01*
X143105238Y-90455904D01*
X143200476Y-90408285D01*
X143390952Y-90360666D01*
X143533809Y-90360666D01*
X143724285Y-90408285D01*
X143819523Y-90455904D01*
X143914761Y-90551142D01*
X143962380Y-90694000D01*
X143962380Y-90789238D01*
X143914761Y-90932095D01*
X143867142Y-90979714D01*
X143533809Y-90979714D01*
X143533809Y-90789238D01*
X143962380Y-91408285D02*
X142962380Y-91408285D01*
X143962380Y-91979714D01*
X142962380Y-91979714D01*
X143962380Y-92455904D02*
X142962380Y-92455904D01*
X142962380Y-92694000D01*
X143010000Y-92836857D01*
X143105238Y-92932095D01*
X143200476Y-92979714D01*
X143390952Y-93027333D01*
X143533809Y-93027333D01*
X143724285Y-92979714D01*
X143819523Y-92932095D01*
X143914761Y-92836857D01*
X143962380Y-92694000D01*
X143962380Y-92455904D01*
X139517428Y-90408285D02*
X139517428Y-91170190D01*
X138898380Y-92122571D02*
X138898380Y-91646380D01*
X139374571Y-91598761D01*
X139326952Y-91646380D01*
X139279333Y-91741619D01*
X139279333Y-91979714D01*
X139326952Y-92074952D01*
X139374571Y-92122571D01*
X139469809Y-92170190D01*
X139707904Y-92170190D01*
X139803142Y-92122571D01*
X139850761Y-92074952D01*
X139898380Y-91979714D01*
X139898380Y-91741619D01*
X139850761Y-91646380D01*
X139803142Y-91598761D01*
X138898380Y-92455904D02*
X139898380Y-92789238D01*
X138898380Y-93122571D01*
X135088380Y-92011523D02*
X135088380Y-91535333D01*
X135564571Y-91487714D01*
X135516952Y-91535333D01*
X135469333Y-91630571D01*
X135469333Y-91868666D01*
X135516952Y-91963904D01*
X135564571Y-92011523D01*
X135659809Y-92059142D01*
X135897904Y-92059142D01*
X135993142Y-92011523D01*
X136040761Y-91963904D01*
X136088380Y-91868666D01*
X136088380Y-91630571D01*
X136040761Y-91535333D01*
X135993142Y-91487714D01*
X135088380Y-92344857D02*
X136088380Y-92678190D01*
X135088380Y-93011523D01*
X131024380Y-92011523D02*
X131024380Y-91535333D01*
X131500571Y-91487714D01*
X131452952Y-91535333D01*
X131405333Y-91630571D01*
X131405333Y-91868666D01*
X131452952Y-91963904D01*
X131500571Y-92011523D01*
X131595809Y-92059142D01*
X131833904Y-92059142D01*
X131929142Y-92011523D01*
X131976761Y-91963904D01*
X132024380Y-91868666D01*
X132024380Y-91630571D01*
X131976761Y-91535333D01*
X131929142Y-91487714D01*
X131024380Y-92344857D02*
X132024380Y-92678190D01*
X131024380Y-93011523D01*
X126960380Y-92011523D02*
X126960380Y-91535333D01*
X127436571Y-91487714D01*
X127388952Y-91535333D01*
X127341333Y-91630571D01*
X127341333Y-91868666D01*
X127388952Y-91963904D01*
X127436571Y-92011523D01*
X127531809Y-92059142D01*
X127769904Y-92059142D01*
X127865142Y-92011523D01*
X127912761Y-91963904D01*
X127960380Y-91868666D01*
X127960380Y-91630571D01*
X127912761Y-91535333D01*
X127865142Y-91487714D01*
X126960380Y-92344857D02*
X127960380Y-92678190D01*
X126960380Y-93011523D01*
X171410380Y-109013809D02*
X171410380Y-109632857D01*
X171791333Y-109299523D01*
X171791333Y-109442380D01*
X171838952Y-109537619D01*
X171886571Y-109585238D01*
X171981809Y-109632857D01*
X172219904Y-109632857D01*
X172315142Y-109585238D01*
X172362761Y-109537619D01*
X172410380Y-109442380D01*
X172410380Y-109156666D01*
X172362761Y-109061428D01*
X172315142Y-109013809D01*
X172315142Y-110061428D02*
X172362761Y-110109047D01*
X172410380Y-110061428D01*
X172362761Y-110013809D01*
X172315142Y-110061428D01*
X172410380Y-110061428D01*
X171410380Y-110442380D02*
X171410380Y-111061428D01*
X171791333Y-110728095D01*
X171791333Y-110870952D01*
X171838952Y-110966190D01*
X171886571Y-111013809D01*
X171981809Y-111061428D01*
X172219904Y-111061428D01*
X172315142Y-111013809D01*
X172362761Y-110966190D01*
X172410380Y-110870952D01*
X172410380Y-110585238D01*
X172362761Y-110490000D01*
X172315142Y-110442380D01*
X171410380Y-111347142D02*
X172410380Y-111680476D01*
X171410380Y-112013809D01*
X171410380Y-103425809D02*
X171410380Y-104044857D01*
X171791333Y-103711523D01*
X171791333Y-103854380D01*
X171838952Y-103949619D01*
X171886571Y-103997238D01*
X171981809Y-104044857D01*
X172219904Y-104044857D01*
X172315142Y-103997238D01*
X172362761Y-103949619D01*
X172410380Y-103854380D01*
X172410380Y-103568666D01*
X172362761Y-103473428D01*
X172315142Y-103425809D01*
X172315142Y-104473428D02*
X172362761Y-104521047D01*
X172410380Y-104473428D01*
X172362761Y-104425809D01*
X172315142Y-104473428D01*
X172410380Y-104473428D01*
X171410380Y-104854380D02*
X171410380Y-105473428D01*
X171791333Y-105140095D01*
X171791333Y-105282952D01*
X171838952Y-105378190D01*
X171886571Y-105425809D01*
X171981809Y-105473428D01*
X172219904Y-105473428D01*
X172315142Y-105425809D01*
X172362761Y-105378190D01*
X172410380Y-105282952D01*
X172410380Y-104997238D01*
X172362761Y-104902000D01*
X172315142Y-104854380D01*
X171410380Y-105759142D02*
X172410380Y-106092476D01*
X171410380Y-106425809D01*
X167346380Y-109013809D02*
X167346380Y-109632857D01*
X167727333Y-109299523D01*
X167727333Y-109442380D01*
X167774952Y-109537619D01*
X167822571Y-109585238D01*
X167917809Y-109632857D01*
X168155904Y-109632857D01*
X168251142Y-109585238D01*
X168298761Y-109537619D01*
X168346380Y-109442380D01*
X168346380Y-109156666D01*
X168298761Y-109061428D01*
X168251142Y-109013809D01*
X168251142Y-110061428D02*
X168298761Y-110109047D01*
X168346380Y-110061428D01*
X168298761Y-110013809D01*
X168251142Y-110061428D01*
X168346380Y-110061428D01*
X167346380Y-110442380D02*
X167346380Y-111061428D01*
X167727333Y-110728095D01*
X167727333Y-110870952D01*
X167774952Y-110966190D01*
X167822571Y-111013809D01*
X167917809Y-111061428D01*
X168155904Y-111061428D01*
X168251142Y-111013809D01*
X168298761Y-110966190D01*
X168346380Y-110870952D01*
X168346380Y-110585238D01*
X168298761Y-110490000D01*
X168251142Y-110442380D01*
X167346380Y-111347142D02*
X168346380Y-111680476D01*
X167346380Y-112013809D01*
X167965428Y-103314666D02*
X167965428Y-104076571D01*
X168346380Y-105076571D02*
X168346380Y-104505142D01*
X168346380Y-104790857D02*
X167346380Y-104790857D01*
X167489238Y-104695619D01*
X167584476Y-104600380D01*
X167632095Y-104505142D01*
X167441619Y-105457523D02*
X167394000Y-105505142D01*
X167346380Y-105600380D01*
X167346380Y-105838476D01*
X167394000Y-105933714D01*
X167441619Y-105981333D01*
X167536857Y-106028952D01*
X167632095Y-106028952D01*
X167774952Y-105981333D01*
X168346380Y-105409904D01*
X168346380Y-106028952D01*
X163076000Y-109728095D02*
X163028380Y-109632857D01*
X163028380Y-109490000D01*
X163076000Y-109347142D01*
X163171238Y-109251904D01*
X163266476Y-109204285D01*
X163456952Y-109156666D01*
X163599809Y-109156666D01*
X163790285Y-109204285D01*
X163885523Y-109251904D01*
X163980761Y-109347142D01*
X164028380Y-109490000D01*
X164028380Y-109585238D01*
X163980761Y-109728095D01*
X163933142Y-109775714D01*
X163599809Y-109775714D01*
X163599809Y-109585238D01*
X164028380Y-110204285D02*
X163028380Y-110204285D01*
X164028380Y-110775714D01*
X163028380Y-110775714D01*
X164028380Y-111251904D02*
X163028380Y-111251904D01*
X163028380Y-111490000D01*
X163076000Y-111632857D01*
X163171238Y-111728095D01*
X163266476Y-111775714D01*
X163456952Y-111823333D01*
X163599809Y-111823333D01*
X163790285Y-111775714D01*
X163885523Y-111728095D01*
X163980761Y-111632857D01*
X164028380Y-111490000D01*
X164028380Y-111251904D01*
X163076000Y-104140095D02*
X163028380Y-104044857D01*
X163028380Y-103902000D01*
X163076000Y-103759142D01*
X163171238Y-103663904D01*
X163266476Y-103616285D01*
X163456952Y-103568666D01*
X163599809Y-103568666D01*
X163790285Y-103616285D01*
X163885523Y-103663904D01*
X163980761Y-103759142D01*
X164028380Y-103902000D01*
X164028380Y-103997238D01*
X163980761Y-104140095D01*
X163933142Y-104187714D01*
X163599809Y-104187714D01*
X163599809Y-103997238D01*
X164028380Y-104616285D02*
X163028380Y-104616285D01*
X164028380Y-105187714D01*
X163028380Y-105187714D01*
X164028380Y-105663904D02*
X163028380Y-105663904D01*
X163028380Y-105902000D01*
X163076000Y-106044857D01*
X163171238Y-106140095D01*
X163266476Y-106187714D01*
X163456952Y-106235333D01*
X163599809Y-106235333D01*
X163790285Y-106187714D01*
X163885523Y-106140095D01*
X163980761Y-106044857D01*
X164028380Y-105902000D01*
X164028380Y-105663904D01*
X158710380Y-109791523D02*
X158710380Y-109315333D01*
X159186571Y-109267714D01*
X159138952Y-109315333D01*
X159091333Y-109410571D01*
X159091333Y-109648666D01*
X159138952Y-109743904D01*
X159186571Y-109791523D01*
X159281809Y-109839142D01*
X159519904Y-109839142D01*
X159615142Y-109791523D01*
X159662761Y-109743904D01*
X159710380Y-109648666D01*
X159710380Y-109410571D01*
X159662761Y-109315333D01*
X159615142Y-109267714D01*
X158710380Y-110124857D02*
X159710380Y-110458190D01*
X158710380Y-110791523D01*
X158885380Y-103655904D02*
X157885380Y-103655904D01*
X157885380Y-104036857D01*
X157933000Y-104132095D01*
X157980619Y-104179714D01*
X158075857Y-104227333D01*
X158218714Y-104227333D01*
X158313952Y-104179714D01*
X158361571Y-104132095D01*
X158409190Y-104036857D01*
X158409190Y-103655904D01*
X158837761Y-104608285D02*
X158885380Y-104751142D01*
X158885380Y-104989238D01*
X158837761Y-105084476D01*
X158790142Y-105132095D01*
X158694904Y-105179714D01*
X158599666Y-105179714D01*
X158504428Y-105132095D01*
X158456809Y-105084476D01*
X158409190Y-104989238D01*
X158361571Y-104798761D01*
X158313952Y-104703523D01*
X158266333Y-104655904D01*
X158171095Y-104608285D01*
X158075857Y-104608285D01*
X157980619Y-104655904D01*
X157933000Y-104703523D01*
X157885380Y-104798761D01*
X157885380Y-105036857D01*
X157933000Y-105179714D01*
X159535380Y-103774952D02*
X159535380Y-103965428D01*
X159583000Y-104060666D01*
X159678238Y-104155904D01*
X159868714Y-104203523D01*
X160202047Y-104203523D01*
X160392523Y-104155904D01*
X160487761Y-104060666D01*
X160535380Y-103965428D01*
X160535380Y-103774952D01*
X160487761Y-103679714D01*
X160392523Y-103584476D01*
X160202047Y-103536857D01*
X159868714Y-103536857D01*
X159678238Y-103584476D01*
X159583000Y-103679714D01*
X159535380Y-103774952D01*
X160535380Y-104632095D02*
X159535380Y-104632095D01*
X160535380Y-105203523D01*
X159535380Y-105203523D01*
X154694000Y-109728095D02*
X154646380Y-109632857D01*
X154646380Y-109490000D01*
X154694000Y-109347142D01*
X154789238Y-109251904D01*
X154884476Y-109204285D01*
X155074952Y-109156666D01*
X155217809Y-109156666D01*
X155408285Y-109204285D01*
X155503523Y-109251904D01*
X155598761Y-109347142D01*
X155646380Y-109490000D01*
X155646380Y-109585238D01*
X155598761Y-109728095D01*
X155551142Y-109775714D01*
X155217809Y-109775714D01*
X155217809Y-109585238D01*
X155646380Y-110204285D02*
X154646380Y-110204285D01*
X155646380Y-110775714D01*
X154646380Y-110775714D01*
X155646380Y-111251904D02*
X154646380Y-111251904D01*
X154646380Y-111490000D01*
X154694000Y-111632857D01*
X154789238Y-111728095D01*
X154884476Y-111775714D01*
X155074952Y-111823333D01*
X155217809Y-111823333D01*
X155408285Y-111775714D01*
X155503523Y-111728095D01*
X155598761Y-111632857D01*
X155646380Y-111490000D01*
X155646380Y-111251904D01*
X154694000Y-104140095D02*
X154646380Y-104044857D01*
X154646380Y-103902000D01*
X154694000Y-103759142D01*
X154789238Y-103663904D01*
X154884476Y-103616285D01*
X155074952Y-103568666D01*
X155217809Y-103568666D01*
X155408285Y-103616285D01*
X155503523Y-103663904D01*
X155598761Y-103759142D01*
X155646380Y-103902000D01*
X155646380Y-103997238D01*
X155598761Y-104140095D01*
X155551142Y-104187714D01*
X155217809Y-104187714D01*
X155217809Y-103997238D01*
X155646380Y-104616285D02*
X154646380Y-104616285D01*
X155646380Y-105187714D01*
X154646380Y-105187714D01*
X155646380Y-105663904D02*
X154646380Y-105663904D01*
X154646380Y-105902000D01*
X154694000Y-106044857D01*
X154789238Y-106140095D01*
X154884476Y-106187714D01*
X155074952Y-106235333D01*
X155217809Y-106235333D01*
X155408285Y-106187714D01*
X155503523Y-106140095D01*
X155598761Y-106044857D01*
X155646380Y-105902000D01*
X155646380Y-105663904D01*
X150328380Y-109791523D02*
X150328380Y-109315333D01*
X150804571Y-109267714D01*
X150756952Y-109315333D01*
X150709333Y-109410571D01*
X150709333Y-109648666D01*
X150756952Y-109743904D01*
X150804571Y-109791523D01*
X150899809Y-109839142D01*
X151137904Y-109839142D01*
X151233142Y-109791523D01*
X151280761Y-109743904D01*
X151328380Y-109648666D01*
X151328380Y-109410571D01*
X151280761Y-109315333D01*
X151233142Y-109267714D01*
X150328380Y-110124857D02*
X151328380Y-110458190D01*
X150328380Y-110791523D01*
X150376000Y-104140095D02*
X150328380Y-104044857D01*
X150328380Y-103902000D01*
X150376000Y-103759142D01*
X150471238Y-103663904D01*
X150566476Y-103616285D01*
X150756952Y-103568666D01*
X150899809Y-103568666D01*
X151090285Y-103616285D01*
X151185523Y-103663904D01*
X151280761Y-103759142D01*
X151328380Y-103902000D01*
X151328380Y-103997238D01*
X151280761Y-104140095D01*
X151233142Y-104187714D01*
X150899809Y-104187714D01*
X150899809Y-103997238D01*
X151328380Y-104616285D02*
X150328380Y-104616285D01*
X151328380Y-105187714D01*
X150328380Y-105187714D01*
X151328380Y-105663904D02*
X150328380Y-105663904D01*
X150328380Y-105902000D01*
X150376000Y-106044857D01*
X150471238Y-106140095D01*
X150566476Y-106187714D01*
X150756952Y-106235333D01*
X150899809Y-106235333D01*
X151090285Y-106187714D01*
X151185523Y-106140095D01*
X151280761Y-106044857D01*
X151328380Y-105902000D01*
X151328380Y-105663904D01*
X146312000Y-109728095D02*
X146264380Y-109632857D01*
X146264380Y-109490000D01*
X146312000Y-109347142D01*
X146407238Y-109251904D01*
X146502476Y-109204285D01*
X146692952Y-109156666D01*
X146835809Y-109156666D01*
X147026285Y-109204285D01*
X147121523Y-109251904D01*
X147216761Y-109347142D01*
X147264380Y-109490000D01*
X147264380Y-109585238D01*
X147216761Y-109728095D01*
X147169142Y-109775714D01*
X146835809Y-109775714D01*
X146835809Y-109585238D01*
X147264380Y-110204285D02*
X146264380Y-110204285D01*
X147264380Y-110775714D01*
X146264380Y-110775714D01*
X147264380Y-111251904D02*
X146264380Y-111251904D01*
X146264380Y-111490000D01*
X146312000Y-111632857D01*
X146407238Y-111728095D01*
X146502476Y-111775714D01*
X146692952Y-111823333D01*
X146835809Y-111823333D01*
X147026285Y-111775714D01*
X147121523Y-111728095D01*
X147216761Y-111632857D01*
X147264380Y-111490000D01*
X147264380Y-111251904D01*
X146312000Y-104140095D02*
X146264380Y-104044857D01*
X146264380Y-103902000D01*
X146312000Y-103759142D01*
X146407238Y-103663904D01*
X146502476Y-103616285D01*
X146692952Y-103568666D01*
X146835809Y-103568666D01*
X147026285Y-103616285D01*
X147121523Y-103663904D01*
X147216761Y-103759142D01*
X147264380Y-103902000D01*
X147264380Y-103997238D01*
X147216761Y-104140095D01*
X147169142Y-104187714D01*
X146835809Y-104187714D01*
X146835809Y-103997238D01*
X147264380Y-104616285D02*
X146264380Y-104616285D01*
X147264380Y-105187714D01*
X146264380Y-105187714D01*
X147264380Y-105663904D02*
X146264380Y-105663904D01*
X146264380Y-105902000D01*
X146312000Y-106044857D01*
X146407238Y-106140095D01*
X146502476Y-106187714D01*
X146692952Y-106235333D01*
X146835809Y-106235333D01*
X147026285Y-106187714D01*
X147121523Y-106140095D01*
X147216761Y-106044857D01*
X147264380Y-105902000D01*
X147264380Y-105663904D01*
X142946380Y-109220095D02*
X141946380Y-109220095D01*
X141946380Y-109601047D01*
X141994000Y-109696285D01*
X142041619Y-109743904D01*
X142136857Y-109791523D01*
X142279714Y-109791523D01*
X142374952Y-109743904D01*
X142422571Y-109696285D01*
X142470190Y-109601047D01*
X142470190Y-109220095D01*
X141994000Y-110743904D02*
X141946380Y-110648666D01*
X141946380Y-110505809D01*
X141994000Y-110362952D01*
X142089238Y-110267714D01*
X142184476Y-110220095D01*
X142374952Y-110172476D01*
X142517809Y-110172476D01*
X142708285Y-110220095D01*
X142803523Y-110267714D01*
X142898761Y-110362952D01*
X142946380Y-110505809D01*
X142946380Y-110601047D01*
X142898761Y-110743904D01*
X142851142Y-110791523D01*
X142517809Y-110791523D01*
X142517809Y-110601047D01*
X142946380Y-103608285D02*
X141946380Y-103608285D01*
X142946380Y-104179714D01*
X141946380Y-104179714D01*
X142851142Y-105227333D02*
X142898761Y-105179714D01*
X142946380Y-105036857D01*
X142946380Y-104941619D01*
X142898761Y-104798761D01*
X142803523Y-104703523D01*
X142708285Y-104655904D01*
X142517809Y-104608285D01*
X142374952Y-104608285D01*
X142184476Y-104655904D01*
X142089238Y-104703523D01*
X141994000Y-104798761D01*
X141946380Y-104941619D01*
X141946380Y-105036857D01*
X141994000Y-105179714D01*
X142041619Y-105227333D01*
X137628380Y-109831333D02*
X137628380Y-109355142D01*
X138104571Y-109307523D01*
X138056952Y-109355142D01*
X138009333Y-109450380D01*
X138009333Y-109688476D01*
X138056952Y-109783714D01*
X138104571Y-109831333D01*
X138199809Y-109878952D01*
X138437904Y-109878952D01*
X138533142Y-109831333D01*
X138580761Y-109783714D01*
X138628380Y-109688476D01*
X138628380Y-109450380D01*
X138580761Y-109355142D01*
X138533142Y-109307523D01*
X137628380Y-110164666D02*
X138628380Y-110498000D01*
X137628380Y-110831333D01*
X138580761Y-111117047D02*
X138628380Y-111259904D01*
X138628380Y-111498000D01*
X138580761Y-111593238D01*
X138533142Y-111640857D01*
X138437904Y-111688476D01*
X138342666Y-111688476D01*
X138247428Y-111640857D01*
X138199809Y-111593238D01*
X138152190Y-111498000D01*
X138104571Y-111307523D01*
X138056952Y-111212285D01*
X138009333Y-111164666D01*
X137914095Y-111117047D01*
X137818857Y-111117047D01*
X137723619Y-111164666D01*
X137676000Y-111212285D01*
X137628380Y-111307523D01*
X137628380Y-111545619D01*
X137676000Y-111688476D01*
X138104571Y-112450380D02*
X138152190Y-112593238D01*
X138199809Y-112640857D01*
X138295047Y-112688476D01*
X138437904Y-112688476D01*
X138533142Y-112640857D01*
X138580761Y-112593238D01*
X138628380Y-112498000D01*
X138628380Y-112117047D01*
X137628380Y-112117047D01*
X137628380Y-112450380D01*
X137676000Y-112545619D01*
X137723619Y-112593238D01*
X137818857Y-112640857D01*
X137914095Y-112640857D01*
X138009333Y-112593238D01*
X138056952Y-112545619D01*
X138104571Y-112450380D01*
X138104571Y-112117047D01*
X137882380Y-104203523D02*
X137882380Y-103727333D01*
X138358571Y-103679714D01*
X138310952Y-103727333D01*
X138263333Y-103822571D01*
X138263333Y-104060666D01*
X138310952Y-104155904D01*
X138358571Y-104203523D01*
X138453809Y-104251142D01*
X138691904Y-104251142D01*
X138787142Y-104203523D01*
X138834761Y-104155904D01*
X138882380Y-104060666D01*
X138882380Y-103822571D01*
X138834761Y-103727333D01*
X138787142Y-103679714D01*
X137882380Y-104536857D02*
X138882380Y-104870190D01*
X137882380Y-105203523D01*
X134564380Y-109870952D02*
X134564380Y-109299523D01*
X134564380Y-109585238D02*
X133564380Y-109585238D01*
X133707238Y-109490000D01*
X133802476Y-109394761D01*
X133850095Y-109299523D01*
X133659619Y-110251904D02*
X133612000Y-110299523D01*
X133564380Y-110394761D01*
X133564380Y-110632857D01*
X133612000Y-110728095D01*
X133659619Y-110775714D01*
X133754857Y-110823333D01*
X133850095Y-110823333D01*
X133992952Y-110775714D01*
X134564380Y-110204285D01*
X134564380Y-110823333D01*
X133564380Y-111109047D02*
X134564380Y-111442380D01*
X133564380Y-111775714D01*
X133564380Y-104203523D02*
X133564380Y-103727333D01*
X134040571Y-103679714D01*
X133992952Y-103727333D01*
X133945333Y-103822571D01*
X133945333Y-104060666D01*
X133992952Y-104155904D01*
X134040571Y-104203523D01*
X134135809Y-104251142D01*
X134373904Y-104251142D01*
X134469142Y-104203523D01*
X134516761Y-104155904D01*
X134564380Y-104060666D01*
X134564380Y-103822571D01*
X134516761Y-103727333D01*
X134469142Y-103679714D01*
X133564380Y-104536857D02*
X134564380Y-104870190D01*
X133564380Y-105203523D01*
X130246380Y-109870952D02*
X130246380Y-109299523D01*
X130246380Y-109585238D02*
X129246380Y-109585238D01*
X129389238Y-109490000D01*
X129484476Y-109394761D01*
X129532095Y-109299523D01*
X129341619Y-110251904D02*
X129294000Y-110299523D01*
X129246380Y-110394761D01*
X129246380Y-110632857D01*
X129294000Y-110728095D01*
X129341619Y-110775714D01*
X129436857Y-110823333D01*
X129532095Y-110823333D01*
X129674952Y-110775714D01*
X130246380Y-110204285D01*
X130246380Y-110823333D01*
X129246380Y-111109047D02*
X130246380Y-111442380D01*
X129246380Y-111775714D01*
X129500380Y-104203523D02*
X129500380Y-103727333D01*
X129976571Y-103679714D01*
X129928952Y-103727333D01*
X129881333Y-103822571D01*
X129881333Y-104060666D01*
X129928952Y-104155904D01*
X129976571Y-104203523D01*
X130071809Y-104251142D01*
X130309904Y-104251142D01*
X130405142Y-104203523D01*
X130452761Y-104155904D01*
X130500380Y-104060666D01*
X130500380Y-103822571D01*
X130452761Y-103727333D01*
X130405142Y-103679714D01*
X129500380Y-104536857D02*
X130500380Y-104870190D01*
X129500380Y-105203523D01*
X125182380Y-109013809D02*
X125182380Y-109632857D01*
X125563333Y-109299523D01*
X125563333Y-109442380D01*
X125610952Y-109537619D01*
X125658571Y-109585238D01*
X125753809Y-109632857D01*
X125991904Y-109632857D01*
X126087142Y-109585238D01*
X126134761Y-109537619D01*
X126182380Y-109442380D01*
X126182380Y-109156666D01*
X126134761Y-109061428D01*
X126087142Y-109013809D01*
X126087142Y-110061428D02*
X126134761Y-110109047D01*
X126182380Y-110061428D01*
X126134761Y-110013809D01*
X126087142Y-110061428D01*
X126182380Y-110061428D01*
X125182380Y-110442380D02*
X125182380Y-111061428D01*
X125563333Y-110728095D01*
X125563333Y-110870952D01*
X125610952Y-110966190D01*
X125658571Y-111013809D01*
X125753809Y-111061428D01*
X125991904Y-111061428D01*
X126087142Y-111013809D01*
X126134761Y-110966190D01*
X126182380Y-110870952D01*
X126182380Y-110585238D01*
X126134761Y-110490000D01*
X126087142Y-110442380D01*
X125182380Y-111347142D02*
X126182380Y-111680476D01*
X125182380Y-112013809D01*
X125230000Y-104140095D02*
X125182380Y-104044857D01*
X125182380Y-103902000D01*
X125230000Y-103759142D01*
X125325238Y-103663904D01*
X125420476Y-103616285D01*
X125610952Y-103568666D01*
X125753809Y-103568666D01*
X125944285Y-103616285D01*
X126039523Y-103663904D01*
X126134761Y-103759142D01*
X126182380Y-103902000D01*
X126182380Y-103997238D01*
X126134761Y-104140095D01*
X126087142Y-104187714D01*
X125753809Y-104187714D01*
X125753809Y-103997238D01*
X126182380Y-104616285D02*
X125182380Y-104616285D01*
X126182380Y-105187714D01*
X125182380Y-105187714D01*
X126182380Y-105663904D02*
X125182380Y-105663904D01*
X125182380Y-105902000D01*
X125230000Y-106044857D01*
X125325238Y-106140095D01*
X125420476Y-106187714D01*
X125610952Y-106235333D01*
X125753809Y-106235333D01*
X125944285Y-106187714D01*
X126039523Y-106140095D01*
X126134761Y-106044857D01*
X126182380Y-105902000D01*
X126182380Y-105663904D01*
X132580666Y-88098285D02*
X132771142Y-87431619D01*
X132961619Y-87907809D01*
X133152095Y-87431619D01*
X133342571Y-88098285D01*
X133723523Y-87431619D02*
X133723523Y-88098285D01*
X133723523Y-88431619D02*
X133675904Y-88384000D01*
X133723523Y-88336380D01*
X133771142Y-88384000D01*
X133723523Y-88431619D01*
X133723523Y-88336380D01*
X134199714Y-87431619D02*
X134199714Y-88098285D01*
X134199714Y-87907809D02*
X134247333Y-88003047D01*
X134294952Y-88050666D01*
X134390190Y-88098285D01*
X134485428Y-88098285D01*
X135199714Y-87479238D02*
X135104476Y-87431619D01*
X134914000Y-87431619D01*
X134818761Y-87479238D01*
X134771142Y-87574476D01*
X134771142Y-87955428D01*
X134818761Y-88050666D01*
X134914000Y-88098285D01*
X135104476Y-88098285D01*
X135199714Y-88050666D01*
X135247333Y-87955428D01*
X135247333Y-87860190D01*
X134771142Y-87764952D01*
X135533047Y-88098285D02*
X135914000Y-88098285D01*
X135675904Y-88431619D02*
X135675904Y-87574476D01*
X135723523Y-87479238D01*
X135818761Y-87431619D01*
X135914000Y-87431619D01*
X136675904Y-87431619D02*
X136675904Y-87955428D01*
X136628285Y-88050666D01*
X136533047Y-88098285D01*
X136342571Y-88098285D01*
X136247333Y-88050666D01*
X136675904Y-87479238D02*
X136580666Y-87431619D01*
X136342571Y-87431619D01*
X136247333Y-87479238D01*
X136199714Y-87574476D01*
X136199714Y-87669714D01*
X136247333Y-87764952D01*
X136342571Y-87812571D01*
X136580666Y-87812571D01*
X136675904Y-87860190D01*
X137152095Y-88098285D02*
X137152095Y-87098285D01*
X137152095Y-88050666D02*
X137247333Y-88098285D01*
X137437809Y-88098285D01*
X137533047Y-88050666D01*
X137580666Y-88003047D01*
X137628285Y-87907809D01*
X137628285Y-87622095D01*
X137580666Y-87526857D01*
X137533047Y-87479238D01*
X137437809Y-87431619D01*
X137247333Y-87431619D01*
X137152095Y-87479238D01*
X138771142Y-88336380D02*
X138818761Y-88384000D01*
X138914000Y-88431619D01*
X139152095Y-88431619D01*
X139247333Y-88384000D01*
X139294952Y-88336380D01*
X139342571Y-88241142D01*
X139342571Y-88145904D01*
X139294952Y-88003047D01*
X138723523Y-87431619D01*
X139342571Y-87431619D01*
X139961619Y-88431619D02*
X140056857Y-88431619D01*
X140152095Y-88384000D01*
X140199714Y-88336380D01*
X140247333Y-88241142D01*
X140294952Y-88050666D01*
X140294952Y-87812571D01*
X140247333Y-87622095D01*
X140199714Y-87526857D01*
X140152095Y-87479238D01*
X140056857Y-87431619D01*
X139961619Y-87431619D01*
X139866380Y-87479238D01*
X139818761Y-87526857D01*
X139771142Y-87622095D01*
X139723523Y-87812571D01*
X139723523Y-88050666D01*
X139771142Y-88241142D01*
X139818761Y-88336380D01*
X139866380Y-88384000D01*
X139961619Y-88431619D01*
X140675904Y-88336380D02*
X140723523Y-88384000D01*
X140818761Y-88431619D01*
X141056857Y-88431619D01*
X141152095Y-88384000D01*
X141199714Y-88336380D01*
X141247333Y-88241142D01*
X141247333Y-88145904D01*
X141199714Y-88003047D01*
X140628285Y-87431619D01*
X141247333Y-87431619D01*
X141628285Y-88336380D02*
X141675904Y-88384000D01*
X141771142Y-88431619D01*
X142009238Y-88431619D01*
X142104476Y-88384000D01*
X142152095Y-88336380D01*
X142199714Y-88241142D01*
X142199714Y-88145904D01*
X142152095Y-88003047D01*
X141580666Y-87431619D01*
X142199714Y-87431619D01*
X139541428Y-98258285D02*
X139779523Y-97591619D01*
X140017619Y-98258285D01*
X140589047Y-98591619D02*
X140684285Y-98591619D01*
X140779523Y-98544000D01*
X140827142Y-98496380D01*
X140874761Y-98401142D01*
X140922380Y-98210666D01*
X140922380Y-97972571D01*
X140874761Y-97782095D01*
X140827142Y-97686857D01*
X140779523Y-97639238D01*
X140684285Y-97591619D01*
X140589047Y-97591619D01*
X140493809Y-97639238D01*
X140446190Y-97686857D01*
X140398571Y-97782095D01*
X140350952Y-97972571D01*
X140350952Y-98210666D01*
X140398571Y-98401142D01*
X140446190Y-98496380D01*
X140493809Y-98544000D01*
X140589047Y-98591619D01*
X141350952Y-97686857D02*
X141398571Y-97639238D01*
X141350952Y-97591619D01*
X141303333Y-97639238D01*
X141350952Y-97686857D01*
X141350952Y-97591619D01*
X141731904Y-98591619D02*
X142350952Y-98591619D01*
X142017619Y-98210666D01*
X142160476Y-98210666D01*
X142255714Y-98163047D01*
X142303333Y-98115428D01*
X142350952Y-98020190D01*
X142350952Y-97782095D01*
X142303333Y-97686857D01*
X142255714Y-97639238D01*
X142160476Y-97591619D01*
X141874761Y-97591619D01*
X141779523Y-97639238D01*
X141731904Y-97686857D01*
D11*
X126683238Y-97647238D02*
X126683238Y-99647238D01*
X127445142Y-99647238D01*
X127635619Y-99552000D01*
X127730857Y-99456761D01*
X127826095Y-99266285D01*
X127826095Y-98980571D01*
X127730857Y-98790095D01*
X127635619Y-98694857D01*
X127445142Y-98599619D01*
X126683238Y-98599619D01*
X128683238Y-97647238D02*
X128683238Y-99647238D01*
X130778476Y-97837714D02*
X130683238Y-97742476D01*
X130397523Y-97647238D01*
X130207047Y-97647238D01*
X129921333Y-97742476D01*
X129730857Y-97932952D01*
X129635619Y-98123428D01*
X129540380Y-98504380D01*
X129540380Y-98790095D01*
X129635619Y-99171047D01*
X129730857Y-99361523D01*
X129921333Y-99552000D01*
X130207047Y-99647238D01*
X130397523Y-99647238D01*
X130683238Y-99552000D01*
X130778476Y-99456761D01*
X132016571Y-99647238D02*
X132397523Y-99647238D01*
X132588000Y-99552000D01*
X132778476Y-99361523D01*
X132873714Y-98980571D01*
X132873714Y-98313904D01*
X132778476Y-97932952D01*
X132588000Y-97742476D01*
X132397523Y-97647238D01*
X132016571Y-97647238D01*
X131826095Y-97742476D01*
X131635619Y-97932952D01*
X131540380Y-98313904D01*
X131540380Y-98980571D01*
X131635619Y-99361523D01*
X131826095Y-99552000D01*
X132016571Y-99647238D01*
X133730857Y-98409142D02*
X135254666Y-98409142D01*
X136111809Y-98218666D02*
X137064190Y-98218666D01*
X135921333Y-97647238D02*
X136588000Y-99647238D01*
X137254666Y-97647238D01*
X137635619Y-99647238D02*
X138778476Y-99647238D01*
X138207047Y-97647238D02*
X138207047Y-99647238D01*
D12*
%TO.C,C1*%
X122801000Y-113352000D02*
X129736000Y-113352000D01*
X122801000Y-116772000D02*
X122801000Y-113352000D01*
X129736000Y-116772000D02*
X122801000Y-116772000D01*
%TO.C,C2*%
X129736000Y-121090000D02*
X122801000Y-121090000D01*
X122801000Y-121090000D02*
X122801000Y-117670000D01*
X122801000Y-117670000D02*
X129736000Y-117670000D01*
%TO.C,-5V*%
X171203000Y-117912000D02*
X174063000Y-117912000D01*
X174063000Y-117912000D02*
X174063000Y-119832000D01*
X174063000Y-119832000D02*
X171203000Y-119832000D01*
%TO.C,5V*%
X168992000Y-119832000D02*
X166132000Y-119832000D01*
X168992000Y-117912000D02*
X168992000Y-119832000D01*
X166132000Y-117912000D02*
X168992000Y-117912000D01*
%TO.C,12V*%
X161052000Y-117912000D02*
X163912000Y-117912000D01*
X163912000Y-117912000D02*
X163912000Y-119832000D01*
X163912000Y-119832000D02*
X161052000Y-119832000D01*
%TO.C,PWR_OK*%
X158578000Y-119832000D02*
X155718000Y-119832000D01*
X158578000Y-117912000D02*
X158578000Y-119832000D01*
X155718000Y-117912000D02*
X158578000Y-117912000D01*
%TO.C,R1*%
X172464252Y-114860000D02*
X171941748Y-114860000D01*
X172464252Y-116280000D02*
X171941748Y-116280000D01*
%TO.C,R2*%
X167384252Y-116280000D02*
X166861748Y-116280000D01*
X167384252Y-114860000D02*
X166861748Y-114860000D01*
%TO.C,R3*%
X162313252Y-114860000D02*
X161790748Y-114860000D01*
X162313252Y-116280000D02*
X161790748Y-116280000D01*
%TO.C,R4*%
X156970252Y-116280000D02*
X156447748Y-116280000D01*
X156970252Y-114860000D02*
X156447748Y-114860000D01*
%TO.C,U1*%
X147948000Y-110958000D02*
X147948000Y-121198000D01*
X132058000Y-110958000D02*
X132058000Y-121198000D01*
X132058000Y-110958000D02*
X147948000Y-110958000D01*
X132058000Y-121198000D02*
X147948000Y-121198000D01*
X147948000Y-113538000D02*
X150488000Y-113538000D01*
X147948000Y-116078000D02*
X150488000Y-116078000D01*
X147948000Y-118618000D02*
X150488000Y-118618000D01*
%TO.C,C1*%
D10*
X126559333Y-114704857D02*
X126511714Y-114657238D01*
X126368857Y-114609619D01*
X126273619Y-114609619D01*
X126130761Y-114657238D01*
X126035523Y-114752476D01*
X125987904Y-114847714D01*
X125940285Y-115038190D01*
X125940285Y-115181047D01*
X125987904Y-115371523D01*
X126035523Y-115466761D01*
X126130761Y-115562000D01*
X126273619Y-115609619D01*
X126368857Y-115609619D01*
X126511714Y-115562000D01*
X126559333Y-115514380D01*
X127511714Y-114609619D02*
X126940285Y-114609619D01*
X127226000Y-114609619D02*
X127226000Y-115609619D01*
X127130761Y-115466761D01*
X127035523Y-115371523D01*
X126940285Y-115323904D01*
%TO.C,C2*%
X126569333Y-119022857D02*
X126521714Y-118975238D01*
X126378857Y-118927619D01*
X126283619Y-118927619D01*
X126140761Y-118975238D01*
X126045523Y-119070476D01*
X125997904Y-119165714D01*
X125950285Y-119356190D01*
X125950285Y-119499047D01*
X125997904Y-119689523D01*
X126045523Y-119784761D01*
X126140761Y-119880000D01*
X126283619Y-119927619D01*
X126378857Y-119927619D01*
X126521714Y-119880000D01*
X126569333Y-119832380D01*
X126950285Y-119832380D02*
X126997904Y-119880000D01*
X127093142Y-119927619D01*
X127331238Y-119927619D01*
X127426476Y-119880000D01*
X127474095Y-119832380D01*
X127521714Y-119737142D01*
X127521714Y-119641904D01*
X127474095Y-119499047D01*
X126902666Y-118927619D01*
X127521714Y-118927619D01*
%TO.C,-5V*%
X170917285Y-117150571D02*
X171679190Y-117150571D01*
X172631571Y-117769619D02*
X172155380Y-117769619D01*
X172107761Y-117293428D01*
X172155380Y-117341047D01*
X172250619Y-117388666D01*
X172488714Y-117388666D01*
X172583952Y-117341047D01*
X172631571Y-117293428D01*
X172679190Y-117198190D01*
X172679190Y-116960095D01*
X172631571Y-116864857D01*
X172583952Y-116817238D01*
X172488714Y-116769619D01*
X172250619Y-116769619D01*
X172155380Y-116817238D01*
X172107761Y-116864857D01*
X172964904Y-117769619D02*
X173298238Y-116769619D01*
X173631571Y-117769619D01*
%TO.C,5V*%
X166941523Y-117769619D02*
X166465333Y-117769619D01*
X166417714Y-117293428D01*
X166465333Y-117341047D01*
X166560571Y-117388666D01*
X166798666Y-117388666D01*
X166893904Y-117341047D01*
X166941523Y-117293428D01*
X166989142Y-117198190D01*
X166989142Y-116960095D01*
X166941523Y-116864857D01*
X166893904Y-116817238D01*
X166798666Y-116769619D01*
X166560571Y-116769619D01*
X166465333Y-116817238D01*
X166417714Y-116864857D01*
X167274857Y-117769619D02*
X167608190Y-116769619D01*
X167941523Y-117769619D01*
%TO.C,12V*%
X161432952Y-116769619D02*
X160861523Y-116769619D01*
X161147238Y-116769619D02*
X161147238Y-117769619D01*
X161052000Y-117626761D01*
X160956761Y-117531523D01*
X160861523Y-117483904D01*
X161813904Y-117674380D02*
X161861523Y-117722000D01*
X161956761Y-117769619D01*
X162194857Y-117769619D01*
X162290095Y-117722000D01*
X162337714Y-117674380D01*
X162385333Y-117579142D01*
X162385333Y-117483904D01*
X162337714Y-117341047D01*
X161766285Y-116769619D01*
X162385333Y-116769619D01*
X162671047Y-117769619D02*
X163004380Y-116769619D01*
X163337714Y-117769619D01*
%TO.C,PWR_OK*%
X153979904Y-116769619D02*
X153979904Y-117769619D01*
X154360857Y-117769619D01*
X154456095Y-117722000D01*
X154503714Y-117674380D01*
X154551333Y-117579142D01*
X154551333Y-117436285D01*
X154503714Y-117341047D01*
X154456095Y-117293428D01*
X154360857Y-117245809D01*
X153979904Y-117245809D01*
X154884666Y-117769619D02*
X155122761Y-116769619D01*
X155313238Y-117483904D01*
X155503714Y-116769619D01*
X155741809Y-117769619D01*
X156694190Y-116769619D02*
X156360857Y-117245809D01*
X156122761Y-116769619D02*
X156122761Y-117769619D01*
X156503714Y-117769619D01*
X156598952Y-117722000D01*
X156646571Y-117674380D01*
X156694190Y-117579142D01*
X156694190Y-117436285D01*
X156646571Y-117341047D01*
X156598952Y-117293428D01*
X156503714Y-117245809D01*
X156122761Y-117245809D01*
X156884666Y-116674380D02*
X157646571Y-116674380D01*
X158075142Y-117769619D02*
X158265619Y-117769619D01*
X158360857Y-117722000D01*
X158456095Y-117626761D01*
X158503714Y-117436285D01*
X158503714Y-117102952D01*
X158456095Y-116912476D01*
X158360857Y-116817238D01*
X158265619Y-116769619D01*
X158075142Y-116769619D01*
X157979904Y-116817238D01*
X157884666Y-116912476D01*
X157837047Y-117102952D01*
X157837047Y-117436285D01*
X157884666Y-117626761D01*
X157979904Y-117722000D01*
X158075142Y-117769619D01*
X158932285Y-116769619D02*
X158932285Y-117769619D01*
X159503714Y-116769619D02*
X159075142Y-117341047D01*
X159503714Y-117769619D02*
X158932285Y-117198190D01*
%TO.C,R1*%
X172036333Y-113467619D02*
X171703000Y-113943809D01*
X171464904Y-113467619D02*
X171464904Y-114467619D01*
X171845857Y-114467619D01*
X171941095Y-114420000D01*
X171988714Y-114372380D01*
X172036333Y-114277142D01*
X172036333Y-114134285D01*
X171988714Y-114039047D01*
X171941095Y-113991428D01*
X171845857Y-113943809D01*
X171464904Y-113943809D01*
X172988714Y-113467619D02*
X172417285Y-113467619D01*
X172703000Y-113467619D02*
X172703000Y-114467619D01*
X172607761Y-114324761D01*
X172512523Y-114229523D01*
X172417285Y-114181904D01*
%TO.C,R2*%
X166956333Y-113467619D02*
X166623000Y-113943809D01*
X166384904Y-113467619D02*
X166384904Y-114467619D01*
X166765857Y-114467619D01*
X166861095Y-114420000D01*
X166908714Y-114372380D01*
X166956333Y-114277142D01*
X166956333Y-114134285D01*
X166908714Y-114039047D01*
X166861095Y-113991428D01*
X166765857Y-113943809D01*
X166384904Y-113943809D01*
X167337285Y-114372380D02*
X167384904Y-114420000D01*
X167480142Y-114467619D01*
X167718238Y-114467619D01*
X167813476Y-114420000D01*
X167861095Y-114372380D01*
X167908714Y-114277142D01*
X167908714Y-114181904D01*
X167861095Y-114039047D01*
X167289666Y-113467619D01*
X167908714Y-113467619D01*
%TO.C,R3*%
X161885333Y-113467619D02*
X161552000Y-113943809D01*
X161313904Y-113467619D02*
X161313904Y-114467619D01*
X161694857Y-114467619D01*
X161790095Y-114420000D01*
X161837714Y-114372380D01*
X161885333Y-114277142D01*
X161885333Y-114134285D01*
X161837714Y-114039047D01*
X161790095Y-113991428D01*
X161694857Y-113943809D01*
X161313904Y-113943809D01*
X162218666Y-114467619D02*
X162837714Y-114467619D01*
X162504380Y-114086666D01*
X162647238Y-114086666D01*
X162742476Y-114039047D01*
X162790095Y-113991428D01*
X162837714Y-113896190D01*
X162837714Y-113658095D01*
X162790095Y-113562857D01*
X162742476Y-113515238D01*
X162647238Y-113467619D01*
X162361523Y-113467619D01*
X162266285Y-113515238D01*
X162218666Y-113562857D01*
%TO.C,R4*%
X156542333Y-113467619D02*
X156209000Y-113943809D01*
X155970904Y-113467619D02*
X155970904Y-114467619D01*
X156351857Y-114467619D01*
X156447095Y-114420000D01*
X156494714Y-114372380D01*
X156542333Y-114277142D01*
X156542333Y-114134285D01*
X156494714Y-114039047D01*
X156447095Y-113991428D01*
X156351857Y-113943809D01*
X155970904Y-113943809D01*
X157399476Y-114134285D02*
X157399476Y-113467619D01*
X157161380Y-114515238D02*
X156923285Y-113800952D01*
X157542333Y-113800952D01*
%TO.C,U1*%
X137374380Y-115316095D02*
X138183904Y-115316095D01*
X138279142Y-115363714D01*
X138326761Y-115411333D01*
X138374380Y-115506571D01*
X138374380Y-115697047D01*
X138326761Y-115792285D01*
X138279142Y-115839904D01*
X138183904Y-115887523D01*
X137374380Y-115887523D01*
X138374380Y-116887523D02*
X138374380Y-116316095D01*
X138374380Y-116601809D02*
X137374380Y-116601809D01*
X137517238Y-116506571D01*
X137612476Y-116411333D01*
X137660095Y-116316095D01*
%TD*%
M02*
