%TF.GenerationSoftware,KiCad,Pcbnew,(5.1.6)-1*%
%TF.CreationDate,2022-02-21T08:46:32-05:00*%
%TF.ProjectId,PICO-AT,5049434f-2d41-4542-9e6b-696361645f70,rev?*%
%TF.SameCoordinates,Original*%
%TF.FileFunction,Copper,L2,Inr*%
%TF.FilePolarity,Positive*%
%FSLAX46Y46*%
G04 Gerber Fmt 4.6, Leading zero omitted, Abs format (unit mm)*
G04 Created by KiCad (PCBNEW (5.1.6)-1) date 2022-02-21 08:46:32*
%MOMM*%
%LPD*%
G01*
G04 APERTURE LIST*
%TA.AperFunction,ViaPad*%
%ADD10C,2.280000*%
%TD*%
%TA.AperFunction,ViaPad*%
%ADD11R,2.150000X2.150000*%
%TD*%
%TA.AperFunction,ViaPad*%
%ADD12C,2.150000*%
%TD*%
%TA.AperFunction,ViaPad*%
%ADD13R,2.000000X1.905000*%
%TD*%
%TA.AperFunction,ViaPad*%
%ADD14O,2.000000X1.905000*%
%TD*%
%TA.AperFunction,ViaPad*%
%ADD15R,1.700000X1.700000*%
%TD*%
%TA.AperFunction,ViaPad*%
%ADD16O,1.700000X1.700000*%
%TD*%
%TA.AperFunction,ViaPad*%
%ADD17C,0.800000*%
%TD*%
%TA.AperFunction,Conductor*%
%ADD18C,0.254000*%
%TD*%
G04 APERTURE END LIST*
D10*
%TO.N,/GND*%
%TO.C,J1*%
X151130000Y-94488000D03*
X155090000Y-94488000D03*
%TO.N,/-12V*%
X159050000Y-94488000D03*
%TO.N,/12V*%
X163010000Y-94488000D03*
%TO.N,/5V*%
X166970000Y-94488000D03*
%TO.N,/PG*%
X170930000Y-94488000D03*
%TD*%
%TO.N,/GND*%
%TO.C,J2*%
X147308000Y-94488000D03*
X143348000Y-94488000D03*
%TO.N,/-5V*%
X139388000Y-94488000D03*
%TO.N,/5V*%
X135428000Y-94488000D03*
X131468000Y-94488000D03*
X127508000Y-94488000D03*
%TD*%
D11*
%TO.N,/3.3V*%
%TO.C,J3*%
X171958000Y-107696000D03*
D12*
X167758000Y-107696000D03*
%TO.N,/GND*%
X163558000Y-107696000D03*
%TO.N,/5V*%
X159358000Y-107696000D03*
%TO.N,/GND*%
X155158000Y-107696000D03*
%TO.N,/5V*%
X150958000Y-107696000D03*
%TO.N,/GND*%
X146758000Y-107696000D03*
%TO.N,/PG*%
X142558000Y-107696000D03*
%TO.N,/5VSB*%
X138358000Y-107696000D03*
%TO.N,/12V*%
X134158000Y-107696000D03*
X129958000Y-107696000D03*
%TO.N,/3.3V*%
X125758000Y-107696000D03*
X171958000Y-102196000D03*
%TO.N,/-12V*%
X167758000Y-102196000D03*
%TO.N,/GND*%
X163558000Y-102196000D03*
%TO.N,/PS-ON*%
X159358000Y-102196000D03*
%TO.N,/GND*%
X155158000Y-102196000D03*
X150958000Y-102196000D03*
X146758000Y-102196000D03*
%TO.N,Net-(J3-Pad20)*%
X142558000Y-102196000D03*
%TO.N,/5V*%
X138358000Y-102196000D03*
X134158000Y-102196000D03*
X129958000Y-102196000D03*
%TO.N,/GND*%
X125758000Y-102196000D03*
%TD*%
D13*
%TO.N,/GND*%
%TO.C,U1*%
X151638000Y-113538000D03*
D14*
%TO.N,/-12V*%
X151638000Y-116078000D03*
%TO.N,/-5V*%
X151638000Y-118618000D03*
%TD*%
D15*
%TO.N,/PS-ON*%
%TO.C,PWR*%
X158242000Y-98806000D03*
D16*
%TO.N,/GND*%
X155702000Y-98806000D03*
%TD*%
D17*
%TO.N,/12V*%
X163068000Y-113030000D03*
%TO.N,/5V*%
X168148000Y-111252000D03*
%TO.N,/PG*%
X166116000Y-104902000D03*
%TD*%
D18*
%TO.N,/5V*%
G36*
X172522000Y-97513795D02*
G01*
X172519813Y-97536000D01*
X172528540Y-97624607D01*
X172554386Y-97709810D01*
X172596357Y-97788333D01*
X172642825Y-97844954D01*
X172652841Y-97857159D01*
X172721667Y-97913643D01*
X172800190Y-97955614D01*
X172885393Y-97981460D01*
X172974000Y-97990187D01*
X172996205Y-97988000D01*
X174475892Y-97988000D01*
X174705800Y-98010542D01*
X174905678Y-98070889D01*
X175090039Y-98168916D01*
X175251839Y-98300876D01*
X175384932Y-98461759D01*
X175484240Y-98645425D01*
X175545981Y-98844878D01*
X175570001Y-99073411D01*
X175570000Y-121214000D01*
X122118000Y-121214000D01*
X122118000Y-115863584D01*
X132801000Y-115863584D01*
X132801000Y-116292416D01*
X132884660Y-116713008D01*
X133048767Y-117109196D01*
X133287013Y-117465757D01*
X133590243Y-117768987D01*
X133946804Y-118007233D01*
X134342992Y-118171340D01*
X134763584Y-118255000D01*
X135192416Y-118255000D01*
X135613008Y-118171340D01*
X136009196Y-118007233D01*
X136365757Y-117768987D01*
X136668987Y-117465757D01*
X136907233Y-117109196D01*
X137071340Y-116713008D01*
X137155000Y-116292416D01*
X137155000Y-116078000D01*
X150204326Y-116078000D01*
X150230961Y-116348429D01*
X150309842Y-116608466D01*
X150437938Y-116848117D01*
X150610327Y-117058173D01*
X150820383Y-117230562D01*
X151040094Y-117348000D01*
X150820383Y-117465438D01*
X150610327Y-117637827D01*
X150437938Y-117847883D01*
X150309842Y-118087534D01*
X150230961Y-118347571D01*
X150204326Y-118618000D01*
X150230961Y-118888429D01*
X150309842Y-119148466D01*
X150437938Y-119388117D01*
X150610327Y-119598173D01*
X150820383Y-119770562D01*
X151060034Y-119898658D01*
X151320071Y-119977539D01*
X151522738Y-119997500D01*
X151753262Y-119997500D01*
X151955929Y-119977539D01*
X152215966Y-119898658D01*
X152455617Y-119770562D01*
X152665673Y-119598173D01*
X152838062Y-119388117D01*
X152966158Y-119148466D01*
X153045039Y-118888429D01*
X153071674Y-118618000D01*
X153045039Y-118347571D01*
X152966158Y-118087534D01*
X152838062Y-117847883D01*
X152665673Y-117637827D01*
X152455617Y-117465438D01*
X152235906Y-117348000D01*
X152455617Y-117230562D01*
X152665673Y-117058173D01*
X152838062Y-116848117D01*
X152966158Y-116608466D01*
X153045039Y-116348429D01*
X153071674Y-116078000D01*
X153045039Y-115807571D01*
X152966158Y-115547534D01*
X152838062Y-115307883D01*
X152665673Y-115097827D01*
X152455617Y-114925438D01*
X152444631Y-114919566D01*
X152638000Y-114919566D01*
X152721707Y-114911322D01*
X152802196Y-114886905D01*
X152876376Y-114847255D01*
X152941395Y-114793895D01*
X152994755Y-114728876D01*
X153034405Y-114654696D01*
X153058822Y-114574207D01*
X153067066Y-114490500D01*
X153067066Y-112948548D01*
X162241000Y-112948548D01*
X162241000Y-113111452D01*
X162272782Y-113271227D01*
X162335123Y-113421731D01*
X162425628Y-113557181D01*
X162540819Y-113672372D01*
X162676269Y-113762877D01*
X162826773Y-113825218D01*
X162986548Y-113857000D01*
X163149452Y-113857000D01*
X163309227Y-113825218D01*
X163459731Y-113762877D01*
X163595181Y-113672372D01*
X163710372Y-113557181D01*
X163800877Y-113421731D01*
X163863218Y-113271227D01*
X163895000Y-113111452D01*
X163895000Y-112948548D01*
X163863218Y-112788773D01*
X163800877Y-112638269D01*
X163710372Y-112502819D01*
X163595181Y-112387628D01*
X163459731Y-112297123D01*
X163309227Y-112234782D01*
X163149452Y-112203000D01*
X162986548Y-112203000D01*
X162826773Y-112234782D01*
X162676269Y-112297123D01*
X162540819Y-112387628D01*
X162425628Y-112502819D01*
X162335123Y-112638269D01*
X162272782Y-112788773D01*
X162241000Y-112948548D01*
X153067066Y-112948548D01*
X153067066Y-112585500D01*
X153058822Y-112501793D01*
X153034405Y-112421304D01*
X152994755Y-112347124D01*
X152941395Y-112282105D01*
X152876376Y-112228745D01*
X152802196Y-112189095D01*
X152721707Y-112164678D01*
X152638000Y-112156434D01*
X150638000Y-112156434D01*
X150554293Y-112164678D01*
X150473804Y-112189095D01*
X150399624Y-112228745D01*
X150334605Y-112282105D01*
X150281245Y-112347124D01*
X150241595Y-112421304D01*
X150217178Y-112501793D01*
X150208934Y-112585500D01*
X150208934Y-114490500D01*
X150217178Y-114574207D01*
X150241595Y-114654696D01*
X150281245Y-114728876D01*
X150334605Y-114793895D01*
X150399624Y-114847255D01*
X150473804Y-114886905D01*
X150554293Y-114911322D01*
X150638000Y-114919566D01*
X150831369Y-114919566D01*
X150820383Y-114925438D01*
X150610327Y-115097827D01*
X150437938Y-115307883D01*
X150309842Y-115547534D01*
X150230961Y-115807571D01*
X150204326Y-116078000D01*
X137155000Y-116078000D01*
X137155000Y-115863584D01*
X137071340Y-115442992D01*
X136907233Y-115046804D01*
X136668987Y-114690243D01*
X136365757Y-114387013D01*
X136009196Y-114148767D01*
X135613008Y-113984660D01*
X135192416Y-113901000D01*
X134763584Y-113901000D01*
X134342992Y-113984660D01*
X133946804Y-114148767D01*
X133590243Y-114387013D01*
X133287013Y-114690243D01*
X133048767Y-115046804D01*
X132884660Y-115442992D01*
X132801000Y-115863584D01*
X122118000Y-115863584D01*
X122118000Y-107548066D01*
X124256000Y-107548066D01*
X124256000Y-107843934D01*
X124313721Y-108134117D01*
X124426944Y-108407464D01*
X124591320Y-108653469D01*
X124800531Y-108862680D01*
X125046536Y-109027056D01*
X125319883Y-109140279D01*
X125610066Y-109198000D01*
X125905934Y-109198000D01*
X126196117Y-109140279D01*
X126469464Y-109027056D01*
X126715469Y-108862680D01*
X126924680Y-108653469D01*
X127089056Y-108407464D01*
X127202279Y-108134117D01*
X127260000Y-107843934D01*
X127260000Y-107548066D01*
X128456000Y-107548066D01*
X128456000Y-107843934D01*
X128513721Y-108134117D01*
X128626944Y-108407464D01*
X128791320Y-108653469D01*
X129000531Y-108862680D01*
X129246536Y-109027056D01*
X129519883Y-109140279D01*
X129810066Y-109198000D01*
X130105934Y-109198000D01*
X130396117Y-109140279D01*
X130669464Y-109027056D01*
X130915469Y-108862680D01*
X131124680Y-108653469D01*
X131289056Y-108407464D01*
X131402279Y-108134117D01*
X131460000Y-107843934D01*
X131460000Y-107548066D01*
X132656000Y-107548066D01*
X132656000Y-107843934D01*
X132713721Y-108134117D01*
X132826944Y-108407464D01*
X132991320Y-108653469D01*
X133200531Y-108862680D01*
X133446536Y-109027056D01*
X133719883Y-109140279D01*
X134010066Y-109198000D01*
X134305934Y-109198000D01*
X134596117Y-109140279D01*
X134869464Y-109027056D01*
X135115469Y-108862680D01*
X135324680Y-108653469D01*
X135489056Y-108407464D01*
X135602279Y-108134117D01*
X135660000Y-107843934D01*
X135660000Y-107548066D01*
X136856000Y-107548066D01*
X136856000Y-107843934D01*
X136913721Y-108134117D01*
X137026944Y-108407464D01*
X137191320Y-108653469D01*
X137400531Y-108862680D01*
X137646536Y-109027056D01*
X137919883Y-109140279D01*
X138210066Y-109198000D01*
X138505934Y-109198000D01*
X138796117Y-109140279D01*
X139069464Y-109027056D01*
X139315469Y-108862680D01*
X139524680Y-108653469D01*
X139689056Y-108407464D01*
X139802279Y-108134117D01*
X139860000Y-107843934D01*
X139860000Y-107548066D01*
X141056000Y-107548066D01*
X141056000Y-107843934D01*
X141113721Y-108134117D01*
X141226944Y-108407464D01*
X141391320Y-108653469D01*
X141600531Y-108862680D01*
X141846536Y-109027056D01*
X142119883Y-109140279D01*
X142410066Y-109198000D01*
X142705934Y-109198000D01*
X142996117Y-109140279D01*
X143269464Y-109027056D01*
X143515469Y-108862680D01*
X143724680Y-108653469D01*
X143889056Y-108407464D01*
X144002279Y-108134117D01*
X144060000Y-107843934D01*
X144060000Y-107548066D01*
X145256000Y-107548066D01*
X145256000Y-107843934D01*
X145313721Y-108134117D01*
X145426944Y-108407464D01*
X145591320Y-108653469D01*
X145800531Y-108862680D01*
X146046536Y-109027056D01*
X146319883Y-109140279D01*
X146610066Y-109198000D01*
X146905934Y-109198000D01*
X147196117Y-109140279D01*
X147469464Y-109027056D01*
X147569700Y-108960080D01*
X150044645Y-108960080D01*
X150159235Y-109217329D01*
X150471380Y-109343929D01*
X150802225Y-109407199D01*
X151139057Y-109404709D01*
X151468931Y-109336553D01*
X151756765Y-109217329D01*
X151871355Y-108960080D01*
X150958000Y-108046725D01*
X150044645Y-108960080D01*
X147569700Y-108960080D01*
X147715469Y-108862680D01*
X147924680Y-108653469D01*
X148089056Y-108407464D01*
X148202279Y-108134117D01*
X148260000Y-107843934D01*
X148260000Y-107548066D01*
X148258441Y-107540225D01*
X149246801Y-107540225D01*
X149249291Y-107877057D01*
X149317447Y-108206931D01*
X149436671Y-108494765D01*
X149693920Y-108609355D01*
X150607275Y-107696000D01*
X151308725Y-107696000D01*
X152222080Y-108609355D01*
X152479329Y-108494765D01*
X152605929Y-108182620D01*
X152669199Y-107851775D01*
X152666954Y-107548066D01*
X153656000Y-107548066D01*
X153656000Y-107843934D01*
X153713721Y-108134117D01*
X153826944Y-108407464D01*
X153991320Y-108653469D01*
X154200531Y-108862680D01*
X154446536Y-109027056D01*
X154719883Y-109140279D01*
X155010066Y-109198000D01*
X155305934Y-109198000D01*
X155596117Y-109140279D01*
X155869464Y-109027056D01*
X155969700Y-108960080D01*
X158444645Y-108960080D01*
X158559235Y-109217329D01*
X158871380Y-109343929D01*
X159202225Y-109407199D01*
X159539057Y-109404709D01*
X159868931Y-109336553D01*
X160156765Y-109217329D01*
X160271355Y-108960080D01*
X159358000Y-108046725D01*
X158444645Y-108960080D01*
X155969700Y-108960080D01*
X156115469Y-108862680D01*
X156324680Y-108653469D01*
X156489056Y-108407464D01*
X156602279Y-108134117D01*
X156660000Y-107843934D01*
X156660000Y-107548066D01*
X156658441Y-107540225D01*
X157646801Y-107540225D01*
X157649291Y-107877057D01*
X157717447Y-108206931D01*
X157836671Y-108494765D01*
X158093920Y-108609355D01*
X159007275Y-107696000D01*
X159708725Y-107696000D01*
X160622080Y-108609355D01*
X160879329Y-108494765D01*
X161005929Y-108182620D01*
X161069199Y-107851775D01*
X161066954Y-107548066D01*
X162056000Y-107548066D01*
X162056000Y-107843934D01*
X162113721Y-108134117D01*
X162226944Y-108407464D01*
X162391320Y-108653469D01*
X162600531Y-108862680D01*
X162846536Y-109027056D01*
X163119883Y-109140279D01*
X163410066Y-109198000D01*
X163705934Y-109198000D01*
X163996117Y-109140279D01*
X164269464Y-109027056D01*
X164515469Y-108862680D01*
X164724680Y-108653469D01*
X164889056Y-108407464D01*
X165002279Y-108134117D01*
X165060000Y-107843934D01*
X165060000Y-107548066D01*
X166256000Y-107548066D01*
X166256000Y-107843934D01*
X166313721Y-108134117D01*
X166426944Y-108407464D01*
X166591320Y-108653469D01*
X166800531Y-108862680D01*
X167046536Y-109027056D01*
X167319883Y-109140279D01*
X167610066Y-109198000D01*
X167905934Y-109198000D01*
X168196117Y-109140279D01*
X168469464Y-109027056D01*
X168715469Y-108862680D01*
X168924680Y-108653469D01*
X169089056Y-108407464D01*
X169202279Y-108134117D01*
X169260000Y-107843934D01*
X169260000Y-107548066D01*
X169202279Y-107257883D01*
X169089056Y-106984536D01*
X168924680Y-106738531D01*
X168807149Y-106621000D01*
X170453934Y-106621000D01*
X170453934Y-108771000D01*
X170462178Y-108854707D01*
X170486595Y-108935196D01*
X170526245Y-109009376D01*
X170579605Y-109074395D01*
X170644624Y-109127755D01*
X170718804Y-109167405D01*
X170799293Y-109191822D01*
X170883000Y-109200066D01*
X173033000Y-109200066D01*
X173116707Y-109191822D01*
X173197196Y-109167405D01*
X173271376Y-109127755D01*
X173336395Y-109074395D01*
X173389755Y-109009376D01*
X173429405Y-108935196D01*
X173453822Y-108854707D01*
X173462066Y-108771000D01*
X173462066Y-106621000D01*
X173453822Y-106537293D01*
X173429405Y-106456804D01*
X173389755Y-106382624D01*
X173336395Y-106317605D01*
X173271376Y-106264245D01*
X173197196Y-106224595D01*
X173116707Y-106200178D01*
X173033000Y-106191934D01*
X170883000Y-106191934D01*
X170799293Y-106200178D01*
X170718804Y-106224595D01*
X170644624Y-106264245D01*
X170579605Y-106317605D01*
X170526245Y-106382624D01*
X170486595Y-106456804D01*
X170462178Y-106537293D01*
X170453934Y-106621000D01*
X168807149Y-106621000D01*
X168715469Y-106529320D01*
X168469464Y-106364944D01*
X168196117Y-106251721D01*
X167905934Y-106194000D01*
X167610066Y-106194000D01*
X167319883Y-106251721D01*
X167046536Y-106364944D01*
X166800531Y-106529320D01*
X166591320Y-106738531D01*
X166426944Y-106984536D01*
X166313721Y-107257883D01*
X166256000Y-107548066D01*
X165060000Y-107548066D01*
X165002279Y-107257883D01*
X164889056Y-106984536D01*
X164724680Y-106738531D01*
X164515469Y-106529320D01*
X164269464Y-106364944D01*
X163996117Y-106251721D01*
X163705934Y-106194000D01*
X163410066Y-106194000D01*
X163119883Y-106251721D01*
X162846536Y-106364944D01*
X162600531Y-106529320D01*
X162391320Y-106738531D01*
X162226944Y-106984536D01*
X162113721Y-107257883D01*
X162056000Y-107548066D01*
X161066954Y-107548066D01*
X161066709Y-107514943D01*
X160998553Y-107185069D01*
X160879329Y-106897235D01*
X160622080Y-106782645D01*
X159708725Y-107696000D01*
X159007275Y-107696000D01*
X158093920Y-106782645D01*
X157836671Y-106897235D01*
X157710071Y-107209380D01*
X157646801Y-107540225D01*
X156658441Y-107540225D01*
X156602279Y-107257883D01*
X156489056Y-106984536D01*
X156324680Y-106738531D01*
X156115469Y-106529320D01*
X155969701Y-106431920D01*
X158444645Y-106431920D01*
X159358000Y-107345275D01*
X160271355Y-106431920D01*
X160156765Y-106174671D01*
X159844620Y-106048071D01*
X159513775Y-105984801D01*
X159176943Y-105987291D01*
X158847069Y-106055447D01*
X158559235Y-106174671D01*
X158444645Y-106431920D01*
X155969701Y-106431920D01*
X155869464Y-106364944D01*
X155596117Y-106251721D01*
X155305934Y-106194000D01*
X155010066Y-106194000D01*
X154719883Y-106251721D01*
X154446536Y-106364944D01*
X154200531Y-106529320D01*
X153991320Y-106738531D01*
X153826944Y-106984536D01*
X153713721Y-107257883D01*
X153656000Y-107548066D01*
X152666954Y-107548066D01*
X152666709Y-107514943D01*
X152598553Y-107185069D01*
X152479329Y-106897235D01*
X152222080Y-106782645D01*
X151308725Y-107696000D01*
X150607275Y-107696000D01*
X149693920Y-106782645D01*
X149436671Y-106897235D01*
X149310071Y-107209380D01*
X149246801Y-107540225D01*
X148258441Y-107540225D01*
X148202279Y-107257883D01*
X148089056Y-106984536D01*
X147924680Y-106738531D01*
X147715469Y-106529320D01*
X147569701Y-106431920D01*
X150044645Y-106431920D01*
X150958000Y-107345275D01*
X151871355Y-106431920D01*
X151756765Y-106174671D01*
X151444620Y-106048071D01*
X151113775Y-105984801D01*
X150776943Y-105987291D01*
X150447069Y-106055447D01*
X150159235Y-106174671D01*
X150044645Y-106431920D01*
X147569701Y-106431920D01*
X147469464Y-106364944D01*
X147196117Y-106251721D01*
X146905934Y-106194000D01*
X146610066Y-106194000D01*
X146319883Y-106251721D01*
X146046536Y-106364944D01*
X145800531Y-106529320D01*
X145591320Y-106738531D01*
X145426944Y-106984536D01*
X145313721Y-107257883D01*
X145256000Y-107548066D01*
X144060000Y-107548066D01*
X144002279Y-107257883D01*
X143889056Y-106984536D01*
X143724680Y-106738531D01*
X143515469Y-106529320D01*
X143269464Y-106364944D01*
X142996117Y-106251721D01*
X142705934Y-106194000D01*
X142410066Y-106194000D01*
X142119883Y-106251721D01*
X141846536Y-106364944D01*
X141600531Y-106529320D01*
X141391320Y-106738531D01*
X141226944Y-106984536D01*
X141113721Y-107257883D01*
X141056000Y-107548066D01*
X139860000Y-107548066D01*
X139802279Y-107257883D01*
X139689056Y-106984536D01*
X139524680Y-106738531D01*
X139315469Y-106529320D01*
X139069464Y-106364944D01*
X138796117Y-106251721D01*
X138505934Y-106194000D01*
X138210066Y-106194000D01*
X137919883Y-106251721D01*
X137646536Y-106364944D01*
X137400531Y-106529320D01*
X137191320Y-106738531D01*
X137026944Y-106984536D01*
X136913721Y-107257883D01*
X136856000Y-107548066D01*
X135660000Y-107548066D01*
X135602279Y-107257883D01*
X135489056Y-106984536D01*
X135324680Y-106738531D01*
X135115469Y-106529320D01*
X134869464Y-106364944D01*
X134596117Y-106251721D01*
X134305934Y-106194000D01*
X134010066Y-106194000D01*
X133719883Y-106251721D01*
X133446536Y-106364944D01*
X133200531Y-106529320D01*
X132991320Y-106738531D01*
X132826944Y-106984536D01*
X132713721Y-107257883D01*
X132656000Y-107548066D01*
X131460000Y-107548066D01*
X131402279Y-107257883D01*
X131289056Y-106984536D01*
X131124680Y-106738531D01*
X130915469Y-106529320D01*
X130669464Y-106364944D01*
X130396117Y-106251721D01*
X130105934Y-106194000D01*
X129810066Y-106194000D01*
X129519883Y-106251721D01*
X129246536Y-106364944D01*
X129000531Y-106529320D01*
X128791320Y-106738531D01*
X128626944Y-106984536D01*
X128513721Y-107257883D01*
X128456000Y-107548066D01*
X127260000Y-107548066D01*
X127202279Y-107257883D01*
X127089056Y-106984536D01*
X126924680Y-106738531D01*
X126715469Y-106529320D01*
X126469464Y-106364944D01*
X126196117Y-106251721D01*
X125905934Y-106194000D01*
X125610066Y-106194000D01*
X125319883Y-106251721D01*
X125046536Y-106364944D01*
X124800531Y-106529320D01*
X124591320Y-106738531D01*
X124426944Y-106984536D01*
X124313721Y-107257883D01*
X124256000Y-107548066D01*
X122118000Y-107548066D01*
X122118000Y-104820548D01*
X165289000Y-104820548D01*
X165289000Y-104983452D01*
X165320782Y-105143227D01*
X165383123Y-105293731D01*
X165473628Y-105429181D01*
X165588819Y-105544372D01*
X165724269Y-105634877D01*
X165874773Y-105697218D01*
X166034548Y-105729000D01*
X166197452Y-105729000D01*
X166357227Y-105697218D01*
X166507731Y-105634877D01*
X166643181Y-105544372D01*
X166758372Y-105429181D01*
X166848877Y-105293731D01*
X166911218Y-105143227D01*
X166943000Y-104983452D01*
X166943000Y-104820548D01*
X166911218Y-104660773D01*
X166848877Y-104510269D01*
X166758372Y-104374819D01*
X166643181Y-104259628D01*
X166507731Y-104169123D01*
X166357227Y-104106782D01*
X166197452Y-104075000D01*
X166034548Y-104075000D01*
X165874773Y-104106782D01*
X165724269Y-104169123D01*
X165588819Y-104259628D01*
X165473628Y-104374819D01*
X165383123Y-104510269D01*
X165320782Y-104660773D01*
X165289000Y-104820548D01*
X122118000Y-104820548D01*
X122118000Y-102048066D01*
X124256000Y-102048066D01*
X124256000Y-102343934D01*
X124313721Y-102634117D01*
X124426944Y-102907464D01*
X124591320Y-103153469D01*
X124800531Y-103362680D01*
X125046536Y-103527056D01*
X125319883Y-103640279D01*
X125610066Y-103698000D01*
X125905934Y-103698000D01*
X126196117Y-103640279D01*
X126469464Y-103527056D01*
X126569700Y-103460080D01*
X129044645Y-103460080D01*
X129159235Y-103717329D01*
X129471380Y-103843929D01*
X129802225Y-103907199D01*
X130139057Y-103904709D01*
X130468931Y-103836553D01*
X130756765Y-103717329D01*
X130871355Y-103460080D01*
X133244645Y-103460080D01*
X133359235Y-103717329D01*
X133671380Y-103843929D01*
X134002225Y-103907199D01*
X134339057Y-103904709D01*
X134668931Y-103836553D01*
X134956765Y-103717329D01*
X135071355Y-103460080D01*
X137444645Y-103460080D01*
X137559235Y-103717329D01*
X137871380Y-103843929D01*
X138202225Y-103907199D01*
X138539057Y-103904709D01*
X138868931Y-103836553D01*
X139156765Y-103717329D01*
X139271355Y-103460080D01*
X138358000Y-102546725D01*
X137444645Y-103460080D01*
X135071355Y-103460080D01*
X134158000Y-102546725D01*
X133244645Y-103460080D01*
X130871355Y-103460080D01*
X129958000Y-102546725D01*
X129044645Y-103460080D01*
X126569700Y-103460080D01*
X126715469Y-103362680D01*
X126924680Y-103153469D01*
X127089056Y-102907464D01*
X127202279Y-102634117D01*
X127260000Y-102343934D01*
X127260000Y-102048066D01*
X127258441Y-102040225D01*
X128246801Y-102040225D01*
X128249291Y-102377057D01*
X128317447Y-102706931D01*
X128436671Y-102994765D01*
X128693920Y-103109355D01*
X129607275Y-102196000D01*
X130308725Y-102196000D01*
X131222080Y-103109355D01*
X131479329Y-102994765D01*
X131605929Y-102682620D01*
X131669199Y-102351775D01*
X131666896Y-102040225D01*
X132446801Y-102040225D01*
X132449291Y-102377057D01*
X132517447Y-102706931D01*
X132636671Y-102994765D01*
X132893920Y-103109355D01*
X133807275Y-102196000D01*
X134508725Y-102196000D01*
X135422080Y-103109355D01*
X135679329Y-102994765D01*
X135805929Y-102682620D01*
X135869199Y-102351775D01*
X135866896Y-102040225D01*
X136646801Y-102040225D01*
X136649291Y-102377057D01*
X136717447Y-102706931D01*
X136836671Y-102994765D01*
X137093920Y-103109355D01*
X138007275Y-102196000D01*
X138708725Y-102196000D01*
X139622080Y-103109355D01*
X139879329Y-102994765D01*
X140005929Y-102682620D01*
X140069199Y-102351775D01*
X140066954Y-102048066D01*
X141056000Y-102048066D01*
X141056000Y-102343934D01*
X141113721Y-102634117D01*
X141226944Y-102907464D01*
X141391320Y-103153469D01*
X141600531Y-103362680D01*
X141846536Y-103527056D01*
X142119883Y-103640279D01*
X142410066Y-103698000D01*
X142705934Y-103698000D01*
X142996117Y-103640279D01*
X143269464Y-103527056D01*
X143515469Y-103362680D01*
X143724680Y-103153469D01*
X143889056Y-102907464D01*
X144002279Y-102634117D01*
X144060000Y-102343934D01*
X144060000Y-102048066D01*
X145256000Y-102048066D01*
X145256000Y-102343934D01*
X145313721Y-102634117D01*
X145426944Y-102907464D01*
X145591320Y-103153469D01*
X145800531Y-103362680D01*
X146046536Y-103527056D01*
X146319883Y-103640279D01*
X146610066Y-103698000D01*
X146905934Y-103698000D01*
X147196117Y-103640279D01*
X147469464Y-103527056D01*
X147715469Y-103362680D01*
X147924680Y-103153469D01*
X148089056Y-102907464D01*
X148202279Y-102634117D01*
X148260000Y-102343934D01*
X148260000Y-102048066D01*
X149456000Y-102048066D01*
X149456000Y-102343934D01*
X149513721Y-102634117D01*
X149626944Y-102907464D01*
X149791320Y-103153469D01*
X150000531Y-103362680D01*
X150246536Y-103527056D01*
X150519883Y-103640279D01*
X150810066Y-103698000D01*
X151105934Y-103698000D01*
X151396117Y-103640279D01*
X151669464Y-103527056D01*
X151915469Y-103362680D01*
X152124680Y-103153469D01*
X152289056Y-102907464D01*
X152402279Y-102634117D01*
X152460000Y-102343934D01*
X152460000Y-102048066D01*
X153656000Y-102048066D01*
X153656000Y-102343934D01*
X153713721Y-102634117D01*
X153826944Y-102907464D01*
X153991320Y-103153469D01*
X154200531Y-103362680D01*
X154446536Y-103527056D01*
X154719883Y-103640279D01*
X155010066Y-103698000D01*
X155305934Y-103698000D01*
X155596117Y-103640279D01*
X155869464Y-103527056D01*
X156115469Y-103362680D01*
X156324680Y-103153469D01*
X156489056Y-102907464D01*
X156602279Y-102634117D01*
X156660000Y-102343934D01*
X156660000Y-102048066D01*
X157856000Y-102048066D01*
X157856000Y-102343934D01*
X157913721Y-102634117D01*
X158026944Y-102907464D01*
X158191320Y-103153469D01*
X158400531Y-103362680D01*
X158646536Y-103527056D01*
X158919883Y-103640279D01*
X159210066Y-103698000D01*
X159505934Y-103698000D01*
X159796117Y-103640279D01*
X160069464Y-103527056D01*
X160315469Y-103362680D01*
X160524680Y-103153469D01*
X160689056Y-102907464D01*
X160802279Y-102634117D01*
X160860000Y-102343934D01*
X160860000Y-102048066D01*
X162056000Y-102048066D01*
X162056000Y-102343934D01*
X162113721Y-102634117D01*
X162226944Y-102907464D01*
X162391320Y-103153469D01*
X162600531Y-103362680D01*
X162846536Y-103527056D01*
X163119883Y-103640279D01*
X163410066Y-103698000D01*
X163705934Y-103698000D01*
X163996117Y-103640279D01*
X164269464Y-103527056D01*
X164515469Y-103362680D01*
X164724680Y-103153469D01*
X164889056Y-102907464D01*
X165002279Y-102634117D01*
X165060000Y-102343934D01*
X165060000Y-102048066D01*
X166256000Y-102048066D01*
X166256000Y-102343934D01*
X166313721Y-102634117D01*
X166426944Y-102907464D01*
X166591320Y-103153469D01*
X166800531Y-103362680D01*
X167046536Y-103527056D01*
X167319883Y-103640279D01*
X167610066Y-103698000D01*
X167905934Y-103698000D01*
X168196117Y-103640279D01*
X168469464Y-103527056D01*
X168715469Y-103362680D01*
X168924680Y-103153469D01*
X169089056Y-102907464D01*
X169202279Y-102634117D01*
X169260000Y-102343934D01*
X169260000Y-102048066D01*
X170456000Y-102048066D01*
X170456000Y-102343934D01*
X170513721Y-102634117D01*
X170626944Y-102907464D01*
X170791320Y-103153469D01*
X171000531Y-103362680D01*
X171246536Y-103527056D01*
X171519883Y-103640279D01*
X171810066Y-103698000D01*
X172105934Y-103698000D01*
X172396117Y-103640279D01*
X172669464Y-103527056D01*
X172915469Y-103362680D01*
X173124680Y-103153469D01*
X173289056Y-102907464D01*
X173402279Y-102634117D01*
X173460000Y-102343934D01*
X173460000Y-102048066D01*
X173402279Y-101757883D01*
X173289056Y-101484536D01*
X173124680Y-101238531D01*
X172915469Y-101029320D01*
X172669464Y-100864944D01*
X172396117Y-100751721D01*
X172105934Y-100694000D01*
X171810066Y-100694000D01*
X171519883Y-100751721D01*
X171246536Y-100864944D01*
X171000531Y-101029320D01*
X170791320Y-101238531D01*
X170626944Y-101484536D01*
X170513721Y-101757883D01*
X170456000Y-102048066D01*
X169260000Y-102048066D01*
X169202279Y-101757883D01*
X169089056Y-101484536D01*
X168924680Y-101238531D01*
X168715469Y-101029320D01*
X168469464Y-100864944D01*
X168196117Y-100751721D01*
X167905934Y-100694000D01*
X167610066Y-100694000D01*
X167319883Y-100751721D01*
X167046536Y-100864944D01*
X166800531Y-101029320D01*
X166591320Y-101238531D01*
X166426944Y-101484536D01*
X166313721Y-101757883D01*
X166256000Y-102048066D01*
X165060000Y-102048066D01*
X165002279Y-101757883D01*
X164889056Y-101484536D01*
X164724680Y-101238531D01*
X164515469Y-101029320D01*
X164269464Y-100864944D01*
X163996117Y-100751721D01*
X163705934Y-100694000D01*
X163410066Y-100694000D01*
X163119883Y-100751721D01*
X162846536Y-100864944D01*
X162600531Y-101029320D01*
X162391320Y-101238531D01*
X162226944Y-101484536D01*
X162113721Y-101757883D01*
X162056000Y-102048066D01*
X160860000Y-102048066D01*
X160802279Y-101757883D01*
X160689056Y-101484536D01*
X160524680Y-101238531D01*
X160315469Y-101029320D01*
X160069464Y-100864944D01*
X159796117Y-100751721D01*
X159505934Y-100694000D01*
X159210066Y-100694000D01*
X158919883Y-100751721D01*
X158646536Y-100864944D01*
X158400531Y-101029320D01*
X158191320Y-101238531D01*
X158026944Y-101484536D01*
X157913721Y-101757883D01*
X157856000Y-102048066D01*
X156660000Y-102048066D01*
X156602279Y-101757883D01*
X156489056Y-101484536D01*
X156324680Y-101238531D01*
X156115469Y-101029320D01*
X155869464Y-100864944D01*
X155596117Y-100751721D01*
X155305934Y-100694000D01*
X155010066Y-100694000D01*
X154719883Y-100751721D01*
X154446536Y-100864944D01*
X154200531Y-101029320D01*
X153991320Y-101238531D01*
X153826944Y-101484536D01*
X153713721Y-101757883D01*
X153656000Y-102048066D01*
X152460000Y-102048066D01*
X152402279Y-101757883D01*
X152289056Y-101484536D01*
X152124680Y-101238531D01*
X151915469Y-101029320D01*
X151669464Y-100864944D01*
X151396117Y-100751721D01*
X151105934Y-100694000D01*
X150810066Y-100694000D01*
X150519883Y-100751721D01*
X150246536Y-100864944D01*
X150000531Y-101029320D01*
X149791320Y-101238531D01*
X149626944Y-101484536D01*
X149513721Y-101757883D01*
X149456000Y-102048066D01*
X148260000Y-102048066D01*
X148202279Y-101757883D01*
X148089056Y-101484536D01*
X147924680Y-101238531D01*
X147715469Y-101029320D01*
X147469464Y-100864944D01*
X147196117Y-100751721D01*
X146905934Y-100694000D01*
X146610066Y-100694000D01*
X146319883Y-100751721D01*
X146046536Y-100864944D01*
X145800531Y-101029320D01*
X145591320Y-101238531D01*
X145426944Y-101484536D01*
X145313721Y-101757883D01*
X145256000Y-102048066D01*
X144060000Y-102048066D01*
X144002279Y-101757883D01*
X143889056Y-101484536D01*
X143724680Y-101238531D01*
X143515469Y-101029320D01*
X143269464Y-100864944D01*
X142996117Y-100751721D01*
X142705934Y-100694000D01*
X142410066Y-100694000D01*
X142119883Y-100751721D01*
X141846536Y-100864944D01*
X141600531Y-101029320D01*
X141391320Y-101238531D01*
X141226944Y-101484536D01*
X141113721Y-101757883D01*
X141056000Y-102048066D01*
X140066954Y-102048066D01*
X140066709Y-102014943D01*
X139998553Y-101685069D01*
X139879329Y-101397235D01*
X139622080Y-101282645D01*
X138708725Y-102196000D01*
X138007275Y-102196000D01*
X137093920Y-101282645D01*
X136836671Y-101397235D01*
X136710071Y-101709380D01*
X136646801Y-102040225D01*
X135866896Y-102040225D01*
X135866709Y-102014943D01*
X135798553Y-101685069D01*
X135679329Y-101397235D01*
X135422080Y-101282645D01*
X134508725Y-102196000D01*
X133807275Y-102196000D01*
X132893920Y-101282645D01*
X132636671Y-101397235D01*
X132510071Y-101709380D01*
X132446801Y-102040225D01*
X131666896Y-102040225D01*
X131666709Y-102014943D01*
X131598553Y-101685069D01*
X131479329Y-101397235D01*
X131222080Y-101282645D01*
X130308725Y-102196000D01*
X129607275Y-102196000D01*
X128693920Y-101282645D01*
X128436671Y-101397235D01*
X128310071Y-101709380D01*
X128246801Y-102040225D01*
X127258441Y-102040225D01*
X127202279Y-101757883D01*
X127089056Y-101484536D01*
X126924680Y-101238531D01*
X126715469Y-101029320D01*
X126569701Y-100931920D01*
X129044645Y-100931920D01*
X129958000Y-101845275D01*
X130871355Y-100931920D01*
X133244645Y-100931920D01*
X134158000Y-101845275D01*
X135071355Y-100931920D01*
X137444645Y-100931920D01*
X138358000Y-101845275D01*
X139271355Y-100931920D01*
X139156765Y-100674671D01*
X138844620Y-100548071D01*
X138513775Y-100484801D01*
X138176943Y-100487291D01*
X137847069Y-100555447D01*
X137559235Y-100674671D01*
X137444645Y-100931920D01*
X135071355Y-100931920D01*
X134956765Y-100674671D01*
X134644620Y-100548071D01*
X134313775Y-100484801D01*
X133976943Y-100487291D01*
X133647069Y-100555447D01*
X133359235Y-100674671D01*
X133244645Y-100931920D01*
X130871355Y-100931920D01*
X130756765Y-100674671D01*
X130444620Y-100548071D01*
X130113775Y-100484801D01*
X129776943Y-100487291D01*
X129447069Y-100555447D01*
X129159235Y-100674671D01*
X129044645Y-100931920D01*
X126569701Y-100931920D01*
X126469464Y-100864944D01*
X126196117Y-100751721D01*
X125905934Y-100694000D01*
X125610066Y-100694000D01*
X125319883Y-100751721D01*
X125046536Y-100864944D01*
X124800531Y-101029320D01*
X124591320Y-101238531D01*
X124426944Y-101484536D01*
X124313721Y-101757883D01*
X124256000Y-102048066D01*
X122118000Y-102048066D01*
X122118000Y-99082108D01*
X122140542Y-98852200D01*
X122192464Y-98680226D01*
X154425000Y-98680226D01*
X154425000Y-98931774D01*
X154474074Y-99178487D01*
X154570337Y-99410886D01*
X154710089Y-99620040D01*
X154887960Y-99797911D01*
X155097114Y-99937663D01*
X155329513Y-100033926D01*
X155576226Y-100083000D01*
X155827774Y-100083000D01*
X156074487Y-100033926D01*
X156306886Y-99937663D01*
X156516040Y-99797911D01*
X156693911Y-99620040D01*
X156833663Y-99410886D01*
X156929926Y-99178487D01*
X156962934Y-99012544D01*
X156962934Y-99656000D01*
X156971178Y-99739707D01*
X156995595Y-99820196D01*
X157035245Y-99894376D01*
X157088605Y-99959395D01*
X157153624Y-100012755D01*
X157227804Y-100052405D01*
X157308293Y-100076822D01*
X157392000Y-100085066D01*
X159092000Y-100085066D01*
X159175707Y-100076822D01*
X159256196Y-100052405D01*
X159330376Y-100012755D01*
X159395395Y-99959395D01*
X159448755Y-99894376D01*
X159488405Y-99820196D01*
X159512822Y-99739707D01*
X159521066Y-99656000D01*
X159521066Y-97956000D01*
X159512822Y-97872293D01*
X159488405Y-97791804D01*
X159448755Y-97717624D01*
X159395395Y-97652605D01*
X159330376Y-97599245D01*
X159256196Y-97559595D01*
X159175707Y-97535178D01*
X159092000Y-97526934D01*
X157392000Y-97526934D01*
X157308293Y-97535178D01*
X157227804Y-97559595D01*
X157153624Y-97599245D01*
X157088605Y-97652605D01*
X157035245Y-97717624D01*
X156995595Y-97791804D01*
X156971178Y-97872293D01*
X156962934Y-97956000D01*
X156962934Y-98599456D01*
X156929926Y-98433513D01*
X156833663Y-98201114D01*
X156693911Y-97991960D01*
X156516040Y-97814089D01*
X156306886Y-97674337D01*
X156074487Y-97578074D01*
X155827774Y-97529000D01*
X155576226Y-97529000D01*
X155329513Y-97578074D01*
X155097114Y-97674337D01*
X154887960Y-97814089D01*
X154710089Y-97991960D01*
X154570337Y-98201114D01*
X154474074Y-98433513D01*
X154425000Y-98680226D01*
X122192464Y-98680226D01*
X122200889Y-98652322D01*
X122298916Y-98467961D01*
X122430876Y-98306161D01*
X122591759Y-98173068D01*
X122775425Y-98073760D01*
X122974878Y-98012019D01*
X123203401Y-97988000D01*
X125453795Y-97988000D01*
X125476000Y-97990187D01*
X125498205Y-97988000D01*
X125564607Y-97981460D01*
X125649810Y-97955614D01*
X125728333Y-97913643D01*
X125797159Y-97857159D01*
X125853643Y-97788333D01*
X125895614Y-97709810D01*
X125921460Y-97624607D01*
X125930187Y-97536000D01*
X125928000Y-97513795D01*
X125928000Y-95798835D01*
X126547890Y-95798835D01*
X126670453Y-96062707D01*
X126993757Y-96195847D01*
X127336821Y-96263355D01*
X127686465Y-96262637D01*
X128029251Y-96193721D01*
X128345547Y-96062707D01*
X128468110Y-95798835D01*
X130507890Y-95798835D01*
X130630453Y-96062707D01*
X130953757Y-96195847D01*
X131296821Y-96263355D01*
X131646465Y-96262637D01*
X131989251Y-96193721D01*
X132305547Y-96062707D01*
X132428110Y-95798835D01*
X134467890Y-95798835D01*
X134590453Y-96062707D01*
X134913757Y-96195847D01*
X135256821Y-96263355D01*
X135606465Y-96262637D01*
X135949251Y-96193721D01*
X136265547Y-96062707D01*
X136388110Y-95798835D01*
X135428000Y-94838725D01*
X134467890Y-95798835D01*
X132428110Y-95798835D01*
X131468000Y-94838725D01*
X130507890Y-95798835D01*
X128468110Y-95798835D01*
X127508000Y-94838725D01*
X126547890Y-95798835D01*
X125928000Y-95798835D01*
X125928000Y-95312769D01*
X125933293Y-95325547D01*
X126197165Y-95448110D01*
X127157275Y-94488000D01*
X127858725Y-94488000D01*
X128818835Y-95448110D01*
X129082707Y-95325547D01*
X129215847Y-95002243D01*
X129283355Y-94659179D01*
X129282652Y-94316821D01*
X129692645Y-94316821D01*
X129693363Y-94666465D01*
X129762279Y-95009251D01*
X129893293Y-95325547D01*
X130157165Y-95448110D01*
X131117275Y-94488000D01*
X131818725Y-94488000D01*
X132778835Y-95448110D01*
X133042707Y-95325547D01*
X133175847Y-95002243D01*
X133243355Y-94659179D01*
X133242652Y-94316821D01*
X133652645Y-94316821D01*
X133653363Y-94666465D01*
X133722279Y-95009251D01*
X133853293Y-95325547D01*
X134117165Y-95448110D01*
X135077275Y-94488000D01*
X135778725Y-94488000D01*
X136738835Y-95448110D01*
X137002707Y-95325547D01*
X137135847Y-95002243D01*
X137203355Y-94659179D01*
X137202687Y-94333664D01*
X137821000Y-94333664D01*
X137821000Y-94642336D01*
X137881219Y-94945077D01*
X137999343Y-95230253D01*
X138170832Y-95486904D01*
X138389096Y-95705168D01*
X138645747Y-95876657D01*
X138930923Y-95994781D01*
X139233664Y-96055000D01*
X139542336Y-96055000D01*
X139845077Y-95994781D01*
X140130253Y-95876657D01*
X140386904Y-95705168D01*
X140605168Y-95486904D01*
X140776657Y-95230253D01*
X140894781Y-94945077D01*
X140955000Y-94642336D01*
X140955000Y-94333664D01*
X141781000Y-94333664D01*
X141781000Y-94642336D01*
X141841219Y-94945077D01*
X141959343Y-95230253D01*
X142130832Y-95486904D01*
X142349096Y-95705168D01*
X142605747Y-95876657D01*
X142890923Y-95994781D01*
X143193664Y-96055000D01*
X143502336Y-96055000D01*
X143805077Y-95994781D01*
X144090253Y-95876657D01*
X144346904Y-95705168D01*
X144565168Y-95486904D01*
X144736657Y-95230253D01*
X144854781Y-94945077D01*
X144915000Y-94642336D01*
X144915000Y-94333664D01*
X145741000Y-94333664D01*
X145741000Y-94642336D01*
X145801219Y-94945077D01*
X145919343Y-95230253D01*
X146090832Y-95486904D01*
X146309096Y-95705168D01*
X146565747Y-95876657D01*
X146850923Y-95994781D01*
X147153664Y-96055000D01*
X147462336Y-96055000D01*
X147765077Y-95994781D01*
X148050253Y-95876657D01*
X148306904Y-95705168D01*
X148525168Y-95486904D01*
X148696657Y-95230253D01*
X148814781Y-94945077D01*
X148875000Y-94642336D01*
X148875000Y-94333664D01*
X149563000Y-94333664D01*
X149563000Y-94642336D01*
X149623219Y-94945077D01*
X149741343Y-95230253D01*
X149912832Y-95486904D01*
X150131096Y-95705168D01*
X150387747Y-95876657D01*
X150672923Y-95994781D01*
X150975664Y-96055000D01*
X151284336Y-96055000D01*
X151587077Y-95994781D01*
X151872253Y-95876657D01*
X152128904Y-95705168D01*
X152347168Y-95486904D01*
X152518657Y-95230253D01*
X152636781Y-94945077D01*
X152697000Y-94642336D01*
X152697000Y-94333664D01*
X153523000Y-94333664D01*
X153523000Y-94642336D01*
X153583219Y-94945077D01*
X153701343Y-95230253D01*
X153872832Y-95486904D01*
X154091096Y-95705168D01*
X154347747Y-95876657D01*
X154632923Y-95994781D01*
X154935664Y-96055000D01*
X155244336Y-96055000D01*
X155547077Y-95994781D01*
X155832253Y-95876657D01*
X156088904Y-95705168D01*
X156307168Y-95486904D01*
X156478657Y-95230253D01*
X156596781Y-94945077D01*
X156657000Y-94642336D01*
X156657000Y-94333664D01*
X157483000Y-94333664D01*
X157483000Y-94642336D01*
X157543219Y-94945077D01*
X157661343Y-95230253D01*
X157832832Y-95486904D01*
X158051096Y-95705168D01*
X158307747Y-95876657D01*
X158592923Y-95994781D01*
X158895664Y-96055000D01*
X159204336Y-96055000D01*
X159507077Y-95994781D01*
X159792253Y-95876657D01*
X160048904Y-95705168D01*
X160267168Y-95486904D01*
X160438657Y-95230253D01*
X160556781Y-94945077D01*
X160617000Y-94642336D01*
X160617000Y-94333664D01*
X161443000Y-94333664D01*
X161443000Y-94642336D01*
X161503219Y-94945077D01*
X161621343Y-95230253D01*
X161792832Y-95486904D01*
X162011096Y-95705168D01*
X162267747Y-95876657D01*
X162552923Y-95994781D01*
X162855664Y-96055000D01*
X163164336Y-96055000D01*
X163467077Y-95994781D01*
X163752253Y-95876657D01*
X163868721Y-95798835D01*
X166009890Y-95798835D01*
X166132453Y-96062707D01*
X166455757Y-96195847D01*
X166798821Y-96263355D01*
X167148465Y-96262637D01*
X167491251Y-96193721D01*
X167807547Y-96062707D01*
X167930110Y-95798835D01*
X166970000Y-94838725D01*
X166009890Y-95798835D01*
X163868721Y-95798835D01*
X164008904Y-95705168D01*
X164227168Y-95486904D01*
X164398657Y-95230253D01*
X164516781Y-94945077D01*
X164577000Y-94642336D01*
X164577000Y-94333664D01*
X164573650Y-94316821D01*
X165194645Y-94316821D01*
X165195363Y-94666465D01*
X165264279Y-95009251D01*
X165395293Y-95325547D01*
X165659165Y-95448110D01*
X166619275Y-94488000D01*
X167320725Y-94488000D01*
X168280835Y-95448110D01*
X168544707Y-95325547D01*
X168677847Y-95002243D01*
X168745355Y-94659179D01*
X168744687Y-94333664D01*
X169363000Y-94333664D01*
X169363000Y-94642336D01*
X169423219Y-94945077D01*
X169541343Y-95230253D01*
X169712832Y-95486904D01*
X169931096Y-95705168D01*
X170187747Y-95876657D01*
X170472923Y-95994781D01*
X170775664Y-96055000D01*
X171084336Y-96055000D01*
X171387077Y-95994781D01*
X171672253Y-95876657D01*
X171928904Y-95705168D01*
X172147168Y-95486904D01*
X172318657Y-95230253D01*
X172436781Y-94945077D01*
X172497000Y-94642336D01*
X172497000Y-94333664D01*
X172436781Y-94030923D01*
X172318657Y-93745747D01*
X172147168Y-93489096D01*
X171928904Y-93270832D01*
X171672253Y-93099343D01*
X171387077Y-92981219D01*
X171084336Y-92921000D01*
X170775664Y-92921000D01*
X170472923Y-92981219D01*
X170187747Y-93099343D01*
X169931096Y-93270832D01*
X169712832Y-93489096D01*
X169541343Y-93745747D01*
X169423219Y-94030923D01*
X169363000Y-94333664D01*
X168744687Y-94333664D01*
X168744637Y-94309535D01*
X168675721Y-93966749D01*
X168544707Y-93650453D01*
X168280835Y-93527890D01*
X167320725Y-94488000D01*
X166619275Y-94488000D01*
X165659165Y-93527890D01*
X165395293Y-93650453D01*
X165262153Y-93973757D01*
X165194645Y-94316821D01*
X164573650Y-94316821D01*
X164516781Y-94030923D01*
X164398657Y-93745747D01*
X164227168Y-93489096D01*
X164008904Y-93270832D01*
X163868722Y-93177165D01*
X166009890Y-93177165D01*
X166970000Y-94137275D01*
X167930110Y-93177165D01*
X167807547Y-92913293D01*
X167484243Y-92780153D01*
X167141179Y-92712645D01*
X166791535Y-92713363D01*
X166448749Y-92782279D01*
X166132453Y-92913293D01*
X166009890Y-93177165D01*
X163868722Y-93177165D01*
X163752253Y-93099343D01*
X163467077Y-92981219D01*
X163164336Y-92921000D01*
X162855664Y-92921000D01*
X162552923Y-92981219D01*
X162267747Y-93099343D01*
X162011096Y-93270832D01*
X161792832Y-93489096D01*
X161621343Y-93745747D01*
X161503219Y-94030923D01*
X161443000Y-94333664D01*
X160617000Y-94333664D01*
X160556781Y-94030923D01*
X160438657Y-93745747D01*
X160267168Y-93489096D01*
X160048904Y-93270832D01*
X159792253Y-93099343D01*
X159507077Y-92981219D01*
X159204336Y-92921000D01*
X158895664Y-92921000D01*
X158592923Y-92981219D01*
X158307747Y-93099343D01*
X158051096Y-93270832D01*
X157832832Y-93489096D01*
X157661343Y-93745747D01*
X157543219Y-94030923D01*
X157483000Y-94333664D01*
X156657000Y-94333664D01*
X156596781Y-94030923D01*
X156478657Y-93745747D01*
X156307168Y-93489096D01*
X156088904Y-93270832D01*
X155832253Y-93099343D01*
X155547077Y-92981219D01*
X155244336Y-92921000D01*
X154935664Y-92921000D01*
X154632923Y-92981219D01*
X154347747Y-93099343D01*
X154091096Y-93270832D01*
X153872832Y-93489096D01*
X153701343Y-93745747D01*
X153583219Y-94030923D01*
X153523000Y-94333664D01*
X152697000Y-94333664D01*
X152636781Y-94030923D01*
X152518657Y-93745747D01*
X152347168Y-93489096D01*
X152128904Y-93270832D01*
X151872253Y-93099343D01*
X151587077Y-92981219D01*
X151284336Y-92921000D01*
X150975664Y-92921000D01*
X150672923Y-92981219D01*
X150387747Y-93099343D01*
X150131096Y-93270832D01*
X149912832Y-93489096D01*
X149741343Y-93745747D01*
X149623219Y-94030923D01*
X149563000Y-94333664D01*
X148875000Y-94333664D01*
X148814781Y-94030923D01*
X148696657Y-93745747D01*
X148525168Y-93489096D01*
X148306904Y-93270832D01*
X148050253Y-93099343D01*
X147765077Y-92981219D01*
X147462336Y-92921000D01*
X147153664Y-92921000D01*
X146850923Y-92981219D01*
X146565747Y-93099343D01*
X146309096Y-93270832D01*
X146090832Y-93489096D01*
X145919343Y-93745747D01*
X145801219Y-94030923D01*
X145741000Y-94333664D01*
X144915000Y-94333664D01*
X144854781Y-94030923D01*
X144736657Y-93745747D01*
X144565168Y-93489096D01*
X144346904Y-93270832D01*
X144090253Y-93099343D01*
X143805077Y-92981219D01*
X143502336Y-92921000D01*
X143193664Y-92921000D01*
X142890923Y-92981219D01*
X142605747Y-93099343D01*
X142349096Y-93270832D01*
X142130832Y-93489096D01*
X141959343Y-93745747D01*
X141841219Y-94030923D01*
X141781000Y-94333664D01*
X140955000Y-94333664D01*
X140894781Y-94030923D01*
X140776657Y-93745747D01*
X140605168Y-93489096D01*
X140386904Y-93270832D01*
X140130253Y-93099343D01*
X139845077Y-92981219D01*
X139542336Y-92921000D01*
X139233664Y-92921000D01*
X138930923Y-92981219D01*
X138645747Y-93099343D01*
X138389096Y-93270832D01*
X138170832Y-93489096D01*
X137999343Y-93745747D01*
X137881219Y-94030923D01*
X137821000Y-94333664D01*
X137202687Y-94333664D01*
X137202637Y-94309535D01*
X137133721Y-93966749D01*
X137002707Y-93650453D01*
X136738835Y-93527890D01*
X135778725Y-94488000D01*
X135077275Y-94488000D01*
X134117165Y-93527890D01*
X133853293Y-93650453D01*
X133720153Y-93973757D01*
X133652645Y-94316821D01*
X133242652Y-94316821D01*
X133242637Y-94309535D01*
X133173721Y-93966749D01*
X133042707Y-93650453D01*
X132778835Y-93527890D01*
X131818725Y-94488000D01*
X131117275Y-94488000D01*
X130157165Y-93527890D01*
X129893293Y-93650453D01*
X129760153Y-93973757D01*
X129692645Y-94316821D01*
X129282652Y-94316821D01*
X129282637Y-94309535D01*
X129213721Y-93966749D01*
X129082707Y-93650453D01*
X128818835Y-93527890D01*
X127858725Y-94488000D01*
X127157275Y-94488000D01*
X126197165Y-93527890D01*
X125933293Y-93650453D01*
X125928000Y-93663306D01*
X125928000Y-93177165D01*
X126547890Y-93177165D01*
X127508000Y-94137275D01*
X128468110Y-93177165D01*
X130507890Y-93177165D01*
X131468000Y-94137275D01*
X132428110Y-93177165D01*
X134467890Y-93177165D01*
X135428000Y-94137275D01*
X136388110Y-93177165D01*
X136265547Y-92913293D01*
X135942243Y-92780153D01*
X135599179Y-92712645D01*
X135249535Y-92713363D01*
X134906749Y-92782279D01*
X134590453Y-92913293D01*
X134467890Y-93177165D01*
X132428110Y-93177165D01*
X132305547Y-92913293D01*
X131982243Y-92780153D01*
X131639179Y-92712645D01*
X131289535Y-92713363D01*
X130946749Y-92782279D01*
X130630453Y-92913293D01*
X130507890Y-93177165D01*
X128468110Y-93177165D01*
X128345547Y-92913293D01*
X128022243Y-92780153D01*
X127679179Y-92712645D01*
X127329535Y-92713363D01*
X126986749Y-92782279D01*
X126670453Y-92913293D01*
X126547890Y-93177165D01*
X125928000Y-93177165D01*
X125928000Y-87320000D01*
X172522001Y-87320000D01*
X172522000Y-97513795D01*
G37*
X172522000Y-97513795D02*
X172519813Y-97536000D01*
X172528540Y-97624607D01*
X172554386Y-97709810D01*
X172596357Y-97788333D01*
X172642825Y-97844954D01*
X172652841Y-97857159D01*
X172721667Y-97913643D01*
X172800190Y-97955614D01*
X172885393Y-97981460D01*
X172974000Y-97990187D01*
X172996205Y-97988000D01*
X174475892Y-97988000D01*
X174705800Y-98010542D01*
X174905678Y-98070889D01*
X175090039Y-98168916D01*
X175251839Y-98300876D01*
X175384932Y-98461759D01*
X175484240Y-98645425D01*
X175545981Y-98844878D01*
X175570001Y-99073411D01*
X175570000Y-121214000D01*
X122118000Y-121214000D01*
X122118000Y-115863584D01*
X132801000Y-115863584D01*
X132801000Y-116292416D01*
X132884660Y-116713008D01*
X133048767Y-117109196D01*
X133287013Y-117465757D01*
X133590243Y-117768987D01*
X133946804Y-118007233D01*
X134342992Y-118171340D01*
X134763584Y-118255000D01*
X135192416Y-118255000D01*
X135613008Y-118171340D01*
X136009196Y-118007233D01*
X136365757Y-117768987D01*
X136668987Y-117465757D01*
X136907233Y-117109196D01*
X137071340Y-116713008D01*
X137155000Y-116292416D01*
X137155000Y-116078000D01*
X150204326Y-116078000D01*
X150230961Y-116348429D01*
X150309842Y-116608466D01*
X150437938Y-116848117D01*
X150610327Y-117058173D01*
X150820383Y-117230562D01*
X151040094Y-117348000D01*
X150820383Y-117465438D01*
X150610327Y-117637827D01*
X150437938Y-117847883D01*
X150309842Y-118087534D01*
X150230961Y-118347571D01*
X150204326Y-118618000D01*
X150230961Y-118888429D01*
X150309842Y-119148466D01*
X150437938Y-119388117D01*
X150610327Y-119598173D01*
X150820383Y-119770562D01*
X151060034Y-119898658D01*
X151320071Y-119977539D01*
X151522738Y-119997500D01*
X151753262Y-119997500D01*
X151955929Y-119977539D01*
X152215966Y-119898658D01*
X152455617Y-119770562D01*
X152665673Y-119598173D01*
X152838062Y-119388117D01*
X152966158Y-119148466D01*
X153045039Y-118888429D01*
X153071674Y-118618000D01*
X153045039Y-118347571D01*
X152966158Y-118087534D01*
X152838062Y-117847883D01*
X152665673Y-117637827D01*
X152455617Y-117465438D01*
X152235906Y-117348000D01*
X152455617Y-117230562D01*
X152665673Y-117058173D01*
X152838062Y-116848117D01*
X152966158Y-116608466D01*
X153045039Y-116348429D01*
X153071674Y-116078000D01*
X153045039Y-115807571D01*
X152966158Y-115547534D01*
X152838062Y-115307883D01*
X152665673Y-115097827D01*
X152455617Y-114925438D01*
X152444631Y-114919566D01*
X152638000Y-114919566D01*
X152721707Y-114911322D01*
X152802196Y-114886905D01*
X152876376Y-114847255D01*
X152941395Y-114793895D01*
X152994755Y-114728876D01*
X153034405Y-114654696D01*
X153058822Y-114574207D01*
X153067066Y-114490500D01*
X153067066Y-112948548D01*
X162241000Y-112948548D01*
X162241000Y-113111452D01*
X162272782Y-113271227D01*
X162335123Y-113421731D01*
X162425628Y-113557181D01*
X162540819Y-113672372D01*
X162676269Y-113762877D01*
X162826773Y-113825218D01*
X162986548Y-113857000D01*
X163149452Y-113857000D01*
X163309227Y-113825218D01*
X163459731Y-113762877D01*
X163595181Y-113672372D01*
X163710372Y-113557181D01*
X163800877Y-113421731D01*
X163863218Y-113271227D01*
X163895000Y-113111452D01*
X163895000Y-112948548D01*
X163863218Y-112788773D01*
X163800877Y-112638269D01*
X163710372Y-112502819D01*
X163595181Y-112387628D01*
X163459731Y-112297123D01*
X163309227Y-112234782D01*
X163149452Y-112203000D01*
X162986548Y-112203000D01*
X162826773Y-112234782D01*
X162676269Y-112297123D01*
X162540819Y-112387628D01*
X162425628Y-112502819D01*
X162335123Y-112638269D01*
X162272782Y-112788773D01*
X162241000Y-112948548D01*
X153067066Y-112948548D01*
X153067066Y-112585500D01*
X153058822Y-112501793D01*
X153034405Y-112421304D01*
X152994755Y-112347124D01*
X152941395Y-112282105D01*
X152876376Y-112228745D01*
X152802196Y-112189095D01*
X152721707Y-112164678D01*
X152638000Y-112156434D01*
X150638000Y-112156434D01*
X150554293Y-112164678D01*
X150473804Y-112189095D01*
X150399624Y-112228745D01*
X150334605Y-112282105D01*
X150281245Y-112347124D01*
X150241595Y-112421304D01*
X150217178Y-112501793D01*
X150208934Y-112585500D01*
X150208934Y-114490500D01*
X150217178Y-114574207D01*
X150241595Y-114654696D01*
X150281245Y-114728876D01*
X150334605Y-114793895D01*
X150399624Y-114847255D01*
X150473804Y-114886905D01*
X150554293Y-114911322D01*
X150638000Y-114919566D01*
X150831369Y-114919566D01*
X150820383Y-114925438D01*
X150610327Y-115097827D01*
X150437938Y-115307883D01*
X150309842Y-115547534D01*
X150230961Y-115807571D01*
X150204326Y-116078000D01*
X137155000Y-116078000D01*
X137155000Y-115863584D01*
X137071340Y-115442992D01*
X136907233Y-115046804D01*
X136668987Y-114690243D01*
X136365757Y-114387013D01*
X136009196Y-114148767D01*
X135613008Y-113984660D01*
X135192416Y-113901000D01*
X134763584Y-113901000D01*
X134342992Y-113984660D01*
X133946804Y-114148767D01*
X133590243Y-114387013D01*
X133287013Y-114690243D01*
X133048767Y-115046804D01*
X132884660Y-115442992D01*
X132801000Y-115863584D01*
X122118000Y-115863584D01*
X122118000Y-107548066D01*
X124256000Y-107548066D01*
X124256000Y-107843934D01*
X124313721Y-108134117D01*
X124426944Y-108407464D01*
X124591320Y-108653469D01*
X124800531Y-108862680D01*
X125046536Y-109027056D01*
X125319883Y-109140279D01*
X125610066Y-109198000D01*
X125905934Y-109198000D01*
X126196117Y-109140279D01*
X126469464Y-109027056D01*
X126715469Y-108862680D01*
X126924680Y-108653469D01*
X127089056Y-108407464D01*
X127202279Y-108134117D01*
X127260000Y-107843934D01*
X127260000Y-107548066D01*
X128456000Y-107548066D01*
X128456000Y-107843934D01*
X128513721Y-108134117D01*
X128626944Y-108407464D01*
X128791320Y-108653469D01*
X129000531Y-108862680D01*
X129246536Y-109027056D01*
X129519883Y-109140279D01*
X129810066Y-109198000D01*
X130105934Y-109198000D01*
X130396117Y-109140279D01*
X130669464Y-109027056D01*
X130915469Y-108862680D01*
X131124680Y-108653469D01*
X131289056Y-108407464D01*
X131402279Y-108134117D01*
X131460000Y-107843934D01*
X131460000Y-107548066D01*
X132656000Y-107548066D01*
X132656000Y-107843934D01*
X132713721Y-108134117D01*
X132826944Y-108407464D01*
X132991320Y-108653469D01*
X133200531Y-108862680D01*
X133446536Y-109027056D01*
X133719883Y-109140279D01*
X134010066Y-109198000D01*
X134305934Y-109198000D01*
X134596117Y-109140279D01*
X134869464Y-109027056D01*
X135115469Y-108862680D01*
X135324680Y-108653469D01*
X135489056Y-108407464D01*
X135602279Y-108134117D01*
X135660000Y-107843934D01*
X135660000Y-107548066D01*
X136856000Y-107548066D01*
X136856000Y-107843934D01*
X136913721Y-108134117D01*
X137026944Y-108407464D01*
X137191320Y-108653469D01*
X137400531Y-108862680D01*
X137646536Y-109027056D01*
X137919883Y-109140279D01*
X138210066Y-109198000D01*
X138505934Y-109198000D01*
X138796117Y-109140279D01*
X139069464Y-109027056D01*
X139315469Y-108862680D01*
X139524680Y-108653469D01*
X139689056Y-108407464D01*
X139802279Y-108134117D01*
X139860000Y-107843934D01*
X139860000Y-107548066D01*
X141056000Y-107548066D01*
X141056000Y-107843934D01*
X141113721Y-108134117D01*
X141226944Y-108407464D01*
X141391320Y-108653469D01*
X141600531Y-108862680D01*
X141846536Y-109027056D01*
X142119883Y-109140279D01*
X142410066Y-109198000D01*
X142705934Y-109198000D01*
X142996117Y-109140279D01*
X143269464Y-109027056D01*
X143515469Y-108862680D01*
X143724680Y-108653469D01*
X143889056Y-108407464D01*
X144002279Y-108134117D01*
X144060000Y-107843934D01*
X144060000Y-107548066D01*
X145256000Y-107548066D01*
X145256000Y-107843934D01*
X145313721Y-108134117D01*
X145426944Y-108407464D01*
X145591320Y-108653469D01*
X145800531Y-108862680D01*
X146046536Y-109027056D01*
X146319883Y-109140279D01*
X146610066Y-109198000D01*
X146905934Y-109198000D01*
X147196117Y-109140279D01*
X147469464Y-109027056D01*
X147569700Y-108960080D01*
X150044645Y-108960080D01*
X150159235Y-109217329D01*
X150471380Y-109343929D01*
X150802225Y-109407199D01*
X151139057Y-109404709D01*
X151468931Y-109336553D01*
X151756765Y-109217329D01*
X151871355Y-108960080D01*
X150958000Y-108046725D01*
X150044645Y-108960080D01*
X147569700Y-108960080D01*
X147715469Y-108862680D01*
X147924680Y-108653469D01*
X148089056Y-108407464D01*
X148202279Y-108134117D01*
X148260000Y-107843934D01*
X148260000Y-107548066D01*
X148258441Y-107540225D01*
X149246801Y-107540225D01*
X149249291Y-107877057D01*
X149317447Y-108206931D01*
X149436671Y-108494765D01*
X149693920Y-108609355D01*
X150607275Y-107696000D01*
X151308725Y-107696000D01*
X152222080Y-108609355D01*
X152479329Y-108494765D01*
X152605929Y-108182620D01*
X152669199Y-107851775D01*
X152666954Y-107548066D01*
X153656000Y-107548066D01*
X153656000Y-107843934D01*
X153713721Y-108134117D01*
X153826944Y-108407464D01*
X153991320Y-108653469D01*
X154200531Y-108862680D01*
X154446536Y-109027056D01*
X154719883Y-109140279D01*
X155010066Y-109198000D01*
X155305934Y-109198000D01*
X155596117Y-109140279D01*
X155869464Y-109027056D01*
X155969700Y-108960080D01*
X158444645Y-108960080D01*
X158559235Y-109217329D01*
X158871380Y-109343929D01*
X159202225Y-109407199D01*
X159539057Y-109404709D01*
X159868931Y-109336553D01*
X160156765Y-109217329D01*
X160271355Y-108960080D01*
X159358000Y-108046725D01*
X158444645Y-108960080D01*
X155969700Y-108960080D01*
X156115469Y-108862680D01*
X156324680Y-108653469D01*
X156489056Y-108407464D01*
X156602279Y-108134117D01*
X156660000Y-107843934D01*
X156660000Y-107548066D01*
X156658441Y-107540225D01*
X157646801Y-107540225D01*
X157649291Y-107877057D01*
X157717447Y-108206931D01*
X157836671Y-108494765D01*
X158093920Y-108609355D01*
X159007275Y-107696000D01*
X159708725Y-107696000D01*
X160622080Y-108609355D01*
X160879329Y-108494765D01*
X161005929Y-108182620D01*
X161069199Y-107851775D01*
X161066954Y-107548066D01*
X162056000Y-107548066D01*
X162056000Y-107843934D01*
X162113721Y-108134117D01*
X162226944Y-108407464D01*
X162391320Y-108653469D01*
X162600531Y-108862680D01*
X162846536Y-109027056D01*
X163119883Y-109140279D01*
X163410066Y-109198000D01*
X163705934Y-109198000D01*
X163996117Y-109140279D01*
X164269464Y-109027056D01*
X164515469Y-108862680D01*
X164724680Y-108653469D01*
X164889056Y-108407464D01*
X165002279Y-108134117D01*
X165060000Y-107843934D01*
X165060000Y-107548066D01*
X166256000Y-107548066D01*
X166256000Y-107843934D01*
X166313721Y-108134117D01*
X166426944Y-108407464D01*
X166591320Y-108653469D01*
X166800531Y-108862680D01*
X167046536Y-109027056D01*
X167319883Y-109140279D01*
X167610066Y-109198000D01*
X167905934Y-109198000D01*
X168196117Y-109140279D01*
X168469464Y-109027056D01*
X168715469Y-108862680D01*
X168924680Y-108653469D01*
X169089056Y-108407464D01*
X169202279Y-108134117D01*
X169260000Y-107843934D01*
X169260000Y-107548066D01*
X169202279Y-107257883D01*
X169089056Y-106984536D01*
X168924680Y-106738531D01*
X168807149Y-106621000D01*
X170453934Y-106621000D01*
X170453934Y-108771000D01*
X170462178Y-108854707D01*
X170486595Y-108935196D01*
X170526245Y-109009376D01*
X170579605Y-109074395D01*
X170644624Y-109127755D01*
X170718804Y-109167405D01*
X170799293Y-109191822D01*
X170883000Y-109200066D01*
X173033000Y-109200066D01*
X173116707Y-109191822D01*
X173197196Y-109167405D01*
X173271376Y-109127755D01*
X173336395Y-109074395D01*
X173389755Y-109009376D01*
X173429405Y-108935196D01*
X173453822Y-108854707D01*
X173462066Y-108771000D01*
X173462066Y-106621000D01*
X173453822Y-106537293D01*
X173429405Y-106456804D01*
X173389755Y-106382624D01*
X173336395Y-106317605D01*
X173271376Y-106264245D01*
X173197196Y-106224595D01*
X173116707Y-106200178D01*
X173033000Y-106191934D01*
X170883000Y-106191934D01*
X170799293Y-106200178D01*
X170718804Y-106224595D01*
X170644624Y-106264245D01*
X170579605Y-106317605D01*
X170526245Y-106382624D01*
X170486595Y-106456804D01*
X170462178Y-106537293D01*
X170453934Y-106621000D01*
X168807149Y-106621000D01*
X168715469Y-106529320D01*
X168469464Y-106364944D01*
X168196117Y-106251721D01*
X167905934Y-106194000D01*
X167610066Y-106194000D01*
X167319883Y-106251721D01*
X167046536Y-106364944D01*
X166800531Y-106529320D01*
X166591320Y-106738531D01*
X166426944Y-106984536D01*
X166313721Y-107257883D01*
X166256000Y-107548066D01*
X165060000Y-107548066D01*
X165002279Y-107257883D01*
X164889056Y-106984536D01*
X164724680Y-106738531D01*
X164515469Y-106529320D01*
X164269464Y-106364944D01*
X163996117Y-106251721D01*
X163705934Y-106194000D01*
X163410066Y-106194000D01*
X163119883Y-106251721D01*
X162846536Y-106364944D01*
X162600531Y-106529320D01*
X162391320Y-106738531D01*
X162226944Y-106984536D01*
X162113721Y-107257883D01*
X162056000Y-107548066D01*
X161066954Y-107548066D01*
X161066709Y-107514943D01*
X160998553Y-107185069D01*
X160879329Y-106897235D01*
X160622080Y-106782645D01*
X159708725Y-107696000D01*
X159007275Y-107696000D01*
X158093920Y-106782645D01*
X157836671Y-106897235D01*
X157710071Y-107209380D01*
X157646801Y-107540225D01*
X156658441Y-107540225D01*
X156602279Y-107257883D01*
X156489056Y-106984536D01*
X156324680Y-106738531D01*
X156115469Y-106529320D01*
X155969701Y-106431920D01*
X158444645Y-106431920D01*
X159358000Y-107345275D01*
X160271355Y-106431920D01*
X160156765Y-106174671D01*
X159844620Y-106048071D01*
X159513775Y-105984801D01*
X159176943Y-105987291D01*
X158847069Y-106055447D01*
X158559235Y-106174671D01*
X158444645Y-106431920D01*
X155969701Y-106431920D01*
X155869464Y-106364944D01*
X155596117Y-106251721D01*
X155305934Y-106194000D01*
X155010066Y-106194000D01*
X154719883Y-106251721D01*
X154446536Y-106364944D01*
X154200531Y-106529320D01*
X153991320Y-106738531D01*
X153826944Y-106984536D01*
X153713721Y-107257883D01*
X153656000Y-107548066D01*
X152666954Y-107548066D01*
X152666709Y-107514943D01*
X152598553Y-107185069D01*
X152479329Y-106897235D01*
X152222080Y-106782645D01*
X151308725Y-107696000D01*
X150607275Y-107696000D01*
X149693920Y-106782645D01*
X149436671Y-106897235D01*
X149310071Y-107209380D01*
X149246801Y-107540225D01*
X148258441Y-107540225D01*
X148202279Y-107257883D01*
X148089056Y-106984536D01*
X147924680Y-106738531D01*
X147715469Y-106529320D01*
X147569701Y-106431920D01*
X150044645Y-106431920D01*
X150958000Y-107345275D01*
X151871355Y-106431920D01*
X151756765Y-106174671D01*
X151444620Y-106048071D01*
X151113775Y-105984801D01*
X150776943Y-105987291D01*
X150447069Y-106055447D01*
X150159235Y-106174671D01*
X150044645Y-106431920D01*
X147569701Y-106431920D01*
X147469464Y-106364944D01*
X147196117Y-106251721D01*
X146905934Y-106194000D01*
X146610066Y-106194000D01*
X146319883Y-106251721D01*
X146046536Y-106364944D01*
X145800531Y-106529320D01*
X145591320Y-106738531D01*
X145426944Y-106984536D01*
X145313721Y-107257883D01*
X145256000Y-107548066D01*
X144060000Y-107548066D01*
X144002279Y-107257883D01*
X143889056Y-106984536D01*
X143724680Y-106738531D01*
X143515469Y-106529320D01*
X143269464Y-106364944D01*
X142996117Y-106251721D01*
X142705934Y-106194000D01*
X142410066Y-106194000D01*
X142119883Y-106251721D01*
X141846536Y-106364944D01*
X141600531Y-106529320D01*
X141391320Y-106738531D01*
X141226944Y-106984536D01*
X141113721Y-107257883D01*
X141056000Y-107548066D01*
X139860000Y-107548066D01*
X139802279Y-107257883D01*
X139689056Y-106984536D01*
X139524680Y-106738531D01*
X139315469Y-106529320D01*
X139069464Y-106364944D01*
X138796117Y-106251721D01*
X138505934Y-106194000D01*
X138210066Y-106194000D01*
X137919883Y-106251721D01*
X137646536Y-106364944D01*
X137400531Y-106529320D01*
X137191320Y-106738531D01*
X137026944Y-106984536D01*
X136913721Y-107257883D01*
X136856000Y-107548066D01*
X135660000Y-107548066D01*
X135602279Y-107257883D01*
X135489056Y-106984536D01*
X135324680Y-106738531D01*
X135115469Y-106529320D01*
X134869464Y-106364944D01*
X134596117Y-106251721D01*
X134305934Y-106194000D01*
X134010066Y-106194000D01*
X133719883Y-106251721D01*
X133446536Y-106364944D01*
X133200531Y-106529320D01*
X132991320Y-106738531D01*
X132826944Y-106984536D01*
X132713721Y-107257883D01*
X132656000Y-107548066D01*
X131460000Y-107548066D01*
X131402279Y-107257883D01*
X131289056Y-106984536D01*
X131124680Y-106738531D01*
X130915469Y-106529320D01*
X130669464Y-106364944D01*
X130396117Y-106251721D01*
X130105934Y-106194000D01*
X129810066Y-106194000D01*
X129519883Y-106251721D01*
X129246536Y-106364944D01*
X129000531Y-106529320D01*
X128791320Y-106738531D01*
X128626944Y-106984536D01*
X128513721Y-107257883D01*
X128456000Y-107548066D01*
X127260000Y-107548066D01*
X127202279Y-107257883D01*
X127089056Y-106984536D01*
X126924680Y-106738531D01*
X126715469Y-106529320D01*
X126469464Y-106364944D01*
X126196117Y-106251721D01*
X125905934Y-106194000D01*
X125610066Y-106194000D01*
X125319883Y-106251721D01*
X125046536Y-106364944D01*
X124800531Y-106529320D01*
X124591320Y-106738531D01*
X124426944Y-106984536D01*
X124313721Y-107257883D01*
X124256000Y-107548066D01*
X122118000Y-107548066D01*
X122118000Y-104820548D01*
X165289000Y-104820548D01*
X165289000Y-104983452D01*
X165320782Y-105143227D01*
X165383123Y-105293731D01*
X165473628Y-105429181D01*
X165588819Y-105544372D01*
X165724269Y-105634877D01*
X165874773Y-105697218D01*
X166034548Y-105729000D01*
X166197452Y-105729000D01*
X166357227Y-105697218D01*
X166507731Y-105634877D01*
X166643181Y-105544372D01*
X166758372Y-105429181D01*
X166848877Y-105293731D01*
X166911218Y-105143227D01*
X166943000Y-104983452D01*
X166943000Y-104820548D01*
X166911218Y-104660773D01*
X166848877Y-104510269D01*
X166758372Y-104374819D01*
X166643181Y-104259628D01*
X166507731Y-104169123D01*
X166357227Y-104106782D01*
X166197452Y-104075000D01*
X166034548Y-104075000D01*
X165874773Y-104106782D01*
X165724269Y-104169123D01*
X165588819Y-104259628D01*
X165473628Y-104374819D01*
X165383123Y-104510269D01*
X165320782Y-104660773D01*
X165289000Y-104820548D01*
X122118000Y-104820548D01*
X122118000Y-102048066D01*
X124256000Y-102048066D01*
X124256000Y-102343934D01*
X124313721Y-102634117D01*
X124426944Y-102907464D01*
X124591320Y-103153469D01*
X124800531Y-103362680D01*
X125046536Y-103527056D01*
X125319883Y-103640279D01*
X125610066Y-103698000D01*
X125905934Y-103698000D01*
X126196117Y-103640279D01*
X126469464Y-103527056D01*
X126569700Y-103460080D01*
X129044645Y-103460080D01*
X129159235Y-103717329D01*
X129471380Y-103843929D01*
X129802225Y-103907199D01*
X130139057Y-103904709D01*
X130468931Y-103836553D01*
X130756765Y-103717329D01*
X130871355Y-103460080D01*
X133244645Y-103460080D01*
X133359235Y-103717329D01*
X133671380Y-103843929D01*
X134002225Y-103907199D01*
X134339057Y-103904709D01*
X134668931Y-103836553D01*
X134956765Y-103717329D01*
X135071355Y-103460080D01*
X137444645Y-103460080D01*
X137559235Y-103717329D01*
X137871380Y-103843929D01*
X138202225Y-103907199D01*
X138539057Y-103904709D01*
X138868931Y-103836553D01*
X139156765Y-103717329D01*
X139271355Y-103460080D01*
X138358000Y-102546725D01*
X137444645Y-103460080D01*
X135071355Y-103460080D01*
X134158000Y-102546725D01*
X133244645Y-103460080D01*
X130871355Y-103460080D01*
X129958000Y-102546725D01*
X129044645Y-103460080D01*
X126569700Y-103460080D01*
X126715469Y-103362680D01*
X126924680Y-103153469D01*
X127089056Y-102907464D01*
X127202279Y-102634117D01*
X127260000Y-102343934D01*
X127260000Y-102048066D01*
X127258441Y-102040225D01*
X128246801Y-102040225D01*
X128249291Y-102377057D01*
X128317447Y-102706931D01*
X128436671Y-102994765D01*
X128693920Y-103109355D01*
X129607275Y-102196000D01*
X130308725Y-102196000D01*
X131222080Y-103109355D01*
X131479329Y-102994765D01*
X131605929Y-102682620D01*
X131669199Y-102351775D01*
X131666896Y-102040225D01*
X132446801Y-102040225D01*
X132449291Y-102377057D01*
X132517447Y-102706931D01*
X132636671Y-102994765D01*
X132893920Y-103109355D01*
X133807275Y-102196000D01*
X134508725Y-102196000D01*
X135422080Y-103109355D01*
X135679329Y-102994765D01*
X135805929Y-102682620D01*
X135869199Y-102351775D01*
X135866896Y-102040225D01*
X136646801Y-102040225D01*
X136649291Y-102377057D01*
X136717447Y-102706931D01*
X136836671Y-102994765D01*
X137093920Y-103109355D01*
X138007275Y-102196000D01*
X138708725Y-102196000D01*
X139622080Y-103109355D01*
X139879329Y-102994765D01*
X140005929Y-102682620D01*
X140069199Y-102351775D01*
X140066954Y-102048066D01*
X141056000Y-102048066D01*
X141056000Y-102343934D01*
X141113721Y-102634117D01*
X141226944Y-102907464D01*
X141391320Y-103153469D01*
X141600531Y-103362680D01*
X141846536Y-103527056D01*
X142119883Y-103640279D01*
X142410066Y-103698000D01*
X142705934Y-103698000D01*
X142996117Y-103640279D01*
X143269464Y-103527056D01*
X143515469Y-103362680D01*
X143724680Y-103153469D01*
X143889056Y-102907464D01*
X144002279Y-102634117D01*
X144060000Y-102343934D01*
X144060000Y-102048066D01*
X145256000Y-102048066D01*
X145256000Y-102343934D01*
X145313721Y-102634117D01*
X145426944Y-102907464D01*
X145591320Y-103153469D01*
X145800531Y-103362680D01*
X146046536Y-103527056D01*
X146319883Y-103640279D01*
X146610066Y-103698000D01*
X146905934Y-103698000D01*
X147196117Y-103640279D01*
X147469464Y-103527056D01*
X147715469Y-103362680D01*
X147924680Y-103153469D01*
X148089056Y-102907464D01*
X148202279Y-102634117D01*
X148260000Y-102343934D01*
X148260000Y-102048066D01*
X149456000Y-102048066D01*
X149456000Y-102343934D01*
X149513721Y-102634117D01*
X149626944Y-102907464D01*
X149791320Y-103153469D01*
X150000531Y-103362680D01*
X150246536Y-103527056D01*
X150519883Y-103640279D01*
X150810066Y-103698000D01*
X151105934Y-103698000D01*
X151396117Y-103640279D01*
X151669464Y-103527056D01*
X151915469Y-103362680D01*
X152124680Y-103153469D01*
X152289056Y-102907464D01*
X152402279Y-102634117D01*
X152460000Y-102343934D01*
X152460000Y-102048066D01*
X153656000Y-102048066D01*
X153656000Y-102343934D01*
X153713721Y-102634117D01*
X153826944Y-102907464D01*
X153991320Y-103153469D01*
X154200531Y-103362680D01*
X154446536Y-103527056D01*
X154719883Y-103640279D01*
X155010066Y-103698000D01*
X155305934Y-103698000D01*
X155596117Y-103640279D01*
X155869464Y-103527056D01*
X156115469Y-103362680D01*
X156324680Y-103153469D01*
X156489056Y-102907464D01*
X156602279Y-102634117D01*
X156660000Y-102343934D01*
X156660000Y-102048066D01*
X157856000Y-102048066D01*
X157856000Y-102343934D01*
X157913721Y-102634117D01*
X158026944Y-102907464D01*
X158191320Y-103153469D01*
X158400531Y-103362680D01*
X158646536Y-103527056D01*
X158919883Y-103640279D01*
X159210066Y-103698000D01*
X159505934Y-103698000D01*
X159796117Y-103640279D01*
X160069464Y-103527056D01*
X160315469Y-103362680D01*
X160524680Y-103153469D01*
X160689056Y-102907464D01*
X160802279Y-102634117D01*
X160860000Y-102343934D01*
X160860000Y-102048066D01*
X162056000Y-102048066D01*
X162056000Y-102343934D01*
X162113721Y-102634117D01*
X162226944Y-102907464D01*
X162391320Y-103153469D01*
X162600531Y-103362680D01*
X162846536Y-103527056D01*
X163119883Y-103640279D01*
X163410066Y-103698000D01*
X163705934Y-103698000D01*
X163996117Y-103640279D01*
X164269464Y-103527056D01*
X164515469Y-103362680D01*
X164724680Y-103153469D01*
X164889056Y-102907464D01*
X165002279Y-102634117D01*
X165060000Y-102343934D01*
X165060000Y-102048066D01*
X166256000Y-102048066D01*
X166256000Y-102343934D01*
X166313721Y-102634117D01*
X166426944Y-102907464D01*
X166591320Y-103153469D01*
X166800531Y-103362680D01*
X167046536Y-103527056D01*
X167319883Y-103640279D01*
X167610066Y-103698000D01*
X167905934Y-103698000D01*
X168196117Y-103640279D01*
X168469464Y-103527056D01*
X168715469Y-103362680D01*
X168924680Y-103153469D01*
X169089056Y-102907464D01*
X169202279Y-102634117D01*
X169260000Y-102343934D01*
X169260000Y-102048066D01*
X170456000Y-102048066D01*
X170456000Y-102343934D01*
X170513721Y-102634117D01*
X170626944Y-102907464D01*
X170791320Y-103153469D01*
X171000531Y-103362680D01*
X171246536Y-103527056D01*
X171519883Y-103640279D01*
X171810066Y-103698000D01*
X172105934Y-103698000D01*
X172396117Y-103640279D01*
X172669464Y-103527056D01*
X172915469Y-103362680D01*
X173124680Y-103153469D01*
X173289056Y-102907464D01*
X173402279Y-102634117D01*
X173460000Y-102343934D01*
X173460000Y-102048066D01*
X173402279Y-101757883D01*
X173289056Y-101484536D01*
X173124680Y-101238531D01*
X172915469Y-101029320D01*
X172669464Y-100864944D01*
X172396117Y-100751721D01*
X172105934Y-100694000D01*
X171810066Y-100694000D01*
X171519883Y-100751721D01*
X171246536Y-100864944D01*
X171000531Y-101029320D01*
X170791320Y-101238531D01*
X170626944Y-101484536D01*
X170513721Y-101757883D01*
X170456000Y-102048066D01*
X169260000Y-102048066D01*
X169202279Y-101757883D01*
X169089056Y-101484536D01*
X168924680Y-101238531D01*
X168715469Y-101029320D01*
X168469464Y-100864944D01*
X168196117Y-100751721D01*
X167905934Y-100694000D01*
X167610066Y-100694000D01*
X167319883Y-100751721D01*
X167046536Y-100864944D01*
X166800531Y-101029320D01*
X166591320Y-101238531D01*
X166426944Y-101484536D01*
X166313721Y-101757883D01*
X166256000Y-102048066D01*
X165060000Y-102048066D01*
X165002279Y-101757883D01*
X164889056Y-101484536D01*
X164724680Y-101238531D01*
X164515469Y-101029320D01*
X164269464Y-100864944D01*
X163996117Y-100751721D01*
X163705934Y-100694000D01*
X163410066Y-100694000D01*
X163119883Y-100751721D01*
X162846536Y-100864944D01*
X162600531Y-101029320D01*
X162391320Y-101238531D01*
X162226944Y-101484536D01*
X162113721Y-101757883D01*
X162056000Y-102048066D01*
X160860000Y-102048066D01*
X160802279Y-101757883D01*
X160689056Y-101484536D01*
X160524680Y-101238531D01*
X160315469Y-101029320D01*
X160069464Y-100864944D01*
X159796117Y-100751721D01*
X159505934Y-100694000D01*
X159210066Y-100694000D01*
X158919883Y-100751721D01*
X158646536Y-100864944D01*
X158400531Y-101029320D01*
X158191320Y-101238531D01*
X158026944Y-101484536D01*
X157913721Y-101757883D01*
X157856000Y-102048066D01*
X156660000Y-102048066D01*
X156602279Y-101757883D01*
X156489056Y-101484536D01*
X156324680Y-101238531D01*
X156115469Y-101029320D01*
X155869464Y-100864944D01*
X155596117Y-100751721D01*
X155305934Y-100694000D01*
X155010066Y-100694000D01*
X154719883Y-100751721D01*
X154446536Y-100864944D01*
X154200531Y-101029320D01*
X153991320Y-101238531D01*
X153826944Y-101484536D01*
X153713721Y-101757883D01*
X153656000Y-102048066D01*
X152460000Y-102048066D01*
X152402279Y-101757883D01*
X152289056Y-101484536D01*
X152124680Y-101238531D01*
X151915469Y-101029320D01*
X151669464Y-100864944D01*
X151396117Y-100751721D01*
X151105934Y-100694000D01*
X150810066Y-100694000D01*
X150519883Y-100751721D01*
X150246536Y-100864944D01*
X150000531Y-101029320D01*
X149791320Y-101238531D01*
X149626944Y-101484536D01*
X149513721Y-101757883D01*
X149456000Y-102048066D01*
X148260000Y-102048066D01*
X148202279Y-101757883D01*
X148089056Y-101484536D01*
X147924680Y-101238531D01*
X147715469Y-101029320D01*
X147469464Y-100864944D01*
X147196117Y-100751721D01*
X146905934Y-100694000D01*
X146610066Y-100694000D01*
X146319883Y-100751721D01*
X146046536Y-100864944D01*
X145800531Y-101029320D01*
X145591320Y-101238531D01*
X145426944Y-101484536D01*
X145313721Y-101757883D01*
X145256000Y-102048066D01*
X144060000Y-102048066D01*
X144002279Y-101757883D01*
X143889056Y-101484536D01*
X143724680Y-101238531D01*
X143515469Y-101029320D01*
X143269464Y-100864944D01*
X142996117Y-100751721D01*
X142705934Y-100694000D01*
X142410066Y-100694000D01*
X142119883Y-100751721D01*
X141846536Y-100864944D01*
X141600531Y-101029320D01*
X141391320Y-101238531D01*
X141226944Y-101484536D01*
X141113721Y-101757883D01*
X141056000Y-102048066D01*
X140066954Y-102048066D01*
X140066709Y-102014943D01*
X139998553Y-101685069D01*
X139879329Y-101397235D01*
X139622080Y-101282645D01*
X138708725Y-102196000D01*
X138007275Y-102196000D01*
X137093920Y-101282645D01*
X136836671Y-101397235D01*
X136710071Y-101709380D01*
X136646801Y-102040225D01*
X135866896Y-102040225D01*
X135866709Y-102014943D01*
X135798553Y-101685069D01*
X135679329Y-101397235D01*
X135422080Y-101282645D01*
X134508725Y-102196000D01*
X133807275Y-102196000D01*
X132893920Y-101282645D01*
X132636671Y-101397235D01*
X132510071Y-101709380D01*
X132446801Y-102040225D01*
X131666896Y-102040225D01*
X131666709Y-102014943D01*
X131598553Y-101685069D01*
X131479329Y-101397235D01*
X131222080Y-101282645D01*
X130308725Y-102196000D01*
X129607275Y-102196000D01*
X128693920Y-101282645D01*
X128436671Y-101397235D01*
X128310071Y-101709380D01*
X128246801Y-102040225D01*
X127258441Y-102040225D01*
X127202279Y-101757883D01*
X127089056Y-101484536D01*
X126924680Y-101238531D01*
X126715469Y-101029320D01*
X126569701Y-100931920D01*
X129044645Y-100931920D01*
X129958000Y-101845275D01*
X130871355Y-100931920D01*
X133244645Y-100931920D01*
X134158000Y-101845275D01*
X135071355Y-100931920D01*
X137444645Y-100931920D01*
X138358000Y-101845275D01*
X139271355Y-100931920D01*
X139156765Y-100674671D01*
X138844620Y-100548071D01*
X138513775Y-100484801D01*
X138176943Y-100487291D01*
X137847069Y-100555447D01*
X137559235Y-100674671D01*
X137444645Y-100931920D01*
X135071355Y-100931920D01*
X134956765Y-100674671D01*
X134644620Y-100548071D01*
X134313775Y-100484801D01*
X133976943Y-100487291D01*
X133647069Y-100555447D01*
X133359235Y-100674671D01*
X133244645Y-100931920D01*
X130871355Y-100931920D01*
X130756765Y-100674671D01*
X130444620Y-100548071D01*
X130113775Y-100484801D01*
X129776943Y-100487291D01*
X129447069Y-100555447D01*
X129159235Y-100674671D01*
X129044645Y-100931920D01*
X126569701Y-100931920D01*
X126469464Y-100864944D01*
X126196117Y-100751721D01*
X125905934Y-100694000D01*
X125610066Y-100694000D01*
X125319883Y-100751721D01*
X125046536Y-100864944D01*
X124800531Y-101029320D01*
X124591320Y-101238531D01*
X124426944Y-101484536D01*
X124313721Y-101757883D01*
X124256000Y-102048066D01*
X122118000Y-102048066D01*
X122118000Y-99082108D01*
X122140542Y-98852200D01*
X122192464Y-98680226D01*
X154425000Y-98680226D01*
X154425000Y-98931774D01*
X154474074Y-99178487D01*
X154570337Y-99410886D01*
X154710089Y-99620040D01*
X154887960Y-99797911D01*
X155097114Y-99937663D01*
X155329513Y-100033926D01*
X155576226Y-100083000D01*
X155827774Y-100083000D01*
X156074487Y-100033926D01*
X156306886Y-99937663D01*
X156516040Y-99797911D01*
X156693911Y-99620040D01*
X156833663Y-99410886D01*
X156929926Y-99178487D01*
X156962934Y-99012544D01*
X156962934Y-99656000D01*
X156971178Y-99739707D01*
X156995595Y-99820196D01*
X157035245Y-99894376D01*
X157088605Y-99959395D01*
X157153624Y-100012755D01*
X157227804Y-100052405D01*
X157308293Y-100076822D01*
X157392000Y-100085066D01*
X159092000Y-100085066D01*
X159175707Y-100076822D01*
X159256196Y-100052405D01*
X159330376Y-100012755D01*
X159395395Y-99959395D01*
X159448755Y-99894376D01*
X159488405Y-99820196D01*
X159512822Y-99739707D01*
X159521066Y-99656000D01*
X159521066Y-97956000D01*
X159512822Y-97872293D01*
X159488405Y-97791804D01*
X159448755Y-97717624D01*
X159395395Y-97652605D01*
X159330376Y-97599245D01*
X159256196Y-97559595D01*
X159175707Y-97535178D01*
X159092000Y-97526934D01*
X157392000Y-97526934D01*
X157308293Y-97535178D01*
X157227804Y-97559595D01*
X157153624Y-97599245D01*
X157088605Y-97652605D01*
X157035245Y-97717624D01*
X156995595Y-97791804D01*
X156971178Y-97872293D01*
X156962934Y-97956000D01*
X156962934Y-98599456D01*
X156929926Y-98433513D01*
X156833663Y-98201114D01*
X156693911Y-97991960D01*
X156516040Y-97814089D01*
X156306886Y-97674337D01*
X156074487Y-97578074D01*
X155827774Y-97529000D01*
X155576226Y-97529000D01*
X155329513Y-97578074D01*
X155097114Y-97674337D01*
X154887960Y-97814089D01*
X154710089Y-97991960D01*
X154570337Y-98201114D01*
X154474074Y-98433513D01*
X154425000Y-98680226D01*
X122192464Y-98680226D01*
X122200889Y-98652322D01*
X122298916Y-98467961D01*
X122430876Y-98306161D01*
X122591759Y-98173068D01*
X122775425Y-98073760D01*
X122974878Y-98012019D01*
X123203401Y-97988000D01*
X125453795Y-97988000D01*
X125476000Y-97990187D01*
X125498205Y-97988000D01*
X125564607Y-97981460D01*
X125649810Y-97955614D01*
X125728333Y-97913643D01*
X125797159Y-97857159D01*
X125853643Y-97788333D01*
X125895614Y-97709810D01*
X125921460Y-97624607D01*
X125930187Y-97536000D01*
X125928000Y-97513795D01*
X125928000Y-95798835D01*
X126547890Y-95798835D01*
X126670453Y-96062707D01*
X126993757Y-96195847D01*
X127336821Y-96263355D01*
X127686465Y-96262637D01*
X128029251Y-96193721D01*
X128345547Y-96062707D01*
X128468110Y-95798835D01*
X130507890Y-95798835D01*
X130630453Y-96062707D01*
X130953757Y-96195847D01*
X131296821Y-96263355D01*
X131646465Y-96262637D01*
X131989251Y-96193721D01*
X132305547Y-96062707D01*
X132428110Y-95798835D01*
X134467890Y-95798835D01*
X134590453Y-96062707D01*
X134913757Y-96195847D01*
X135256821Y-96263355D01*
X135606465Y-96262637D01*
X135949251Y-96193721D01*
X136265547Y-96062707D01*
X136388110Y-95798835D01*
X135428000Y-94838725D01*
X134467890Y-95798835D01*
X132428110Y-95798835D01*
X131468000Y-94838725D01*
X130507890Y-95798835D01*
X128468110Y-95798835D01*
X127508000Y-94838725D01*
X126547890Y-95798835D01*
X125928000Y-95798835D01*
X125928000Y-95312769D01*
X125933293Y-95325547D01*
X126197165Y-95448110D01*
X127157275Y-94488000D01*
X127858725Y-94488000D01*
X128818835Y-95448110D01*
X129082707Y-95325547D01*
X129215847Y-95002243D01*
X129283355Y-94659179D01*
X129282652Y-94316821D01*
X129692645Y-94316821D01*
X129693363Y-94666465D01*
X129762279Y-95009251D01*
X129893293Y-95325547D01*
X130157165Y-95448110D01*
X131117275Y-94488000D01*
X131818725Y-94488000D01*
X132778835Y-95448110D01*
X133042707Y-95325547D01*
X133175847Y-95002243D01*
X133243355Y-94659179D01*
X133242652Y-94316821D01*
X133652645Y-94316821D01*
X133653363Y-94666465D01*
X133722279Y-95009251D01*
X133853293Y-95325547D01*
X134117165Y-95448110D01*
X135077275Y-94488000D01*
X135778725Y-94488000D01*
X136738835Y-95448110D01*
X137002707Y-95325547D01*
X137135847Y-95002243D01*
X137203355Y-94659179D01*
X137202687Y-94333664D01*
X137821000Y-94333664D01*
X137821000Y-94642336D01*
X137881219Y-94945077D01*
X137999343Y-95230253D01*
X138170832Y-95486904D01*
X138389096Y-95705168D01*
X138645747Y-95876657D01*
X138930923Y-95994781D01*
X139233664Y-96055000D01*
X139542336Y-96055000D01*
X139845077Y-95994781D01*
X140130253Y-95876657D01*
X140386904Y-95705168D01*
X140605168Y-95486904D01*
X140776657Y-95230253D01*
X140894781Y-94945077D01*
X140955000Y-94642336D01*
X140955000Y-94333664D01*
X141781000Y-94333664D01*
X141781000Y-94642336D01*
X141841219Y-94945077D01*
X141959343Y-95230253D01*
X142130832Y-95486904D01*
X142349096Y-95705168D01*
X142605747Y-95876657D01*
X142890923Y-95994781D01*
X143193664Y-96055000D01*
X143502336Y-96055000D01*
X143805077Y-95994781D01*
X144090253Y-95876657D01*
X144346904Y-95705168D01*
X144565168Y-95486904D01*
X144736657Y-95230253D01*
X144854781Y-94945077D01*
X144915000Y-94642336D01*
X144915000Y-94333664D01*
X145741000Y-94333664D01*
X145741000Y-94642336D01*
X145801219Y-94945077D01*
X145919343Y-95230253D01*
X146090832Y-95486904D01*
X146309096Y-95705168D01*
X146565747Y-95876657D01*
X146850923Y-95994781D01*
X147153664Y-96055000D01*
X147462336Y-96055000D01*
X147765077Y-95994781D01*
X148050253Y-95876657D01*
X148306904Y-95705168D01*
X148525168Y-95486904D01*
X148696657Y-95230253D01*
X148814781Y-94945077D01*
X148875000Y-94642336D01*
X148875000Y-94333664D01*
X149563000Y-94333664D01*
X149563000Y-94642336D01*
X149623219Y-94945077D01*
X149741343Y-95230253D01*
X149912832Y-95486904D01*
X150131096Y-95705168D01*
X150387747Y-95876657D01*
X150672923Y-95994781D01*
X150975664Y-96055000D01*
X151284336Y-96055000D01*
X151587077Y-95994781D01*
X151872253Y-95876657D01*
X152128904Y-95705168D01*
X152347168Y-95486904D01*
X152518657Y-95230253D01*
X152636781Y-94945077D01*
X152697000Y-94642336D01*
X152697000Y-94333664D01*
X153523000Y-94333664D01*
X153523000Y-94642336D01*
X153583219Y-94945077D01*
X153701343Y-95230253D01*
X153872832Y-95486904D01*
X154091096Y-95705168D01*
X154347747Y-95876657D01*
X154632923Y-95994781D01*
X154935664Y-96055000D01*
X155244336Y-96055000D01*
X155547077Y-95994781D01*
X155832253Y-95876657D01*
X156088904Y-95705168D01*
X156307168Y-95486904D01*
X156478657Y-95230253D01*
X156596781Y-94945077D01*
X156657000Y-94642336D01*
X156657000Y-94333664D01*
X157483000Y-94333664D01*
X157483000Y-94642336D01*
X157543219Y-94945077D01*
X157661343Y-95230253D01*
X157832832Y-95486904D01*
X158051096Y-95705168D01*
X158307747Y-95876657D01*
X158592923Y-95994781D01*
X158895664Y-96055000D01*
X159204336Y-96055000D01*
X159507077Y-95994781D01*
X159792253Y-95876657D01*
X160048904Y-95705168D01*
X160267168Y-95486904D01*
X160438657Y-95230253D01*
X160556781Y-94945077D01*
X160617000Y-94642336D01*
X160617000Y-94333664D01*
X161443000Y-94333664D01*
X161443000Y-94642336D01*
X161503219Y-94945077D01*
X161621343Y-95230253D01*
X161792832Y-95486904D01*
X162011096Y-95705168D01*
X162267747Y-95876657D01*
X162552923Y-95994781D01*
X162855664Y-96055000D01*
X163164336Y-96055000D01*
X163467077Y-95994781D01*
X163752253Y-95876657D01*
X163868721Y-95798835D01*
X166009890Y-95798835D01*
X166132453Y-96062707D01*
X166455757Y-96195847D01*
X166798821Y-96263355D01*
X167148465Y-96262637D01*
X167491251Y-96193721D01*
X167807547Y-96062707D01*
X167930110Y-95798835D01*
X166970000Y-94838725D01*
X166009890Y-95798835D01*
X163868721Y-95798835D01*
X164008904Y-95705168D01*
X164227168Y-95486904D01*
X164398657Y-95230253D01*
X164516781Y-94945077D01*
X164577000Y-94642336D01*
X164577000Y-94333664D01*
X164573650Y-94316821D01*
X165194645Y-94316821D01*
X165195363Y-94666465D01*
X165264279Y-95009251D01*
X165395293Y-95325547D01*
X165659165Y-95448110D01*
X166619275Y-94488000D01*
X167320725Y-94488000D01*
X168280835Y-95448110D01*
X168544707Y-95325547D01*
X168677847Y-95002243D01*
X168745355Y-94659179D01*
X168744687Y-94333664D01*
X169363000Y-94333664D01*
X169363000Y-94642336D01*
X169423219Y-94945077D01*
X169541343Y-95230253D01*
X169712832Y-95486904D01*
X169931096Y-95705168D01*
X170187747Y-95876657D01*
X170472923Y-95994781D01*
X170775664Y-96055000D01*
X171084336Y-96055000D01*
X171387077Y-95994781D01*
X171672253Y-95876657D01*
X171928904Y-95705168D01*
X172147168Y-95486904D01*
X172318657Y-95230253D01*
X172436781Y-94945077D01*
X172497000Y-94642336D01*
X172497000Y-94333664D01*
X172436781Y-94030923D01*
X172318657Y-93745747D01*
X172147168Y-93489096D01*
X171928904Y-93270832D01*
X171672253Y-93099343D01*
X171387077Y-92981219D01*
X171084336Y-92921000D01*
X170775664Y-92921000D01*
X170472923Y-92981219D01*
X170187747Y-93099343D01*
X169931096Y-93270832D01*
X169712832Y-93489096D01*
X169541343Y-93745747D01*
X169423219Y-94030923D01*
X169363000Y-94333664D01*
X168744687Y-94333664D01*
X168744637Y-94309535D01*
X168675721Y-93966749D01*
X168544707Y-93650453D01*
X168280835Y-93527890D01*
X167320725Y-94488000D01*
X166619275Y-94488000D01*
X165659165Y-93527890D01*
X165395293Y-93650453D01*
X165262153Y-93973757D01*
X165194645Y-94316821D01*
X164573650Y-94316821D01*
X164516781Y-94030923D01*
X164398657Y-93745747D01*
X164227168Y-93489096D01*
X164008904Y-93270832D01*
X163868722Y-93177165D01*
X166009890Y-93177165D01*
X166970000Y-94137275D01*
X167930110Y-93177165D01*
X167807547Y-92913293D01*
X167484243Y-92780153D01*
X167141179Y-92712645D01*
X166791535Y-92713363D01*
X166448749Y-92782279D01*
X166132453Y-92913293D01*
X166009890Y-93177165D01*
X163868722Y-93177165D01*
X163752253Y-93099343D01*
X163467077Y-92981219D01*
X163164336Y-92921000D01*
X162855664Y-92921000D01*
X162552923Y-92981219D01*
X162267747Y-93099343D01*
X162011096Y-93270832D01*
X161792832Y-93489096D01*
X161621343Y-93745747D01*
X161503219Y-94030923D01*
X161443000Y-94333664D01*
X160617000Y-94333664D01*
X160556781Y-94030923D01*
X160438657Y-93745747D01*
X160267168Y-93489096D01*
X160048904Y-93270832D01*
X159792253Y-93099343D01*
X159507077Y-92981219D01*
X159204336Y-92921000D01*
X158895664Y-92921000D01*
X158592923Y-92981219D01*
X158307747Y-93099343D01*
X158051096Y-93270832D01*
X157832832Y-93489096D01*
X157661343Y-93745747D01*
X157543219Y-94030923D01*
X157483000Y-94333664D01*
X156657000Y-94333664D01*
X156596781Y-94030923D01*
X156478657Y-93745747D01*
X156307168Y-93489096D01*
X156088904Y-93270832D01*
X155832253Y-93099343D01*
X155547077Y-92981219D01*
X155244336Y-92921000D01*
X154935664Y-92921000D01*
X154632923Y-92981219D01*
X154347747Y-93099343D01*
X154091096Y-93270832D01*
X153872832Y-93489096D01*
X153701343Y-93745747D01*
X153583219Y-94030923D01*
X153523000Y-94333664D01*
X152697000Y-94333664D01*
X152636781Y-94030923D01*
X152518657Y-93745747D01*
X152347168Y-93489096D01*
X152128904Y-93270832D01*
X151872253Y-93099343D01*
X151587077Y-92981219D01*
X151284336Y-92921000D01*
X150975664Y-92921000D01*
X150672923Y-92981219D01*
X150387747Y-93099343D01*
X150131096Y-93270832D01*
X149912832Y-93489096D01*
X149741343Y-93745747D01*
X149623219Y-94030923D01*
X149563000Y-94333664D01*
X148875000Y-94333664D01*
X148814781Y-94030923D01*
X148696657Y-93745747D01*
X148525168Y-93489096D01*
X148306904Y-93270832D01*
X148050253Y-93099343D01*
X147765077Y-92981219D01*
X147462336Y-92921000D01*
X147153664Y-92921000D01*
X146850923Y-92981219D01*
X146565747Y-93099343D01*
X146309096Y-93270832D01*
X146090832Y-93489096D01*
X145919343Y-93745747D01*
X145801219Y-94030923D01*
X145741000Y-94333664D01*
X144915000Y-94333664D01*
X144854781Y-94030923D01*
X144736657Y-93745747D01*
X144565168Y-93489096D01*
X144346904Y-93270832D01*
X144090253Y-93099343D01*
X143805077Y-92981219D01*
X143502336Y-92921000D01*
X143193664Y-92921000D01*
X142890923Y-92981219D01*
X142605747Y-93099343D01*
X142349096Y-93270832D01*
X142130832Y-93489096D01*
X141959343Y-93745747D01*
X141841219Y-94030923D01*
X141781000Y-94333664D01*
X140955000Y-94333664D01*
X140894781Y-94030923D01*
X140776657Y-93745747D01*
X140605168Y-93489096D01*
X140386904Y-93270832D01*
X140130253Y-93099343D01*
X139845077Y-92981219D01*
X139542336Y-92921000D01*
X139233664Y-92921000D01*
X138930923Y-92981219D01*
X138645747Y-93099343D01*
X138389096Y-93270832D01*
X138170832Y-93489096D01*
X137999343Y-93745747D01*
X137881219Y-94030923D01*
X137821000Y-94333664D01*
X137202687Y-94333664D01*
X137202637Y-94309535D01*
X137133721Y-93966749D01*
X137002707Y-93650453D01*
X136738835Y-93527890D01*
X135778725Y-94488000D01*
X135077275Y-94488000D01*
X134117165Y-93527890D01*
X133853293Y-93650453D01*
X133720153Y-93973757D01*
X133652645Y-94316821D01*
X133242652Y-94316821D01*
X133242637Y-94309535D01*
X133173721Y-93966749D01*
X133042707Y-93650453D01*
X132778835Y-93527890D01*
X131818725Y-94488000D01*
X131117275Y-94488000D01*
X130157165Y-93527890D01*
X129893293Y-93650453D01*
X129760153Y-93973757D01*
X129692645Y-94316821D01*
X129282652Y-94316821D01*
X129282637Y-94309535D01*
X129213721Y-93966749D01*
X129082707Y-93650453D01*
X128818835Y-93527890D01*
X127858725Y-94488000D01*
X127157275Y-94488000D01*
X126197165Y-93527890D01*
X125933293Y-93650453D01*
X125928000Y-93663306D01*
X125928000Y-93177165D01*
X126547890Y-93177165D01*
X127508000Y-94137275D01*
X128468110Y-93177165D01*
X130507890Y-93177165D01*
X131468000Y-94137275D01*
X132428110Y-93177165D01*
X134467890Y-93177165D01*
X135428000Y-94137275D01*
X136388110Y-93177165D01*
X136265547Y-92913293D01*
X135942243Y-92780153D01*
X135599179Y-92712645D01*
X135249535Y-92713363D01*
X134906749Y-92782279D01*
X134590453Y-92913293D01*
X134467890Y-93177165D01*
X132428110Y-93177165D01*
X132305547Y-92913293D01*
X131982243Y-92780153D01*
X131639179Y-92712645D01*
X131289535Y-92713363D01*
X130946749Y-92782279D01*
X130630453Y-92913293D01*
X130507890Y-93177165D01*
X128468110Y-93177165D01*
X128345547Y-92913293D01*
X128022243Y-92780153D01*
X127679179Y-92712645D01*
X127329535Y-92713363D01*
X126986749Y-92782279D01*
X126670453Y-92913293D01*
X126547890Y-93177165D01*
X125928000Y-93177165D01*
X125928000Y-87320000D01*
X172522001Y-87320000D01*
X172522000Y-97513795D01*
%TD*%
M02*
