%TF.GenerationSoftware,KiCad,Pcbnew,(5.1.6)-1*%
%TF.CreationDate,2022-02-22T09:41:32-05:00*%
%TF.ProjectId,PICO-AT,5049434f-2d41-4542-9e6b-696361645f70,rev?*%
%TF.SameCoordinates,Original*%
%TF.FileFunction,Paste,Bot*%
%TF.FilePolarity,Positive*%
%FSLAX46Y46*%
G04 Gerber Fmt 4.6, Leading zero omitted, Abs format (unit mm)*
G04 Created by KiCad (PCBNEW (5.1.6)-1) date 2022-02-22 09:41:32*
%MOMM*%
%LPD*%
G01*
G04 APERTURE LIST*
G04 APERTURE END LIST*
%TO.C,C1*%
G36*
G01*
X128161000Y-115987001D02*
X128161000Y-114136999D01*
G75*
G02*
X128410999Y-113887000I249999J0D01*
G01*
X130161001Y-113887000D01*
G75*
G02*
X130411000Y-114136999I0J-249999D01*
G01*
X130411000Y-115987001D01*
G75*
G02*
X130161001Y-116237000I-249999J0D01*
G01*
X128410999Y-116237000D01*
G75*
G02*
X128161000Y-115987001I0J249999D01*
G01*
G37*
G36*
G01*
X123061000Y-115987001D02*
X123061000Y-114136999D01*
G75*
G02*
X123310999Y-113887000I249999J0D01*
G01*
X125061001Y-113887000D01*
G75*
G02*
X125311000Y-114136999I0J-249999D01*
G01*
X125311000Y-115987001D01*
G75*
G02*
X125061001Y-116237000I-249999J0D01*
G01*
X123310999Y-116237000D01*
G75*
G02*
X123061000Y-115987001I0J249999D01*
G01*
G37*
%TD*%
%TO.C,C2*%
G36*
G01*
X123061000Y-120305001D02*
X123061000Y-118454999D01*
G75*
G02*
X123310999Y-118205000I249999J0D01*
G01*
X125061001Y-118205000D01*
G75*
G02*
X125311000Y-118454999I0J-249999D01*
G01*
X125311000Y-120305001D01*
G75*
G02*
X125061001Y-120555000I-249999J0D01*
G01*
X123310999Y-120555000D01*
G75*
G02*
X123061000Y-120305001I0J249999D01*
G01*
G37*
G36*
G01*
X128161000Y-120305001D02*
X128161000Y-118454999D01*
G75*
G02*
X128410999Y-118205000I249999J0D01*
G01*
X130161001Y-118205000D01*
G75*
G02*
X130411000Y-118454999I0J-249999D01*
G01*
X130411000Y-120305001D01*
G75*
G02*
X130161001Y-120555000I-249999J0D01*
G01*
X128410999Y-120555000D01*
G75*
G02*
X128161000Y-120305001I0J249999D01*
G01*
G37*
%TD*%
%TO.C,-5V*%
G36*
G01*
X173803000Y-118421999D02*
X173803000Y-119322001D01*
G75*
G02*
X173553001Y-119572000I-249999J0D01*
G01*
X172902999Y-119572000D01*
G75*
G02*
X172653000Y-119322001I0J249999D01*
G01*
X172653000Y-118421999D01*
G75*
G02*
X172902999Y-118172000I249999J0D01*
G01*
X173553001Y-118172000D01*
G75*
G02*
X173803000Y-118421999I0J-249999D01*
G01*
G37*
G36*
G01*
X171753000Y-118421999D02*
X171753000Y-119322001D01*
G75*
G02*
X171503001Y-119572000I-249999J0D01*
G01*
X170852999Y-119572000D01*
G75*
G02*
X170603000Y-119322001I0J249999D01*
G01*
X170603000Y-118421999D01*
G75*
G02*
X170852999Y-118172000I249999J0D01*
G01*
X171503001Y-118172000D01*
G75*
G02*
X171753000Y-118421999I0J-249999D01*
G01*
G37*
%TD*%
%TO.C,5V*%
G36*
G01*
X166682000Y-118421999D02*
X166682000Y-119322001D01*
G75*
G02*
X166432001Y-119572000I-249999J0D01*
G01*
X165781999Y-119572000D01*
G75*
G02*
X165532000Y-119322001I0J249999D01*
G01*
X165532000Y-118421999D01*
G75*
G02*
X165781999Y-118172000I249999J0D01*
G01*
X166432001Y-118172000D01*
G75*
G02*
X166682000Y-118421999I0J-249999D01*
G01*
G37*
G36*
G01*
X168732000Y-118421999D02*
X168732000Y-119322001D01*
G75*
G02*
X168482001Y-119572000I-249999J0D01*
G01*
X167831999Y-119572000D01*
G75*
G02*
X167582000Y-119322001I0J249999D01*
G01*
X167582000Y-118421999D01*
G75*
G02*
X167831999Y-118172000I249999J0D01*
G01*
X168482001Y-118172000D01*
G75*
G02*
X168732000Y-118421999I0J-249999D01*
G01*
G37*
%TD*%
%TO.C,12V*%
G36*
G01*
X163652000Y-118421999D02*
X163652000Y-119322001D01*
G75*
G02*
X163402001Y-119572000I-249999J0D01*
G01*
X162751999Y-119572000D01*
G75*
G02*
X162502000Y-119322001I0J249999D01*
G01*
X162502000Y-118421999D01*
G75*
G02*
X162751999Y-118172000I249999J0D01*
G01*
X163402001Y-118172000D01*
G75*
G02*
X163652000Y-118421999I0J-249999D01*
G01*
G37*
G36*
G01*
X161602000Y-118421999D02*
X161602000Y-119322001D01*
G75*
G02*
X161352001Y-119572000I-249999J0D01*
G01*
X160701999Y-119572000D01*
G75*
G02*
X160452000Y-119322001I0J249999D01*
G01*
X160452000Y-118421999D01*
G75*
G02*
X160701999Y-118172000I249999J0D01*
G01*
X161352001Y-118172000D01*
G75*
G02*
X161602000Y-118421999I0J-249999D01*
G01*
G37*
%TD*%
%TO.C,PWR_OK*%
G36*
G01*
X156268000Y-118421999D02*
X156268000Y-119322001D01*
G75*
G02*
X156018001Y-119572000I-249999J0D01*
G01*
X155367999Y-119572000D01*
G75*
G02*
X155118000Y-119322001I0J249999D01*
G01*
X155118000Y-118421999D01*
G75*
G02*
X155367999Y-118172000I249999J0D01*
G01*
X156018001Y-118172000D01*
G75*
G02*
X156268000Y-118421999I0J-249999D01*
G01*
G37*
G36*
G01*
X158318000Y-118421999D02*
X158318000Y-119322001D01*
G75*
G02*
X158068001Y-119572000I-249999J0D01*
G01*
X157417999Y-119572000D01*
G75*
G02*
X157168000Y-119322001I0J249999D01*
G01*
X157168000Y-118421999D01*
G75*
G02*
X157417999Y-118172000I249999J0D01*
G01*
X158068001Y-118172000D01*
G75*
G02*
X158318000Y-118421999I0J-249999D01*
G01*
G37*
%TD*%
%TO.C,R1*%
G36*
G01*
X173803000Y-115119999D02*
X173803000Y-116020001D01*
G75*
G02*
X173553001Y-116270000I-249999J0D01*
G01*
X172902999Y-116270000D01*
G75*
G02*
X172653000Y-116020001I0J249999D01*
G01*
X172653000Y-115119999D01*
G75*
G02*
X172902999Y-114870000I249999J0D01*
G01*
X173553001Y-114870000D01*
G75*
G02*
X173803000Y-115119999I0J-249999D01*
G01*
G37*
G36*
G01*
X171753000Y-115119999D02*
X171753000Y-116020001D01*
G75*
G02*
X171503001Y-116270000I-249999J0D01*
G01*
X170852999Y-116270000D01*
G75*
G02*
X170603000Y-116020001I0J249999D01*
G01*
X170603000Y-115119999D01*
G75*
G02*
X170852999Y-114870000I249999J0D01*
G01*
X171503001Y-114870000D01*
G75*
G02*
X171753000Y-115119999I0J-249999D01*
G01*
G37*
%TD*%
%TO.C,R2*%
G36*
G01*
X166673000Y-115119999D02*
X166673000Y-116020001D01*
G75*
G02*
X166423001Y-116270000I-249999J0D01*
G01*
X165772999Y-116270000D01*
G75*
G02*
X165523000Y-116020001I0J249999D01*
G01*
X165523000Y-115119999D01*
G75*
G02*
X165772999Y-114870000I249999J0D01*
G01*
X166423001Y-114870000D01*
G75*
G02*
X166673000Y-115119999I0J-249999D01*
G01*
G37*
G36*
G01*
X168723000Y-115119999D02*
X168723000Y-116020001D01*
G75*
G02*
X168473001Y-116270000I-249999J0D01*
G01*
X167822999Y-116270000D01*
G75*
G02*
X167573000Y-116020001I0J249999D01*
G01*
X167573000Y-115119999D01*
G75*
G02*
X167822999Y-114870000I249999J0D01*
G01*
X168473001Y-114870000D01*
G75*
G02*
X168723000Y-115119999I0J-249999D01*
G01*
G37*
%TD*%
%TO.C,R3*%
G36*
G01*
X163652000Y-115119550D02*
X163652000Y-116020450D01*
G75*
G02*
X163402450Y-116270000I-249550J0D01*
G01*
X162751550Y-116270000D01*
G75*
G02*
X162502000Y-116020450I0J249550D01*
G01*
X162502000Y-115119550D01*
G75*
G02*
X162751550Y-114870000I249550J0D01*
G01*
X163402450Y-114870000D01*
G75*
G02*
X163652000Y-115119550I0J-249550D01*
G01*
G37*
G36*
G01*
X161602000Y-115119999D02*
X161602000Y-116020001D01*
G75*
G02*
X161352001Y-116270000I-249999J0D01*
G01*
X160701999Y-116270000D01*
G75*
G02*
X160452000Y-116020001I0J249999D01*
G01*
X160452000Y-115119999D01*
G75*
G02*
X160701999Y-114870000I249999J0D01*
G01*
X161352001Y-114870000D01*
G75*
G02*
X161602000Y-115119999I0J-249999D01*
G01*
G37*
%TD*%
%TO.C,R4*%
G36*
G01*
X156259000Y-115119999D02*
X156259000Y-116020001D01*
G75*
G02*
X156009001Y-116270000I-249999J0D01*
G01*
X155358999Y-116270000D01*
G75*
G02*
X155109000Y-116020001I0J249999D01*
G01*
X155109000Y-115119999D01*
G75*
G02*
X155358999Y-114870000I249999J0D01*
G01*
X156009001Y-114870000D01*
G75*
G02*
X156259000Y-115119999I0J-249999D01*
G01*
G37*
G36*
G01*
X158309000Y-115119999D02*
X158309000Y-116020001D01*
G75*
G02*
X158059001Y-116270000I-249999J0D01*
G01*
X157408999Y-116270000D01*
G75*
G02*
X157159000Y-116020001I0J249999D01*
G01*
X157159000Y-115119999D01*
G75*
G02*
X157408999Y-114870000I249999J0D01*
G01*
X158059001Y-114870000D01*
G75*
G02*
X158309000Y-115119999I0J-249999D01*
G01*
G37*
%TD*%
M02*
