M48
; DRILL file {KiCad (5.1.6)-1} date 02/22/22 09:41:35
; FORMAT={-:-/ absolute / metric / decimal}
; #@! TF.CreationDate,2022-02-22T09:41:35-05:00
; #@! TF.GenerationSoftware,Kicad,Pcbnew,(5.1.6)-1
; #@! TF.FileFunction,Plated,1,4,PTH
FMAT,2
METRIC
T1C0.400
T2C1.000
T3C1.100
T4C1.520
T5C1.800
%
G90
G05
T1
X122.428Y-115.062
X122.428Y-119.38
X124.206Y-113.03
X124.206Y-117.348
X124.206Y-121.158
X126.238Y-115.062
X126.238Y-119.38
X157.734Y-113.792
X159.512Y-118.364
X159.512Y-119.38
X164.592Y-118.364
X164.592Y-119.38
X168.148Y-113.792
X169.672Y-118.364
X169.672Y-119.38
X174.752Y-115.062
X174.752Y-116.078
T2
X155.702Y-98.806
X158.242Y-98.806
T3
X151.638Y-113.538
X151.638Y-116.078
X151.638Y-118.618
T4
X151.13Y-94.488
X155.09Y-94.488
X159.05Y-94.488
X163.01Y-94.488
X166.97Y-94.488
X170.93Y-94.488
X127.508Y-94.488
X131.468Y-94.488
X135.428Y-94.488
X139.388Y-94.488
X143.348Y-94.488
X147.308Y-94.488
T5
X125.758Y-102.196
X125.758Y-107.696
X129.958Y-102.196
X129.958Y-107.696
X134.158Y-102.196
X134.158Y-107.696
X138.358Y-102.196
X138.358Y-107.696
X142.558Y-102.196
X142.558Y-107.696
X146.758Y-102.196
X146.758Y-107.696
X150.958Y-102.196
X150.958Y-107.696
X155.158Y-102.196
X155.158Y-107.696
X159.358Y-102.196
X159.358Y-107.696
X163.558Y-102.196
X163.558Y-107.696
X167.758Y-102.196
X167.758Y-107.696
X171.958Y-102.196
X171.958Y-107.696
T0
M30
