%FSLAX45Y45*%
G04 Gerber Fmt 4.5, Leading zero omitted, Abs format (unit mm)*
G04 Created by KiCad (PCBNEW (5.1.6)-1) date 2022-02-22 09:41:35*
%MOMM*%
%LPD*%
G01*
G04 APERTURE LIST*
%TA.AperFunction,Profile*%
%ADD10C,0.050000*%
%TD*%
%ADD11C,0.200000*%
%ADD12C,0.300000*%
G04 APERTURE END LIST*
D10*
X12166600Y-9906000D02*
G75*
G02*
X12319000Y-9753600I152400J0D01*
G01*
X17449800Y-9753600D02*
G75*
G02*
X17602200Y-9906000I0J-152400D01*
G01*
X12547600Y-9753600D02*
X12319000Y-9753600D01*
X12547600Y-9753600D02*
X12547600Y-8686800D01*
X17297400Y-9753600D02*
X17297400Y-8686800D01*
X17449800Y-9753600D02*
X17297400Y-9753600D01*
X12166600Y-12166600D02*
X12166600Y-9906000D01*
X17424400Y-8686800D02*
X17424400Y-8686800D01*
X17602200Y-12166600D02*
X17602200Y-9906000D01*
X12166600Y-12166600D02*
X17602200Y-12166600D01*
X12547600Y-8686800D02*
X17297400Y-8686800D01*
D11*
X13322800Y-11432800D02*
X13672800Y-11782800D01*
X13672800Y-11432800D02*
X13322800Y-11782800D01*
D12*
X12450528Y-12634814D02*
X12450528Y-12334814D01*
X12521957Y-12334814D01*
X12564814Y-12349100D01*
X12593386Y-12377671D01*
X12607671Y-12406243D01*
X12621957Y-12463386D01*
X12621957Y-12506243D01*
X12607671Y-12563386D01*
X12593386Y-12591957D01*
X12564814Y-12620529D01*
X12521957Y-12634814D01*
X12450528Y-12634814D01*
X12750528Y-12634814D02*
X12750528Y-12434814D01*
X12750528Y-12491957D02*
X12764814Y-12463386D01*
X12779100Y-12449100D01*
X12807671Y-12434814D01*
X12836243Y-12434814D01*
X12936243Y-12634814D02*
X12936243Y-12434814D01*
X12936243Y-12334814D02*
X12921957Y-12349100D01*
X12936243Y-12363386D01*
X12950528Y-12349100D01*
X12936243Y-12334814D01*
X12936243Y-12363386D01*
X13121957Y-12634814D02*
X13093386Y-12620529D01*
X13079100Y-12591957D01*
X13079100Y-12334814D01*
X13279100Y-12634814D02*
X13250528Y-12620529D01*
X13236243Y-12591957D01*
X13236243Y-12334814D01*
X13621957Y-12634814D02*
X13621957Y-12334814D01*
X13721957Y-12549100D01*
X13821957Y-12334814D01*
X13821957Y-12634814D01*
X14093386Y-12634814D02*
X14093386Y-12477671D01*
X14079100Y-12449100D01*
X14050528Y-12434814D01*
X13993386Y-12434814D01*
X13964814Y-12449100D01*
X14093386Y-12620529D02*
X14064814Y-12634814D01*
X13993386Y-12634814D01*
X13964814Y-12620529D01*
X13950528Y-12591957D01*
X13950528Y-12563386D01*
X13964814Y-12534814D01*
X13993386Y-12520529D01*
X14064814Y-12520529D01*
X14093386Y-12506243D01*
X14236243Y-12434814D02*
X14236243Y-12734814D01*
X14236243Y-12449100D02*
X14264814Y-12434814D01*
X14321957Y-12434814D01*
X14350528Y-12449100D01*
X14364814Y-12463386D01*
X14379100Y-12491957D01*
X14379100Y-12577671D01*
X14364814Y-12606243D01*
X14350528Y-12620529D01*
X14321957Y-12634814D01*
X14264814Y-12634814D01*
X14236243Y-12620529D01*
X14507671Y-12606243D02*
X14521957Y-12620529D01*
X14507671Y-12634814D01*
X14493386Y-12620529D01*
X14507671Y-12606243D01*
X14507671Y-12634814D01*
X14507671Y-12449100D02*
X14521957Y-12463386D01*
X14507671Y-12477671D01*
X14493386Y-12463386D01*
X14507671Y-12449100D01*
X14507671Y-12477671D01*
X11814100Y-12954100D02*
X12164100Y-13304100D01*
X12164100Y-12954100D02*
X11814100Y-13304100D01*
X12421957Y-12964814D02*
X12607671Y-12964814D01*
X12507671Y-13079100D01*
X12550528Y-13079100D01*
X12579100Y-13093386D01*
X12593386Y-13107671D01*
X12607671Y-13136243D01*
X12607671Y-13207671D01*
X12593386Y-13236243D01*
X12579100Y-13250529D01*
X12550528Y-13264814D01*
X12464814Y-13264814D01*
X12436243Y-13250529D01*
X12421957Y-13236243D01*
X12736243Y-13236243D02*
X12750528Y-13250529D01*
X12736243Y-13264814D01*
X12721957Y-13250529D01*
X12736243Y-13236243D01*
X12736243Y-13264814D01*
X13021957Y-12964814D02*
X12879100Y-12964814D01*
X12864814Y-13107671D01*
X12879100Y-13093386D01*
X12907671Y-13079100D01*
X12979100Y-13079100D01*
X13007671Y-13093386D01*
X13021957Y-13107671D01*
X13036243Y-13136243D01*
X13036243Y-13207671D01*
X13021957Y-13236243D01*
X13007671Y-13250529D01*
X12979100Y-13264814D01*
X12907671Y-13264814D01*
X12879100Y-13250529D01*
X12864814Y-13236243D01*
X13221957Y-12964814D02*
X13250528Y-12964814D01*
X13279100Y-12979100D01*
X13293386Y-12993386D01*
X13307671Y-13021957D01*
X13321957Y-13079100D01*
X13321957Y-13150529D01*
X13307671Y-13207671D01*
X13293386Y-13236243D01*
X13279100Y-13250529D01*
X13250528Y-13264814D01*
X13221957Y-13264814D01*
X13193386Y-13250529D01*
X13179100Y-13236243D01*
X13164814Y-13207671D01*
X13150528Y-13150529D01*
X13150528Y-13079100D01*
X13164814Y-13021957D01*
X13179100Y-12993386D01*
X13193386Y-12979100D01*
X13221957Y-12964814D01*
X13450528Y-13264814D02*
X13450528Y-13064814D01*
X13450528Y-13093386D02*
X13464814Y-13079100D01*
X13493386Y-13064814D01*
X13536243Y-13064814D01*
X13564814Y-13079100D01*
X13579100Y-13107671D01*
X13579100Y-13264814D01*
X13579100Y-13107671D02*
X13593386Y-13079100D01*
X13621957Y-13064814D01*
X13664814Y-13064814D01*
X13693386Y-13079100D01*
X13707671Y-13107671D01*
X13707671Y-13264814D01*
X13850528Y-13264814D02*
X13850528Y-13064814D01*
X13850528Y-13093386D02*
X13864814Y-13079100D01*
X13893386Y-13064814D01*
X13936243Y-13064814D01*
X13964814Y-13079100D01*
X13979100Y-13107671D01*
X13979100Y-13264814D01*
X13979100Y-13107671D02*
X13993386Y-13079100D01*
X14021957Y-13064814D01*
X14064814Y-13064814D01*
X14093386Y-13079100D01*
X14107671Y-13107671D01*
X14107671Y-13264814D01*
X14693386Y-12950529D02*
X14436243Y-13336243D01*
X15079100Y-12964814D02*
X15107671Y-12964814D01*
X15136243Y-12979100D01*
X15150528Y-12993386D01*
X15164814Y-13021957D01*
X15179100Y-13079100D01*
X15179100Y-13150529D01*
X15164814Y-13207671D01*
X15150528Y-13236243D01*
X15136243Y-13250529D01*
X15107671Y-13264814D01*
X15079100Y-13264814D01*
X15050528Y-13250529D01*
X15036243Y-13236243D01*
X15021957Y-13207671D01*
X15007671Y-13150529D01*
X15007671Y-13079100D01*
X15021957Y-13021957D01*
X15036243Y-12993386D01*
X15050528Y-12979100D01*
X15079100Y-12964814D01*
X15307671Y-13236243D02*
X15321957Y-13250529D01*
X15307671Y-13264814D01*
X15293386Y-13250529D01*
X15307671Y-13236243D01*
X15307671Y-13264814D01*
X15607671Y-13264814D02*
X15436243Y-13264814D01*
X15521957Y-13264814D02*
X15521957Y-12964814D01*
X15493386Y-13007671D01*
X15464814Y-13036243D01*
X15436243Y-13050529D01*
X15707671Y-12964814D02*
X15893386Y-12964814D01*
X15793386Y-13079100D01*
X15836243Y-13079100D01*
X15864814Y-13093386D01*
X15879100Y-13107671D01*
X15893386Y-13136243D01*
X15893386Y-13207671D01*
X15879100Y-13236243D01*
X15864814Y-13250529D01*
X15836243Y-13264814D01*
X15750528Y-13264814D01*
X15721957Y-13250529D01*
X15707671Y-13236243D01*
X16064814Y-13093386D02*
X16036243Y-13079100D01*
X16021957Y-13064814D01*
X16007671Y-13036243D01*
X16007671Y-13021957D01*
X16021957Y-12993386D01*
X16036243Y-12979100D01*
X16064814Y-12964814D01*
X16121957Y-12964814D01*
X16150528Y-12979100D01*
X16164814Y-12993386D01*
X16179100Y-13021957D01*
X16179100Y-13036243D01*
X16164814Y-13064814D01*
X16150528Y-13079100D01*
X16121957Y-13093386D01*
X16064814Y-13093386D01*
X16036243Y-13107671D01*
X16021957Y-13121957D01*
X16007671Y-13150529D01*
X16007671Y-13207671D01*
X16021957Y-13236243D01*
X16036243Y-13250529D01*
X16064814Y-13264814D01*
X16121957Y-13264814D01*
X16150528Y-13250529D01*
X16164814Y-13236243D01*
X16179100Y-13207671D01*
X16179100Y-13150529D01*
X16164814Y-13121957D01*
X16150528Y-13107671D01*
X16121957Y-13093386D01*
X16293386Y-12964814D02*
X16293386Y-13021957D01*
X16407671Y-12964814D02*
X16407671Y-13021957D01*
X16850528Y-13379100D02*
X16836243Y-13364814D01*
X16807671Y-13321957D01*
X16793386Y-13293386D01*
X16779100Y-13250529D01*
X16764814Y-13179100D01*
X16764814Y-13121957D01*
X16779100Y-13050529D01*
X16793386Y-13007671D01*
X16807671Y-12979100D01*
X16836243Y-12936243D01*
X16850528Y-12921957D01*
X17121957Y-13264814D02*
X16950528Y-13264814D01*
X17036243Y-13264814D02*
X17036243Y-12964814D01*
X17007671Y-13007671D01*
X16979100Y-13036243D01*
X16950528Y-13050529D01*
X17479100Y-13264814D02*
X17479100Y-12964814D01*
X17607671Y-13264814D02*
X17607671Y-13107671D01*
X17593386Y-13079100D01*
X17564814Y-13064814D01*
X17521957Y-13064814D01*
X17493386Y-13079100D01*
X17479100Y-13093386D01*
X17793386Y-13264814D02*
X17764814Y-13250529D01*
X17750528Y-13236243D01*
X17736243Y-13207671D01*
X17736243Y-13121957D01*
X17750528Y-13093386D01*
X17764814Y-13079100D01*
X17793386Y-13064814D01*
X17836243Y-13064814D01*
X17864814Y-13079100D01*
X17879100Y-13093386D01*
X17893386Y-13121957D01*
X17893386Y-13207671D01*
X17879100Y-13236243D01*
X17864814Y-13250529D01*
X17836243Y-13264814D01*
X17793386Y-13264814D01*
X18064814Y-13264814D02*
X18036243Y-13250529D01*
X18021957Y-13221957D01*
X18021957Y-12964814D01*
X18293386Y-13250529D02*
X18264814Y-13264814D01*
X18207671Y-13264814D01*
X18179100Y-13250529D01*
X18164814Y-13221957D01*
X18164814Y-13107671D01*
X18179100Y-13079100D01*
X18207671Y-13064814D01*
X18264814Y-13064814D01*
X18293386Y-13079100D01*
X18307671Y-13107671D01*
X18307671Y-13136243D01*
X18164814Y-13164814D01*
X18407671Y-13379100D02*
X18421957Y-13364814D01*
X18450528Y-13321957D01*
X18464814Y-13293386D01*
X18479100Y-13250529D01*
X18493386Y-13179100D01*
X18493386Y-13121957D01*
X18479100Y-13050529D01*
X18464814Y-13007671D01*
X18450528Y-12979100D01*
X18421957Y-12936243D01*
X18407671Y-12921957D01*
X18950528Y-13379100D02*
X18936243Y-13364814D01*
X18907671Y-13321957D01*
X18893386Y-13293386D01*
X18879100Y-13250529D01*
X18864814Y-13179100D01*
X18864814Y-13121957D01*
X18879100Y-13050529D01*
X18893386Y-13007671D01*
X18907671Y-12979100D01*
X18936243Y-12936243D01*
X18950528Y-12921957D01*
X19064814Y-13064814D02*
X19064814Y-13264814D01*
X19064814Y-13093386D02*
X19079100Y-13079100D01*
X19107671Y-13064814D01*
X19150528Y-13064814D01*
X19179100Y-13079100D01*
X19193386Y-13107671D01*
X19193386Y-13264814D01*
X19379100Y-13264814D02*
X19350528Y-13250529D01*
X19336243Y-13236243D01*
X19321957Y-13207671D01*
X19321957Y-13121957D01*
X19336243Y-13093386D01*
X19350528Y-13079100D01*
X19379100Y-13064814D01*
X19421957Y-13064814D01*
X19450528Y-13079100D01*
X19464814Y-13093386D01*
X19479100Y-13121957D01*
X19479100Y-13207671D01*
X19464814Y-13236243D01*
X19450528Y-13250529D01*
X19421957Y-13264814D01*
X19379100Y-13264814D01*
X19564814Y-13064814D02*
X19679100Y-13064814D01*
X19607671Y-12964814D02*
X19607671Y-13221957D01*
X19621957Y-13250529D01*
X19650528Y-13264814D01*
X19679100Y-13264814D01*
X20007671Y-13064814D02*
X20007671Y-13364814D01*
X20007671Y-13079100D02*
X20036243Y-13064814D01*
X20093386Y-13064814D01*
X20121957Y-13079100D01*
X20136243Y-13093386D01*
X20150528Y-13121957D01*
X20150528Y-13207671D01*
X20136243Y-13236243D01*
X20121957Y-13250529D01*
X20093386Y-13264814D01*
X20036243Y-13264814D01*
X20007671Y-13250529D01*
X20321957Y-13264814D02*
X20293386Y-13250529D01*
X20279100Y-13221957D01*
X20279100Y-12964814D01*
X20564814Y-13264814D02*
X20564814Y-13107671D01*
X20550528Y-13079100D01*
X20521957Y-13064814D01*
X20464814Y-13064814D01*
X20436243Y-13079100D01*
X20564814Y-13250529D02*
X20536243Y-13264814D01*
X20464814Y-13264814D01*
X20436243Y-13250529D01*
X20421957Y-13221957D01*
X20421957Y-13193386D01*
X20436243Y-13164814D01*
X20464814Y-13150529D01*
X20536243Y-13150529D01*
X20564814Y-13136243D01*
X20664814Y-13064814D02*
X20779100Y-13064814D01*
X20707671Y-12964814D02*
X20707671Y-13221957D01*
X20721957Y-13250529D01*
X20750528Y-13264814D01*
X20779100Y-13264814D01*
X20993386Y-13250529D02*
X20964814Y-13264814D01*
X20907671Y-13264814D01*
X20879100Y-13250529D01*
X20864814Y-13221957D01*
X20864814Y-13107671D01*
X20879100Y-13079100D01*
X20907671Y-13064814D01*
X20964814Y-13064814D01*
X20993386Y-13079100D01*
X21007671Y-13107671D01*
X21007671Y-13136243D01*
X20864814Y-13164814D01*
X21264814Y-13264814D02*
X21264814Y-12964814D01*
X21264814Y-13250529D02*
X21236243Y-13264814D01*
X21179100Y-13264814D01*
X21150528Y-13250529D01*
X21136243Y-13236243D01*
X21121957Y-13207671D01*
X21121957Y-13121957D01*
X21136243Y-13093386D01*
X21150528Y-13079100D01*
X21179100Y-13064814D01*
X21236243Y-13064814D01*
X21264814Y-13079100D01*
X21379100Y-13379100D02*
X21393386Y-13364814D01*
X21421957Y-13321957D01*
X21436243Y-13293386D01*
X21450528Y-13250529D01*
X21464814Y-13179100D01*
X21464814Y-13121957D01*
X21450528Y-13050529D01*
X21436243Y-13007671D01*
X21421957Y-12979100D01*
X21393386Y-12936243D01*
X21379100Y-12921957D01*
M02*
