%TF.GenerationSoftware,KiCad,Pcbnew,(5.1.6)-1*%
%TF.CreationDate,2022-02-22T09:41:32-05:00*%
%TF.ProjectId,PICO-AT,5049434f-2d41-4542-9e6b-696361645f70,rev?*%
%TF.SameCoordinates,Original*%
%TF.FileFunction,Copper,L1,Top*%
%TF.FilePolarity,Positive*%
%FSLAX46Y46*%
G04 Gerber Fmt 4.6, Leading zero omitted, Abs format (unit mm)*
G04 Created by KiCad (PCBNEW (5.1.6)-1) date 2022-02-22 09:41:32*
%MOMM*%
%LPD*%
G01*
G04 APERTURE LIST*
%TA.AperFunction,ComponentPad*%
%ADD10C,2.280000*%
%TD*%
%TA.AperFunction,ComponentPad*%
%ADD11R,2.150000X2.150000*%
%TD*%
%TA.AperFunction,ComponentPad*%
%ADD12C,2.150000*%
%TD*%
%TA.AperFunction,ComponentPad*%
%ADD13R,2.000000X1.905000*%
%TD*%
%TA.AperFunction,ComponentPad*%
%ADD14O,2.000000X1.905000*%
%TD*%
%TA.AperFunction,ComponentPad*%
%ADD15R,1.700000X1.700000*%
%TD*%
%TA.AperFunction,ComponentPad*%
%ADD16O,1.700000X1.700000*%
%TD*%
%TA.AperFunction,ViaPad*%
%ADD17C,0.800000*%
%TD*%
%TA.AperFunction,Conductor*%
%ADD18C,0.254000*%
%TD*%
G04 APERTURE END LIST*
D10*
%TO.P,J1,1*%
%TO.N,/GND*%
X151130000Y-94488000D03*
%TO.P,J1,2*%
X155090000Y-94488000D03*
%TO.P,J1,3*%
%TO.N,/-12V*%
X159050000Y-94488000D03*
%TO.P,J1,4*%
%TO.N,/12V*%
X163010000Y-94488000D03*
%TO.P,J1,5*%
%TO.N,/5V*%
X166970000Y-94488000D03*
%TO.P,J1,6*%
%TO.N,/PG*%
X170930000Y-94488000D03*
%TD*%
%TO.P,J2,6*%
%TO.N,/GND*%
X147308000Y-94488000D03*
%TO.P,J2,5*%
X143348000Y-94488000D03*
%TO.P,J2,4*%
%TO.N,/-5V*%
X139388000Y-94488000D03*
%TO.P,J2,3*%
%TO.N,/5V*%
X135428000Y-94488000D03*
%TO.P,J2,2*%
X131468000Y-94488000D03*
%TO.P,J2,1*%
X127508000Y-94488000D03*
%TD*%
D11*
%TO.P,J3,1*%
%TO.N,/3.3V*%
X171958000Y-107696000D03*
D12*
%TO.P,J3,2*%
X167758000Y-107696000D03*
%TO.P,J3,3*%
%TO.N,/GND*%
X163558000Y-107696000D03*
%TO.P,J3,4*%
%TO.N,/5V*%
X159358000Y-107696000D03*
%TO.P,J3,5*%
%TO.N,/GND*%
X155158000Y-107696000D03*
%TO.P,J3,6*%
%TO.N,/5V*%
X150958000Y-107696000D03*
%TO.P,J3,7*%
%TO.N,/GND*%
X146758000Y-107696000D03*
%TO.P,J3,8*%
%TO.N,/PG*%
X142558000Y-107696000D03*
%TO.P,J3,9*%
%TO.N,/5VSB*%
X138358000Y-107696000D03*
%TO.P,J3,10*%
%TO.N,/12V*%
X134158000Y-107696000D03*
%TO.P,J3,11*%
X129958000Y-107696000D03*
%TO.P,J3,12*%
%TO.N,/3.3V*%
X125758000Y-107696000D03*
%TO.P,J3,13*%
X171958000Y-102196000D03*
%TO.P,J3,14*%
%TO.N,/-12V*%
X167758000Y-102196000D03*
%TO.P,J3,15*%
%TO.N,/GND*%
X163558000Y-102196000D03*
%TO.P,J3,16*%
%TO.N,/PS-ON*%
X159358000Y-102196000D03*
%TO.P,J3,17*%
%TO.N,/GND*%
X155158000Y-102196000D03*
%TO.P,J3,18*%
X150958000Y-102196000D03*
%TO.P,J3,19*%
X146758000Y-102196000D03*
%TO.P,J3,20*%
%TO.N,Net-(J3-Pad20)*%
X142558000Y-102196000D03*
%TO.P,J3,21*%
%TO.N,/5V*%
X138358000Y-102196000D03*
%TO.P,J3,22*%
X134158000Y-102196000D03*
%TO.P,J3,23*%
X129958000Y-102196000D03*
%TO.P,J3,24*%
%TO.N,/GND*%
X125758000Y-102196000D03*
%TD*%
D13*
%TO.P,U1,1*%
%TO.N,/GND*%
X151638000Y-113538000D03*
D14*
%TO.P,U1,2*%
%TO.N,/-12V*%
X151638000Y-116078000D03*
%TO.P,U1,3*%
%TO.N,/-5V*%
X151638000Y-118618000D03*
%TD*%
D15*
%TO.P,PWR,1*%
%TO.N,/PS-ON*%
X158242000Y-98806000D03*
D16*
%TO.P,PWR,2*%
%TO.N,/GND*%
X155702000Y-98806000D03*
%TD*%
D17*
%TO.N,/GND*%
X169672000Y-118364000D03*
X169672000Y-119380000D03*
X159512000Y-118364000D03*
X159512000Y-119380000D03*
X164592000Y-118364000D03*
X164592000Y-119380000D03*
X174752000Y-115062000D03*
X174752000Y-116078000D03*
X124206000Y-113030000D03*
X126238000Y-115062000D03*
X124206000Y-117348000D03*
X126238000Y-119380000D03*
X122428000Y-115062000D03*
X122428000Y-119380000D03*
X124206000Y-121158000D03*
%TO.N,/5V*%
X168148000Y-113792000D03*
%TO.N,/PG*%
X157734000Y-113792000D03*
%TD*%
D18*
%TO.N,/5V*%
G36*
X172522000Y-97513795D02*
G01*
X172519813Y-97536000D01*
X172528540Y-97624607D01*
X172554386Y-97709810D01*
X172596357Y-97788333D01*
X172642825Y-97844954D01*
X172652841Y-97857159D01*
X172721667Y-97913643D01*
X172800190Y-97955614D01*
X172885393Y-97981460D01*
X172974000Y-97990187D01*
X172996205Y-97988000D01*
X174475892Y-97988000D01*
X174705800Y-98010542D01*
X174905678Y-98070889D01*
X175090039Y-98168916D01*
X175251839Y-98300876D01*
X175384932Y-98461759D01*
X175484240Y-98645425D01*
X175545981Y-98844878D01*
X175570001Y-99073411D01*
X175570000Y-114935305D01*
X175547218Y-114820773D01*
X175484877Y-114670269D01*
X175394372Y-114534819D01*
X175279181Y-114419628D01*
X175143731Y-114329123D01*
X174993227Y-114266782D01*
X174833452Y-114235000D01*
X174670548Y-114235000D01*
X174510773Y-114266782D01*
X174360269Y-114329123D01*
X174224819Y-114419628D01*
X174109628Y-114534819D01*
X174019123Y-114670269D01*
X173956782Y-114820773D01*
X173925000Y-114980548D01*
X173925000Y-115143452D01*
X173956782Y-115303227D01*
X174019123Y-115453731D01*
X174096812Y-115570000D01*
X174019123Y-115686269D01*
X173956782Y-115836773D01*
X173925000Y-115996548D01*
X173925000Y-116159452D01*
X173956782Y-116319227D01*
X174019123Y-116469731D01*
X174109628Y-116605181D01*
X174224819Y-116720372D01*
X174360269Y-116810877D01*
X174510773Y-116873218D01*
X174670548Y-116905000D01*
X174833452Y-116905000D01*
X174993227Y-116873218D01*
X175143731Y-116810877D01*
X175279181Y-116720372D01*
X175394372Y-116605181D01*
X175484877Y-116469731D01*
X175547218Y-116319227D01*
X175570000Y-116204696D01*
X175570000Y-121214000D01*
X125033000Y-121214000D01*
X125033000Y-121076548D01*
X125001218Y-120916773D01*
X124938877Y-120766269D01*
X124848372Y-120630819D01*
X124733181Y-120515628D01*
X124597731Y-120425123D01*
X124447227Y-120362782D01*
X124287452Y-120331000D01*
X124124548Y-120331000D01*
X123964773Y-120362782D01*
X123814269Y-120425123D01*
X123678819Y-120515628D01*
X123563628Y-120630819D01*
X123473123Y-120766269D01*
X123410782Y-120916773D01*
X123379000Y-121076548D01*
X123379000Y-121214000D01*
X122118000Y-121214000D01*
X122118000Y-120146731D01*
X122186773Y-120175218D01*
X122346548Y-120207000D01*
X122509452Y-120207000D01*
X122669227Y-120175218D01*
X122819731Y-120112877D01*
X122955181Y-120022372D01*
X123070372Y-119907181D01*
X123160877Y-119771731D01*
X123223218Y-119621227D01*
X123255000Y-119461452D01*
X123255000Y-119298548D01*
X125411000Y-119298548D01*
X125411000Y-119461452D01*
X125442782Y-119621227D01*
X125505123Y-119771731D01*
X125595628Y-119907181D01*
X125710819Y-120022372D01*
X125846269Y-120112877D01*
X125996773Y-120175218D01*
X126156548Y-120207000D01*
X126319452Y-120207000D01*
X126479227Y-120175218D01*
X126629731Y-120112877D01*
X126765181Y-120022372D01*
X126880372Y-119907181D01*
X126970877Y-119771731D01*
X127033218Y-119621227D01*
X127065000Y-119461452D01*
X127065000Y-119298548D01*
X127033218Y-119138773D01*
X126970877Y-118988269D01*
X126880372Y-118852819D01*
X126765181Y-118737628D01*
X126629731Y-118647123D01*
X126479227Y-118584782D01*
X126319452Y-118553000D01*
X126156548Y-118553000D01*
X125996773Y-118584782D01*
X125846269Y-118647123D01*
X125710819Y-118737628D01*
X125595628Y-118852819D01*
X125505123Y-118988269D01*
X125442782Y-119138773D01*
X125411000Y-119298548D01*
X123255000Y-119298548D01*
X123223218Y-119138773D01*
X123160877Y-118988269D01*
X123070372Y-118852819D01*
X122955181Y-118737628D01*
X122819731Y-118647123D01*
X122669227Y-118584782D01*
X122509452Y-118553000D01*
X122346548Y-118553000D01*
X122186773Y-118584782D01*
X122118000Y-118613269D01*
X122118000Y-117266548D01*
X123379000Y-117266548D01*
X123379000Y-117429452D01*
X123410782Y-117589227D01*
X123473123Y-117739731D01*
X123563628Y-117875181D01*
X123678819Y-117990372D01*
X123814269Y-118080877D01*
X123964773Y-118143218D01*
X124124548Y-118175000D01*
X124287452Y-118175000D01*
X124447227Y-118143218D01*
X124597731Y-118080877D01*
X124733181Y-117990372D01*
X124848372Y-117875181D01*
X124938877Y-117739731D01*
X125001218Y-117589227D01*
X125033000Y-117429452D01*
X125033000Y-117266548D01*
X125001218Y-117106773D01*
X124938877Y-116956269D01*
X124848372Y-116820819D01*
X124733181Y-116705628D01*
X124597731Y-116615123D01*
X124447227Y-116552782D01*
X124287452Y-116521000D01*
X124124548Y-116521000D01*
X123964773Y-116552782D01*
X123814269Y-116615123D01*
X123678819Y-116705628D01*
X123563628Y-116820819D01*
X123473123Y-116956269D01*
X123410782Y-117106773D01*
X123379000Y-117266548D01*
X122118000Y-117266548D01*
X122118000Y-115828731D01*
X122186773Y-115857218D01*
X122346548Y-115889000D01*
X122509452Y-115889000D01*
X122669227Y-115857218D01*
X122819731Y-115794877D01*
X122955181Y-115704372D01*
X123070372Y-115589181D01*
X123160877Y-115453731D01*
X123223218Y-115303227D01*
X123255000Y-115143452D01*
X123255000Y-114980548D01*
X125411000Y-114980548D01*
X125411000Y-115143452D01*
X125442782Y-115303227D01*
X125505123Y-115453731D01*
X125595628Y-115589181D01*
X125710819Y-115704372D01*
X125846269Y-115794877D01*
X125996773Y-115857218D01*
X126156548Y-115889000D01*
X126319452Y-115889000D01*
X126447223Y-115863584D01*
X132801000Y-115863584D01*
X132801000Y-116292416D01*
X132884660Y-116713008D01*
X133048767Y-117109196D01*
X133287013Y-117465757D01*
X133590243Y-117768987D01*
X133946804Y-118007233D01*
X134342992Y-118171340D01*
X134763584Y-118255000D01*
X135192416Y-118255000D01*
X135613008Y-118171340D01*
X136009196Y-118007233D01*
X136365757Y-117768987D01*
X136668987Y-117465757D01*
X136907233Y-117109196D01*
X137071340Y-116713008D01*
X137155000Y-116292416D01*
X137155000Y-116078000D01*
X150204326Y-116078000D01*
X150230961Y-116348429D01*
X150309842Y-116608466D01*
X150437938Y-116848117D01*
X150610327Y-117058173D01*
X150820383Y-117230562D01*
X151040094Y-117348000D01*
X150820383Y-117465438D01*
X150610327Y-117637827D01*
X150437938Y-117847883D01*
X150309842Y-118087534D01*
X150230961Y-118347571D01*
X150204326Y-118618000D01*
X150230961Y-118888429D01*
X150309842Y-119148466D01*
X150437938Y-119388117D01*
X150610327Y-119598173D01*
X150820383Y-119770562D01*
X151060034Y-119898658D01*
X151320071Y-119977539D01*
X151522738Y-119997500D01*
X151753262Y-119997500D01*
X151955929Y-119977539D01*
X152215966Y-119898658D01*
X152455617Y-119770562D01*
X152665673Y-119598173D01*
X152838062Y-119388117D01*
X152966158Y-119148466D01*
X153045039Y-118888429D01*
X153071674Y-118618000D01*
X153045039Y-118347571D01*
X153025315Y-118282548D01*
X158685000Y-118282548D01*
X158685000Y-118445452D01*
X158716782Y-118605227D01*
X158779123Y-118755731D01*
X158856812Y-118872000D01*
X158779123Y-118988269D01*
X158716782Y-119138773D01*
X158685000Y-119298548D01*
X158685000Y-119461452D01*
X158716782Y-119621227D01*
X158779123Y-119771731D01*
X158869628Y-119907181D01*
X158984819Y-120022372D01*
X159120269Y-120112877D01*
X159270773Y-120175218D01*
X159430548Y-120207000D01*
X159593452Y-120207000D01*
X159753227Y-120175218D01*
X159903731Y-120112877D01*
X160039181Y-120022372D01*
X160154372Y-119907181D01*
X160244877Y-119771731D01*
X160307218Y-119621227D01*
X160339000Y-119461452D01*
X160339000Y-119298548D01*
X160307218Y-119138773D01*
X160244877Y-118988269D01*
X160167188Y-118872000D01*
X160244877Y-118755731D01*
X160307218Y-118605227D01*
X160339000Y-118445452D01*
X160339000Y-118282548D01*
X163765000Y-118282548D01*
X163765000Y-118445452D01*
X163796782Y-118605227D01*
X163859123Y-118755731D01*
X163936812Y-118872000D01*
X163859123Y-118988269D01*
X163796782Y-119138773D01*
X163765000Y-119298548D01*
X163765000Y-119461452D01*
X163796782Y-119621227D01*
X163859123Y-119771731D01*
X163949628Y-119907181D01*
X164064819Y-120022372D01*
X164200269Y-120112877D01*
X164350773Y-120175218D01*
X164510548Y-120207000D01*
X164673452Y-120207000D01*
X164833227Y-120175218D01*
X164983731Y-120112877D01*
X165119181Y-120022372D01*
X165234372Y-119907181D01*
X165324877Y-119771731D01*
X165387218Y-119621227D01*
X165419000Y-119461452D01*
X165419000Y-119298548D01*
X165387218Y-119138773D01*
X165324877Y-118988269D01*
X165247188Y-118872000D01*
X165324877Y-118755731D01*
X165387218Y-118605227D01*
X165419000Y-118445452D01*
X165419000Y-118282548D01*
X168845000Y-118282548D01*
X168845000Y-118445452D01*
X168876782Y-118605227D01*
X168939123Y-118755731D01*
X169016812Y-118872000D01*
X168939123Y-118988269D01*
X168876782Y-119138773D01*
X168845000Y-119298548D01*
X168845000Y-119461452D01*
X168876782Y-119621227D01*
X168939123Y-119771731D01*
X169029628Y-119907181D01*
X169144819Y-120022372D01*
X169280269Y-120112877D01*
X169430773Y-120175218D01*
X169590548Y-120207000D01*
X169753452Y-120207000D01*
X169913227Y-120175218D01*
X170063731Y-120112877D01*
X170199181Y-120022372D01*
X170314372Y-119907181D01*
X170404877Y-119771731D01*
X170467218Y-119621227D01*
X170499000Y-119461452D01*
X170499000Y-119298548D01*
X170467218Y-119138773D01*
X170404877Y-118988269D01*
X170327188Y-118872000D01*
X170404877Y-118755731D01*
X170467218Y-118605227D01*
X170499000Y-118445452D01*
X170499000Y-118282548D01*
X170467218Y-118122773D01*
X170404877Y-117972269D01*
X170314372Y-117836819D01*
X170199181Y-117721628D01*
X170063731Y-117631123D01*
X169913227Y-117568782D01*
X169753452Y-117537000D01*
X169590548Y-117537000D01*
X169430773Y-117568782D01*
X169280269Y-117631123D01*
X169144819Y-117721628D01*
X169029628Y-117836819D01*
X168939123Y-117972269D01*
X168876782Y-118122773D01*
X168845000Y-118282548D01*
X165419000Y-118282548D01*
X165387218Y-118122773D01*
X165324877Y-117972269D01*
X165234372Y-117836819D01*
X165119181Y-117721628D01*
X164983731Y-117631123D01*
X164833227Y-117568782D01*
X164673452Y-117537000D01*
X164510548Y-117537000D01*
X164350773Y-117568782D01*
X164200269Y-117631123D01*
X164064819Y-117721628D01*
X163949628Y-117836819D01*
X163859123Y-117972269D01*
X163796782Y-118122773D01*
X163765000Y-118282548D01*
X160339000Y-118282548D01*
X160307218Y-118122773D01*
X160244877Y-117972269D01*
X160154372Y-117836819D01*
X160039181Y-117721628D01*
X159903731Y-117631123D01*
X159753227Y-117568782D01*
X159593452Y-117537000D01*
X159430548Y-117537000D01*
X159270773Y-117568782D01*
X159120269Y-117631123D01*
X158984819Y-117721628D01*
X158869628Y-117836819D01*
X158779123Y-117972269D01*
X158716782Y-118122773D01*
X158685000Y-118282548D01*
X153025315Y-118282548D01*
X152966158Y-118087534D01*
X152838062Y-117847883D01*
X152665673Y-117637827D01*
X152455617Y-117465438D01*
X152235906Y-117348000D01*
X152455617Y-117230562D01*
X152665673Y-117058173D01*
X152838062Y-116848117D01*
X152966158Y-116608466D01*
X153045039Y-116348429D01*
X153071674Y-116078000D01*
X153045039Y-115807571D01*
X152966158Y-115547534D01*
X152838062Y-115307883D01*
X152665673Y-115097827D01*
X152455617Y-114925438D01*
X152444631Y-114919566D01*
X152638000Y-114919566D01*
X152721707Y-114911322D01*
X152802196Y-114886905D01*
X152876376Y-114847255D01*
X152941395Y-114793895D01*
X152994755Y-114728876D01*
X153034405Y-114654696D01*
X153058822Y-114574207D01*
X153067066Y-114490500D01*
X153067066Y-113710548D01*
X156907000Y-113710548D01*
X156907000Y-113873452D01*
X156938782Y-114033227D01*
X157001123Y-114183731D01*
X157091628Y-114319181D01*
X157206819Y-114434372D01*
X157342269Y-114524877D01*
X157492773Y-114587218D01*
X157652548Y-114619000D01*
X157815452Y-114619000D01*
X157975227Y-114587218D01*
X158125731Y-114524877D01*
X158261181Y-114434372D01*
X158376372Y-114319181D01*
X158466877Y-114183731D01*
X158529218Y-114033227D01*
X158561000Y-113873452D01*
X158561000Y-113710548D01*
X158529218Y-113550773D01*
X158466877Y-113400269D01*
X158376372Y-113264819D01*
X158261181Y-113149628D01*
X158125731Y-113059123D01*
X157975227Y-112996782D01*
X157815452Y-112965000D01*
X157652548Y-112965000D01*
X157492773Y-112996782D01*
X157342269Y-113059123D01*
X157206819Y-113149628D01*
X157091628Y-113264819D01*
X157001123Y-113400269D01*
X156938782Y-113550773D01*
X156907000Y-113710548D01*
X153067066Y-113710548D01*
X153067066Y-112585500D01*
X153058822Y-112501793D01*
X153034405Y-112421304D01*
X152994755Y-112347124D01*
X152941395Y-112282105D01*
X152876376Y-112228745D01*
X152802196Y-112189095D01*
X152721707Y-112164678D01*
X152638000Y-112156434D01*
X150638000Y-112156434D01*
X150554293Y-112164678D01*
X150473804Y-112189095D01*
X150399624Y-112228745D01*
X150334605Y-112282105D01*
X150281245Y-112347124D01*
X150241595Y-112421304D01*
X150217178Y-112501793D01*
X150208934Y-112585500D01*
X150208934Y-114490500D01*
X150217178Y-114574207D01*
X150241595Y-114654696D01*
X150281245Y-114728876D01*
X150334605Y-114793895D01*
X150399624Y-114847255D01*
X150473804Y-114886905D01*
X150554293Y-114911322D01*
X150638000Y-114919566D01*
X150831369Y-114919566D01*
X150820383Y-114925438D01*
X150610327Y-115097827D01*
X150437938Y-115307883D01*
X150309842Y-115547534D01*
X150230961Y-115807571D01*
X150204326Y-116078000D01*
X137155000Y-116078000D01*
X137155000Y-115863584D01*
X137071340Y-115442992D01*
X136907233Y-115046804D01*
X136668987Y-114690243D01*
X136365757Y-114387013D01*
X136009196Y-114148767D01*
X135613008Y-113984660D01*
X135192416Y-113901000D01*
X134763584Y-113901000D01*
X134342992Y-113984660D01*
X133946804Y-114148767D01*
X133590243Y-114387013D01*
X133287013Y-114690243D01*
X133048767Y-115046804D01*
X132884660Y-115442992D01*
X132801000Y-115863584D01*
X126447223Y-115863584D01*
X126479227Y-115857218D01*
X126629731Y-115794877D01*
X126765181Y-115704372D01*
X126880372Y-115589181D01*
X126970877Y-115453731D01*
X127033218Y-115303227D01*
X127065000Y-115143452D01*
X127065000Y-114980548D01*
X127033218Y-114820773D01*
X126970877Y-114670269D01*
X126880372Y-114534819D01*
X126765181Y-114419628D01*
X126629731Y-114329123D01*
X126479227Y-114266782D01*
X126319452Y-114235000D01*
X126156548Y-114235000D01*
X125996773Y-114266782D01*
X125846269Y-114329123D01*
X125710819Y-114419628D01*
X125595628Y-114534819D01*
X125505123Y-114670269D01*
X125442782Y-114820773D01*
X125411000Y-114980548D01*
X123255000Y-114980548D01*
X123223218Y-114820773D01*
X123160877Y-114670269D01*
X123070372Y-114534819D01*
X122955181Y-114419628D01*
X122819731Y-114329123D01*
X122669227Y-114266782D01*
X122509452Y-114235000D01*
X122346548Y-114235000D01*
X122186773Y-114266782D01*
X122118000Y-114295269D01*
X122118000Y-112948548D01*
X123379000Y-112948548D01*
X123379000Y-113111452D01*
X123410782Y-113271227D01*
X123473123Y-113421731D01*
X123563628Y-113557181D01*
X123678819Y-113672372D01*
X123814269Y-113762877D01*
X123964773Y-113825218D01*
X124124548Y-113857000D01*
X124287452Y-113857000D01*
X124447227Y-113825218D01*
X124597731Y-113762877D01*
X124733181Y-113672372D01*
X124848372Y-113557181D01*
X124938877Y-113421731D01*
X125001218Y-113271227D01*
X125033000Y-113111452D01*
X125033000Y-112948548D01*
X125001218Y-112788773D01*
X124938877Y-112638269D01*
X124848372Y-112502819D01*
X124733181Y-112387628D01*
X124597731Y-112297123D01*
X124447227Y-112234782D01*
X124287452Y-112203000D01*
X124124548Y-112203000D01*
X123964773Y-112234782D01*
X123814269Y-112297123D01*
X123678819Y-112387628D01*
X123563628Y-112502819D01*
X123473123Y-112638269D01*
X123410782Y-112788773D01*
X123379000Y-112948548D01*
X122118000Y-112948548D01*
X122118000Y-107548066D01*
X124256000Y-107548066D01*
X124256000Y-107843934D01*
X124313721Y-108134117D01*
X124426944Y-108407464D01*
X124591320Y-108653469D01*
X124800531Y-108862680D01*
X125046536Y-109027056D01*
X125319883Y-109140279D01*
X125610066Y-109198000D01*
X125905934Y-109198000D01*
X126196117Y-109140279D01*
X126469464Y-109027056D01*
X126715469Y-108862680D01*
X126924680Y-108653469D01*
X127089056Y-108407464D01*
X127202279Y-108134117D01*
X127260000Y-107843934D01*
X127260000Y-107548066D01*
X128456000Y-107548066D01*
X128456000Y-107843934D01*
X128513721Y-108134117D01*
X128626944Y-108407464D01*
X128791320Y-108653469D01*
X129000531Y-108862680D01*
X129246536Y-109027056D01*
X129519883Y-109140279D01*
X129810066Y-109198000D01*
X130105934Y-109198000D01*
X130396117Y-109140279D01*
X130669464Y-109027056D01*
X130915469Y-108862680D01*
X131124680Y-108653469D01*
X131289056Y-108407464D01*
X131402279Y-108134117D01*
X131460000Y-107843934D01*
X131460000Y-107548066D01*
X132656000Y-107548066D01*
X132656000Y-107843934D01*
X132713721Y-108134117D01*
X132826944Y-108407464D01*
X132991320Y-108653469D01*
X133200531Y-108862680D01*
X133446536Y-109027056D01*
X133719883Y-109140279D01*
X134010066Y-109198000D01*
X134305934Y-109198000D01*
X134596117Y-109140279D01*
X134869464Y-109027056D01*
X135115469Y-108862680D01*
X135324680Y-108653469D01*
X135489056Y-108407464D01*
X135602279Y-108134117D01*
X135660000Y-107843934D01*
X135660000Y-107548066D01*
X136856000Y-107548066D01*
X136856000Y-107843934D01*
X136913721Y-108134117D01*
X137026944Y-108407464D01*
X137191320Y-108653469D01*
X137400531Y-108862680D01*
X137646536Y-109027056D01*
X137919883Y-109140279D01*
X138210066Y-109198000D01*
X138505934Y-109198000D01*
X138796117Y-109140279D01*
X139069464Y-109027056D01*
X139315469Y-108862680D01*
X139524680Y-108653469D01*
X139689056Y-108407464D01*
X139802279Y-108134117D01*
X139860000Y-107843934D01*
X139860000Y-107548066D01*
X141056000Y-107548066D01*
X141056000Y-107843934D01*
X141113721Y-108134117D01*
X141226944Y-108407464D01*
X141391320Y-108653469D01*
X141600531Y-108862680D01*
X141846536Y-109027056D01*
X142119883Y-109140279D01*
X142410066Y-109198000D01*
X142705934Y-109198000D01*
X142996117Y-109140279D01*
X143269464Y-109027056D01*
X143515469Y-108862680D01*
X143724680Y-108653469D01*
X143889056Y-108407464D01*
X144002279Y-108134117D01*
X144060000Y-107843934D01*
X144060000Y-107548066D01*
X145256000Y-107548066D01*
X145256000Y-107843934D01*
X145313721Y-108134117D01*
X145426944Y-108407464D01*
X145591320Y-108653469D01*
X145800531Y-108862680D01*
X146046536Y-109027056D01*
X146319883Y-109140279D01*
X146610066Y-109198000D01*
X146905934Y-109198000D01*
X147196117Y-109140279D01*
X147469464Y-109027056D01*
X147715469Y-108862680D01*
X147924680Y-108653469D01*
X148089056Y-108407464D01*
X148202279Y-108134117D01*
X148260000Y-107843934D01*
X148260000Y-107548066D01*
X153656000Y-107548066D01*
X153656000Y-107843934D01*
X153713721Y-108134117D01*
X153826944Y-108407464D01*
X153991320Y-108653469D01*
X154200531Y-108862680D01*
X154446536Y-109027056D01*
X154719883Y-109140279D01*
X155010066Y-109198000D01*
X155305934Y-109198000D01*
X155596117Y-109140279D01*
X155869464Y-109027056D01*
X156115469Y-108862680D01*
X156324680Y-108653469D01*
X156489056Y-108407464D01*
X156602279Y-108134117D01*
X156660000Y-107843934D01*
X156660000Y-107548066D01*
X162056000Y-107548066D01*
X162056000Y-107843934D01*
X162113721Y-108134117D01*
X162226944Y-108407464D01*
X162391320Y-108653469D01*
X162600531Y-108862680D01*
X162846536Y-109027056D01*
X163119883Y-109140279D01*
X163410066Y-109198000D01*
X163705934Y-109198000D01*
X163996117Y-109140279D01*
X164269464Y-109027056D01*
X164515469Y-108862680D01*
X164724680Y-108653469D01*
X164889056Y-108407464D01*
X165002279Y-108134117D01*
X165060000Y-107843934D01*
X165060000Y-107548066D01*
X166256000Y-107548066D01*
X166256000Y-107843934D01*
X166313721Y-108134117D01*
X166426944Y-108407464D01*
X166591320Y-108653469D01*
X166800531Y-108862680D01*
X167046536Y-109027056D01*
X167319883Y-109140279D01*
X167610066Y-109198000D01*
X167905934Y-109198000D01*
X168196117Y-109140279D01*
X168469464Y-109027056D01*
X168715469Y-108862680D01*
X168924680Y-108653469D01*
X169089056Y-108407464D01*
X169202279Y-108134117D01*
X169260000Y-107843934D01*
X169260000Y-107548066D01*
X169202279Y-107257883D01*
X169089056Y-106984536D01*
X168924680Y-106738531D01*
X168807149Y-106621000D01*
X170453934Y-106621000D01*
X170453934Y-108771000D01*
X170462178Y-108854707D01*
X170486595Y-108935196D01*
X170526245Y-109009376D01*
X170579605Y-109074395D01*
X170644624Y-109127755D01*
X170718804Y-109167405D01*
X170799293Y-109191822D01*
X170883000Y-109200066D01*
X173033000Y-109200066D01*
X173116707Y-109191822D01*
X173197196Y-109167405D01*
X173271376Y-109127755D01*
X173336395Y-109074395D01*
X173389755Y-109009376D01*
X173429405Y-108935196D01*
X173453822Y-108854707D01*
X173462066Y-108771000D01*
X173462066Y-106621000D01*
X173453822Y-106537293D01*
X173429405Y-106456804D01*
X173389755Y-106382624D01*
X173336395Y-106317605D01*
X173271376Y-106264245D01*
X173197196Y-106224595D01*
X173116707Y-106200178D01*
X173033000Y-106191934D01*
X170883000Y-106191934D01*
X170799293Y-106200178D01*
X170718804Y-106224595D01*
X170644624Y-106264245D01*
X170579605Y-106317605D01*
X170526245Y-106382624D01*
X170486595Y-106456804D01*
X170462178Y-106537293D01*
X170453934Y-106621000D01*
X168807149Y-106621000D01*
X168715469Y-106529320D01*
X168469464Y-106364944D01*
X168196117Y-106251721D01*
X167905934Y-106194000D01*
X167610066Y-106194000D01*
X167319883Y-106251721D01*
X167046536Y-106364944D01*
X166800531Y-106529320D01*
X166591320Y-106738531D01*
X166426944Y-106984536D01*
X166313721Y-107257883D01*
X166256000Y-107548066D01*
X165060000Y-107548066D01*
X165002279Y-107257883D01*
X164889056Y-106984536D01*
X164724680Y-106738531D01*
X164515469Y-106529320D01*
X164269464Y-106364944D01*
X163996117Y-106251721D01*
X163705934Y-106194000D01*
X163410066Y-106194000D01*
X163119883Y-106251721D01*
X162846536Y-106364944D01*
X162600531Y-106529320D01*
X162391320Y-106738531D01*
X162226944Y-106984536D01*
X162113721Y-107257883D01*
X162056000Y-107548066D01*
X156660000Y-107548066D01*
X156602279Y-107257883D01*
X156489056Y-106984536D01*
X156324680Y-106738531D01*
X156115469Y-106529320D01*
X155869464Y-106364944D01*
X155596117Y-106251721D01*
X155305934Y-106194000D01*
X155010066Y-106194000D01*
X154719883Y-106251721D01*
X154446536Y-106364944D01*
X154200531Y-106529320D01*
X153991320Y-106738531D01*
X153826944Y-106984536D01*
X153713721Y-107257883D01*
X153656000Y-107548066D01*
X148260000Y-107548066D01*
X148202279Y-107257883D01*
X148089056Y-106984536D01*
X147924680Y-106738531D01*
X147715469Y-106529320D01*
X147469464Y-106364944D01*
X147196117Y-106251721D01*
X146905934Y-106194000D01*
X146610066Y-106194000D01*
X146319883Y-106251721D01*
X146046536Y-106364944D01*
X145800531Y-106529320D01*
X145591320Y-106738531D01*
X145426944Y-106984536D01*
X145313721Y-107257883D01*
X145256000Y-107548066D01*
X144060000Y-107548066D01*
X144002279Y-107257883D01*
X143889056Y-106984536D01*
X143724680Y-106738531D01*
X143515469Y-106529320D01*
X143269464Y-106364944D01*
X142996117Y-106251721D01*
X142705934Y-106194000D01*
X142410066Y-106194000D01*
X142119883Y-106251721D01*
X141846536Y-106364944D01*
X141600531Y-106529320D01*
X141391320Y-106738531D01*
X141226944Y-106984536D01*
X141113721Y-107257883D01*
X141056000Y-107548066D01*
X139860000Y-107548066D01*
X139802279Y-107257883D01*
X139689056Y-106984536D01*
X139524680Y-106738531D01*
X139315469Y-106529320D01*
X139069464Y-106364944D01*
X138796117Y-106251721D01*
X138505934Y-106194000D01*
X138210066Y-106194000D01*
X137919883Y-106251721D01*
X137646536Y-106364944D01*
X137400531Y-106529320D01*
X137191320Y-106738531D01*
X137026944Y-106984536D01*
X136913721Y-107257883D01*
X136856000Y-107548066D01*
X135660000Y-107548066D01*
X135602279Y-107257883D01*
X135489056Y-106984536D01*
X135324680Y-106738531D01*
X135115469Y-106529320D01*
X134869464Y-106364944D01*
X134596117Y-106251721D01*
X134305934Y-106194000D01*
X134010066Y-106194000D01*
X133719883Y-106251721D01*
X133446536Y-106364944D01*
X133200531Y-106529320D01*
X132991320Y-106738531D01*
X132826944Y-106984536D01*
X132713721Y-107257883D01*
X132656000Y-107548066D01*
X131460000Y-107548066D01*
X131402279Y-107257883D01*
X131289056Y-106984536D01*
X131124680Y-106738531D01*
X130915469Y-106529320D01*
X130669464Y-106364944D01*
X130396117Y-106251721D01*
X130105934Y-106194000D01*
X129810066Y-106194000D01*
X129519883Y-106251721D01*
X129246536Y-106364944D01*
X129000531Y-106529320D01*
X128791320Y-106738531D01*
X128626944Y-106984536D01*
X128513721Y-107257883D01*
X128456000Y-107548066D01*
X127260000Y-107548066D01*
X127202279Y-107257883D01*
X127089056Y-106984536D01*
X126924680Y-106738531D01*
X126715469Y-106529320D01*
X126469464Y-106364944D01*
X126196117Y-106251721D01*
X125905934Y-106194000D01*
X125610066Y-106194000D01*
X125319883Y-106251721D01*
X125046536Y-106364944D01*
X124800531Y-106529320D01*
X124591320Y-106738531D01*
X124426944Y-106984536D01*
X124313721Y-107257883D01*
X124256000Y-107548066D01*
X122118000Y-107548066D01*
X122118000Y-102048066D01*
X124256000Y-102048066D01*
X124256000Y-102343934D01*
X124313721Y-102634117D01*
X124426944Y-102907464D01*
X124591320Y-103153469D01*
X124800531Y-103362680D01*
X125046536Y-103527056D01*
X125319883Y-103640279D01*
X125610066Y-103698000D01*
X125905934Y-103698000D01*
X126196117Y-103640279D01*
X126469464Y-103527056D01*
X126715469Y-103362680D01*
X126924680Y-103153469D01*
X127089056Y-102907464D01*
X127202279Y-102634117D01*
X127260000Y-102343934D01*
X127260000Y-102048066D01*
X141056000Y-102048066D01*
X141056000Y-102343934D01*
X141113721Y-102634117D01*
X141226944Y-102907464D01*
X141391320Y-103153469D01*
X141600531Y-103362680D01*
X141846536Y-103527056D01*
X142119883Y-103640279D01*
X142410066Y-103698000D01*
X142705934Y-103698000D01*
X142996117Y-103640279D01*
X143269464Y-103527056D01*
X143515469Y-103362680D01*
X143724680Y-103153469D01*
X143889056Y-102907464D01*
X144002279Y-102634117D01*
X144060000Y-102343934D01*
X144060000Y-102048066D01*
X145256000Y-102048066D01*
X145256000Y-102343934D01*
X145313721Y-102634117D01*
X145426944Y-102907464D01*
X145591320Y-103153469D01*
X145800531Y-103362680D01*
X146046536Y-103527056D01*
X146319883Y-103640279D01*
X146610066Y-103698000D01*
X146905934Y-103698000D01*
X147196117Y-103640279D01*
X147469464Y-103527056D01*
X147715469Y-103362680D01*
X147924680Y-103153469D01*
X148089056Y-102907464D01*
X148202279Y-102634117D01*
X148260000Y-102343934D01*
X148260000Y-102048066D01*
X149456000Y-102048066D01*
X149456000Y-102343934D01*
X149513721Y-102634117D01*
X149626944Y-102907464D01*
X149791320Y-103153469D01*
X150000531Y-103362680D01*
X150246536Y-103527056D01*
X150519883Y-103640279D01*
X150810066Y-103698000D01*
X151105934Y-103698000D01*
X151396117Y-103640279D01*
X151669464Y-103527056D01*
X151915469Y-103362680D01*
X152124680Y-103153469D01*
X152289056Y-102907464D01*
X152402279Y-102634117D01*
X152460000Y-102343934D01*
X152460000Y-102048066D01*
X153656000Y-102048066D01*
X153656000Y-102343934D01*
X153713721Y-102634117D01*
X153826944Y-102907464D01*
X153991320Y-103153469D01*
X154200531Y-103362680D01*
X154446536Y-103527056D01*
X154719883Y-103640279D01*
X155010066Y-103698000D01*
X155305934Y-103698000D01*
X155596117Y-103640279D01*
X155869464Y-103527056D01*
X156115469Y-103362680D01*
X156324680Y-103153469D01*
X156489056Y-102907464D01*
X156602279Y-102634117D01*
X156660000Y-102343934D01*
X156660000Y-102048066D01*
X157856000Y-102048066D01*
X157856000Y-102343934D01*
X157913721Y-102634117D01*
X158026944Y-102907464D01*
X158191320Y-103153469D01*
X158400531Y-103362680D01*
X158646536Y-103527056D01*
X158919883Y-103640279D01*
X159210066Y-103698000D01*
X159505934Y-103698000D01*
X159796117Y-103640279D01*
X160069464Y-103527056D01*
X160315469Y-103362680D01*
X160524680Y-103153469D01*
X160689056Y-102907464D01*
X160802279Y-102634117D01*
X160860000Y-102343934D01*
X160860000Y-102048066D01*
X162056000Y-102048066D01*
X162056000Y-102343934D01*
X162113721Y-102634117D01*
X162226944Y-102907464D01*
X162391320Y-103153469D01*
X162600531Y-103362680D01*
X162846536Y-103527056D01*
X163119883Y-103640279D01*
X163410066Y-103698000D01*
X163705934Y-103698000D01*
X163996117Y-103640279D01*
X164269464Y-103527056D01*
X164515469Y-103362680D01*
X164724680Y-103153469D01*
X164889056Y-102907464D01*
X165002279Y-102634117D01*
X165060000Y-102343934D01*
X165060000Y-102048066D01*
X166256000Y-102048066D01*
X166256000Y-102343934D01*
X166313721Y-102634117D01*
X166426944Y-102907464D01*
X166591320Y-103153469D01*
X166800531Y-103362680D01*
X167046536Y-103527056D01*
X167319883Y-103640279D01*
X167610066Y-103698000D01*
X167905934Y-103698000D01*
X168196117Y-103640279D01*
X168469464Y-103527056D01*
X168715469Y-103362680D01*
X168924680Y-103153469D01*
X169089056Y-102907464D01*
X169202279Y-102634117D01*
X169260000Y-102343934D01*
X169260000Y-102048066D01*
X170456000Y-102048066D01*
X170456000Y-102343934D01*
X170513721Y-102634117D01*
X170626944Y-102907464D01*
X170791320Y-103153469D01*
X171000531Y-103362680D01*
X171246536Y-103527056D01*
X171519883Y-103640279D01*
X171810066Y-103698000D01*
X172105934Y-103698000D01*
X172396117Y-103640279D01*
X172669464Y-103527056D01*
X172915469Y-103362680D01*
X173124680Y-103153469D01*
X173289056Y-102907464D01*
X173402279Y-102634117D01*
X173460000Y-102343934D01*
X173460000Y-102048066D01*
X173402279Y-101757883D01*
X173289056Y-101484536D01*
X173124680Y-101238531D01*
X172915469Y-101029320D01*
X172669464Y-100864944D01*
X172396117Y-100751721D01*
X172105934Y-100694000D01*
X171810066Y-100694000D01*
X171519883Y-100751721D01*
X171246536Y-100864944D01*
X171000531Y-101029320D01*
X170791320Y-101238531D01*
X170626944Y-101484536D01*
X170513721Y-101757883D01*
X170456000Y-102048066D01*
X169260000Y-102048066D01*
X169202279Y-101757883D01*
X169089056Y-101484536D01*
X168924680Y-101238531D01*
X168715469Y-101029320D01*
X168469464Y-100864944D01*
X168196117Y-100751721D01*
X167905934Y-100694000D01*
X167610066Y-100694000D01*
X167319883Y-100751721D01*
X167046536Y-100864944D01*
X166800531Y-101029320D01*
X166591320Y-101238531D01*
X166426944Y-101484536D01*
X166313721Y-101757883D01*
X166256000Y-102048066D01*
X165060000Y-102048066D01*
X165002279Y-101757883D01*
X164889056Y-101484536D01*
X164724680Y-101238531D01*
X164515469Y-101029320D01*
X164269464Y-100864944D01*
X163996117Y-100751721D01*
X163705934Y-100694000D01*
X163410066Y-100694000D01*
X163119883Y-100751721D01*
X162846536Y-100864944D01*
X162600531Y-101029320D01*
X162391320Y-101238531D01*
X162226944Y-101484536D01*
X162113721Y-101757883D01*
X162056000Y-102048066D01*
X160860000Y-102048066D01*
X160802279Y-101757883D01*
X160689056Y-101484536D01*
X160524680Y-101238531D01*
X160315469Y-101029320D01*
X160069464Y-100864944D01*
X159796117Y-100751721D01*
X159505934Y-100694000D01*
X159210066Y-100694000D01*
X158919883Y-100751721D01*
X158646536Y-100864944D01*
X158400531Y-101029320D01*
X158191320Y-101238531D01*
X158026944Y-101484536D01*
X157913721Y-101757883D01*
X157856000Y-102048066D01*
X156660000Y-102048066D01*
X156602279Y-101757883D01*
X156489056Y-101484536D01*
X156324680Y-101238531D01*
X156115469Y-101029320D01*
X155869464Y-100864944D01*
X155596117Y-100751721D01*
X155305934Y-100694000D01*
X155010066Y-100694000D01*
X154719883Y-100751721D01*
X154446536Y-100864944D01*
X154200531Y-101029320D01*
X153991320Y-101238531D01*
X153826944Y-101484536D01*
X153713721Y-101757883D01*
X153656000Y-102048066D01*
X152460000Y-102048066D01*
X152402279Y-101757883D01*
X152289056Y-101484536D01*
X152124680Y-101238531D01*
X151915469Y-101029320D01*
X151669464Y-100864944D01*
X151396117Y-100751721D01*
X151105934Y-100694000D01*
X150810066Y-100694000D01*
X150519883Y-100751721D01*
X150246536Y-100864944D01*
X150000531Y-101029320D01*
X149791320Y-101238531D01*
X149626944Y-101484536D01*
X149513721Y-101757883D01*
X149456000Y-102048066D01*
X148260000Y-102048066D01*
X148202279Y-101757883D01*
X148089056Y-101484536D01*
X147924680Y-101238531D01*
X147715469Y-101029320D01*
X147469464Y-100864944D01*
X147196117Y-100751721D01*
X146905934Y-100694000D01*
X146610066Y-100694000D01*
X146319883Y-100751721D01*
X146046536Y-100864944D01*
X145800531Y-101029320D01*
X145591320Y-101238531D01*
X145426944Y-101484536D01*
X145313721Y-101757883D01*
X145256000Y-102048066D01*
X144060000Y-102048066D01*
X144002279Y-101757883D01*
X143889056Y-101484536D01*
X143724680Y-101238531D01*
X143515469Y-101029320D01*
X143269464Y-100864944D01*
X142996117Y-100751721D01*
X142705934Y-100694000D01*
X142410066Y-100694000D01*
X142119883Y-100751721D01*
X141846536Y-100864944D01*
X141600531Y-101029320D01*
X141391320Y-101238531D01*
X141226944Y-101484536D01*
X141113721Y-101757883D01*
X141056000Y-102048066D01*
X127260000Y-102048066D01*
X127202279Y-101757883D01*
X127089056Y-101484536D01*
X126924680Y-101238531D01*
X126715469Y-101029320D01*
X126469464Y-100864944D01*
X126196117Y-100751721D01*
X125905934Y-100694000D01*
X125610066Y-100694000D01*
X125319883Y-100751721D01*
X125046536Y-100864944D01*
X124800531Y-101029320D01*
X124591320Y-101238531D01*
X124426944Y-101484536D01*
X124313721Y-101757883D01*
X124256000Y-102048066D01*
X122118000Y-102048066D01*
X122118000Y-99082108D01*
X122140542Y-98852200D01*
X122192464Y-98680226D01*
X154425000Y-98680226D01*
X154425000Y-98931774D01*
X154474074Y-99178487D01*
X154570337Y-99410886D01*
X154710089Y-99620040D01*
X154887960Y-99797911D01*
X155097114Y-99937663D01*
X155329513Y-100033926D01*
X155576226Y-100083000D01*
X155827774Y-100083000D01*
X156074487Y-100033926D01*
X156306886Y-99937663D01*
X156516040Y-99797911D01*
X156693911Y-99620040D01*
X156833663Y-99410886D01*
X156929926Y-99178487D01*
X156962934Y-99012544D01*
X156962934Y-99656000D01*
X156971178Y-99739707D01*
X156995595Y-99820196D01*
X157035245Y-99894376D01*
X157088605Y-99959395D01*
X157153624Y-100012755D01*
X157227804Y-100052405D01*
X157308293Y-100076822D01*
X157392000Y-100085066D01*
X159092000Y-100085066D01*
X159175707Y-100076822D01*
X159256196Y-100052405D01*
X159330376Y-100012755D01*
X159395395Y-99959395D01*
X159448755Y-99894376D01*
X159488405Y-99820196D01*
X159512822Y-99739707D01*
X159521066Y-99656000D01*
X159521066Y-97956000D01*
X159512822Y-97872293D01*
X159488405Y-97791804D01*
X159448755Y-97717624D01*
X159395395Y-97652605D01*
X159330376Y-97599245D01*
X159256196Y-97559595D01*
X159175707Y-97535178D01*
X159092000Y-97526934D01*
X157392000Y-97526934D01*
X157308293Y-97535178D01*
X157227804Y-97559595D01*
X157153624Y-97599245D01*
X157088605Y-97652605D01*
X157035245Y-97717624D01*
X156995595Y-97791804D01*
X156971178Y-97872293D01*
X156962934Y-97956000D01*
X156962934Y-98599456D01*
X156929926Y-98433513D01*
X156833663Y-98201114D01*
X156693911Y-97991960D01*
X156516040Y-97814089D01*
X156306886Y-97674337D01*
X156074487Y-97578074D01*
X155827774Y-97529000D01*
X155576226Y-97529000D01*
X155329513Y-97578074D01*
X155097114Y-97674337D01*
X154887960Y-97814089D01*
X154710089Y-97991960D01*
X154570337Y-98201114D01*
X154474074Y-98433513D01*
X154425000Y-98680226D01*
X122192464Y-98680226D01*
X122200889Y-98652322D01*
X122298916Y-98467961D01*
X122430876Y-98306161D01*
X122591759Y-98173068D01*
X122775425Y-98073760D01*
X122974878Y-98012019D01*
X123203401Y-97988000D01*
X125453795Y-97988000D01*
X125476000Y-97990187D01*
X125498205Y-97988000D01*
X125564607Y-97981460D01*
X125649810Y-97955614D01*
X125728333Y-97913643D01*
X125797159Y-97857159D01*
X125853643Y-97788333D01*
X125895614Y-97709810D01*
X125921460Y-97624607D01*
X125930187Y-97536000D01*
X125928000Y-97513795D01*
X125928000Y-94333664D01*
X137821000Y-94333664D01*
X137821000Y-94642336D01*
X137881219Y-94945077D01*
X137999343Y-95230253D01*
X138170832Y-95486904D01*
X138389096Y-95705168D01*
X138645747Y-95876657D01*
X138930923Y-95994781D01*
X139233664Y-96055000D01*
X139542336Y-96055000D01*
X139845077Y-95994781D01*
X140130253Y-95876657D01*
X140386904Y-95705168D01*
X140605168Y-95486904D01*
X140776657Y-95230253D01*
X140894781Y-94945077D01*
X140955000Y-94642336D01*
X140955000Y-94333664D01*
X141781000Y-94333664D01*
X141781000Y-94642336D01*
X141841219Y-94945077D01*
X141959343Y-95230253D01*
X142130832Y-95486904D01*
X142349096Y-95705168D01*
X142605747Y-95876657D01*
X142890923Y-95994781D01*
X143193664Y-96055000D01*
X143502336Y-96055000D01*
X143805077Y-95994781D01*
X144090253Y-95876657D01*
X144346904Y-95705168D01*
X144565168Y-95486904D01*
X144736657Y-95230253D01*
X144854781Y-94945077D01*
X144915000Y-94642336D01*
X144915000Y-94333664D01*
X145741000Y-94333664D01*
X145741000Y-94642336D01*
X145801219Y-94945077D01*
X145919343Y-95230253D01*
X146090832Y-95486904D01*
X146309096Y-95705168D01*
X146565747Y-95876657D01*
X146850923Y-95994781D01*
X147153664Y-96055000D01*
X147462336Y-96055000D01*
X147765077Y-95994781D01*
X148050253Y-95876657D01*
X148306904Y-95705168D01*
X148525168Y-95486904D01*
X148696657Y-95230253D01*
X148814781Y-94945077D01*
X148875000Y-94642336D01*
X148875000Y-94333664D01*
X149563000Y-94333664D01*
X149563000Y-94642336D01*
X149623219Y-94945077D01*
X149741343Y-95230253D01*
X149912832Y-95486904D01*
X150131096Y-95705168D01*
X150387747Y-95876657D01*
X150672923Y-95994781D01*
X150975664Y-96055000D01*
X151284336Y-96055000D01*
X151587077Y-95994781D01*
X151872253Y-95876657D01*
X152128904Y-95705168D01*
X152347168Y-95486904D01*
X152518657Y-95230253D01*
X152636781Y-94945077D01*
X152697000Y-94642336D01*
X152697000Y-94333664D01*
X153523000Y-94333664D01*
X153523000Y-94642336D01*
X153583219Y-94945077D01*
X153701343Y-95230253D01*
X153872832Y-95486904D01*
X154091096Y-95705168D01*
X154347747Y-95876657D01*
X154632923Y-95994781D01*
X154935664Y-96055000D01*
X155244336Y-96055000D01*
X155547077Y-95994781D01*
X155832253Y-95876657D01*
X156088904Y-95705168D01*
X156307168Y-95486904D01*
X156478657Y-95230253D01*
X156596781Y-94945077D01*
X156657000Y-94642336D01*
X156657000Y-94333664D01*
X157483000Y-94333664D01*
X157483000Y-94642336D01*
X157543219Y-94945077D01*
X157661343Y-95230253D01*
X157832832Y-95486904D01*
X158051096Y-95705168D01*
X158307747Y-95876657D01*
X158592923Y-95994781D01*
X158895664Y-96055000D01*
X159204336Y-96055000D01*
X159507077Y-95994781D01*
X159792253Y-95876657D01*
X160048904Y-95705168D01*
X160267168Y-95486904D01*
X160438657Y-95230253D01*
X160556781Y-94945077D01*
X160617000Y-94642336D01*
X160617000Y-94333664D01*
X161443000Y-94333664D01*
X161443000Y-94642336D01*
X161503219Y-94945077D01*
X161621343Y-95230253D01*
X161792832Y-95486904D01*
X162011096Y-95705168D01*
X162267747Y-95876657D01*
X162552923Y-95994781D01*
X162855664Y-96055000D01*
X163164336Y-96055000D01*
X163467077Y-95994781D01*
X163752253Y-95876657D01*
X164008904Y-95705168D01*
X164227168Y-95486904D01*
X164398657Y-95230253D01*
X164516781Y-94945077D01*
X164577000Y-94642336D01*
X164577000Y-94333664D01*
X169363000Y-94333664D01*
X169363000Y-94642336D01*
X169423219Y-94945077D01*
X169541343Y-95230253D01*
X169712832Y-95486904D01*
X169931096Y-95705168D01*
X170187747Y-95876657D01*
X170472923Y-95994781D01*
X170775664Y-96055000D01*
X171084336Y-96055000D01*
X171387077Y-95994781D01*
X171672253Y-95876657D01*
X171928904Y-95705168D01*
X172147168Y-95486904D01*
X172318657Y-95230253D01*
X172436781Y-94945077D01*
X172497000Y-94642336D01*
X172497000Y-94333664D01*
X172436781Y-94030923D01*
X172318657Y-93745747D01*
X172147168Y-93489096D01*
X171928904Y-93270832D01*
X171672253Y-93099343D01*
X171387077Y-92981219D01*
X171084336Y-92921000D01*
X170775664Y-92921000D01*
X170472923Y-92981219D01*
X170187747Y-93099343D01*
X169931096Y-93270832D01*
X169712832Y-93489096D01*
X169541343Y-93745747D01*
X169423219Y-94030923D01*
X169363000Y-94333664D01*
X164577000Y-94333664D01*
X164516781Y-94030923D01*
X164398657Y-93745747D01*
X164227168Y-93489096D01*
X164008904Y-93270832D01*
X163752253Y-93099343D01*
X163467077Y-92981219D01*
X163164336Y-92921000D01*
X162855664Y-92921000D01*
X162552923Y-92981219D01*
X162267747Y-93099343D01*
X162011096Y-93270832D01*
X161792832Y-93489096D01*
X161621343Y-93745747D01*
X161503219Y-94030923D01*
X161443000Y-94333664D01*
X160617000Y-94333664D01*
X160556781Y-94030923D01*
X160438657Y-93745747D01*
X160267168Y-93489096D01*
X160048904Y-93270832D01*
X159792253Y-93099343D01*
X159507077Y-92981219D01*
X159204336Y-92921000D01*
X158895664Y-92921000D01*
X158592923Y-92981219D01*
X158307747Y-93099343D01*
X158051096Y-93270832D01*
X157832832Y-93489096D01*
X157661343Y-93745747D01*
X157543219Y-94030923D01*
X157483000Y-94333664D01*
X156657000Y-94333664D01*
X156596781Y-94030923D01*
X156478657Y-93745747D01*
X156307168Y-93489096D01*
X156088904Y-93270832D01*
X155832253Y-93099343D01*
X155547077Y-92981219D01*
X155244336Y-92921000D01*
X154935664Y-92921000D01*
X154632923Y-92981219D01*
X154347747Y-93099343D01*
X154091096Y-93270832D01*
X153872832Y-93489096D01*
X153701343Y-93745747D01*
X153583219Y-94030923D01*
X153523000Y-94333664D01*
X152697000Y-94333664D01*
X152636781Y-94030923D01*
X152518657Y-93745747D01*
X152347168Y-93489096D01*
X152128904Y-93270832D01*
X151872253Y-93099343D01*
X151587077Y-92981219D01*
X151284336Y-92921000D01*
X150975664Y-92921000D01*
X150672923Y-92981219D01*
X150387747Y-93099343D01*
X150131096Y-93270832D01*
X149912832Y-93489096D01*
X149741343Y-93745747D01*
X149623219Y-94030923D01*
X149563000Y-94333664D01*
X148875000Y-94333664D01*
X148814781Y-94030923D01*
X148696657Y-93745747D01*
X148525168Y-93489096D01*
X148306904Y-93270832D01*
X148050253Y-93099343D01*
X147765077Y-92981219D01*
X147462336Y-92921000D01*
X147153664Y-92921000D01*
X146850923Y-92981219D01*
X146565747Y-93099343D01*
X146309096Y-93270832D01*
X146090832Y-93489096D01*
X145919343Y-93745747D01*
X145801219Y-94030923D01*
X145741000Y-94333664D01*
X144915000Y-94333664D01*
X144854781Y-94030923D01*
X144736657Y-93745747D01*
X144565168Y-93489096D01*
X144346904Y-93270832D01*
X144090253Y-93099343D01*
X143805077Y-92981219D01*
X143502336Y-92921000D01*
X143193664Y-92921000D01*
X142890923Y-92981219D01*
X142605747Y-93099343D01*
X142349096Y-93270832D01*
X142130832Y-93489096D01*
X141959343Y-93745747D01*
X141841219Y-94030923D01*
X141781000Y-94333664D01*
X140955000Y-94333664D01*
X140894781Y-94030923D01*
X140776657Y-93745747D01*
X140605168Y-93489096D01*
X140386904Y-93270832D01*
X140130253Y-93099343D01*
X139845077Y-92981219D01*
X139542336Y-92921000D01*
X139233664Y-92921000D01*
X138930923Y-92981219D01*
X138645747Y-93099343D01*
X138389096Y-93270832D01*
X138170832Y-93489096D01*
X137999343Y-93745747D01*
X137881219Y-94030923D01*
X137821000Y-94333664D01*
X125928000Y-94333664D01*
X125928000Y-87320000D01*
X172522001Y-87320000D01*
X172522000Y-97513795D01*
G37*
X172522000Y-97513795D02*
X172519813Y-97536000D01*
X172528540Y-97624607D01*
X172554386Y-97709810D01*
X172596357Y-97788333D01*
X172642825Y-97844954D01*
X172652841Y-97857159D01*
X172721667Y-97913643D01*
X172800190Y-97955614D01*
X172885393Y-97981460D01*
X172974000Y-97990187D01*
X172996205Y-97988000D01*
X174475892Y-97988000D01*
X174705800Y-98010542D01*
X174905678Y-98070889D01*
X175090039Y-98168916D01*
X175251839Y-98300876D01*
X175384932Y-98461759D01*
X175484240Y-98645425D01*
X175545981Y-98844878D01*
X175570001Y-99073411D01*
X175570000Y-114935305D01*
X175547218Y-114820773D01*
X175484877Y-114670269D01*
X175394372Y-114534819D01*
X175279181Y-114419628D01*
X175143731Y-114329123D01*
X174993227Y-114266782D01*
X174833452Y-114235000D01*
X174670548Y-114235000D01*
X174510773Y-114266782D01*
X174360269Y-114329123D01*
X174224819Y-114419628D01*
X174109628Y-114534819D01*
X174019123Y-114670269D01*
X173956782Y-114820773D01*
X173925000Y-114980548D01*
X173925000Y-115143452D01*
X173956782Y-115303227D01*
X174019123Y-115453731D01*
X174096812Y-115570000D01*
X174019123Y-115686269D01*
X173956782Y-115836773D01*
X173925000Y-115996548D01*
X173925000Y-116159452D01*
X173956782Y-116319227D01*
X174019123Y-116469731D01*
X174109628Y-116605181D01*
X174224819Y-116720372D01*
X174360269Y-116810877D01*
X174510773Y-116873218D01*
X174670548Y-116905000D01*
X174833452Y-116905000D01*
X174993227Y-116873218D01*
X175143731Y-116810877D01*
X175279181Y-116720372D01*
X175394372Y-116605181D01*
X175484877Y-116469731D01*
X175547218Y-116319227D01*
X175570000Y-116204696D01*
X175570000Y-121214000D01*
X125033000Y-121214000D01*
X125033000Y-121076548D01*
X125001218Y-120916773D01*
X124938877Y-120766269D01*
X124848372Y-120630819D01*
X124733181Y-120515628D01*
X124597731Y-120425123D01*
X124447227Y-120362782D01*
X124287452Y-120331000D01*
X124124548Y-120331000D01*
X123964773Y-120362782D01*
X123814269Y-120425123D01*
X123678819Y-120515628D01*
X123563628Y-120630819D01*
X123473123Y-120766269D01*
X123410782Y-120916773D01*
X123379000Y-121076548D01*
X123379000Y-121214000D01*
X122118000Y-121214000D01*
X122118000Y-120146731D01*
X122186773Y-120175218D01*
X122346548Y-120207000D01*
X122509452Y-120207000D01*
X122669227Y-120175218D01*
X122819731Y-120112877D01*
X122955181Y-120022372D01*
X123070372Y-119907181D01*
X123160877Y-119771731D01*
X123223218Y-119621227D01*
X123255000Y-119461452D01*
X123255000Y-119298548D01*
X125411000Y-119298548D01*
X125411000Y-119461452D01*
X125442782Y-119621227D01*
X125505123Y-119771731D01*
X125595628Y-119907181D01*
X125710819Y-120022372D01*
X125846269Y-120112877D01*
X125996773Y-120175218D01*
X126156548Y-120207000D01*
X126319452Y-120207000D01*
X126479227Y-120175218D01*
X126629731Y-120112877D01*
X126765181Y-120022372D01*
X126880372Y-119907181D01*
X126970877Y-119771731D01*
X127033218Y-119621227D01*
X127065000Y-119461452D01*
X127065000Y-119298548D01*
X127033218Y-119138773D01*
X126970877Y-118988269D01*
X126880372Y-118852819D01*
X126765181Y-118737628D01*
X126629731Y-118647123D01*
X126479227Y-118584782D01*
X126319452Y-118553000D01*
X126156548Y-118553000D01*
X125996773Y-118584782D01*
X125846269Y-118647123D01*
X125710819Y-118737628D01*
X125595628Y-118852819D01*
X125505123Y-118988269D01*
X125442782Y-119138773D01*
X125411000Y-119298548D01*
X123255000Y-119298548D01*
X123223218Y-119138773D01*
X123160877Y-118988269D01*
X123070372Y-118852819D01*
X122955181Y-118737628D01*
X122819731Y-118647123D01*
X122669227Y-118584782D01*
X122509452Y-118553000D01*
X122346548Y-118553000D01*
X122186773Y-118584782D01*
X122118000Y-118613269D01*
X122118000Y-117266548D01*
X123379000Y-117266548D01*
X123379000Y-117429452D01*
X123410782Y-117589227D01*
X123473123Y-117739731D01*
X123563628Y-117875181D01*
X123678819Y-117990372D01*
X123814269Y-118080877D01*
X123964773Y-118143218D01*
X124124548Y-118175000D01*
X124287452Y-118175000D01*
X124447227Y-118143218D01*
X124597731Y-118080877D01*
X124733181Y-117990372D01*
X124848372Y-117875181D01*
X124938877Y-117739731D01*
X125001218Y-117589227D01*
X125033000Y-117429452D01*
X125033000Y-117266548D01*
X125001218Y-117106773D01*
X124938877Y-116956269D01*
X124848372Y-116820819D01*
X124733181Y-116705628D01*
X124597731Y-116615123D01*
X124447227Y-116552782D01*
X124287452Y-116521000D01*
X124124548Y-116521000D01*
X123964773Y-116552782D01*
X123814269Y-116615123D01*
X123678819Y-116705628D01*
X123563628Y-116820819D01*
X123473123Y-116956269D01*
X123410782Y-117106773D01*
X123379000Y-117266548D01*
X122118000Y-117266548D01*
X122118000Y-115828731D01*
X122186773Y-115857218D01*
X122346548Y-115889000D01*
X122509452Y-115889000D01*
X122669227Y-115857218D01*
X122819731Y-115794877D01*
X122955181Y-115704372D01*
X123070372Y-115589181D01*
X123160877Y-115453731D01*
X123223218Y-115303227D01*
X123255000Y-115143452D01*
X123255000Y-114980548D01*
X125411000Y-114980548D01*
X125411000Y-115143452D01*
X125442782Y-115303227D01*
X125505123Y-115453731D01*
X125595628Y-115589181D01*
X125710819Y-115704372D01*
X125846269Y-115794877D01*
X125996773Y-115857218D01*
X126156548Y-115889000D01*
X126319452Y-115889000D01*
X126447223Y-115863584D01*
X132801000Y-115863584D01*
X132801000Y-116292416D01*
X132884660Y-116713008D01*
X133048767Y-117109196D01*
X133287013Y-117465757D01*
X133590243Y-117768987D01*
X133946804Y-118007233D01*
X134342992Y-118171340D01*
X134763584Y-118255000D01*
X135192416Y-118255000D01*
X135613008Y-118171340D01*
X136009196Y-118007233D01*
X136365757Y-117768987D01*
X136668987Y-117465757D01*
X136907233Y-117109196D01*
X137071340Y-116713008D01*
X137155000Y-116292416D01*
X137155000Y-116078000D01*
X150204326Y-116078000D01*
X150230961Y-116348429D01*
X150309842Y-116608466D01*
X150437938Y-116848117D01*
X150610327Y-117058173D01*
X150820383Y-117230562D01*
X151040094Y-117348000D01*
X150820383Y-117465438D01*
X150610327Y-117637827D01*
X150437938Y-117847883D01*
X150309842Y-118087534D01*
X150230961Y-118347571D01*
X150204326Y-118618000D01*
X150230961Y-118888429D01*
X150309842Y-119148466D01*
X150437938Y-119388117D01*
X150610327Y-119598173D01*
X150820383Y-119770562D01*
X151060034Y-119898658D01*
X151320071Y-119977539D01*
X151522738Y-119997500D01*
X151753262Y-119997500D01*
X151955929Y-119977539D01*
X152215966Y-119898658D01*
X152455617Y-119770562D01*
X152665673Y-119598173D01*
X152838062Y-119388117D01*
X152966158Y-119148466D01*
X153045039Y-118888429D01*
X153071674Y-118618000D01*
X153045039Y-118347571D01*
X153025315Y-118282548D01*
X158685000Y-118282548D01*
X158685000Y-118445452D01*
X158716782Y-118605227D01*
X158779123Y-118755731D01*
X158856812Y-118872000D01*
X158779123Y-118988269D01*
X158716782Y-119138773D01*
X158685000Y-119298548D01*
X158685000Y-119461452D01*
X158716782Y-119621227D01*
X158779123Y-119771731D01*
X158869628Y-119907181D01*
X158984819Y-120022372D01*
X159120269Y-120112877D01*
X159270773Y-120175218D01*
X159430548Y-120207000D01*
X159593452Y-120207000D01*
X159753227Y-120175218D01*
X159903731Y-120112877D01*
X160039181Y-120022372D01*
X160154372Y-119907181D01*
X160244877Y-119771731D01*
X160307218Y-119621227D01*
X160339000Y-119461452D01*
X160339000Y-119298548D01*
X160307218Y-119138773D01*
X160244877Y-118988269D01*
X160167188Y-118872000D01*
X160244877Y-118755731D01*
X160307218Y-118605227D01*
X160339000Y-118445452D01*
X160339000Y-118282548D01*
X163765000Y-118282548D01*
X163765000Y-118445452D01*
X163796782Y-118605227D01*
X163859123Y-118755731D01*
X163936812Y-118872000D01*
X163859123Y-118988269D01*
X163796782Y-119138773D01*
X163765000Y-119298548D01*
X163765000Y-119461452D01*
X163796782Y-119621227D01*
X163859123Y-119771731D01*
X163949628Y-119907181D01*
X164064819Y-120022372D01*
X164200269Y-120112877D01*
X164350773Y-120175218D01*
X164510548Y-120207000D01*
X164673452Y-120207000D01*
X164833227Y-120175218D01*
X164983731Y-120112877D01*
X165119181Y-120022372D01*
X165234372Y-119907181D01*
X165324877Y-119771731D01*
X165387218Y-119621227D01*
X165419000Y-119461452D01*
X165419000Y-119298548D01*
X165387218Y-119138773D01*
X165324877Y-118988269D01*
X165247188Y-118872000D01*
X165324877Y-118755731D01*
X165387218Y-118605227D01*
X165419000Y-118445452D01*
X165419000Y-118282548D01*
X168845000Y-118282548D01*
X168845000Y-118445452D01*
X168876782Y-118605227D01*
X168939123Y-118755731D01*
X169016812Y-118872000D01*
X168939123Y-118988269D01*
X168876782Y-119138773D01*
X168845000Y-119298548D01*
X168845000Y-119461452D01*
X168876782Y-119621227D01*
X168939123Y-119771731D01*
X169029628Y-119907181D01*
X169144819Y-120022372D01*
X169280269Y-120112877D01*
X169430773Y-120175218D01*
X169590548Y-120207000D01*
X169753452Y-120207000D01*
X169913227Y-120175218D01*
X170063731Y-120112877D01*
X170199181Y-120022372D01*
X170314372Y-119907181D01*
X170404877Y-119771731D01*
X170467218Y-119621227D01*
X170499000Y-119461452D01*
X170499000Y-119298548D01*
X170467218Y-119138773D01*
X170404877Y-118988269D01*
X170327188Y-118872000D01*
X170404877Y-118755731D01*
X170467218Y-118605227D01*
X170499000Y-118445452D01*
X170499000Y-118282548D01*
X170467218Y-118122773D01*
X170404877Y-117972269D01*
X170314372Y-117836819D01*
X170199181Y-117721628D01*
X170063731Y-117631123D01*
X169913227Y-117568782D01*
X169753452Y-117537000D01*
X169590548Y-117537000D01*
X169430773Y-117568782D01*
X169280269Y-117631123D01*
X169144819Y-117721628D01*
X169029628Y-117836819D01*
X168939123Y-117972269D01*
X168876782Y-118122773D01*
X168845000Y-118282548D01*
X165419000Y-118282548D01*
X165387218Y-118122773D01*
X165324877Y-117972269D01*
X165234372Y-117836819D01*
X165119181Y-117721628D01*
X164983731Y-117631123D01*
X164833227Y-117568782D01*
X164673452Y-117537000D01*
X164510548Y-117537000D01*
X164350773Y-117568782D01*
X164200269Y-117631123D01*
X164064819Y-117721628D01*
X163949628Y-117836819D01*
X163859123Y-117972269D01*
X163796782Y-118122773D01*
X163765000Y-118282548D01*
X160339000Y-118282548D01*
X160307218Y-118122773D01*
X160244877Y-117972269D01*
X160154372Y-117836819D01*
X160039181Y-117721628D01*
X159903731Y-117631123D01*
X159753227Y-117568782D01*
X159593452Y-117537000D01*
X159430548Y-117537000D01*
X159270773Y-117568782D01*
X159120269Y-117631123D01*
X158984819Y-117721628D01*
X158869628Y-117836819D01*
X158779123Y-117972269D01*
X158716782Y-118122773D01*
X158685000Y-118282548D01*
X153025315Y-118282548D01*
X152966158Y-118087534D01*
X152838062Y-117847883D01*
X152665673Y-117637827D01*
X152455617Y-117465438D01*
X152235906Y-117348000D01*
X152455617Y-117230562D01*
X152665673Y-117058173D01*
X152838062Y-116848117D01*
X152966158Y-116608466D01*
X153045039Y-116348429D01*
X153071674Y-116078000D01*
X153045039Y-115807571D01*
X152966158Y-115547534D01*
X152838062Y-115307883D01*
X152665673Y-115097827D01*
X152455617Y-114925438D01*
X152444631Y-114919566D01*
X152638000Y-114919566D01*
X152721707Y-114911322D01*
X152802196Y-114886905D01*
X152876376Y-114847255D01*
X152941395Y-114793895D01*
X152994755Y-114728876D01*
X153034405Y-114654696D01*
X153058822Y-114574207D01*
X153067066Y-114490500D01*
X153067066Y-113710548D01*
X156907000Y-113710548D01*
X156907000Y-113873452D01*
X156938782Y-114033227D01*
X157001123Y-114183731D01*
X157091628Y-114319181D01*
X157206819Y-114434372D01*
X157342269Y-114524877D01*
X157492773Y-114587218D01*
X157652548Y-114619000D01*
X157815452Y-114619000D01*
X157975227Y-114587218D01*
X158125731Y-114524877D01*
X158261181Y-114434372D01*
X158376372Y-114319181D01*
X158466877Y-114183731D01*
X158529218Y-114033227D01*
X158561000Y-113873452D01*
X158561000Y-113710548D01*
X158529218Y-113550773D01*
X158466877Y-113400269D01*
X158376372Y-113264819D01*
X158261181Y-113149628D01*
X158125731Y-113059123D01*
X157975227Y-112996782D01*
X157815452Y-112965000D01*
X157652548Y-112965000D01*
X157492773Y-112996782D01*
X157342269Y-113059123D01*
X157206819Y-113149628D01*
X157091628Y-113264819D01*
X157001123Y-113400269D01*
X156938782Y-113550773D01*
X156907000Y-113710548D01*
X153067066Y-113710548D01*
X153067066Y-112585500D01*
X153058822Y-112501793D01*
X153034405Y-112421304D01*
X152994755Y-112347124D01*
X152941395Y-112282105D01*
X152876376Y-112228745D01*
X152802196Y-112189095D01*
X152721707Y-112164678D01*
X152638000Y-112156434D01*
X150638000Y-112156434D01*
X150554293Y-112164678D01*
X150473804Y-112189095D01*
X150399624Y-112228745D01*
X150334605Y-112282105D01*
X150281245Y-112347124D01*
X150241595Y-112421304D01*
X150217178Y-112501793D01*
X150208934Y-112585500D01*
X150208934Y-114490500D01*
X150217178Y-114574207D01*
X150241595Y-114654696D01*
X150281245Y-114728876D01*
X150334605Y-114793895D01*
X150399624Y-114847255D01*
X150473804Y-114886905D01*
X150554293Y-114911322D01*
X150638000Y-114919566D01*
X150831369Y-114919566D01*
X150820383Y-114925438D01*
X150610327Y-115097827D01*
X150437938Y-115307883D01*
X150309842Y-115547534D01*
X150230961Y-115807571D01*
X150204326Y-116078000D01*
X137155000Y-116078000D01*
X137155000Y-115863584D01*
X137071340Y-115442992D01*
X136907233Y-115046804D01*
X136668987Y-114690243D01*
X136365757Y-114387013D01*
X136009196Y-114148767D01*
X135613008Y-113984660D01*
X135192416Y-113901000D01*
X134763584Y-113901000D01*
X134342992Y-113984660D01*
X133946804Y-114148767D01*
X133590243Y-114387013D01*
X133287013Y-114690243D01*
X133048767Y-115046804D01*
X132884660Y-115442992D01*
X132801000Y-115863584D01*
X126447223Y-115863584D01*
X126479227Y-115857218D01*
X126629731Y-115794877D01*
X126765181Y-115704372D01*
X126880372Y-115589181D01*
X126970877Y-115453731D01*
X127033218Y-115303227D01*
X127065000Y-115143452D01*
X127065000Y-114980548D01*
X127033218Y-114820773D01*
X126970877Y-114670269D01*
X126880372Y-114534819D01*
X126765181Y-114419628D01*
X126629731Y-114329123D01*
X126479227Y-114266782D01*
X126319452Y-114235000D01*
X126156548Y-114235000D01*
X125996773Y-114266782D01*
X125846269Y-114329123D01*
X125710819Y-114419628D01*
X125595628Y-114534819D01*
X125505123Y-114670269D01*
X125442782Y-114820773D01*
X125411000Y-114980548D01*
X123255000Y-114980548D01*
X123223218Y-114820773D01*
X123160877Y-114670269D01*
X123070372Y-114534819D01*
X122955181Y-114419628D01*
X122819731Y-114329123D01*
X122669227Y-114266782D01*
X122509452Y-114235000D01*
X122346548Y-114235000D01*
X122186773Y-114266782D01*
X122118000Y-114295269D01*
X122118000Y-112948548D01*
X123379000Y-112948548D01*
X123379000Y-113111452D01*
X123410782Y-113271227D01*
X123473123Y-113421731D01*
X123563628Y-113557181D01*
X123678819Y-113672372D01*
X123814269Y-113762877D01*
X123964773Y-113825218D01*
X124124548Y-113857000D01*
X124287452Y-113857000D01*
X124447227Y-113825218D01*
X124597731Y-113762877D01*
X124733181Y-113672372D01*
X124848372Y-113557181D01*
X124938877Y-113421731D01*
X125001218Y-113271227D01*
X125033000Y-113111452D01*
X125033000Y-112948548D01*
X125001218Y-112788773D01*
X124938877Y-112638269D01*
X124848372Y-112502819D01*
X124733181Y-112387628D01*
X124597731Y-112297123D01*
X124447227Y-112234782D01*
X124287452Y-112203000D01*
X124124548Y-112203000D01*
X123964773Y-112234782D01*
X123814269Y-112297123D01*
X123678819Y-112387628D01*
X123563628Y-112502819D01*
X123473123Y-112638269D01*
X123410782Y-112788773D01*
X123379000Y-112948548D01*
X122118000Y-112948548D01*
X122118000Y-107548066D01*
X124256000Y-107548066D01*
X124256000Y-107843934D01*
X124313721Y-108134117D01*
X124426944Y-108407464D01*
X124591320Y-108653469D01*
X124800531Y-108862680D01*
X125046536Y-109027056D01*
X125319883Y-109140279D01*
X125610066Y-109198000D01*
X125905934Y-109198000D01*
X126196117Y-109140279D01*
X126469464Y-109027056D01*
X126715469Y-108862680D01*
X126924680Y-108653469D01*
X127089056Y-108407464D01*
X127202279Y-108134117D01*
X127260000Y-107843934D01*
X127260000Y-107548066D01*
X128456000Y-107548066D01*
X128456000Y-107843934D01*
X128513721Y-108134117D01*
X128626944Y-108407464D01*
X128791320Y-108653469D01*
X129000531Y-108862680D01*
X129246536Y-109027056D01*
X129519883Y-109140279D01*
X129810066Y-109198000D01*
X130105934Y-109198000D01*
X130396117Y-109140279D01*
X130669464Y-109027056D01*
X130915469Y-108862680D01*
X131124680Y-108653469D01*
X131289056Y-108407464D01*
X131402279Y-108134117D01*
X131460000Y-107843934D01*
X131460000Y-107548066D01*
X132656000Y-107548066D01*
X132656000Y-107843934D01*
X132713721Y-108134117D01*
X132826944Y-108407464D01*
X132991320Y-108653469D01*
X133200531Y-108862680D01*
X133446536Y-109027056D01*
X133719883Y-109140279D01*
X134010066Y-109198000D01*
X134305934Y-109198000D01*
X134596117Y-109140279D01*
X134869464Y-109027056D01*
X135115469Y-108862680D01*
X135324680Y-108653469D01*
X135489056Y-108407464D01*
X135602279Y-108134117D01*
X135660000Y-107843934D01*
X135660000Y-107548066D01*
X136856000Y-107548066D01*
X136856000Y-107843934D01*
X136913721Y-108134117D01*
X137026944Y-108407464D01*
X137191320Y-108653469D01*
X137400531Y-108862680D01*
X137646536Y-109027056D01*
X137919883Y-109140279D01*
X138210066Y-109198000D01*
X138505934Y-109198000D01*
X138796117Y-109140279D01*
X139069464Y-109027056D01*
X139315469Y-108862680D01*
X139524680Y-108653469D01*
X139689056Y-108407464D01*
X139802279Y-108134117D01*
X139860000Y-107843934D01*
X139860000Y-107548066D01*
X141056000Y-107548066D01*
X141056000Y-107843934D01*
X141113721Y-108134117D01*
X141226944Y-108407464D01*
X141391320Y-108653469D01*
X141600531Y-108862680D01*
X141846536Y-109027056D01*
X142119883Y-109140279D01*
X142410066Y-109198000D01*
X142705934Y-109198000D01*
X142996117Y-109140279D01*
X143269464Y-109027056D01*
X143515469Y-108862680D01*
X143724680Y-108653469D01*
X143889056Y-108407464D01*
X144002279Y-108134117D01*
X144060000Y-107843934D01*
X144060000Y-107548066D01*
X145256000Y-107548066D01*
X145256000Y-107843934D01*
X145313721Y-108134117D01*
X145426944Y-108407464D01*
X145591320Y-108653469D01*
X145800531Y-108862680D01*
X146046536Y-109027056D01*
X146319883Y-109140279D01*
X146610066Y-109198000D01*
X146905934Y-109198000D01*
X147196117Y-109140279D01*
X147469464Y-109027056D01*
X147715469Y-108862680D01*
X147924680Y-108653469D01*
X148089056Y-108407464D01*
X148202279Y-108134117D01*
X148260000Y-107843934D01*
X148260000Y-107548066D01*
X153656000Y-107548066D01*
X153656000Y-107843934D01*
X153713721Y-108134117D01*
X153826944Y-108407464D01*
X153991320Y-108653469D01*
X154200531Y-108862680D01*
X154446536Y-109027056D01*
X154719883Y-109140279D01*
X155010066Y-109198000D01*
X155305934Y-109198000D01*
X155596117Y-109140279D01*
X155869464Y-109027056D01*
X156115469Y-108862680D01*
X156324680Y-108653469D01*
X156489056Y-108407464D01*
X156602279Y-108134117D01*
X156660000Y-107843934D01*
X156660000Y-107548066D01*
X162056000Y-107548066D01*
X162056000Y-107843934D01*
X162113721Y-108134117D01*
X162226944Y-108407464D01*
X162391320Y-108653469D01*
X162600531Y-108862680D01*
X162846536Y-109027056D01*
X163119883Y-109140279D01*
X163410066Y-109198000D01*
X163705934Y-109198000D01*
X163996117Y-109140279D01*
X164269464Y-109027056D01*
X164515469Y-108862680D01*
X164724680Y-108653469D01*
X164889056Y-108407464D01*
X165002279Y-108134117D01*
X165060000Y-107843934D01*
X165060000Y-107548066D01*
X166256000Y-107548066D01*
X166256000Y-107843934D01*
X166313721Y-108134117D01*
X166426944Y-108407464D01*
X166591320Y-108653469D01*
X166800531Y-108862680D01*
X167046536Y-109027056D01*
X167319883Y-109140279D01*
X167610066Y-109198000D01*
X167905934Y-109198000D01*
X168196117Y-109140279D01*
X168469464Y-109027056D01*
X168715469Y-108862680D01*
X168924680Y-108653469D01*
X169089056Y-108407464D01*
X169202279Y-108134117D01*
X169260000Y-107843934D01*
X169260000Y-107548066D01*
X169202279Y-107257883D01*
X169089056Y-106984536D01*
X168924680Y-106738531D01*
X168807149Y-106621000D01*
X170453934Y-106621000D01*
X170453934Y-108771000D01*
X170462178Y-108854707D01*
X170486595Y-108935196D01*
X170526245Y-109009376D01*
X170579605Y-109074395D01*
X170644624Y-109127755D01*
X170718804Y-109167405D01*
X170799293Y-109191822D01*
X170883000Y-109200066D01*
X173033000Y-109200066D01*
X173116707Y-109191822D01*
X173197196Y-109167405D01*
X173271376Y-109127755D01*
X173336395Y-109074395D01*
X173389755Y-109009376D01*
X173429405Y-108935196D01*
X173453822Y-108854707D01*
X173462066Y-108771000D01*
X173462066Y-106621000D01*
X173453822Y-106537293D01*
X173429405Y-106456804D01*
X173389755Y-106382624D01*
X173336395Y-106317605D01*
X173271376Y-106264245D01*
X173197196Y-106224595D01*
X173116707Y-106200178D01*
X173033000Y-106191934D01*
X170883000Y-106191934D01*
X170799293Y-106200178D01*
X170718804Y-106224595D01*
X170644624Y-106264245D01*
X170579605Y-106317605D01*
X170526245Y-106382624D01*
X170486595Y-106456804D01*
X170462178Y-106537293D01*
X170453934Y-106621000D01*
X168807149Y-106621000D01*
X168715469Y-106529320D01*
X168469464Y-106364944D01*
X168196117Y-106251721D01*
X167905934Y-106194000D01*
X167610066Y-106194000D01*
X167319883Y-106251721D01*
X167046536Y-106364944D01*
X166800531Y-106529320D01*
X166591320Y-106738531D01*
X166426944Y-106984536D01*
X166313721Y-107257883D01*
X166256000Y-107548066D01*
X165060000Y-107548066D01*
X165002279Y-107257883D01*
X164889056Y-106984536D01*
X164724680Y-106738531D01*
X164515469Y-106529320D01*
X164269464Y-106364944D01*
X163996117Y-106251721D01*
X163705934Y-106194000D01*
X163410066Y-106194000D01*
X163119883Y-106251721D01*
X162846536Y-106364944D01*
X162600531Y-106529320D01*
X162391320Y-106738531D01*
X162226944Y-106984536D01*
X162113721Y-107257883D01*
X162056000Y-107548066D01*
X156660000Y-107548066D01*
X156602279Y-107257883D01*
X156489056Y-106984536D01*
X156324680Y-106738531D01*
X156115469Y-106529320D01*
X155869464Y-106364944D01*
X155596117Y-106251721D01*
X155305934Y-106194000D01*
X155010066Y-106194000D01*
X154719883Y-106251721D01*
X154446536Y-106364944D01*
X154200531Y-106529320D01*
X153991320Y-106738531D01*
X153826944Y-106984536D01*
X153713721Y-107257883D01*
X153656000Y-107548066D01*
X148260000Y-107548066D01*
X148202279Y-107257883D01*
X148089056Y-106984536D01*
X147924680Y-106738531D01*
X147715469Y-106529320D01*
X147469464Y-106364944D01*
X147196117Y-106251721D01*
X146905934Y-106194000D01*
X146610066Y-106194000D01*
X146319883Y-106251721D01*
X146046536Y-106364944D01*
X145800531Y-106529320D01*
X145591320Y-106738531D01*
X145426944Y-106984536D01*
X145313721Y-107257883D01*
X145256000Y-107548066D01*
X144060000Y-107548066D01*
X144002279Y-107257883D01*
X143889056Y-106984536D01*
X143724680Y-106738531D01*
X143515469Y-106529320D01*
X143269464Y-106364944D01*
X142996117Y-106251721D01*
X142705934Y-106194000D01*
X142410066Y-106194000D01*
X142119883Y-106251721D01*
X141846536Y-106364944D01*
X141600531Y-106529320D01*
X141391320Y-106738531D01*
X141226944Y-106984536D01*
X141113721Y-107257883D01*
X141056000Y-107548066D01*
X139860000Y-107548066D01*
X139802279Y-107257883D01*
X139689056Y-106984536D01*
X139524680Y-106738531D01*
X139315469Y-106529320D01*
X139069464Y-106364944D01*
X138796117Y-106251721D01*
X138505934Y-106194000D01*
X138210066Y-106194000D01*
X137919883Y-106251721D01*
X137646536Y-106364944D01*
X137400531Y-106529320D01*
X137191320Y-106738531D01*
X137026944Y-106984536D01*
X136913721Y-107257883D01*
X136856000Y-107548066D01*
X135660000Y-107548066D01*
X135602279Y-107257883D01*
X135489056Y-106984536D01*
X135324680Y-106738531D01*
X135115469Y-106529320D01*
X134869464Y-106364944D01*
X134596117Y-106251721D01*
X134305934Y-106194000D01*
X134010066Y-106194000D01*
X133719883Y-106251721D01*
X133446536Y-106364944D01*
X133200531Y-106529320D01*
X132991320Y-106738531D01*
X132826944Y-106984536D01*
X132713721Y-107257883D01*
X132656000Y-107548066D01*
X131460000Y-107548066D01*
X131402279Y-107257883D01*
X131289056Y-106984536D01*
X131124680Y-106738531D01*
X130915469Y-106529320D01*
X130669464Y-106364944D01*
X130396117Y-106251721D01*
X130105934Y-106194000D01*
X129810066Y-106194000D01*
X129519883Y-106251721D01*
X129246536Y-106364944D01*
X129000531Y-106529320D01*
X128791320Y-106738531D01*
X128626944Y-106984536D01*
X128513721Y-107257883D01*
X128456000Y-107548066D01*
X127260000Y-107548066D01*
X127202279Y-107257883D01*
X127089056Y-106984536D01*
X126924680Y-106738531D01*
X126715469Y-106529320D01*
X126469464Y-106364944D01*
X126196117Y-106251721D01*
X125905934Y-106194000D01*
X125610066Y-106194000D01*
X125319883Y-106251721D01*
X125046536Y-106364944D01*
X124800531Y-106529320D01*
X124591320Y-106738531D01*
X124426944Y-106984536D01*
X124313721Y-107257883D01*
X124256000Y-107548066D01*
X122118000Y-107548066D01*
X122118000Y-102048066D01*
X124256000Y-102048066D01*
X124256000Y-102343934D01*
X124313721Y-102634117D01*
X124426944Y-102907464D01*
X124591320Y-103153469D01*
X124800531Y-103362680D01*
X125046536Y-103527056D01*
X125319883Y-103640279D01*
X125610066Y-103698000D01*
X125905934Y-103698000D01*
X126196117Y-103640279D01*
X126469464Y-103527056D01*
X126715469Y-103362680D01*
X126924680Y-103153469D01*
X127089056Y-102907464D01*
X127202279Y-102634117D01*
X127260000Y-102343934D01*
X127260000Y-102048066D01*
X141056000Y-102048066D01*
X141056000Y-102343934D01*
X141113721Y-102634117D01*
X141226944Y-102907464D01*
X141391320Y-103153469D01*
X141600531Y-103362680D01*
X141846536Y-103527056D01*
X142119883Y-103640279D01*
X142410066Y-103698000D01*
X142705934Y-103698000D01*
X142996117Y-103640279D01*
X143269464Y-103527056D01*
X143515469Y-103362680D01*
X143724680Y-103153469D01*
X143889056Y-102907464D01*
X144002279Y-102634117D01*
X144060000Y-102343934D01*
X144060000Y-102048066D01*
X145256000Y-102048066D01*
X145256000Y-102343934D01*
X145313721Y-102634117D01*
X145426944Y-102907464D01*
X145591320Y-103153469D01*
X145800531Y-103362680D01*
X146046536Y-103527056D01*
X146319883Y-103640279D01*
X146610066Y-103698000D01*
X146905934Y-103698000D01*
X147196117Y-103640279D01*
X147469464Y-103527056D01*
X147715469Y-103362680D01*
X147924680Y-103153469D01*
X148089056Y-102907464D01*
X148202279Y-102634117D01*
X148260000Y-102343934D01*
X148260000Y-102048066D01*
X149456000Y-102048066D01*
X149456000Y-102343934D01*
X149513721Y-102634117D01*
X149626944Y-102907464D01*
X149791320Y-103153469D01*
X150000531Y-103362680D01*
X150246536Y-103527056D01*
X150519883Y-103640279D01*
X150810066Y-103698000D01*
X151105934Y-103698000D01*
X151396117Y-103640279D01*
X151669464Y-103527056D01*
X151915469Y-103362680D01*
X152124680Y-103153469D01*
X152289056Y-102907464D01*
X152402279Y-102634117D01*
X152460000Y-102343934D01*
X152460000Y-102048066D01*
X153656000Y-102048066D01*
X153656000Y-102343934D01*
X153713721Y-102634117D01*
X153826944Y-102907464D01*
X153991320Y-103153469D01*
X154200531Y-103362680D01*
X154446536Y-103527056D01*
X154719883Y-103640279D01*
X155010066Y-103698000D01*
X155305934Y-103698000D01*
X155596117Y-103640279D01*
X155869464Y-103527056D01*
X156115469Y-103362680D01*
X156324680Y-103153469D01*
X156489056Y-102907464D01*
X156602279Y-102634117D01*
X156660000Y-102343934D01*
X156660000Y-102048066D01*
X157856000Y-102048066D01*
X157856000Y-102343934D01*
X157913721Y-102634117D01*
X158026944Y-102907464D01*
X158191320Y-103153469D01*
X158400531Y-103362680D01*
X158646536Y-103527056D01*
X158919883Y-103640279D01*
X159210066Y-103698000D01*
X159505934Y-103698000D01*
X159796117Y-103640279D01*
X160069464Y-103527056D01*
X160315469Y-103362680D01*
X160524680Y-103153469D01*
X160689056Y-102907464D01*
X160802279Y-102634117D01*
X160860000Y-102343934D01*
X160860000Y-102048066D01*
X162056000Y-102048066D01*
X162056000Y-102343934D01*
X162113721Y-102634117D01*
X162226944Y-102907464D01*
X162391320Y-103153469D01*
X162600531Y-103362680D01*
X162846536Y-103527056D01*
X163119883Y-103640279D01*
X163410066Y-103698000D01*
X163705934Y-103698000D01*
X163996117Y-103640279D01*
X164269464Y-103527056D01*
X164515469Y-103362680D01*
X164724680Y-103153469D01*
X164889056Y-102907464D01*
X165002279Y-102634117D01*
X165060000Y-102343934D01*
X165060000Y-102048066D01*
X166256000Y-102048066D01*
X166256000Y-102343934D01*
X166313721Y-102634117D01*
X166426944Y-102907464D01*
X166591320Y-103153469D01*
X166800531Y-103362680D01*
X167046536Y-103527056D01*
X167319883Y-103640279D01*
X167610066Y-103698000D01*
X167905934Y-103698000D01*
X168196117Y-103640279D01*
X168469464Y-103527056D01*
X168715469Y-103362680D01*
X168924680Y-103153469D01*
X169089056Y-102907464D01*
X169202279Y-102634117D01*
X169260000Y-102343934D01*
X169260000Y-102048066D01*
X170456000Y-102048066D01*
X170456000Y-102343934D01*
X170513721Y-102634117D01*
X170626944Y-102907464D01*
X170791320Y-103153469D01*
X171000531Y-103362680D01*
X171246536Y-103527056D01*
X171519883Y-103640279D01*
X171810066Y-103698000D01*
X172105934Y-103698000D01*
X172396117Y-103640279D01*
X172669464Y-103527056D01*
X172915469Y-103362680D01*
X173124680Y-103153469D01*
X173289056Y-102907464D01*
X173402279Y-102634117D01*
X173460000Y-102343934D01*
X173460000Y-102048066D01*
X173402279Y-101757883D01*
X173289056Y-101484536D01*
X173124680Y-101238531D01*
X172915469Y-101029320D01*
X172669464Y-100864944D01*
X172396117Y-100751721D01*
X172105934Y-100694000D01*
X171810066Y-100694000D01*
X171519883Y-100751721D01*
X171246536Y-100864944D01*
X171000531Y-101029320D01*
X170791320Y-101238531D01*
X170626944Y-101484536D01*
X170513721Y-101757883D01*
X170456000Y-102048066D01*
X169260000Y-102048066D01*
X169202279Y-101757883D01*
X169089056Y-101484536D01*
X168924680Y-101238531D01*
X168715469Y-101029320D01*
X168469464Y-100864944D01*
X168196117Y-100751721D01*
X167905934Y-100694000D01*
X167610066Y-100694000D01*
X167319883Y-100751721D01*
X167046536Y-100864944D01*
X166800531Y-101029320D01*
X166591320Y-101238531D01*
X166426944Y-101484536D01*
X166313721Y-101757883D01*
X166256000Y-102048066D01*
X165060000Y-102048066D01*
X165002279Y-101757883D01*
X164889056Y-101484536D01*
X164724680Y-101238531D01*
X164515469Y-101029320D01*
X164269464Y-100864944D01*
X163996117Y-100751721D01*
X163705934Y-100694000D01*
X163410066Y-100694000D01*
X163119883Y-100751721D01*
X162846536Y-100864944D01*
X162600531Y-101029320D01*
X162391320Y-101238531D01*
X162226944Y-101484536D01*
X162113721Y-101757883D01*
X162056000Y-102048066D01*
X160860000Y-102048066D01*
X160802279Y-101757883D01*
X160689056Y-101484536D01*
X160524680Y-101238531D01*
X160315469Y-101029320D01*
X160069464Y-100864944D01*
X159796117Y-100751721D01*
X159505934Y-100694000D01*
X159210066Y-100694000D01*
X158919883Y-100751721D01*
X158646536Y-100864944D01*
X158400531Y-101029320D01*
X158191320Y-101238531D01*
X158026944Y-101484536D01*
X157913721Y-101757883D01*
X157856000Y-102048066D01*
X156660000Y-102048066D01*
X156602279Y-101757883D01*
X156489056Y-101484536D01*
X156324680Y-101238531D01*
X156115469Y-101029320D01*
X155869464Y-100864944D01*
X155596117Y-100751721D01*
X155305934Y-100694000D01*
X155010066Y-100694000D01*
X154719883Y-100751721D01*
X154446536Y-100864944D01*
X154200531Y-101029320D01*
X153991320Y-101238531D01*
X153826944Y-101484536D01*
X153713721Y-101757883D01*
X153656000Y-102048066D01*
X152460000Y-102048066D01*
X152402279Y-101757883D01*
X152289056Y-101484536D01*
X152124680Y-101238531D01*
X151915469Y-101029320D01*
X151669464Y-100864944D01*
X151396117Y-100751721D01*
X151105934Y-100694000D01*
X150810066Y-100694000D01*
X150519883Y-100751721D01*
X150246536Y-100864944D01*
X150000531Y-101029320D01*
X149791320Y-101238531D01*
X149626944Y-101484536D01*
X149513721Y-101757883D01*
X149456000Y-102048066D01*
X148260000Y-102048066D01*
X148202279Y-101757883D01*
X148089056Y-101484536D01*
X147924680Y-101238531D01*
X147715469Y-101029320D01*
X147469464Y-100864944D01*
X147196117Y-100751721D01*
X146905934Y-100694000D01*
X146610066Y-100694000D01*
X146319883Y-100751721D01*
X146046536Y-100864944D01*
X145800531Y-101029320D01*
X145591320Y-101238531D01*
X145426944Y-101484536D01*
X145313721Y-101757883D01*
X145256000Y-102048066D01*
X144060000Y-102048066D01*
X144002279Y-101757883D01*
X143889056Y-101484536D01*
X143724680Y-101238531D01*
X143515469Y-101029320D01*
X143269464Y-100864944D01*
X142996117Y-100751721D01*
X142705934Y-100694000D01*
X142410066Y-100694000D01*
X142119883Y-100751721D01*
X141846536Y-100864944D01*
X141600531Y-101029320D01*
X141391320Y-101238531D01*
X141226944Y-101484536D01*
X141113721Y-101757883D01*
X141056000Y-102048066D01*
X127260000Y-102048066D01*
X127202279Y-101757883D01*
X127089056Y-101484536D01*
X126924680Y-101238531D01*
X126715469Y-101029320D01*
X126469464Y-100864944D01*
X126196117Y-100751721D01*
X125905934Y-100694000D01*
X125610066Y-100694000D01*
X125319883Y-100751721D01*
X125046536Y-100864944D01*
X124800531Y-101029320D01*
X124591320Y-101238531D01*
X124426944Y-101484536D01*
X124313721Y-101757883D01*
X124256000Y-102048066D01*
X122118000Y-102048066D01*
X122118000Y-99082108D01*
X122140542Y-98852200D01*
X122192464Y-98680226D01*
X154425000Y-98680226D01*
X154425000Y-98931774D01*
X154474074Y-99178487D01*
X154570337Y-99410886D01*
X154710089Y-99620040D01*
X154887960Y-99797911D01*
X155097114Y-99937663D01*
X155329513Y-100033926D01*
X155576226Y-100083000D01*
X155827774Y-100083000D01*
X156074487Y-100033926D01*
X156306886Y-99937663D01*
X156516040Y-99797911D01*
X156693911Y-99620040D01*
X156833663Y-99410886D01*
X156929926Y-99178487D01*
X156962934Y-99012544D01*
X156962934Y-99656000D01*
X156971178Y-99739707D01*
X156995595Y-99820196D01*
X157035245Y-99894376D01*
X157088605Y-99959395D01*
X157153624Y-100012755D01*
X157227804Y-100052405D01*
X157308293Y-100076822D01*
X157392000Y-100085066D01*
X159092000Y-100085066D01*
X159175707Y-100076822D01*
X159256196Y-100052405D01*
X159330376Y-100012755D01*
X159395395Y-99959395D01*
X159448755Y-99894376D01*
X159488405Y-99820196D01*
X159512822Y-99739707D01*
X159521066Y-99656000D01*
X159521066Y-97956000D01*
X159512822Y-97872293D01*
X159488405Y-97791804D01*
X159448755Y-97717624D01*
X159395395Y-97652605D01*
X159330376Y-97599245D01*
X159256196Y-97559595D01*
X159175707Y-97535178D01*
X159092000Y-97526934D01*
X157392000Y-97526934D01*
X157308293Y-97535178D01*
X157227804Y-97559595D01*
X157153624Y-97599245D01*
X157088605Y-97652605D01*
X157035245Y-97717624D01*
X156995595Y-97791804D01*
X156971178Y-97872293D01*
X156962934Y-97956000D01*
X156962934Y-98599456D01*
X156929926Y-98433513D01*
X156833663Y-98201114D01*
X156693911Y-97991960D01*
X156516040Y-97814089D01*
X156306886Y-97674337D01*
X156074487Y-97578074D01*
X155827774Y-97529000D01*
X155576226Y-97529000D01*
X155329513Y-97578074D01*
X155097114Y-97674337D01*
X154887960Y-97814089D01*
X154710089Y-97991960D01*
X154570337Y-98201114D01*
X154474074Y-98433513D01*
X154425000Y-98680226D01*
X122192464Y-98680226D01*
X122200889Y-98652322D01*
X122298916Y-98467961D01*
X122430876Y-98306161D01*
X122591759Y-98173068D01*
X122775425Y-98073760D01*
X122974878Y-98012019D01*
X123203401Y-97988000D01*
X125453795Y-97988000D01*
X125476000Y-97990187D01*
X125498205Y-97988000D01*
X125564607Y-97981460D01*
X125649810Y-97955614D01*
X125728333Y-97913643D01*
X125797159Y-97857159D01*
X125853643Y-97788333D01*
X125895614Y-97709810D01*
X125921460Y-97624607D01*
X125930187Y-97536000D01*
X125928000Y-97513795D01*
X125928000Y-94333664D01*
X137821000Y-94333664D01*
X137821000Y-94642336D01*
X137881219Y-94945077D01*
X137999343Y-95230253D01*
X138170832Y-95486904D01*
X138389096Y-95705168D01*
X138645747Y-95876657D01*
X138930923Y-95994781D01*
X139233664Y-96055000D01*
X139542336Y-96055000D01*
X139845077Y-95994781D01*
X140130253Y-95876657D01*
X140386904Y-95705168D01*
X140605168Y-95486904D01*
X140776657Y-95230253D01*
X140894781Y-94945077D01*
X140955000Y-94642336D01*
X140955000Y-94333664D01*
X141781000Y-94333664D01*
X141781000Y-94642336D01*
X141841219Y-94945077D01*
X141959343Y-95230253D01*
X142130832Y-95486904D01*
X142349096Y-95705168D01*
X142605747Y-95876657D01*
X142890923Y-95994781D01*
X143193664Y-96055000D01*
X143502336Y-96055000D01*
X143805077Y-95994781D01*
X144090253Y-95876657D01*
X144346904Y-95705168D01*
X144565168Y-95486904D01*
X144736657Y-95230253D01*
X144854781Y-94945077D01*
X144915000Y-94642336D01*
X144915000Y-94333664D01*
X145741000Y-94333664D01*
X145741000Y-94642336D01*
X145801219Y-94945077D01*
X145919343Y-95230253D01*
X146090832Y-95486904D01*
X146309096Y-95705168D01*
X146565747Y-95876657D01*
X146850923Y-95994781D01*
X147153664Y-96055000D01*
X147462336Y-96055000D01*
X147765077Y-95994781D01*
X148050253Y-95876657D01*
X148306904Y-95705168D01*
X148525168Y-95486904D01*
X148696657Y-95230253D01*
X148814781Y-94945077D01*
X148875000Y-94642336D01*
X148875000Y-94333664D01*
X149563000Y-94333664D01*
X149563000Y-94642336D01*
X149623219Y-94945077D01*
X149741343Y-95230253D01*
X149912832Y-95486904D01*
X150131096Y-95705168D01*
X150387747Y-95876657D01*
X150672923Y-95994781D01*
X150975664Y-96055000D01*
X151284336Y-96055000D01*
X151587077Y-95994781D01*
X151872253Y-95876657D01*
X152128904Y-95705168D01*
X152347168Y-95486904D01*
X152518657Y-95230253D01*
X152636781Y-94945077D01*
X152697000Y-94642336D01*
X152697000Y-94333664D01*
X153523000Y-94333664D01*
X153523000Y-94642336D01*
X153583219Y-94945077D01*
X153701343Y-95230253D01*
X153872832Y-95486904D01*
X154091096Y-95705168D01*
X154347747Y-95876657D01*
X154632923Y-95994781D01*
X154935664Y-96055000D01*
X155244336Y-96055000D01*
X155547077Y-95994781D01*
X155832253Y-95876657D01*
X156088904Y-95705168D01*
X156307168Y-95486904D01*
X156478657Y-95230253D01*
X156596781Y-94945077D01*
X156657000Y-94642336D01*
X156657000Y-94333664D01*
X157483000Y-94333664D01*
X157483000Y-94642336D01*
X157543219Y-94945077D01*
X157661343Y-95230253D01*
X157832832Y-95486904D01*
X158051096Y-95705168D01*
X158307747Y-95876657D01*
X158592923Y-95994781D01*
X158895664Y-96055000D01*
X159204336Y-96055000D01*
X159507077Y-95994781D01*
X159792253Y-95876657D01*
X160048904Y-95705168D01*
X160267168Y-95486904D01*
X160438657Y-95230253D01*
X160556781Y-94945077D01*
X160617000Y-94642336D01*
X160617000Y-94333664D01*
X161443000Y-94333664D01*
X161443000Y-94642336D01*
X161503219Y-94945077D01*
X161621343Y-95230253D01*
X161792832Y-95486904D01*
X162011096Y-95705168D01*
X162267747Y-95876657D01*
X162552923Y-95994781D01*
X162855664Y-96055000D01*
X163164336Y-96055000D01*
X163467077Y-95994781D01*
X163752253Y-95876657D01*
X164008904Y-95705168D01*
X164227168Y-95486904D01*
X164398657Y-95230253D01*
X164516781Y-94945077D01*
X164577000Y-94642336D01*
X164577000Y-94333664D01*
X169363000Y-94333664D01*
X169363000Y-94642336D01*
X169423219Y-94945077D01*
X169541343Y-95230253D01*
X169712832Y-95486904D01*
X169931096Y-95705168D01*
X170187747Y-95876657D01*
X170472923Y-95994781D01*
X170775664Y-96055000D01*
X171084336Y-96055000D01*
X171387077Y-95994781D01*
X171672253Y-95876657D01*
X171928904Y-95705168D01*
X172147168Y-95486904D01*
X172318657Y-95230253D01*
X172436781Y-94945077D01*
X172497000Y-94642336D01*
X172497000Y-94333664D01*
X172436781Y-94030923D01*
X172318657Y-93745747D01*
X172147168Y-93489096D01*
X171928904Y-93270832D01*
X171672253Y-93099343D01*
X171387077Y-92981219D01*
X171084336Y-92921000D01*
X170775664Y-92921000D01*
X170472923Y-92981219D01*
X170187747Y-93099343D01*
X169931096Y-93270832D01*
X169712832Y-93489096D01*
X169541343Y-93745747D01*
X169423219Y-94030923D01*
X169363000Y-94333664D01*
X164577000Y-94333664D01*
X164516781Y-94030923D01*
X164398657Y-93745747D01*
X164227168Y-93489096D01*
X164008904Y-93270832D01*
X163752253Y-93099343D01*
X163467077Y-92981219D01*
X163164336Y-92921000D01*
X162855664Y-92921000D01*
X162552923Y-92981219D01*
X162267747Y-93099343D01*
X162011096Y-93270832D01*
X161792832Y-93489096D01*
X161621343Y-93745747D01*
X161503219Y-94030923D01*
X161443000Y-94333664D01*
X160617000Y-94333664D01*
X160556781Y-94030923D01*
X160438657Y-93745747D01*
X160267168Y-93489096D01*
X160048904Y-93270832D01*
X159792253Y-93099343D01*
X159507077Y-92981219D01*
X159204336Y-92921000D01*
X158895664Y-92921000D01*
X158592923Y-92981219D01*
X158307747Y-93099343D01*
X158051096Y-93270832D01*
X157832832Y-93489096D01*
X157661343Y-93745747D01*
X157543219Y-94030923D01*
X157483000Y-94333664D01*
X156657000Y-94333664D01*
X156596781Y-94030923D01*
X156478657Y-93745747D01*
X156307168Y-93489096D01*
X156088904Y-93270832D01*
X155832253Y-93099343D01*
X155547077Y-92981219D01*
X155244336Y-92921000D01*
X154935664Y-92921000D01*
X154632923Y-92981219D01*
X154347747Y-93099343D01*
X154091096Y-93270832D01*
X153872832Y-93489096D01*
X153701343Y-93745747D01*
X153583219Y-94030923D01*
X153523000Y-94333664D01*
X152697000Y-94333664D01*
X152636781Y-94030923D01*
X152518657Y-93745747D01*
X152347168Y-93489096D01*
X152128904Y-93270832D01*
X151872253Y-93099343D01*
X151587077Y-92981219D01*
X151284336Y-92921000D01*
X150975664Y-92921000D01*
X150672923Y-92981219D01*
X150387747Y-93099343D01*
X150131096Y-93270832D01*
X149912832Y-93489096D01*
X149741343Y-93745747D01*
X149623219Y-94030923D01*
X149563000Y-94333664D01*
X148875000Y-94333664D01*
X148814781Y-94030923D01*
X148696657Y-93745747D01*
X148525168Y-93489096D01*
X148306904Y-93270832D01*
X148050253Y-93099343D01*
X147765077Y-92981219D01*
X147462336Y-92921000D01*
X147153664Y-92921000D01*
X146850923Y-92981219D01*
X146565747Y-93099343D01*
X146309096Y-93270832D01*
X146090832Y-93489096D01*
X145919343Y-93745747D01*
X145801219Y-94030923D01*
X145741000Y-94333664D01*
X144915000Y-94333664D01*
X144854781Y-94030923D01*
X144736657Y-93745747D01*
X144565168Y-93489096D01*
X144346904Y-93270832D01*
X144090253Y-93099343D01*
X143805077Y-92981219D01*
X143502336Y-92921000D01*
X143193664Y-92921000D01*
X142890923Y-92981219D01*
X142605747Y-93099343D01*
X142349096Y-93270832D01*
X142130832Y-93489096D01*
X141959343Y-93745747D01*
X141841219Y-94030923D01*
X141781000Y-94333664D01*
X140955000Y-94333664D01*
X140894781Y-94030923D01*
X140776657Y-93745747D01*
X140605168Y-93489096D01*
X140386904Y-93270832D01*
X140130253Y-93099343D01*
X139845077Y-92981219D01*
X139542336Y-92921000D01*
X139233664Y-92921000D01*
X138930923Y-92981219D01*
X138645747Y-93099343D01*
X138389096Y-93270832D01*
X138170832Y-93489096D01*
X137999343Y-93745747D01*
X137881219Y-94030923D01*
X137821000Y-94333664D01*
X125928000Y-94333664D01*
X125928000Y-87320000D01*
X172522001Y-87320000D01*
X172522000Y-97513795D01*
%TD*%
M02*
