%TF.GenerationSoftware,KiCad,Pcbnew,(5.1.6)-1*%
%TF.CreationDate,2022-02-22T09:41:32-05:00*%
%TF.ProjectId,PICO-AT,5049434f-2d41-4542-9e6b-696361645f70,rev?*%
%TF.SameCoordinates,Original*%
%TF.FileFunction,Copper,L3,Inr*%
%TF.FilePolarity,Positive*%
%FSLAX46Y46*%
G04 Gerber Fmt 4.6, Leading zero omitted, Abs format (unit mm)*
G04 Created by KiCad (PCBNEW (5.1.6)-1) date 2022-02-22 09:41:32*
%MOMM*%
%LPD*%
G01*
G04 APERTURE LIST*
%TA.AperFunction,ViaPad*%
%ADD10C,2.280000*%
%TD*%
%TA.AperFunction,ViaPad*%
%ADD11R,2.150000X2.150000*%
%TD*%
%TA.AperFunction,ViaPad*%
%ADD12C,2.150000*%
%TD*%
%TA.AperFunction,ViaPad*%
%ADD13R,2.000000X1.905000*%
%TD*%
%TA.AperFunction,ViaPad*%
%ADD14O,2.000000X1.905000*%
%TD*%
%TA.AperFunction,ViaPad*%
%ADD15R,1.700000X1.700000*%
%TD*%
%TA.AperFunction,ViaPad*%
%ADD16O,1.700000X1.700000*%
%TD*%
%TA.AperFunction,ViaPad*%
%ADD17C,0.800000*%
%TD*%
%TA.AperFunction,Conductor*%
%ADD18C,1.250000*%
%TD*%
%TA.AperFunction,Conductor*%
%ADD19C,0.254000*%
%TD*%
G04 APERTURE END LIST*
D10*
%TO.N,/GND*%
%TO.C,J1*%
X151130000Y-94488000D03*
X155090000Y-94488000D03*
%TO.N,/-12V*%
X159050000Y-94488000D03*
%TO.N,/12V*%
X163010000Y-94488000D03*
%TO.N,/5V*%
X166970000Y-94488000D03*
%TO.N,/PG*%
X170930000Y-94488000D03*
%TD*%
%TO.N,/GND*%
%TO.C,J2*%
X147308000Y-94488000D03*
X143348000Y-94488000D03*
%TO.N,/-5V*%
X139388000Y-94488000D03*
%TO.N,/5V*%
X135428000Y-94488000D03*
X131468000Y-94488000D03*
X127508000Y-94488000D03*
%TD*%
D11*
%TO.N,/3.3V*%
%TO.C,J3*%
X171958000Y-107696000D03*
D12*
X167758000Y-107696000D03*
%TO.N,/GND*%
X163558000Y-107696000D03*
%TO.N,/5V*%
X159358000Y-107696000D03*
%TO.N,/GND*%
X155158000Y-107696000D03*
%TO.N,/5V*%
X150958000Y-107696000D03*
%TO.N,/GND*%
X146758000Y-107696000D03*
%TO.N,/PG*%
X142558000Y-107696000D03*
%TO.N,/5VSB*%
X138358000Y-107696000D03*
%TO.N,/12V*%
X134158000Y-107696000D03*
X129958000Y-107696000D03*
%TO.N,/3.3V*%
X125758000Y-107696000D03*
X171958000Y-102196000D03*
%TO.N,/-12V*%
X167758000Y-102196000D03*
%TO.N,/GND*%
X163558000Y-102196000D03*
%TO.N,/PS-ON*%
X159358000Y-102196000D03*
%TO.N,/GND*%
X155158000Y-102196000D03*
X150958000Y-102196000D03*
X146758000Y-102196000D03*
%TO.N,Net-(J3-Pad20)*%
X142558000Y-102196000D03*
%TO.N,/5V*%
X138358000Y-102196000D03*
X134158000Y-102196000D03*
X129958000Y-102196000D03*
%TO.N,/GND*%
X125758000Y-102196000D03*
%TD*%
D13*
%TO.N,/GND*%
%TO.C,U1*%
X151638000Y-113538000D03*
D14*
%TO.N,/-12V*%
X151638000Y-116078000D03*
%TO.N,/-5V*%
X151638000Y-118618000D03*
%TD*%
D15*
%TO.N,/PS-ON*%
%TO.C,PWR*%
X158242000Y-98806000D03*
D16*
%TO.N,/GND*%
X155702000Y-98806000D03*
%TD*%
D17*
%TO.N,/GND*%
X169672000Y-118364000D03*
X169672000Y-119380000D03*
X159512000Y-118364000D03*
X159512000Y-119380000D03*
X164592000Y-118364000D03*
X164592000Y-119380000D03*
X174752000Y-115062000D03*
X174752000Y-116078000D03*
X124206000Y-113030000D03*
X126238000Y-115062000D03*
X124206000Y-117348000D03*
X126238000Y-119380000D03*
X122428000Y-115062000D03*
X122428000Y-119380000D03*
X124206000Y-121158000D03*
%TO.N,/5V*%
X168148000Y-113792000D03*
%TO.N,/PG*%
X157734000Y-113792000D03*
%TD*%
D18*
%TO.N,/-12V*%
X166758000Y-102196000D02*
X159050000Y-94488000D01*
X167758000Y-102196000D02*
X166758000Y-102196000D01*
X165857999Y-109188999D02*
X165857999Y-104096001D01*
X151638000Y-116078000D02*
X158968998Y-116078000D01*
X165857999Y-104096001D02*
X167758000Y-102196000D01*
X158968998Y-116078000D02*
X165857999Y-109188999D01*
%TO.N,/-5V*%
X140527999Y-95627999D02*
X139388000Y-94488000D01*
X140527999Y-109757999D02*
X140527999Y-95627999D01*
X149388000Y-118618000D02*
X140527999Y-109757999D01*
X151638000Y-118618000D02*
X149388000Y-118618000D01*
%TD*%
D19*
%TO.N,/GND*%
G36*
X172522000Y-97513795D02*
G01*
X172519813Y-97536000D01*
X172528540Y-97624607D01*
X172554386Y-97709810D01*
X172596357Y-97788333D01*
X172642825Y-97844954D01*
X172652841Y-97857159D01*
X172721667Y-97913643D01*
X172800190Y-97955614D01*
X172885393Y-97981460D01*
X172974000Y-97990187D01*
X172996205Y-97988000D01*
X174475892Y-97988000D01*
X174705800Y-98010542D01*
X174905678Y-98070889D01*
X175090039Y-98168916D01*
X175251839Y-98300876D01*
X175384932Y-98461759D01*
X175484240Y-98645425D01*
X175545981Y-98844878D01*
X175570001Y-99073411D01*
X175570000Y-121214000D01*
X122118000Y-121214000D01*
X122118000Y-115863584D01*
X132801000Y-115863584D01*
X132801000Y-116292416D01*
X132884660Y-116713008D01*
X133048767Y-117109196D01*
X133287013Y-117465757D01*
X133590243Y-117768987D01*
X133946804Y-118007233D01*
X134342992Y-118171340D01*
X134763584Y-118255000D01*
X135192416Y-118255000D01*
X135613008Y-118171340D01*
X136009196Y-118007233D01*
X136365757Y-117768987D01*
X136668987Y-117465757D01*
X136907233Y-117109196D01*
X137071340Y-116713008D01*
X137155000Y-116292416D01*
X137155000Y-115863584D01*
X137071340Y-115442992D01*
X136907233Y-115046804D01*
X136668987Y-114690243D01*
X136365757Y-114387013D01*
X136009196Y-114148767D01*
X135613008Y-113984660D01*
X135192416Y-113901000D01*
X134763584Y-113901000D01*
X134342992Y-113984660D01*
X133946804Y-114148767D01*
X133590243Y-114387013D01*
X133287013Y-114690243D01*
X133048767Y-115046804D01*
X132884660Y-115442992D01*
X132801000Y-115863584D01*
X122118000Y-115863584D01*
X122118000Y-107548066D01*
X124256000Y-107548066D01*
X124256000Y-107843934D01*
X124313721Y-108134117D01*
X124426944Y-108407464D01*
X124591320Y-108653469D01*
X124800531Y-108862680D01*
X125046536Y-109027056D01*
X125319883Y-109140279D01*
X125610066Y-109198000D01*
X125905934Y-109198000D01*
X126196117Y-109140279D01*
X126469464Y-109027056D01*
X126715469Y-108862680D01*
X126924680Y-108653469D01*
X127089056Y-108407464D01*
X127202279Y-108134117D01*
X127260000Y-107843934D01*
X127260000Y-107548066D01*
X128456000Y-107548066D01*
X128456000Y-107843934D01*
X128513721Y-108134117D01*
X128626944Y-108407464D01*
X128791320Y-108653469D01*
X129000531Y-108862680D01*
X129246536Y-109027056D01*
X129519883Y-109140279D01*
X129810066Y-109198000D01*
X130105934Y-109198000D01*
X130396117Y-109140279D01*
X130669464Y-109027056D01*
X130915469Y-108862680D01*
X131124680Y-108653469D01*
X131289056Y-108407464D01*
X131402279Y-108134117D01*
X131460000Y-107843934D01*
X131460000Y-107548066D01*
X132656000Y-107548066D01*
X132656000Y-107843934D01*
X132713721Y-108134117D01*
X132826944Y-108407464D01*
X132991320Y-108653469D01*
X133200531Y-108862680D01*
X133446536Y-109027056D01*
X133719883Y-109140279D01*
X134010066Y-109198000D01*
X134305934Y-109198000D01*
X134596117Y-109140279D01*
X134869464Y-109027056D01*
X135115469Y-108862680D01*
X135324680Y-108653469D01*
X135489056Y-108407464D01*
X135602279Y-108134117D01*
X135660000Y-107843934D01*
X135660000Y-107548066D01*
X135602279Y-107257883D01*
X135489056Y-106984536D01*
X135324680Y-106738531D01*
X135115469Y-106529320D01*
X134869464Y-106364944D01*
X134596117Y-106251721D01*
X134305934Y-106194000D01*
X134010066Y-106194000D01*
X133719883Y-106251721D01*
X133446536Y-106364944D01*
X133200531Y-106529320D01*
X132991320Y-106738531D01*
X132826944Y-106984536D01*
X132713721Y-107257883D01*
X132656000Y-107548066D01*
X131460000Y-107548066D01*
X131402279Y-107257883D01*
X131289056Y-106984536D01*
X131124680Y-106738531D01*
X130915469Y-106529320D01*
X130669464Y-106364944D01*
X130396117Y-106251721D01*
X130105934Y-106194000D01*
X129810066Y-106194000D01*
X129519883Y-106251721D01*
X129246536Y-106364944D01*
X129000531Y-106529320D01*
X128791320Y-106738531D01*
X128626944Y-106984536D01*
X128513721Y-107257883D01*
X128456000Y-107548066D01*
X127260000Y-107548066D01*
X127202279Y-107257883D01*
X127089056Y-106984536D01*
X126924680Y-106738531D01*
X126715469Y-106529320D01*
X126469464Y-106364944D01*
X126196117Y-106251721D01*
X125905934Y-106194000D01*
X125610066Y-106194000D01*
X125319883Y-106251721D01*
X125046536Y-106364944D01*
X124800531Y-106529320D01*
X124591320Y-106738531D01*
X124426944Y-106984536D01*
X124313721Y-107257883D01*
X124256000Y-107548066D01*
X122118000Y-107548066D01*
X122118000Y-103384890D01*
X124748715Y-103384890D01*
X124853531Y-103656959D01*
X125155929Y-103805340D01*
X125481465Y-103891875D01*
X125817627Y-103913239D01*
X126151498Y-103868610D01*
X126470247Y-103759704D01*
X126662469Y-103656959D01*
X126767285Y-103384890D01*
X125758000Y-102375605D01*
X124748715Y-103384890D01*
X122118000Y-103384890D01*
X122118000Y-102255627D01*
X124040761Y-102255627D01*
X124085390Y-102589498D01*
X124194296Y-102908247D01*
X124297041Y-103100469D01*
X124569110Y-103205285D01*
X125578395Y-102196000D01*
X125937605Y-102196000D01*
X126946890Y-103205285D01*
X127218959Y-103100469D01*
X127367340Y-102798071D01*
X127453875Y-102472535D01*
X127475239Y-102136373D01*
X127463435Y-102048066D01*
X128456000Y-102048066D01*
X128456000Y-102343934D01*
X128513721Y-102634117D01*
X128626944Y-102907464D01*
X128791320Y-103153469D01*
X129000531Y-103362680D01*
X129246536Y-103527056D01*
X129519883Y-103640279D01*
X129810066Y-103698000D01*
X130105934Y-103698000D01*
X130396117Y-103640279D01*
X130669464Y-103527056D01*
X130915469Y-103362680D01*
X131124680Y-103153469D01*
X131289056Y-102907464D01*
X131402279Y-102634117D01*
X131460000Y-102343934D01*
X131460000Y-102048066D01*
X132656000Y-102048066D01*
X132656000Y-102343934D01*
X132713721Y-102634117D01*
X132826944Y-102907464D01*
X132991320Y-103153469D01*
X133200531Y-103362680D01*
X133446536Y-103527056D01*
X133719883Y-103640279D01*
X134010066Y-103698000D01*
X134305934Y-103698000D01*
X134596117Y-103640279D01*
X134869464Y-103527056D01*
X135115469Y-103362680D01*
X135324680Y-103153469D01*
X135489056Y-102907464D01*
X135602279Y-102634117D01*
X135660000Y-102343934D01*
X135660000Y-102048066D01*
X136856000Y-102048066D01*
X136856000Y-102343934D01*
X136913721Y-102634117D01*
X137026944Y-102907464D01*
X137191320Y-103153469D01*
X137400531Y-103362680D01*
X137646536Y-103527056D01*
X137919883Y-103640279D01*
X138210066Y-103698000D01*
X138505934Y-103698000D01*
X138796117Y-103640279D01*
X139069464Y-103527056D01*
X139315469Y-103362680D01*
X139475999Y-103202150D01*
X139475999Y-106689850D01*
X139315469Y-106529320D01*
X139069464Y-106364944D01*
X138796117Y-106251721D01*
X138505934Y-106194000D01*
X138210066Y-106194000D01*
X137919883Y-106251721D01*
X137646536Y-106364944D01*
X137400531Y-106529320D01*
X137191320Y-106738531D01*
X137026944Y-106984536D01*
X136913721Y-107257883D01*
X136856000Y-107548066D01*
X136856000Y-107843934D01*
X136913721Y-108134117D01*
X137026944Y-108407464D01*
X137191320Y-108653469D01*
X137400531Y-108862680D01*
X137646536Y-109027056D01*
X137919883Y-109140279D01*
X138210066Y-109198000D01*
X138505934Y-109198000D01*
X138796117Y-109140279D01*
X139069464Y-109027056D01*
X139315469Y-108862680D01*
X139475999Y-108702150D01*
X139475999Y-109706320D01*
X139470909Y-109757999D01*
X139475999Y-109809677D01*
X139491221Y-109964226D01*
X139551375Y-110162529D01*
X139649061Y-110345287D01*
X139780523Y-110505475D01*
X139820679Y-110538430D01*
X148607578Y-119325331D01*
X148640524Y-119365476D01*
X148800712Y-119496938D01*
X148983469Y-119594624D01*
X149181772Y-119654778D01*
X149388000Y-119675090D01*
X149439679Y-119670000D01*
X150697848Y-119670000D01*
X150820383Y-119770562D01*
X151060034Y-119898658D01*
X151320071Y-119977539D01*
X151522738Y-119997500D01*
X151753262Y-119997500D01*
X151955929Y-119977539D01*
X152215966Y-119898658D01*
X152455617Y-119770562D01*
X152665673Y-119598173D01*
X152838062Y-119388117D01*
X152966158Y-119148466D01*
X153045039Y-118888429D01*
X153071674Y-118618000D01*
X153045039Y-118347571D01*
X152966158Y-118087534D01*
X152838062Y-117847883D01*
X152665673Y-117637827D01*
X152455617Y-117465438D01*
X152235906Y-117348000D01*
X152455617Y-117230562D01*
X152578152Y-117130000D01*
X158917319Y-117130000D01*
X158968998Y-117135090D01*
X159020677Y-117130000D01*
X159175226Y-117114778D01*
X159373529Y-117054624D01*
X159556286Y-116956938D01*
X159716474Y-116825476D01*
X159749429Y-116785320D01*
X162824201Y-113710548D01*
X167321000Y-113710548D01*
X167321000Y-113873452D01*
X167352782Y-114033227D01*
X167415123Y-114183731D01*
X167505628Y-114319181D01*
X167620819Y-114434372D01*
X167756269Y-114524877D01*
X167906773Y-114587218D01*
X168066548Y-114619000D01*
X168229452Y-114619000D01*
X168389227Y-114587218D01*
X168539731Y-114524877D01*
X168675181Y-114434372D01*
X168790372Y-114319181D01*
X168880877Y-114183731D01*
X168943218Y-114033227D01*
X168975000Y-113873452D01*
X168975000Y-113710548D01*
X168943218Y-113550773D01*
X168880877Y-113400269D01*
X168790372Y-113264819D01*
X168675181Y-113149628D01*
X168539731Y-113059123D01*
X168389227Y-112996782D01*
X168229452Y-112965000D01*
X168066548Y-112965000D01*
X167906773Y-112996782D01*
X167756269Y-113059123D01*
X167620819Y-113149628D01*
X167505628Y-113264819D01*
X167415123Y-113400269D01*
X167352782Y-113550773D01*
X167321000Y-113710548D01*
X162824201Y-113710548D01*
X166565330Y-109969421D01*
X166605475Y-109936475D01*
X166736937Y-109776287D01*
X166834623Y-109593530D01*
X166894777Y-109395227D01*
X166909999Y-109240678D01*
X166909999Y-109240677D01*
X166915089Y-109188999D01*
X166909999Y-109137320D01*
X166909999Y-108935824D01*
X167046536Y-109027056D01*
X167319883Y-109140279D01*
X167610066Y-109198000D01*
X167905934Y-109198000D01*
X168196117Y-109140279D01*
X168469464Y-109027056D01*
X168715469Y-108862680D01*
X168924680Y-108653469D01*
X169089056Y-108407464D01*
X169202279Y-108134117D01*
X169260000Y-107843934D01*
X169260000Y-107548066D01*
X169202279Y-107257883D01*
X169089056Y-106984536D01*
X168924680Y-106738531D01*
X168807149Y-106621000D01*
X170453934Y-106621000D01*
X170453934Y-108771000D01*
X170462178Y-108854707D01*
X170486595Y-108935196D01*
X170526245Y-109009376D01*
X170579605Y-109074395D01*
X170644624Y-109127755D01*
X170718804Y-109167405D01*
X170799293Y-109191822D01*
X170883000Y-109200066D01*
X173033000Y-109200066D01*
X173116707Y-109191822D01*
X173197196Y-109167405D01*
X173271376Y-109127755D01*
X173336395Y-109074395D01*
X173389755Y-109009376D01*
X173429405Y-108935196D01*
X173453822Y-108854707D01*
X173462066Y-108771000D01*
X173462066Y-106621000D01*
X173453822Y-106537293D01*
X173429405Y-106456804D01*
X173389755Y-106382624D01*
X173336395Y-106317605D01*
X173271376Y-106264245D01*
X173197196Y-106224595D01*
X173116707Y-106200178D01*
X173033000Y-106191934D01*
X170883000Y-106191934D01*
X170799293Y-106200178D01*
X170718804Y-106224595D01*
X170644624Y-106264245D01*
X170579605Y-106317605D01*
X170526245Y-106382624D01*
X170486595Y-106456804D01*
X170462178Y-106537293D01*
X170453934Y-106621000D01*
X168807149Y-106621000D01*
X168715469Y-106529320D01*
X168469464Y-106364944D01*
X168196117Y-106251721D01*
X167905934Y-106194000D01*
X167610066Y-106194000D01*
X167319883Y-106251721D01*
X167046536Y-106364944D01*
X166909999Y-106456176D01*
X166909999Y-104531752D01*
X167743752Y-103698000D01*
X167905934Y-103698000D01*
X168196117Y-103640279D01*
X168469464Y-103527056D01*
X168715469Y-103362680D01*
X168924680Y-103153469D01*
X169089056Y-102907464D01*
X169202279Y-102634117D01*
X169260000Y-102343934D01*
X169260000Y-102048066D01*
X170456000Y-102048066D01*
X170456000Y-102343934D01*
X170513721Y-102634117D01*
X170626944Y-102907464D01*
X170791320Y-103153469D01*
X171000531Y-103362680D01*
X171246536Y-103527056D01*
X171519883Y-103640279D01*
X171810066Y-103698000D01*
X172105934Y-103698000D01*
X172396117Y-103640279D01*
X172669464Y-103527056D01*
X172915469Y-103362680D01*
X173124680Y-103153469D01*
X173289056Y-102907464D01*
X173402279Y-102634117D01*
X173460000Y-102343934D01*
X173460000Y-102048066D01*
X173402279Y-101757883D01*
X173289056Y-101484536D01*
X173124680Y-101238531D01*
X172915469Y-101029320D01*
X172669464Y-100864944D01*
X172396117Y-100751721D01*
X172105934Y-100694000D01*
X171810066Y-100694000D01*
X171519883Y-100751721D01*
X171246536Y-100864944D01*
X171000531Y-101029320D01*
X170791320Y-101238531D01*
X170626944Y-101484536D01*
X170513721Y-101757883D01*
X170456000Y-102048066D01*
X169260000Y-102048066D01*
X169202279Y-101757883D01*
X169089056Y-101484536D01*
X168924680Y-101238531D01*
X168715469Y-101029320D01*
X168469464Y-100864944D01*
X168196117Y-100751721D01*
X167905934Y-100694000D01*
X167610066Y-100694000D01*
X167319883Y-100751721D01*
X167046536Y-100864944D01*
X166967504Y-100917752D01*
X160617000Y-94567249D01*
X160617000Y-94333664D01*
X161443000Y-94333664D01*
X161443000Y-94642336D01*
X161503219Y-94945077D01*
X161621343Y-95230253D01*
X161792832Y-95486904D01*
X162011096Y-95705168D01*
X162267747Y-95876657D01*
X162552923Y-95994781D01*
X162855664Y-96055000D01*
X163164336Y-96055000D01*
X163467077Y-95994781D01*
X163752253Y-95876657D01*
X164008904Y-95705168D01*
X164227168Y-95486904D01*
X164398657Y-95230253D01*
X164516781Y-94945077D01*
X164577000Y-94642336D01*
X164577000Y-94333664D01*
X165403000Y-94333664D01*
X165403000Y-94642336D01*
X165463219Y-94945077D01*
X165581343Y-95230253D01*
X165752832Y-95486904D01*
X165971096Y-95705168D01*
X166227747Y-95876657D01*
X166512923Y-95994781D01*
X166815664Y-96055000D01*
X167124336Y-96055000D01*
X167427077Y-95994781D01*
X167712253Y-95876657D01*
X167968904Y-95705168D01*
X168187168Y-95486904D01*
X168358657Y-95230253D01*
X168476781Y-94945077D01*
X168537000Y-94642336D01*
X168537000Y-94333664D01*
X169363000Y-94333664D01*
X169363000Y-94642336D01*
X169423219Y-94945077D01*
X169541343Y-95230253D01*
X169712832Y-95486904D01*
X169931096Y-95705168D01*
X170187747Y-95876657D01*
X170472923Y-95994781D01*
X170775664Y-96055000D01*
X171084336Y-96055000D01*
X171387077Y-95994781D01*
X171672253Y-95876657D01*
X171928904Y-95705168D01*
X172147168Y-95486904D01*
X172318657Y-95230253D01*
X172436781Y-94945077D01*
X172497000Y-94642336D01*
X172497000Y-94333664D01*
X172436781Y-94030923D01*
X172318657Y-93745747D01*
X172147168Y-93489096D01*
X171928904Y-93270832D01*
X171672253Y-93099343D01*
X171387077Y-92981219D01*
X171084336Y-92921000D01*
X170775664Y-92921000D01*
X170472923Y-92981219D01*
X170187747Y-93099343D01*
X169931096Y-93270832D01*
X169712832Y-93489096D01*
X169541343Y-93745747D01*
X169423219Y-94030923D01*
X169363000Y-94333664D01*
X168537000Y-94333664D01*
X168476781Y-94030923D01*
X168358657Y-93745747D01*
X168187168Y-93489096D01*
X167968904Y-93270832D01*
X167712253Y-93099343D01*
X167427077Y-92981219D01*
X167124336Y-92921000D01*
X166815664Y-92921000D01*
X166512923Y-92981219D01*
X166227747Y-93099343D01*
X165971096Y-93270832D01*
X165752832Y-93489096D01*
X165581343Y-93745747D01*
X165463219Y-94030923D01*
X165403000Y-94333664D01*
X164577000Y-94333664D01*
X164516781Y-94030923D01*
X164398657Y-93745747D01*
X164227168Y-93489096D01*
X164008904Y-93270832D01*
X163752253Y-93099343D01*
X163467077Y-92981219D01*
X163164336Y-92921000D01*
X162855664Y-92921000D01*
X162552923Y-92981219D01*
X162267747Y-93099343D01*
X162011096Y-93270832D01*
X161792832Y-93489096D01*
X161621343Y-93745747D01*
X161503219Y-94030923D01*
X161443000Y-94333664D01*
X160617000Y-94333664D01*
X160556781Y-94030923D01*
X160438657Y-93745747D01*
X160267168Y-93489096D01*
X160048904Y-93270832D01*
X159792253Y-93099343D01*
X159507077Y-92981219D01*
X159204336Y-92921000D01*
X158895664Y-92921000D01*
X158592923Y-92981219D01*
X158307747Y-93099343D01*
X158051096Y-93270832D01*
X157832832Y-93489096D01*
X157661343Y-93745747D01*
X157543219Y-94030923D01*
X157483000Y-94333664D01*
X157483000Y-94642336D01*
X157543219Y-94945077D01*
X157661343Y-95230253D01*
X157832832Y-95486904D01*
X158051096Y-95705168D01*
X158307747Y-95876657D01*
X158592923Y-95994781D01*
X158895664Y-96055000D01*
X159129249Y-96055000D01*
X163556717Y-100482469D01*
X163498373Y-100478761D01*
X163164502Y-100523390D01*
X162845753Y-100632296D01*
X162653531Y-100735041D01*
X162548715Y-101007110D01*
X163558000Y-102016395D01*
X163572143Y-102002253D01*
X163751748Y-102181858D01*
X163737605Y-102196000D01*
X164746890Y-103205285D01*
X165018959Y-103100469D01*
X165167340Y-102798071D01*
X165253875Y-102472535D01*
X165271378Y-102197130D01*
X165770248Y-102696000D01*
X165150674Y-103315575D01*
X165110524Y-103348525D01*
X164979062Y-103508713D01*
X164926847Y-103606400D01*
X164881375Y-103691471D01*
X164821221Y-103889774D01*
X164800909Y-104096001D01*
X164806000Y-104147690D01*
X164805999Y-106709487D01*
X164746890Y-106686715D01*
X163737605Y-107696000D01*
X163751748Y-107710143D01*
X163572143Y-107889748D01*
X163558000Y-107875605D01*
X162548715Y-108884890D01*
X162653531Y-109156959D01*
X162955929Y-109305340D01*
X163281465Y-109391875D01*
X163617627Y-109413239D01*
X163951498Y-109368610D01*
X164270247Y-109259704D01*
X164333179Y-109226066D01*
X158533247Y-115026000D01*
X152983209Y-115026000D01*
X152992494Y-115021037D01*
X153089185Y-114941685D01*
X153168537Y-114844994D01*
X153227502Y-114734680D01*
X153263812Y-114614982D01*
X153276072Y-114490500D01*
X153273000Y-113823750D01*
X153159798Y-113710548D01*
X156907000Y-113710548D01*
X156907000Y-113873452D01*
X156938782Y-114033227D01*
X157001123Y-114183731D01*
X157091628Y-114319181D01*
X157206819Y-114434372D01*
X157342269Y-114524877D01*
X157492773Y-114587218D01*
X157652548Y-114619000D01*
X157815452Y-114619000D01*
X157975227Y-114587218D01*
X158125731Y-114524877D01*
X158261181Y-114434372D01*
X158376372Y-114319181D01*
X158466877Y-114183731D01*
X158529218Y-114033227D01*
X158561000Y-113873452D01*
X158561000Y-113710548D01*
X158529218Y-113550773D01*
X158466877Y-113400269D01*
X158376372Y-113264819D01*
X158261181Y-113149628D01*
X158125731Y-113059123D01*
X157975227Y-112996782D01*
X157815452Y-112965000D01*
X157652548Y-112965000D01*
X157492773Y-112996782D01*
X157342269Y-113059123D01*
X157206819Y-113149628D01*
X157091628Y-113264819D01*
X157001123Y-113400269D01*
X156938782Y-113550773D01*
X156907000Y-113710548D01*
X153159798Y-113710548D01*
X153114250Y-113665000D01*
X151765000Y-113665000D01*
X151765000Y-113685000D01*
X151511000Y-113685000D01*
X151511000Y-113665000D01*
X150161750Y-113665000D01*
X150003000Y-113823750D01*
X149999928Y-114490500D01*
X150012188Y-114614982D01*
X150048498Y-114734680D01*
X150107463Y-114844994D01*
X150186815Y-114941685D01*
X150283506Y-115021037D01*
X150393820Y-115080002D01*
X150513518Y-115116312D01*
X150589052Y-115123751D01*
X150437938Y-115307883D01*
X150309842Y-115547534D01*
X150230961Y-115807571D01*
X150204326Y-116078000D01*
X150230961Y-116348429D01*
X150309842Y-116608466D01*
X150437938Y-116848117D01*
X150610327Y-117058173D01*
X150820383Y-117230562D01*
X151040094Y-117348000D01*
X150820383Y-117465438D01*
X150697848Y-117566000D01*
X149823753Y-117566000D01*
X144843252Y-112585500D01*
X149999928Y-112585500D01*
X150003000Y-113252250D01*
X150161750Y-113411000D01*
X151511000Y-113411000D01*
X151511000Y-112109250D01*
X151765000Y-112109250D01*
X151765000Y-113411000D01*
X153114250Y-113411000D01*
X153273000Y-113252250D01*
X153276072Y-112585500D01*
X153263812Y-112461018D01*
X153227502Y-112341320D01*
X153168537Y-112231006D01*
X153089185Y-112134315D01*
X152992494Y-112054963D01*
X152882180Y-111995998D01*
X152762482Y-111959688D01*
X152638000Y-111947428D01*
X151923750Y-111950500D01*
X151765000Y-112109250D01*
X151511000Y-112109250D01*
X151352250Y-111950500D01*
X150638000Y-111947428D01*
X150513518Y-111959688D01*
X150393820Y-111995998D01*
X150283506Y-112054963D01*
X150186815Y-112134315D01*
X150107463Y-112231006D01*
X150048498Y-112341320D01*
X150012188Y-112461018D01*
X149999928Y-112585500D01*
X144843252Y-112585500D01*
X141579999Y-109322248D01*
X141579999Y-108842148D01*
X141600531Y-108862680D01*
X141846536Y-109027056D01*
X142119883Y-109140279D01*
X142410066Y-109198000D01*
X142705934Y-109198000D01*
X142996117Y-109140279D01*
X143269464Y-109027056D01*
X143482229Y-108884890D01*
X145748715Y-108884890D01*
X145853531Y-109156959D01*
X146155929Y-109305340D01*
X146481465Y-109391875D01*
X146817627Y-109413239D01*
X147151498Y-109368610D01*
X147470247Y-109259704D01*
X147662469Y-109156959D01*
X147767285Y-108884890D01*
X146758000Y-107875605D01*
X145748715Y-108884890D01*
X143482229Y-108884890D01*
X143515469Y-108862680D01*
X143724680Y-108653469D01*
X143889056Y-108407464D01*
X144002279Y-108134117D01*
X144060000Y-107843934D01*
X144060000Y-107755627D01*
X145040761Y-107755627D01*
X145085390Y-108089498D01*
X145194296Y-108408247D01*
X145297041Y-108600469D01*
X145569110Y-108705285D01*
X146578395Y-107696000D01*
X146937605Y-107696000D01*
X147946890Y-108705285D01*
X148218959Y-108600469D01*
X148367340Y-108298071D01*
X148453875Y-107972535D01*
X148475239Y-107636373D01*
X148463435Y-107548066D01*
X149456000Y-107548066D01*
X149456000Y-107843934D01*
X149513721Y-108134117D01*
X149626944Y-108407464D01*
X149791320Y-108653469D01*
X150000531Y-108862680D01*
X150246536Y-109027056D01*
X150519883Y-109140279D01*
X150810066Y-109198000D01*
X151105934Y-109198000D01*
X151396117Y-109140279D01*
X151669464Y-109027056D01*
X151882229Y-108884890D01*
X154148715Y-108884890D01*
X154253531Y-109156959D01*
X154555929Y-109305340D01*
X154881465Y-109391875D01*
X155217627Y-109413239D01*
X155551498Y-109368610D01*
X155870247Y-109259704D01*
X156062469Y-109156959D01*
X156167285Y-108884890D01*
X155158000Y-107875605D01*
X154148715Y-108884890D01*
X151882229Y-108884890D01*
X151915469Y-108862680D01*
X152124680Y-108653469D01*
X152289056Y-108407464D01*
X152402279Y-108134117D01*
X152460000Y-107843934D01*
X152460000Y-107755627D01*
X153440761Y-107755627D01*
X153485390Y-108089498D01*
X153594296Y-108408247D01*
X153697041Y-108600469D01*
X153969110Y-108705285D01*
X154978395Y-107696000D01*
X155337605Y-107696000D01*
X156346890Y-108705285D01*
X156618959Y-108600469D01*
X156767340Y-108298071D01*
X156853875Y-107972535D01*
X156875239Y-107636373D01*
X156863435Y-107548066D01*
X157856000Y-107548066D01*
X157856000Y-107843934D01*
X157913721Y-108134117D01*
X158026944Y-108407464D01*
X158191320Y-108653469D01*
X158400531Y-108862680D01*
X158646536Y-109027056D01*
X158919883Y-109140279D01*
X159210066Y-109198000D01*
X159505934Y-109198000D01*
X159796117Y-109140279D01*
X160069464Y-109027056D01*
X160315469Y-108862680D01*
X160524680Y-108653469D01*
X160689056Y-108407464D01*
X160802279Y-108134117D01*
X160860000Y-107843934D01*
X160860000Y-107755627D01*
X161840761Y-107755627D01*
X161885390Y-108089498D01*
X161994296Y-108408247D01*
X162097041Y-108600469D01*
X162369110Y-108705285D01*
X163378395Y-107696000D01*
X162369110Y-106686715D01*
X162097041Y-106791531D01*
X161948660Y-107093929D01*
X161862125Y-107419465D01*
X161840761Y-107755627D01*
X160860000Y-107755627D01*
X160860000Y-107548066D01*
X160802279Y-107257883D01*
X160689056Y-106984536D01*
X160524680Y-106738531D01*
X160315469Y-106529320D01*
X160282230Y-106507110D01*
X162548715Y-106507110D01*
X163558000Y-107516395D01*
X164567285Y-106507110D01*
X164462469Y-106235041D01*
X164160071Y-106086660D01*
X163834535Y-106000125D01*
X163498373Y-105978761D01*
X163164502Y-106023390D01*
X162845753Y-106132296D01*
X162653531Y-106235041D01*
X162548715Y-106507110D01*
X160282230Y-106507110D01*
X160069464Y-106364944D01*
X159796117Y-106251721D01*
X159505934Y-106194000D01*
X159210066Y-106194000D01*
X158919883Y-106251721D01*
X158646536Y-106364944D01*
X158400531Y-106529320D01*
X158191320Y-106738531D01*
X158026944Y-106984536D01*
X157913721Y-107257883D01*
X157856000Y-107548066D01*
X156863435Y-107548066D01*
X156830610Y-107302502D01*
X156721704Y-106983753D01*
X156618959Y-106791531D01*
X156346890Y-106686715D01*
X155337605Y-107696000D01*
X154978395Y-107696000D01*
X153969110Y-106686715D01*
X153697041Y-106791531D01*
X153548660Y-107093929D01*
X153462125Y-107419465D01*
X153440761Y-107755627D01*
X152460000Y-107755627D01*
X152460000Y-107548066D01*
X152402279Y-107257883D01*
X152289056Y-106984536D01*
X152124680Y-106738531D01*
X151915469Y-106529320D01*
X151882230Y-106507110D01*
X154148715Y-106507110D01*
X155158000Y-107516395D01*
X156167285Y-106507110D01*
X156062469Y-106235041D01*
X155760071Y-106086660D01*
X155434535Y-106000125D01*
X155098373Y-105978761D01*
X154764502Y-106023390D01*
X154445753Y-106132296D01*
X154253531Y-106235041D01*
X154148715Y-106507110D01*
X151882230Y-106507110D01*
X151669464Y-106364944D01*
X151396117Y-106251721D01*
X151105934Y-106194000D01*
X150810066Y-106194000D01*
X150519883Y-106251721D01*
X150246536Y-106364944D01*
X150000531Y-106529320D01*
X149791320Y-106738531D01*
X149626944Y-106984536D01*
X149513721Y-107257883D01*
X149456000Y-107548066D01*
X148463435Y-107548066D01*
X148430610Y-107302502D01*
X148321704Y-106983753D01*
X148218959Y-106791531D01*
X147946890Y-106686715D01*
X146937605Y-107696000D01*
X146578395Y-107696000D01*
X145569110Y-106686715D01*
X145297041Y-106791531D01*
X145148660Y-107093929D01*
X145062125Y-107419465D01*
X145040761Y-107755627D01*
X144060000Y-107755627D01*
X144060000Y-107548066D01*
X144002279Y-107257883D01*
X143889056Y-106984536D01*
X143724680Y-106738531D01*
X143515469Y-106529320D01*
X143482230Y-106507110D01*
X145748715Y-106507110D01*
X146758000Y-107516395D01*
X147767285Y-106507110D01*
X147662469Y-106235041D01*
X147360071Y-106086660D01*
X147034535Y-106000125D01*
X146698373Y-105978761D01*
X146364502Y-106023390D01*
X146045753Y-106132296D01*
X145853531Y-106235041D01*
X145748715Y-106507110D01*
X143482230Y-106507110D01*
X143269464Y-106364944D01*
X142996117Y-106251721D01*
X142705934Y-106194000D01*
X142410066Y-106194000D01*
X142119883Y-106251721D01*
X141846536Y-106364944D01*
X141600531Y-106529320D01*
X141579999Y-106549852D01*
X141579999Y-103342148D01*
X141600531Y-103362680D01*
X141846536Y-103527056D01*
X142119883Y-103640279D01*
X142410066Y-103698000D01*
X142705934Y-103698000D01*
X142996117Y-103640279D01*
X143269464Y-103527056D01*
X143482229Y-103384890D01*
X145748715Y-103384890D01*
X145853531Y-103656959D01*
X146155929Y-103805340D01*
X146481465Y-103891875D01*
X146817627Y-103913239D01*
X147151498Y-103868610D01*
X147470247Y-103759704D01*
X147662469Y-103656959D01*
X147767285Y-103384890D01*
X149948715Y-103384890D01*
X150053531Y-103656959D01*
X150355929Y-103805340D01*
X150681465Y-103891875D01*
X151017627Y-103913239D01*
X151351498Y-103868610D01*
X151670247Y-103759704D01*
X151862469Y-103656959D01*
X151967285Y-103384890D01*
X154148715Y-103384890D01*
X154253531Y-103656959D01*
X154555929Y-103805340D01*
X154881465Y-103891875D01*
X155217627Y-103913239D01*
X155551498Y-103868610D01*
X155870247Y-103759704D01*
X156062469Y-103656959D01*
X156167285Y-103384890D01*
X155158000Y-102375605D01*
X154148715Y-103384890D01*
X151967285Y-103384890D01*
X150958000Y-102375605D01*
X149948715Y-103384890D01*
X147767285Y-103384890D01*
X146758000Y-102375605D01*
X145748715Y-103384890D01*
X143482229Y-103384890D01*
X143515469Y-103362680D01*
X143724680Y-103153469D01*
X143889056Y-102907464D01*
X144002279Y-102634117D01*
X144060000Y-102343934D01*
X144060000Y-102255627D01*
X145040761Y-102255627D01*
X145085390Y-102589498D01*
X145194296Y-102908247D01*
X145297041Y-103100469D01*
X145569110Y-103205285D01*
X146578395Y-102196000D01*
X146937605Y-102196000D01*
X147946890Y-103205285D01*
X148218959Y-103100469D01*
X148367340Y-102798071D01*
X148453875Y-102472535D01*
X148467660Y-102255627D01*
X149240761Y-102255627D01*
X149285390Y-102589498D01*
X149394296Y-102908247D01*
X149497041Y-103100469D01*
X149769110Y-103205285D01*
X150778395Y-102196000D01*
X151137605Y-102196000D01*
X152146890Y-103205285D01*
X152418959Y-103100469D01*
X152567340Y-102798071D01*
X152653875Y-102472535D01*
X152667660Y-102255627D01*
X153440761Y-102255627D01*
X153485390Y-102589498D01*
X153594296Y-102908247D01*
X153697041Y-103100469D01*
X153969110Y-103205285D01*
X154978395Y-102196000D01*
X155337605Y-102196000D01*
X156346890Y-103205285D01*
X156618959Y-103100469D01*
X156767340Y-102798071D01*
X156853875Y-102472535D01*
X156875239Y-102136373D01*
X156863435Y-102048066D01*
X157856000Y-102048066D01*
X157856000Y-102343934D01*
X157913721Y-102634117D01*
X158026944Y-102907464D01*
X158191320Y-103153469D01*
X158400531Y-103362680D01*
X158646536Y-103527056D01*
X158919883Y-103640279D01*
X159210066Y-103698000D01*
X159505934Y-103698000D01*
X159796117Y-103640279D01*
X160069464Y-103527056D01*
X160282229Y-103384890D01*
X162548715Y-103384890D01*
X162653531Y-103656959D01*
X162955929Y-103805340D01*
X163281465Y-103891875D01*
X163617627Y-103913239D01*
X163951498Y-103868610D01*
X164270247Y-103759704D01*
X164462469Y-103656959D01*
X164567285Y-103384890D01*
X163558000Y-102375605D01*
X162548715Y-103384890D01*
X160282229Y-103384890D01*
X160315469Y-103362680D01*
X160524680Y-103153469D01*
X160689056Y-102907464D01*
X160802279Y-102634117D01*
X160860000Y-102343934D01*
X160860000Y-102255627D01*
X161840761Y-102255627D01*
X161885390Y-102589498D01*
X161994296Y-102908247D01*
X162097041Y-103100469D01*
X162369110Y-103205285D01*
X163378395Y-102196000D01*
X162369110Y-101186715D01*
X162097041Y-101291531D01*
X161948660Y-101593929D01*
X161862125Y-101919465D01*
X161840761Y-102255627D01*
X160860000Y-102255627D01*
X160860000Y-102048066D01*
X160802279Y-101757883D01*
X160689056Y-101484536D01*
X160524680Y-101238531D01*
X160315469Y-101029320D01*
X160069464Y-100864944D01*
X159796117Y-100751721D01*
X159505934Y-100694000D01*
X159210066Y-100694000D01*
X158919883Y-100751721D01*
X158646536Y-100864944D01*
X158400531Y-101029320D01*
X158191320Y-101238531D01*
X158026944Y-101484536D01*
X157913721Y-101757883D01*
X157856000Y-102048066D01*
X156863435Y-102048066D01*
X156830610Y-101802502D01*
X156721704Y-101483753D01*
X156618959Y-101291531D01*
X156346890Y-101186715D01*
X155337605Y-102196000D01*
X154978395Y-102196000D01*
X153969110Y-101186715D01*
X153697041Y-101291531D01*
X153548660Y-101593929D01*
X153462125Y-101919465D01*
X153440761Y-102255627D01*
X152667660Y-102255627D01*
X152675239Y-102136373D01*
X152630610Y-101802502D01*
X152521704Y-101483753D01*
X152418959Y-101291531D01*
X152146890Y-101186715D01*
X151137605Y-102196000D01*
X150778395Y-102196000D01*
X149769110Y-101186715D01*
X149497041Y-101291531D01*
X149348660Y-101593929D01*
X149262125Y-101919465D01*
X149240761Y-102255627D01*
X148467660Y-102255627D01*
X148475239Y-102136373D01*
X148430610Y-101802502D01*
X148321704Y-101483753D01*
X148218959Y-101291531D01*
X147946890Y-101186715D01*
X146937605Y-102196000D01*
X146578395Y-102196000D01*
X145569110Y-101186715D01*
X145297041Y-101291531D01*
X145148660Y-101593929D01*
X145062125Y-101919465D01*
X145040761Y-102255627D01*
X144060000Y-102255627D01*
X144060000Y-102048066D01*
X144002279Y-101757883D01*
X143889056Y-101484536D01*
X143724680Y-101238531D01*
X143515469Y-101029320D01*
X143482230Y-101007110D01*
X145748715Y-101007110D01*
X146758000Y-102016395D01*
X147767285Y-101007110D01*
X149948715Y-101007110D01*
X150958000Y-102016395D01*
X151967285Y-101007110D01*
X154148715Y-101007110D01*
X155158000Y-102016395D01*
X156167285Y-101007110D01*
X156062469Y-100735041D01*
X155760071Y-100586660D01*
X155434535Y-100500125D01*
X155098373Y-100478761D01*
X154764502Y-100523390D01*
X154445753Y-100632296D01*
X154253531Y-100735041D01*
X154148715Y-101007110D01*
X151967285Y-101007110D01*
X151862469Y-100735041D01*
X151560071Y-100586660D01*
X151234535Y-100500125D01*
X150898373Y-100478761D01*
X150564502Y-100523390D01*
X150245753Y-100632296D01*
X150053531Y-100735041D01*
X149948715Y-101007110D01*
X147767285Y-101007110D01*
X147662469Y-100735041D01*
X147360071Y-100586660D01*
X147034535Y-100500125D01*
X146698373Y-100478761D01*
X146364502Y-100523390D01*
X146045753Y-100632296D01*
X145853531Y-100735041D01*
X145748715Y-101007110D01*
X143482230Y-101007110D01*
X143269464Y-100864944D01*
X142996117Y-100751721D01*
X142705934Y-100694000D01*
X142410066Y-100694000D01*
X142119883Y-100751721D01*
X141846536Y-100864944D01*
X141600531Y-101029320D01*
X141579999Y-101049852D01*
X141579999Y-99162891D01*
X154260519Y-99162891D01*
X154357843Y-99437252D01*
X154506822Y-99687355D01*
X154701731Y-99903588D01*
X154935080Y-100077641D01*
X155197901Y-100202825D01*
X155345110Y-100247476D01*
X155575000Y-100126155D01*
X155575000Y-98933000D01*
X154381186Y-98933000D01*
X154260519Y-99162891D01*
X141579999Y-99162891D01*
X141579999Y-98449109D01*
X154260519Y-98449109D01*
X154381186Y-98679000D01*
X155575000Y-98679000D01*
X155575000Y-97485845D01*
X155829000Y-97485845D01*
X155829000Y-98679000D01*
X155849000Y-98679000D01*
X155849000Y-98933000D01*
X155829000Y-98933000D01*
X155829000Y-100126155D01*
X156058890Y-100247476D01*
X156206099Y-100202825D01*
X156468920Y-100077641D01*
X156702269Y-99903588D01*
X156897178Y-99687355D01*
X156962934Y-99576965D01*
X156962934Y-99656000D01*
X156971178Y-99739707D01*
X156995595Y-99820196D01*
X157035245Y-99894376D01*
X157088605Y-99959395D01*
X157153624Y-100012755D01*
X157227804Y-100052405D01*
X157308293Y-100076822D01*
X157392000Y-100085066D01*
X159092000Y-100085066D01*
X159175707Y-100076822D01*
X159256196Y-100052405D01*
X159330376Y-100012755D01*
X159395395Y-99959395D01*
X159448755Y-99894376D01*
X159488405Y-99820196D01*
X159512822Y-99739707D01*
X159521066Y-99656000D01*
X159521066Y-97956000D01*
X159512822Y-97872293D01*
X159488405Y-97791804D01*
X159448755Y-97717624D01*
X159395395Y-97652605D01*
X159330376Y-97599245D01*
X159256196Y-97559595D01*
X159175707Y-97535178D01*
X159092000Y-97526934D01*
X157392000Y-97526934D01*
X157308293Y-97535178D01*
X157227804Y-97559595D01*
X157153624Y-97599245D01*
X157088605Y-97652605D01*
X157035245Y-97717624D01*
X156995595Y-97791804D01*
X156971178Y-97872293D01*
X156962934Y-97956000D01*
X156962934Y-98035035D01*
X156897178Y-97924645D01*
X156702269Y-97708412D01*
X156468920Y-97534359D01*
X156206099Y-97409175D01*
X156058890Y-97364524D01*
X155829000Y-97485845D01*
X155575000Y-97485845D01*
X155345110Y-97364524D01*
X155197901Y-97409175D01*
X154935080Y-97534359D01*
X154701731Y-97708412D01*
X154506822Y-97924645D01*
X154357843Y-98174748D01*
X154260519Y-98449109D01*
X141579999Y-98449109D01*
X141579999Y-95723222D01*
X142292384Y-95723222D01*
X142405039Y-96001940D01*
X142718513Y-96156812D01*
X143056178Y-96247554D01*
X143405057Y-96270676D01*
X143751743Y-96225291D01*
X144082914Y-96113144D01*
X144290961Y-96001940D01*
X144403616Y-95723222D01*
X146252384Y-95723222D01*
X146365039Y-96001940D01*
X146678513Y-96156812D01*
X147016178Y-96247554D01*
X147365057Y-96270676D01*
X147711743Y-96225291D01*
X148042914Y-96113144D01*
X148250961Y-96001940D01*
X148363616Y-95723222D01*
X150074384Y-95723222D01*
X150187039Y-96001940D01*
X150500513Y-96156812D01*
X150838178Y-96247554D01*
X151187057Y-96270676D01*
X151533743Y-96225291D01*
X151864914Y-96113144D01*
X152072961Y-96001940D01*
X152185616Y-95723222D01*
X154034384Y-95723222D01*
X154147039Y-96001940D01*
X154460513Y-96156812D01*
X154798178Y-96247554D01*
X155147057Y-96270676D01*
X155493743Y-96225291D01*
X155824914Y-96113144D01*
X156032961Y-96001940D01*
X156145616Y-95723222D01*
X155090000Y-94667605D01*
X154034384Y-95723222D01*
X152185616Y-95723222D01*
X151130000Y-94667605D01*
X150074384Y-95723222D01*
X148363616Y-95723222D01*
X147308000Y-94667605D01*
X146252384Y-95723222D01*
X144403616Y-95723222D01*
X143348000Y-94667605D01*
X142292384Y-95723222D01*
X141579999Y-95723222D01*
X141579999Y-95679677D01*
X141585089Y-95627998D01*
X141564777Y-95421771D01*
X141504623Y-95223468D01*
X141489584Y-95195333D01*
X141406937Y-95040711D01*
X141275475Y-94880523D01*
X141235325Y-94847573D01*
X140955000Y-94567248D01*
X140955000Y-94545057D01*
X141565324Y-94545057D01*
X141610709Y-94891743D01*
X141722856Y-95222914D01*
X141834060Y-95430961D01*
X142112778Y-95543616D01*
X143168395Y-94488000D01*
X143527605Y-94488000D01*
X144583222Y-95543616D01*
X144861940Y-95430961D01*
X145016812Y-95117487D01*
X145107554Y-94779822D01*
X145123113Y-94545057D01*
X145525324Y-94545057D01*
X145570709Y-94891743D01*
X145682856Y-95222914D01*
X145794060Y-95430961D01*
X146072778Y-95543616D01*
X147128395Y-94488000D01*
X147487605Y-94488000D01*
X148543222Y-95543616D01*
X148821940Y-95430961D01*
X148976812Y-95117487D01*
X149067554Y-94779822D01*
X149083113Y-94545057D01*
X149347324Y-94545057D01*
X149392709Y-94891743D01*
X149504856Y-95222914D01*
X149616060Y-95430961D01*
X149894778Y-95543616D01*
X150950395Y-94488000D01*
X151309605Y-94488000D01*
X152365222Y-95543616D01*
X152643940Y-95430961D01*
X152798812Y-95117487D01*
X152889554Y-94779822D01*
X152905113Y-94545057D01*
X153307324Y-94545057D01*
X153352709Y-94891743D01*
X153464856Y-95222914D01*
X153576060Y-95430961D01*
X153854778Y-95543616D01*
X154910395Y-94488000D01*
X155269605Y-94488000D01*
X156325222Y-95543616D01*
X156603940Y-95430961D01*
X156758812Y-95117487D01*
X156849554Y-94779822D01*
X156872676Y-94430943D01*
X156827291Y-94084257D01*
X156715144Y-93753086D01*
X156603940Y-93545039D01*
X156325222Y-93432384D01*
X155269605Y-94488000D01*
X154910395Y-94488000D01*
X153854778Y-93432384D01*
X153576060Y-93545039D01*
X153421188Y-93858513D01*
X153330446Y-94196178D01*
X153307324Y-94545057D01*
X152905113Y-94545057D01*
X152912676Y-94430943D01*
X152867291Y-94084257D01*
X152755144Y-93753086D01*
X152643940Y-93545039D01*
X152365222Y-93432384D01*
X151309605Y-94488000D01*
X150950395Y-94488000D01*
X149894778Y-93432384D01*
X149616060Y-93545039D01*
X149461188Y-93858513D01*
X149370446Y-94196178D01*
X149347324Y-94545057D01*
X149083113Y-94545057D01*
X149090676Y-94430943D01*
X149045291Y-94084257D01*
X148933144Y-93753086D01*
X148821940Y-93545039D01*
X148543222Y-93432384D01*
X147487605Y-94488000D01*
X147128395Y-94488000D01*
X146072778Y-93432384D01*
X145794060Y-93545039D01*
X145639188Y-93858513D01*
X145548446Y-94196178D01*
X145525324Y-94545057D01*
X145123113Y-94545057D01*
X145130676Y-94430943D01*
X145085291Y-94084257D01*
X144973144Y-93753086D01*
X144861940Y-93545039D01*
X144583222Y-93432384D01*
X143527605Y-94488000D01*
X143168395Y-94488000D01*
X142112778Y-93432384D01*
X141834060Y-93545039D01*
X141679188Y-93858513D01*
X141588446Y-94196178D01*
X141565324Y-94545057D01*
X140955000Y-94545057D01*
X140955000Y-94333664D01*
X140894781Y-94030923D01*
X140776657Y-93745747D01*
X140605168Y-93489096D01*
X140386904Y-93270832D01*
X140359885Y-93252778D01*
X142292384Y-93252778D01*
X143348000Y-94308395D01*
X144403616Y-93252778D01*
X146252384Y-93252778D01*
X147308000Y-94308395D01*
X148363616Y-93252778D01*
X150074384Y-93252778D01*
X151130000Y-94308395D01*
X152185616Y-93252778D01*
X154034384Y-93252778D01*
X155090000Y-94308395D01*
X156145616Y-93252778D01*
X156032961Y-92974060D01*
X155719487Y-92819188D01*
X155381822Y-92728446D01*
X155032943Y-92705324D01*
X154686257Y-92750709D01*
X154355086Y-92862856D01*
X154147039Y-92974060D01*
X154034384Y-93252778D01*
X152185616Y-93252778D01*
X152072961Y-92974060D01*
X151759487Y-92819188D01*
X151421822Y-92728446D01*
X151072943Y-92705324D01*
X150726257Y-92750709D01*
X150395086Y-92862856D01*
X150187039Y-92974060D01*
X150074384Y-93252778D01*
X148363616Y-93252778D01*
X148250961Y-92974060D01*
X147937487Y-92819188D01*
X147599822Y-92728446D01*
X147250943Y-92705324D01*
X146904257Y-92750709D01*
X146573086Y-92862856D01*
X146365039Y-92974060D01*
X146252384Y-93252778D01*
X144403616Y-93252778D01*
X144290961Y-92974060D01*
X143977487Y-92819188D01*
X143639822Y-92728446D01*
X143290943Y-92705324D01*
X142944257Y-92750709D01*
X142613086Y-92862856D01*
X142405039Y-92974060D01*
X142292384Y-93252778D01*
X140359885Y-93252778D01*
X140130253Y-93099343D01*
X139845077Y-92981219D01*
X139542336Y-92921000D01*
X139233664Y-92921000D01*
X138930923Y-92981219D01*
X138645747Y-93099343D01*
X138389096Y-93270832D01*
X138170832Y-93489096D01*
X137999343Y-93745747D01*
X137881219Y-94030923D01*
X137821000Y-94333664D01*
X137821000Y-94642336D01*
X137881219Y-94945077D01*
X137999343Y-95230253D01*
X138170832Y-95486904D01*
X138389096Y-95705168D01*
X138645747Y-95876657D01*
X138930923Y-95994781D01*
X139233664Y-96055000D01*
X139467248Y-96055000D01*
X139476000Y-96063752D01*
X139476000Y-101189851D01*
X139315469Y-101029320D01*
X139069464Y-100864944D01*
X138796117Y-100751721D01*
X138505934Y-100694000D01*
X138210066Y-100694000D01*
X137919883Y-100751721D01*
X137646536Y-100864944D01*
X137400531Y-101029320D01*
X137191320Y-101238531D01*
X137026944Y-101484536D01*
X136913721Y-101757883D01*
X136856000Y-102048066D01*
X135660000Y-102048066D01*
X135602279Y-101757883D01*
X135489056Y-101484536D01*
X135324680Y-101238531D01*
X135115469Y-101029320D01*
X134869464Y-100864944D01*
X134596117Y-100751721D01*
X134305934Y-100694000D01*
X134010066Y-100694000D01*
X133719883Y-100751721D01*
X133446536Y-100864944D01*
X133200531Y-101029320D01*
X132991320Y-101238531D01*
X132826944Y-101484536D01*
X132713721Y-101757883D01*
X132656000Y-102048066D01*
X131460000Y-102048066D01*
X131402279Y-101757883D01*
X131289056Y-101484536D01*
X131124680Y-101238531D01*
X130915469Y-101029320D01*
X130669464Y-100864944D01*
X130396117Y-100751721D01*
X130105934Y-100694000D01*
X129810066Y-100694000D01*
X129519883Y-100751721D01*
X129246536Y-100864944D01*
X129000531Y-101029320D01*
X128791320Y-101238531D01*
X128626944Y-101484536D01*
X128513721Y-101757883D01*
X128456000Y-102048066D01*
X127463435Y-102048066D01*
X127430610Y-101802502D01*
X127321704Y-101483753D01*
X127218959Y-101291531D01*
X126946890Y-101186715D01*
X125937605Y-102196000D01*
X125578395Y-102196000D01*
X124569110Y-101186715D01*
X124297041Y-101291531D01*
X124148660Y-101593929D01*
X124062125Y-101919465D01*
X124040761Y-102255627D01*
X122118000Y-102255627D01*
X122118000Y-101007110D01*
X124748715Y-101007110D01*
X125758000Y-102016395D01*
X126767285Y-101007110D01*
X126662469Y-100735041D01*
X126360071Y-100586660D01*
X126034535Y-100500125D01*
X125698373Y-100478761D01*
X125364502Y-100523390D01*
X125045753Y-100632296D01*
X124853531Y-100735041D01*
X124748715Y-101007110D01*
X122118000Y-101007110D01*
X122118000Y-99082108D01*
X122140542Y-98852200D01*
X122200889Y-98652322D01*
X122298916Y-98467961D01*
X122430876Y-98306161D01*
X122591759Y-98173068D01*
X122775425Y-98073760D01*
X122974878Y-98012019D01*
X123203401Y-97988000D01*
X125453795Y-97988000D01*
X125476000Y-97990187D01*
X125498205Y-97988000D01*
X125564607Y-97981460D01*
X125649810Y-97955614D01*
X125728333Y-97913643D01*
X125797159Y-97857159D01*
X125853643Y-97788333D01*
X125895614Y-97709810D01*
X125921460Y-97624607D01*
X125930187Y-97536000D01*
X125928000Y-97513795D01*
X125928000Y-94333664D01*
X125941000Y-94333664D01*
X125941000Y-94642336D01*
X126001219Y-94945077D01*
X126119343Y-95230253D01*
X126290832Y-95486904D01*
X126509096Y-95705168D01*
X126765747Y-95876657D01*
X127050923Y-95994781D01*
X127353664Y-96055000D01*
X127662336Y-96055000D01*
X127965077Y-95994781D01*
X128250253Y-95876657D01*
X128506904Y-95705168D01*
X128725168Y-95486904D01*
X128896657Y-95230253D01*
X129014781Y-94945077D01*
X129075000Y-94642336D01*
X129075000Y-94333664D01*
X129901000Y-94333664D01*
X129901000Y-94642336D01*
X129961219Y-94945077D01*
X130079343Y-95230253D01*
X130250832Y-95486904D01*
X130469096Y-95705168D01*
X130725747Y-95876657D01*
X131010923Y-95994781D01*
X131313664Y-96055000D01*
X131622336Y-96055000D01*
X131925077Y-95994781D01*
X132210253Y-95876657D01*
X132466904Y-95705168D01*
X132685168Y-95486904D01*
X132856657Y-95230253D01*
X132974781Y-94945077D01*
X133035000Y-94642336D01*
X133035000Y-94333664D01*
X133861000Y-94333664D01*
X133861000Y-94642336D01*
X133921219Y-94945077D01*
X134039343Y-95230253D01*
X134210832Y-95486904D01*
X134429096Y-95705168D01*
X134685747Y-95876657D01*
X134970923Y-95994781D01*
X135273664Y-96055000D01*
X135582336Y-96055000D01*
X135885077Y-95994781D01*
X136170253Y-95876657D01*
X136426904Y-95705168D01*
X136645168Y-95486904D01*
X136816657Y-95230253D01*
X136934781Y-94945077D01*
X136995000Y-94642336D01*
X136995000Y-94333664D01*
X136934781Y-94030923D01*
X136816657Y-93745747D01*
X136645168Y-93489096D01*
X136426904Y-93270832D01*
X136170253Y-93099343D01*
X135885077Y-92981219D01*
X135582336Y-92921000D01*
X135273664Y-92921000D01*
X134970923Y-92981219D01*
X134685747Y-93099343D01*
X134429096Y-93270832D01*
X134210832Y-93489096D01*
X134039343Y-93745747D01*
X133921219Y-94030923D01*
X133861000Y-94333664D01*
X133035000Y-94333664D01*
X132974781Y-94030923D01*
X132856657Y-93745747D01*
X132685168Y-93489096D01*
X132466904Y-93270832D01*
X132210253Y-93099343D01*
X131925077Y-92981219D01*
X131622336Y-92921000D01*
X131313664Y-92921000D01*
X131010923Y-92981219D01*
X130725747Y-93099343D01*
X130469096Y-93270832D01*
X130250832Y-93489096D01*
X130079343Y-93745747D01*
X129961219Y-94030923D01*
X129901000Y-94333664D01*
X129075000Y-94333664D01*
X129014781Y-94030923D01*
X128896657Y-93745747D01*
X128725168Y-93489096D01*
X128506904Y-93270832D01*
X128250253Y-93099343D01*
X127965077Y-92981219D01*
X127662336Y-92921000D01*
X127353664Y-92921000D01*
X127050923Y-92981219D01*
X126765747Y-93099343D01*
X126509096Y-93270832D01*
X126290832Y-93489096D01*
X126119343Y-93745747D01*
X126001219Y-94030923D01*
X125941000Y-94333664D01*
X125928000Y-94333664D01*
X125928000Y-87320000D01*
X172522001Y-87320000D01*
X172522000Y-97513795D01*
G37*
X172522000Y-97513795D02*
X172519813Y-97536000D01*
X172528540Y-97624607D01*
X172554386Y-97709810D01*
X172596357Y-97788333D01*
X172642825Y-97844954D01*
X172652841Y-97857159D01*
X172721667Y-97913643D01*
X172800190Y-97955614D01*
X172885393Y-97981460D01*
X172974000Y-97990187D01*
X172996205Y-97988000D01*
X174475892Y-97988000D01*
X174705800Y-98010542D01*
X174905678Y-98070889D01*
X175090039Y-98168916D01*
X175251839Y-98300876D01*
X175384932Y-98461759D01*
X175484240Y-98645425D01*
X175545981Y-98844878D01*
X175570001Y-99073411D01*
X175570000Y-121214000D01*
X122118000Y-121214000D01*
X122118000Y-115863584D01*
X132801000Y-115863584D01*
X132801000Y-116292416D01*
X132884660Y-116713008D01*
X133048767Y-117109196D01*
X133287013Y-117465757D01*
X133590243Y-117768987D01*
X133946804Y-118007233D01*
X134342992Y-118171340D01*
X134763584Y-118255000D01*
X135192416Y-118255000D01*
X135613008Y-118171340D01*
X136009196Y-118007233D01*
X136365757Y-117768987D01*
X136668987Y-117465757D01*
X136907233Y-117109196D01*
X137071340Y-116713008D01*
X137155000Y-116292416D01*
X137155000Y-115863584D01*
X137071340Y-115442992D01*
X136907233Y-115046804D01*
X136668987Y-114690243D01*
X136365757Y-114387013D01*
X136009196Y-114148767D01*
X135613008Y-113984660D01*
X135192416Y-113901000D01*
X134763584Y-113901000D01*
X134342992Y-113984660D01*
X133946804Y-114148767D01*
X133590243Y-114387013D01*
X133287013Y-114690243D01*
X133048767Y-115046804D01*
X132884660Y-115442992D01*
X132801000Y-115863584D01*
X122118000Y-115863584D01*
X122118000Y-107548066D01*
X124256000Y-107548066D01*
X124256000Y-107843934D01*
X124313721Y-108134117D01*
X124426944Y-108407464D01*
X124591320Y-108653469D01*
X124800531Y-108862680D01*
X125046536Y-109027056D01*
X125319883Y-109140279D01*
X125610066Y-109198000D01*
X125905934Y-109198000D01*
X126196117Y-109140279D01*
X126469464Y-109027056D01*
X126715469Y-108862680D01*
X126924680Y-108653469D01*
X127089056Y-108407464D01*
X127202279Y-108134117D01*
X127260000Y-107843934D01*
X127260000Y-107548066D01*
X128456000Y-107548066D01*
X128456000Y-107843934D01*
X128513721Y-108134117D01*
X128626944Y-108407464D01*
X128791320Y-108653469D01*
X129000531Y-108862680D01*
X129246536Y-109027056D01*
X129519883Y-109140279D01*
X129810066Y-109198000D01*
X130105934Y-109198000D01*
X130396117Y-109140279D01*
X130669464Y-109027056D01*
X130915469Y-108862680D01*
X131124680Y-108653469D01*
X131289056Y-108407464D01*
X131402279Y-108134117D01*
X131460000Y-107843934D01*
X131460000Y-107548066D01*
X132656000Y-107548066D01*
X132656000Y-107843934D01*
X132713721Y-108134117D01*
X132826944Y-108407464D01*
X132991320Y-108653469D01*
X133200531Y-108862680D01*
X133446536Y-109027056D01*
X133719883Y-109140279D01*
X134010066Y-109198000D01*
X134305934Y-109198000D01*
X134596117Y-109140279D01*
X134869464Y-109027056D01*
X135115469Y-108862680D01*
X135324680Y-108653469D01*
X135489056Y-108407464D01*
X135602279Y-108134117D01*
X135660000Y-107843934D01*
X135660000Y-107548066D01*
X135602279Y-107257883D01*
X135489056Y-106984536D01*
X135324680Y-106738531D01*
X135115469Y-106529320D01*
X134869464Y-106364944D01*
X134596117Y-106251721D01*
X134305934Y-106194000D01*
X134010066Y-106194000D01*
X133719883Y-106251721D01*
X133446536Y-106364944D01*
X133200531Y-106529320D01*
X132991320Y-106738531D01*
X132826944Y-106984536D01*
X132713721Y-107257883D01*
X132656000Y-107548066D01*
X131460000Y-107548066D01*
X131402279Y-107257883D01*
X131289056Y-106984536D01*
X131124680Y-106738531D01*
X130915469Y-106529320D01*
X130669464Y-106364944D01*
X130396117Y-106251721D01*
X130105934Y-106194000D01*
X129810066Y-106194000D01*
X129519883Y-106251721D01*
X129246536Y-106364944D01*
X129000531Y-106529320D01*
X128791320Y-106738531D01*
X128626944Y-106984536D01*
X128513721Y-107257883D01*
X128456000Y-107548066D01*
X127260000Y-107548066D01*
X127202279Y-107257883D01*
X127089056Y-106984536D01*
X126924680Y-106738531D01*
X126715469Y-106529320D01*
X126469464Y-106364944D01*
X126196117Y-106251721D01*
X125905934Y-106194000D01*
X125610066Y-106194000D01*
X125319883Y-106251721D01*
X125046536Y-106364944D01*
X124800531Y-106529320D01*
X124591320Y-106738531D01*
X124426944Y-106984536D01*
X124313721Y-107257883D01*
X124256000Y-107548066D01*
X122118000Y-107548066D01*
X122118000Y-103384890D01*
X124748715Y-103384890D01*
X124853531Y-103656959D01*
X125155929Y-103805340D01*
X125481465Y-103891875D01*
X125817627Y-103913239D01*
X126151498Y-103868610D01*
X126470247Y-103759704D01*
X126662469Y-103656959D01*
X126767285Y-103384890D01*
X125758000Y-102375605D01*
X124748715Y-103384890D01*
X122118000Y-103384890D01*
X122118000Y-102255627D01*
X124040761Y-102255627D01*
X124085390Y-102589498D01*
X124194296Y-102908247D01*
X124297041Y-103100469D01*
X124569110Y-103205285D01*
X125578395Y-102196000D01*
X125937605Y-102196000D01*
X126946890Y-103205285D01*
X127218959Y-103100469D01*
X127367340Y-102798071D01*
X127453875Y-102472535D01*
X127475239Y-102136373D01*
X127463435Y-102048066D01*
X128456000Y-102048066D01*
X128456000Y-102343934D01*
X128513721Y-102634117D01*
X128626944Y-102907464D01*
X128791320Y-103153469D01*
X129000531Y-103362680D01*
X129246536Y-103527056D01*
X129519883Y-103640279D01*
X129810066Y-103698000D01*
X130105934Y-103698000D01*
X130396117Y-103640279D01*
X130669464Y-103527056D01*
X130915469Y-103362680D01*
X131124680Y-103153469D01*
X131289056Y-102907464D01*
X131402279Y-102634117D01*
X131460000Y-102343934D01*
X131460000Y-102048066D01*
X132656000Y-102048066D01*
X132656000Y-102343934D01*
X132713721Y-102634117D01*
X132826944Y-102907464D01*
X132991320Y-103153469D01*
X133200531Y-103362680D01*
X133446536Y-103527056D01*
X133719883Y-103640279D01*
X134010066Y-103698000D01*
X134305934Y-103698000D01*
X134596117Y-103640279D01*
X134869464Y-103527056D01*
X135115469Y-103362680D01*
X135324680Y-103153469D01*
X135489056Y-102907464D01*
X135602279Y-102634117D01*
X135660000Y-102343934D01*
X135660000Y-102048066D01*
X136856000Y-102048066D01*
X136856000Y-102343934D01*
X136913721Y-102634117D01*
X137026944Y-102907464D01*
X137191320Y-103153469D01*
X137400531Y-103362680D01*
X137646536Y-103527056D01*
X137919883Y-103640279D01*
X138210066Y-103698000D01*
X138505934Y-103698000D01*
X138796117Y-103640279D01*
X139069464Y-103527056D01*
X139315469Y-103362680D01*
X139475999Y-103202150D01*
X139475999Y-106689850D01*
X139315469Y-106529320D01*
X139069464Y-106364944D01*
X138796117Y-106251721D01*
X138505934Y-106194000D01*
X138210066Y-106194000D01*
X137919883Y-106251721D01*
X137646536Y-106364944D01*
X137400531Y-106529320D01*
X137191320Y-106738531D01*
X137026944Y-106984536D01*
X136913721Y-107257883D01*
X136856000Y-107548066D01*
X136856000Y-107843934D01*
X136913721Y-108134117D01*
X137026944Y-108407464D01*
X137191320Y-108653469D01*
X137400531Y-108862680D01*
X137646536Y-109027056D01*
X137919883Y-109140279D01*
X138210066Y-109198000D01*
X138505934Y-109198000D01*
X138796117Y-109140279D01*
X139069464Y-109027056D01*
X139315469Y-108862680D01*
X139475999Y-108702150D01*
X139475999Y-109706320D01*
X139470909Y-109757999D01*
X139475999Y-109809677D01*
X139491221Y-109964226D01*
X139551375Y-110162529D01*
X139649061Y-110345287D01*
X139780523Y-110505475D01*
X139820679Y-110538430D01*
X148607578Y-119325331D01*
X148640524Y-119365476D01*
X148800712Y-119496938D01*
X148983469Y-119594624D01*
X149181772Y-119654778D01*
X149388000Y-119675090D01*
X149439679Y-119670000D01*
X150697848Y-119670000D01*
X150820383Y-119770562D01*
X151060034Y-119898658D01*
X151320071Y-119977539D01*
X151522738Y-119997500D01*
X151753262Y-119997500D01*
X151955929Y-119977539D01*
X152215966Y-119898658D01*
X152455617Y-119770562D01*
X152665673Y-119598173D01*
X152838062Y-119388117D01*
X152966158Y-119148466D01*
X153045039Y-118888429D01*
X153071674Y-118618000D01*
X153045039Y-118347571D01*
X152966158Y-118087534D01*
X152838062Y-117847883D01*
X152665673Y-117637827D01*
X152455617Y-117465438D01*
X152235906Y-117348000D01*
X152455617Y-117230562D01*
X152578152Y-117130000D01*
X158917319Y-117130000D01*
X158968998Y-117135090D01*
X159020677Y-117130000D01*
X159175226Y-117114778D01*
X159373529Y-117054624D01*
X159556286Y-116956938D01*
X159716474Y-116825476D01*
X159749429Y-116785320D01*
X162824201Y-113710548D01*
X167321000Y-113710548D01*
X167321000Y-113873452D01*
X167352782Y-114033227D01*
X167415123Y-114183731D01*
X167505628Y-114319181D01*
X167620819Y-114434372D01*
X167756269Y-114524877D01*
X167906773Y-114587218D01*
X168066548Y-114619000D01*
X168229452Y-114619000D01*
X168389227Y-114587218D01*
X168539731Y-114524877D01*
X168675181Y-114434372D01*
X168790372Y-114319181D01*
X168880877Y-114183731D01*
X168943218Y-114033227D01*
X168975000Y-113873452D01*
X168975000Y-113710548D01*
X168943218Y-113550773D01*
X168880877Y-113400269D01*
X168790372Y-113264819D01*
X168675181Y-113149628D01*
X168539731Y-113059123D01*
X168389227Y-112996782D01*
X168229452Y-112965000D01*
X168066548Y-112965000D01*
X167906773Y-112996782D01*
X167756269Y-113059123D01*
X167620819Y-113149628D01*
X167505628Y-113264819D01*
X167415123Y-113400269D01*
X167352782Y-113550773D01*
X167321000Y-113710548D01*
X162824201Y-113710548D01*
X166565330Y-109969421D01*
X166605475Y-109936475D01*
X166736937Y-109776287D01*
X166834623Y-109593530D01*
X166894777Y-109395227D01*
X166909999Y-109240678D01*
X166909999Y-109240677D01*
X166915089Y-109188999D01*
X166909999Y-109137320D01*
X166909999Y-108935824D01*
X167046536Y-109027056D01*
X167319883Y-109140279D01*
X167610066Y-109198000D01*
X167905934Y-109198000D01*
X168196117Y-109140279D01*
X168469464Y-109027056D01*
X168715469Y-108862680D01*
X168924680Y-108653469D01*
X169089056Y-108407464D01*
X169202279Y-108134117D01*
X169260000Y-107843934D01*
X169260000Y-107548066D01*
X169202279Y-107257883D01*
X169089056Y-106984536D01*
X168924680Y-106738531D01*
X168807149Y-106621000D01*
X170453934Y-106621000D01*
X170453934Y-108771000D01*
X170462178Y-108854707D01*
X170486595Y-108935196D01*
X170526245Y-109009376D01*
X170579605Y-109074395D01*
X170644624Y-109127755D01*
X170718804Y-109167405D01*
X170799293Y-109191822D01*
X170883000Y-109200066D01*
X173033000Y-109200066D01*
X173116707Y-109191822D01*
X173197196Y-109167405D01*
X173271376Y-109127755D01*
X173336395Y-109074395D01*
X173389755Y-109009376D01*
X173429405Y-108935196D01*
X173453822Y-108854707D01*
X173462066Y-108771000D01*
X173462066Y-106621000D01*
X173453822Y-106537293D01*
X173429405Y-106456804D01*
X173389755Y-106382624D01*
X173336395Y-106317605D01*
X173271376Y-106264245D01*
X173197196Y-106224595D01*
X173116707Y-106200178D01*
X173033000Y-106191934D01*
X170883000Y-106191934D01*
X170799293Y-106200178D01*
X170718804Y-106224595D01*
X170644624Y-106264245D01*
X170579605Y-106317605D01*
X170526245Y-106382624D01*
X170486595Y-106456804D01*
X170462178Y-106537293D01*
X170453934Y-106621000D01*
X168807149Y-106621000D01*
X168715469Y-106529320D01*
X168469464Y-106364944D01*
X168196117Y-106251721D01*
X167905934Y-106194000D01*
X167610066Y-106194000D01*
X167319883Y-106251721D01*
X167046536Y-106364944D01*
X166909999Y-106456176D01*
X166909999Y-104531752D01*
X167743752Y-103698000D01*
X167905934Y-103698000D01*
X168196117Y-103640279D01*
X168469464Y-103527056D01*
X168715469Y-103362680D01*
X168924680Y-103153469D01*
X169089056Y-102907464D01*
X169202279Y-102634117D01*
X169260000Y-102343934D01*
X169260000Y-102048066D01*
X170456000Y-102048066D01*
X170456000Y-102343934D01*
X170513721Y-102634117D01*
X170626944Y-102907464D01*
X170791320Y-103153469D01*
X171000531Y-103362680D01*
X171246536Y-103527056D01*
X171519883Y-103640279D01*
X171810066Y-103698000D01*
X172105934Y-103698000D01*
X172396117Y-103640279D01*
X172669464Y-103527056D01*
X172915469Y-103362680D01*
X173124680Y-103153469D01*
X173289056Y-102907464D01*
X173402279Y-102634117D01*
X173460000Y-102343934D01*
X173460000Y-102048066D01*
X173402279Y-101757883D01*
X173289056Y-101484536D01*
X173124680Y-101238531D01*
X172915469Y-101029320D01*
X172669464Y-100864944D01*
X172396117Y-100751721D01*
X172105934Y-100694000D01*
X171810066Y-100694000D01*
X171519883Y-100751721D01*
X171246536Y-100864944D01*
X171000531Y-101029320D01*
X170791320Y-101238531D01*
X170626944Y-101484536D01*
X170513721Y-101757883D01*
X170456000Y-102048066D01*
X169260000Y-102048066D01*
X169202279Y-101757883D01*
X169089056Y-101484536D01*
X168924680Y-101238531D01*
X168715469Y-101029320D01*
X168469464Y-100864944D01*
X168196117Y-100751721D01*
X167905934Y-100694000D01*
X167610066Y-100694000D01*
X167319883Y-100751721D01*
X167046536Y-100864944D01*
X166967504Y-100917752D01*
X160617000Y-94567249D01*
X160617000Y-94333664D01*
X161443000Y-94333664D01*
X161443000Y-94642336D01*
X161503219Y-94945077D01*
X161621343Y-95230253D01*
X161792832Y-95486904D01*
X162011096Y-95705168D01*
X162267747Y-95876657D01*
X162552923Y-95994781D01*
X162855664Y-96055000D01*
X163164336Y-96055000D01*
X163467077Y-95994781D01*
X163752253Y-95876657D01*
X164008904Y-95705168D01*
X164227168Y-95486904D01*
X164398657Y-95230253D01*
X164516781Y-94945077D01*
X164577000Y-94642336D01*
X164577000Y-94333664D01*
X165403000Y-94333664D01*
X165403000Y-94642336D01*
X165463219Y-94945077D01*
X165581343Y-95230253D01*
X165752832Y-95486904D01*
X165971096Y-95705168D01*
X166227747Y-95876657D01*
X166512923Y-95994781D01*
X166815664Y-96055000D01*
X167124336Y-96055000D01*
X167427077Y-95994781D01*
X167712253Y-95876657D01*
X167968904Y-95705168D01*
X168187168Y-95486904D01*
X168358657Y-95230253D01*
X168476781Y-94945077D01*
X168537000Y-94642336D01*
X168537000Y-94333664D01*
X169363000Y-94333664D01*
X169363000Y-94642336D01*
X169423219Y-94945077D01*
X169541343Y-95230253D01*
X169712832Y-95486904D01*
X169931096Y-95705168D01*
X170187747Y-95876657D01*
X170472923Y-95994781D01*
X170775664Y-96055000D01*
X171084336Y-96055000D01*
X171387077Y-95994781D01*
X171672253Y-95876657D01*
X171928904Y-95705168D01*
X172147168Y-95486904D01*
X172318657Y-95230253D01*
X172436781Y-94945077D01*
X172497000Y-94642336D01*
X172497000Y-94333664D01*
X172436781Y-94030923D01*
X172318657Y-93745747D01*
X172147168Y-93489096D01*
X171928904Y-93270832D01*
X171672253Y-93099343D01*
X171387077Y-92981219D01*
X171084336Y-92921000D01*
X170775664Y-92921000D01*
X170472923Y-92981219D01*
X170187747Y-93099343D01*
X169931096Y-93270832D01*
X169712832Y-93489096D01*
X169541343Y-93745747D01*
X169423219Y-94030923D01*
X169363000Y-94333664D01*
X168537000Y-94333664D01*
X168476781Y-94030923D01*
X168358657Y-93745747D01*
X168187168Y-93489096D01*
X167968904Y-93270832D01*
X167712253Y-93099343D01*
X167427077Y-92981219D01*
X167124336Y-92921000D01*
X166815664Y-92921000D01*
X166512923Y-92981219D01*
X166227747Y-93099343D01*
X165971096Y-93270832D01*
X165752832Y-93489096D01*
X165581343Y-93745747D01*
X165463219Y-94030923D01*
X165403000Y-94333664D01*
X164577000Y-94333664D01*
X164516781Y-94030923D01*
X164398657Y-93745747D01*
X164227168Y-93489096D01*
X164008904Y-93270832D01*
X163752253Y-93099343D01*
X163467077Y-92981219D01*
X163164336Y-92921000D01*
X162855664Y-92921000D01*
X162552923Y-92981219D01*
X162267747Y-93099343D01*
X162011096Y-93270832D01*
X161792832Y-93489096D01*
X161621343Y-93745747D01*
X161503219Y-94030923D01*
X161443000Y-94333664D01*
X160617000Y-94333664D01*
X160556781Y-94030923D01*
X160438657Y-93745747D01*
X160267168Y-93489096D01*
X160048904Y-93270832D01*
X159792253Y-93099343D01*
X159507077Y-92981219D01*
X159204336Y-92921000D01*
X158895664Y-92921000D01*
X158592923Y-92981219D01*
X158307747Y-93099343D01*
X158051096Y-93270832D01*
X157832832Y-93489096D01*
X157661343Y-93745747D01*
X157543219Y-94030923D01*
X157483000Y-94333664D01*
X157483000Y-94642336D01*
X157543219Y-94945077D01*
X157661343Y-95230253D01*
X157832832Y-95486904D01*
X158051096Y-95705168D01*
X158307747Y-95876657D01*
X158592923Y-95994781D01*
X158895664Y-96055000D01*
X159129249Y-96055000D01*
X163556717Y-100482469D01*
X163498373Y-100478761D01*
X163164502Y-100523390D01*
X162845753Y-100632296D01*
X162653531Y-100735041D01*
X162548715Y-101007110D01*
X163558000Y-102016395D01*
X163572143Y-102002253D01*
X163751748Y-102181858D01*
X163737605Y-102196000D01*
X164746890Y-103205285D01*
X165018959Y-103100469D01*
X165167340Y-102798071D01*
X165253875Y-102472535D01*
X165271378Y-102197130D01*
X165770248Y-102696000D01*
X165150674Y-103315575D01*
X165110524Y-103348525D01*
X164979062Y-103508713D01*
X164926847Y-103606400D01*
X164881375Y-103691471D01*
X164821221Y-103889774D01*
X164800909Y-104096001D01*
X164806000Y-104147690D01*
X164805999Y-106709487D01*
X164746890Y-106686715D01*
X163737605Y-107696000D01*
X163751748Y-107710143D01*
X163572143Y-107889748D01*
X163558000Y-107875605D01*
X162548715Y-108884890D01*
X162653531Y-109156959D01*
X162955929Y-109305340D01*
X163281465Y-109391875D01*
X163617627Y-109413239D01*
X163951498Y-109368610D01*
X164270247Y-109259704D01*
X164333179Y-109226066D01*
X158533247Y-115026000D01*
X152983209Y-115026000D01*
X152992494Y-115021037D01*
X153089185Y-114941685D01*
X153168537Y-114844994D01*
X153227502Y-114734680D01*
X153263812Y-114614982D01*
X153276072Y-114490500D01*
X153273000Y-113823750D01*
X153159798Y-113710548D01*
X156907000Y-113710548D01*
X156907000Y-113873452D01*
X156938782Y-114033227D01*
X157001123Y-114183731D01*
X157091628Y-114319181D01*
X157206819Y-114434372D01*
X157342269Y-114524877D01*
X157492773Y-114587218D01*
X157652548Y-114619000D01*
X157815452Y-114619000D01*
X157975227Y-114587218D01*
X158125731Y-114524877D01*
X158261181Y-114434372D01*
X158376372Y-114319181D01*
X158466877Y-114183731D01*
X158529218Y-114033227D01*
X158561000Y-113873452D01*
X158561000Y-113710548D01*
X158529218Y-113550773D01*
X158466877Y-113400269D01*
X158376372Y-113264819D01*
X158261181Y-113149628D01*
X158125731Y-113059123D01*
X157975227Y-112996782D01*
X157815452Y-112965000D01*
X157652548Y-112965000D01*
X157492773Y-112996782D01*
X157342269Y-113059123D01*
X157206819Y-113149628D01*
X157091628Y-113264819D01*
X157001123Y-113400269D01*
X156938782Y-113550773D01*
X156907000Y-113710548D01*
X153159798Y-113710548D01*
X153114250Y-113665000D01*
X151765000Y-113665000D01*
X151765000Y-113685000D01*
X151511000Y-113685000D01*
X151511000Y-113665000D01*
X150161750Y-113665000D01*
X150003000Y-113823750D01*
X149999928Y-114490500D01*
X150012188Y-114614982D01*
X150048498Y-114734680D01*
X150107463Y-114844994D01*
X150186815Y-114941685D01*
X150283506Y-115021037D01*
X150393820Y-115080002D01*
X150513518Y-115116312D01*
X150589052Y-115123751D01*
X150437938Y-115307883D01*
X150309842Y-115547534D01*
X150230961Y-115807571D01*
X150204326Y-116078000D01*
X150230961Y-116348429D01*
X150309842Y-116608466D01*
X150437938Y-116848117D01*
X150610327Y-117058173D01*
X150820383Y-117230562D01*
X151040094Y-117348000D01*
X150820383Y-117465438D01*
X150697848Y-117566000D01*
X149823753Y-117566000D01*
X144843252Y-112585500D01*
X149999928Y-112585500D01*
X150003000Y-113252250D01*
X150161750Y-113411000D01*
X151511000Y-113411000D01*
X151511000Y-112109250D01*
X151765000Y-112109250D01*
X151765000Y-113411000D01*
X153114250Y-113411000D01*
X153273000Y-113252250D01*
X153276072Y-112585500D01*
X153263812Y-112461018D01*
X153227502Y-112341320D01*
X153168537Y-112231006D01*
X153089185Y-112134315D01*
X152992494Y-112054963D01*
X152882180Y-111995998D01*
X152762482Y-111959688D01*
X152638000Y-111947428D01*
X151923750Y-111950500D01*
X151765000Y-112109250D01*
X151511000Y-112109250D01*
X151352250Y-111950500D01*
X150638000Y-111947428D01*
X150513518Y-111959688D01*
X150393820Y-111995998D01*
X150283506Y-112054963D01*
X150186815Y-112134315D01*
X150107463Y-112231006D01*
X150048498Y-112341320D01*
X150012188Y-112461018D01*
X149999928Y-112585500D01*
X144843252Y-112585500D01*
X141579999Y-109322248D01*
X141579999Y-108842148D01*
X141600531Y-108862680D01*
X141846536Y-109027056D01*
X142119883Y-109140279D01*
X142410066Y-109198000D01*
X142705934Y-109198000D01*
X142996117Y-109140279D01*
X143269464Y-109027056D01*
X143482229Y-108884890D01*
X145748715Y-108884890D01*
X145853531Y-109156959D01*
X146155929Y-109305340D01*
X146481465Y-109391875D01*
X146817627Y-109413239D01*
X147151498Y-109368610D01*
X147470247Y-109259704D01*
X147662469Y-109156959D01*
X147767285Y-108884890D01*
X146758000Y-107875605D01*
X145748715Y-108884890D01*
X143482229Y-108884890D01*
X143515469Y-108862680D01*
X143724680Y-108653469D01*
X143889056Y-108407464D01*
X144002279Y-108134117D01*
X144060000Y-107843934D01*
X144060000Y-107755627D01*
X145040761Y-107755627D01*
X145085390Y-108089498D01*
X145194296Y-108408247D01*
X145297041Y-108600469D01*
X145569110Y-108705285D01*
X146578395Y-107696000D01*
X146937605Y-107696000D01*
X147946890Y-108705285D01*
X148218959Y-108600469D01*
X148367340Y-108298071D01*
X148453875Y-107972535D01*
X148475239Y-107636373D01*
X148463435Y-107548066D01*
X149456000Y-107548066D01*
X149456000Y-107843934D01*
X149513721Y-108134117D01*
X149626944Y-108407464D01*
X149791320Y-108653469D01*
X150000531Y-108862680D01*
X150246536Y-109027056D01*
X150519883Y-109140279D01*
X150810066Y-109198000D01*
X151105934Y-109198000D01*
X151396117Y-109140279D01*
X151669464Y-109027056D01*
X151882229Y-108884890D01*
X154148715Y-108884890D01*
X154253531Y-109156959D01*
X154555929Y-109305340D01*
X154881465Y-109391875D01*
X155217627Y-109413239D01*
X155551498Y-109368610D01*
X155870247Y-109259704D01*
X156062469Y-109156959D01*
X156167285Y-108884890D01*
X155158000Y-107875605D01*
X154148715Y-108884890D01*
X151882229Y-108884890D01*
X151915469Y-108862680D01*
X152124680Y-108653469D01*
X152289056Y-108407464D01*
X152402279Y-108134117D01*
X152460000Y-107843934D01*
X152460000Y-107755627D01*
X153440761Y-107755627D01*
X153485390Y-108089498D01*
X153594296Y-108408247D01*
X153697041Y-108600469D01*
X153969110Y-108705285D01*
X154978395Y-107696000D01*
X155337605Y-107696000D01*
X156346890Y-108705285D01*
X156618959Y-108600469D01*
X156767340Y-108298071D01*
X156853875Y-107972535D01*
X156875239Y-107636373D01*
X156863435Y-107548066D01*
X157856000Y-107548066D01*
X157856000Y-107843934D01*
X157913721Y-108134117D01*
X158026944Y-108407464D01*
X158191320Y-108653469D01*
X158400531Y-108862680D01*
X158646536Y-109027056D01*
X158919883Y-109140279D01*
X159210066Y-109198000D01*
X159505934Y-109198000D01*
X159796117Y-109140279D01*
X160069464Y-109027056D01*
X160315469Y-108862680D01*
X160524680Y-108653469D01*
X160689056Y-108407464D01*
X160802279Y-108134117D01*
X160860000Y-107843934D01*
X160860000Y-107755627D01*
X161840761Y-107755627D01*
X161885390Y-108089498D01*
X161994296Y-108408247D01*
X162097041Y-108600469D01*
X162369110Y-108705285D01*
X163378395Y-107696000D01*
X162369110Y-106686715D01*
X162097041Y-106791531D01*
X161948660Y-107093929D01*
X161862125Y-107419465D01*
X161840761Y-107755627D01*
X160860000Y-107755627D01*
X160860000Y-107548066D01*
X160802279Y-107257883D01*
X160689056Y-106984536D01*
X160524680Y-106738531D01*
X160315469Y-106529320D01*
X160282230Y-106507110D01*
X162548715Y-106507110D01*
X163558000Y-107516395D01*
X164567285Y-106507110D01*
X164462469Y-106235041D01*
X164160071Y-106086660D01*
X163834535Y-106000125D01*
X163498373Y-105978761D01*
X163164502Y-106023390D01*
X162845753Y-106132296D01*
X162653531Y-106235041D01*
X162548715Y-106507110D01*
X160282230Y-106507110D01*
X160069464Y-106364944D01*
X159796117Y-106251721D01*
X159505934Y-106194000D01*
X159210066Y-106194000D01*
X158919883Y-106251721D01*
X158646536Y-106364944D01*
X158400531Y-106529320D01*
X158191320Y-106738531D01*
X158026944Y-106984536D01*
X157913721Y-107257883D01*
X157856000Y-107548066D01*
X156863435Y-107548066D01*
X156830610Y-107302502D01*
X156721704Y-106983753D01*
X156618959Y-106791531D01*
X156346890Y-106686715D01*
X155337605Y-107696000D01*
X154978395Y-107696000D01*
X153969110Y-106686715D01*
X153697041Y-106791531D01*
X153548660Y-107093929D01*
X153462125Y-107419465D01*
X153440761Y-107755627D01*
X152460000Y-107755627D01*
X152460000Y-107548066D01*
X152402279Y-107257883D01*
X152289056Y-106984536D01*
X152124680Y-106738531D01*
X151915469Y-106529320D01*
X151882230Y-106507110D01*
X154148715Y-106507110D01*
X155158000Y-107516395D01*
X156167285Y-106507110D01*
X156062469Y-106235041D01*
X155760071Y-106086660D01*
X155434535Y-106000125D01*
X155098373Y-105978761D01*
X154764502Y-106023390D01*
X154445753Y-106132296D01*
X154253531Y-106235041D01*
X154148715Y-106507110D01*
X151882230Y-106507110D01*
X151669464Y-106364944D01*
X151396117Y-106251721D01*
X151105934Y-106194000D01*
X150810066Y-106194000D01*
X150519883Y-106251721D01*
X150246536Y-106364944D01*
X150000531Y-106529320D01*
X149791320Y-106738531D01*
X149626944Y-106984536D01*
X149513721Y-107257883D01*
X149456000Y-107548066D01*
X148463435Y-107548066D01*
X148430610Y-107302502D01*
X148321704Y-106983753D01*
X148218959Y-106791531D01*
X147946890Y-106686715D01*
X146937605Y-107696000D01*
X146578395Y-107696000D01*
X145569110Y-106686715D01*
X145297041Y-106791531D01*
X145148660Y-107093929D01*
X145062125Y-107419465D01*
X145040761Y-107755627D01*
X144060000Y-107755627D01*
X144060000Y-107548066D01*
X144002279Y-107257883D01*
X143889056Y-106984536D01*
X143724680Y-106738531D01*
X143515469Y-106529320D01*
X143482230Y-106507110D01*
X145748715Y-106507110D01*
X146758000Y-107516395D01*
X147767285Y-106507110D01*
X147662469Y-106235041D01*
X147360071Y-106086660D01*
X147034535Y-106000125D01*
X146698373Y-105978761D01*
X146364502Y-106023390D01*
X146045753Y-106132296D01*
X145853531Y-106235041D01*
X145748715Y-106507110D01*
X143482230Y-106507110D01*
X143269464Y-106364944D01*
X142996117Y-106251721D01*
X142705934Y-106194000D01*
X142410066Y-106194000D01*
X142119883Y-106251721D01*
X141846536Y-106364944D01*
X141600531Y-106529320D01*
X141579999Y-106549852D01*
X141579999Y-103342148D01*
X141600531Y-103362680D01*
X141846536Y-103527056D01*
X142119883Y-103640279D01*
X142410066Y-103698000D01*
X142705934Y-103698000D01*
X142996117Y-103640279D01*
X143269464Y-103527056D01*
X143482229Y-103384890D01*
X145748715Y-103384890D01*
X145853531Y-103656959D01*
X146155929Y-103805340D01*
X146481465Y-103891875D01*
X146817627Y-103913239D01*
X147151498Y-103868610D01*
X147470247Y-103759704D01*
X147662469Y-103656959D01*
X147767285Y-103384890D01*
X149948715Y-103384890D01*
X150053531Y-103656959D01*
X150355929Y-103805340D01*
X150681465Y-103891875D01*
X151017627Y-103913239D01*
X151351498Y-103868610D01*
X151670247Y-103759704D01*
X151862469Y-103656959D01*
X151967285Y-103384890D01*
X154148715Y-103384890D01*
X154253531Y-103656959D01*
X154555929Y-103805340D01*
X154881465Y-103891875D01*
X155217627Y-103913239D01*
X155551498Y-103868610D01*
X155870247Y-103759704D01*
X156062469Y-103656959D01*
X156167285Y-103384890D01*
X155158000Y-102375605D01*
X154148715Y-103384890D01*
X151967285Y-103384890D01*
X150958000Y-102375605D01*
X149948715Y-103384890D01*
X147767285Y-103384890D01*
X146758000Y-102375605D01*
X145748715Y-103384890D01*
X143482229Y-103384890D01*
X143515469Y-103362680D01*
X143724680Y-103153469D01*
X143889056Y-102907464D01*
X144002279Y-102634117D01*
X144060000Y-102343934D01*
X144060000Y-102255627D01*
X145040761Y-102255627D01*
X145085390Y-102589498D01*
X145194296Y-102908247D01*
X145297041Y-103100469D01*
X145569110Y-103205285D01*
X146578395Y-102196000D01*
X146937605Y-102196000D01*
X147946890Y-103205285D01*
X148218959Y-103100469D01*
X148367340Y-102798071D01*
X148453875Y-102472535D01*
X148467660Y-102255627D01*
X149240761Y-102255627D01*
X149285390Y-102589498D01*
X149394296Y-102908247D01*
X149497041Y-103100469D01*
X149769110Y-103205285D01*
X150778395Y-102196000D01*
X151137605Y-102196000D01*
X152146890Y-103205285D01*
X152418959Y-103100469D01*
X152567340Y-102798071D01*
X152653875Y-102472535D01*
X152667660Y-102255627D01*
X153440761Y-102255627D01*
X153485390Y-102589498D01*
X153594296Y-102908247D01*
X153697041Y-103100469D01*
X153969110Y-103205285D01*
X154978395Y-102196000D01*
X155337605Y-102196000D01*
X156346890Y-103205285D01*
X156618959Y-103100469D01*
X156767340Y-102798071D01*
X156853875Y-102472535D01*
X156875239Y-102136373D01*
X156863435Y-102048066D01*
X157856000Y-102048066D01*
X157856000Y-102343934D01*
X157913721Y-102634117D01*
X158026944Y-102907464D01*
X158191320Y-103153469D01*
X158400531Y-103362680D01*
X158646536Y-103527056D01*
X158919883Y-103640279D01*
X159210066Y-103698000D01*
X159505934Y-103698000D01*
X159796117Y-103640279D01*
X160069464Y-103527056D01*
X160282229Y-103384890D01*
X162548715Y-103384890D01*
X162653531Y-103656959D01*
X162955929Y-103805340D01*
X163281465Y-103891875D01*
X163617627Y-103913239D01*
X163951498Y-103868610D01*
X164270247Y-103759704D01*
X164462469Y-103656959D01*
X164567285Y-103384890D01*
X163558000Y-102375605D01*
X162548715Y-103384890D01*
X160282229Y-103384890D01*
X160315469Y-103362680D01*
X160524680Y-103153469D01*
X160689056Y-102907464D01*
X160802279Y-102634117D01*
X160860000Y-102343934D01*
X160860000Y-102255627D01*
X161840761Y-102255627D01*
X161885390Y-102589498D01*
X161994296Y-102908247D01*
X162097041Y-103100469D01*
X162369110Y-103205285D01*
X163378395Y-102196000D01*
X162369110Y-101186715D01*
X162097041Y-101291531D01*
X161948660Y-101593929D01*
X161862125Y-101919465D01*
X161840761Y-102255627D01*
X160860000Y-102255627D01*
X160860000Y-102048066D01*
X160802279Y-101757883D01*
X160689056Y-101484536D01*
X160524680Y-101238531D01*
X160315469Y-101029320D01*
X160069464Y-100864944D01*
X159796117Y-100751721D01*
X159505934Y-100694000D01*
X159210066Y-100694000D01*
X158919883Y-100751721D01*
X158646536Y-100864944D01*
X158400531Y-101029320D01*
X158191320Y-101238531D01*
X158026944Y-101484536D01*
X157913721Y-101757883D01*
X157856000Y-102048066D01*
X156863435Y-102048066D01*
X156830610Y-101802502D01*
X156721704Y-101483753D01*
X156618959Y-101291531D01*
X156346890Y-101186715D01*
X155337605Y-102196000D01*
X154978395Y-102196000D01*
X153969110Y-101186715D01*
X153697041Y-101291531D01*
X153548660Y-101593929D01*
X153462125Y-101919465D01*
X153440761Y-102255627D01*
X152667660Y-102255627D01*
X152675239Y-102136373D01*
X152630610Y-101802502D01*
X152521704Y-101483753D01*
X152418959Y-101291531D01*
X152146890Y-101186715D01*
X151137605Y-102196000D01*
X150778395Y-102196000D01*
X149769110Y-101186715D01*
X149497041Y-101291531D01*
X149348660Y-101593929D01*
X149262125Y-101919465D01*
X149240761Y-102255627D01*
X148467660Y-102255627D01*
X148475239Y-102136373D01*
X148430610Y-101802502D01*
X148321704Y-101483753D01*
X148218959Y-101291531D01*
X147946890Y-101186715D01*
X146937605Y-102196000D01*
X146578395Y-102196000D01*
X145569110Y-101186715D01*
X145297041Y-101291531D01*
X145148660Y-101593929D01*
X145062125Y-101919465D01*
X145040761Y-102255627D01*
X144060000Y-102255627D01*
X144060000Y-102048066D01*
X144002279Y-101757883D01*
X143889056Y-101484536D01*
X143724680Y-101238531D01*
X143515469Y-101029320D01*
X143482230Y-101007110D01*
X145748715Y-101007110D01*
X146758000Y-102016395D01*
X147767285Y-101007110D01*
X149948715Y-101007110D01*
X150958000Y-102016395D01*
X151967285Y-101007110D01*
X154148715Y-101007110D01*
X155158000Y-102016395D01*
X156167285Y-101007110D01*
X156062469Y-100735041D01*
X155760071Y-100586660D01*
X155434535Y-100500125D01*
X155098373Y-100478761D01*
X154764502Y-100523390D01*
X154445753Y-100632296D01*
X154253531Y-100735041D01*
X154148715Y-101007110D01*
X151967285Y-101007110D01*
X151862469Y-100735041D01*
X151560071Y-100586660D01*
X151234535Y-100500125D01*
X150898373Y-100478761D01*
X150564502Y-100523390D01*
X150245753Y-100632296D01*
X150053531Y-100735041D01*
X149948715Y-101007110D01*
X147767285Y-101007110D01*
X147662469Y-100735041D01*
X147360071Y-100586660D01*
X147034535Y-100500125D01*
X146698373Y-100478761D01*
X146364502Y-100523390D01*
X146045753Y-100632296D01*
X145853531Y-100735041D01*
X145748715Y-101007110D01*
X143482230Y-101007110D01*
X143269464Y-100864944D01*
X142996117Y-100751721D01*
X142705934Y-100694000D01*
X142410066Y-100694000D01*
X142119883Y-100751721D01*
X141846536Y-100864944D01*
X141600531Y-101029320D01*
X141579999Y-101049852D01*
X141579999Y-99162891D01*
X154260519Y-99162891D01*
X154357843Y-99437252D01*
X154506822Y-99687355D01*
X154701731Y-99903588D01*
X154935080Y-100077641D01*
X155197901Y-100202825D01*
X155345110Y-100247476D01*
X155575000Y-100126155D01*
X155575000Y-98933000D01*
X154381186Y-98933000D01*
X154260519Y-99162891D01*
X141579999Y-99162891D01*
X141579999Y-98449109D01*
X154260519Y-98449109D01*
X154381186Y-98679000D01*
X155575000Y-98679000D01*
X155575000Y-97485845D01*
X155829000Y-97485845D01*
X155829000Y-98679000D01*
X155849000Y-98679000D01*
X155849000Y-98933000D01*
X155829000Y-98933000D01*
X155829000Y-100126155D01*
X156058890Y-100247476D01*
X156206099Y-100202825D01*
X156468920Y-100077641D01*
X156702269Y-99903588D01*
X156897178Y-99687355D01*
X156962934Y-99576965D01*
X156962934Y-99656000D01*
X156971178Y-99739707D01*
X156995595Y-99820196D01*
X157035245Y-99894376D01*
X157088605Y-99959395D01*
X157153624Y-100012755D01*
X157227804Y-100052405D01*
X157308293Y-100076822D01*
X157392000Y-100085066D01*
X159092000Y-100085066D01*
X159175707Y-100076822D01*
X159256196Y-100052405D01*
X159330376Y-100012755D01*
X159395395Y-99959395D01*
X159448755Y-99894376D01*
X159488405Y-99820196D01*
X159512822Y-99739707D01*
X159521066Y-99656000D01*
X159521066Y-97956000D01*
X159512822Y-97872293D01*
X159488405Y-97791804D01*
X159448755Y-97717624D01*
X159395395Y-97652605D01*
X159330376Y-97599245D01*
X159256196Y-97559595D01*
X159175707Y-97535178D01*
X159092000Y-97526934D01*
X157392000Y-97526934D01*
X157308293Y-97535178D01*
X157227804Y-97559595D01*
X157153624Y-97599245D01*
X157088605Y-97652605D01*
X157035245Y-97717624D01*
X156995595Y-97791804D01*
X156971178Y-97872293D01*
X156962934Y-97956000D01*
X156962934Y-98035035D01*
X156897178Y-97924645D01*
X156702269Y-97708412D01*
X156468920Y-97534359D01*
X156206099Y-97409175D01*
X156058890Y-97364524D01*
X155829000Y-97485845D01*
X155575000Y-97485845D01*
X155345110Y-97364524D01*
X155197901Y-97409175D01*
X154935080Y-97534359D01*
X154701731Y-97708412D01*
X154506822Y-97924645D01*
X154357843Y-98174748D01*
X154260519Y-98449109D01*
X141579999Y-98449109D01*
X141579999Y-95723222D01*
X142292384Y-95723222D01*
X142405039Y-96001940D01*
X142718513Y-96156812D01*
X143056178Y-96247554D01*
X143405057Y-96270676D01*
X143751743Y-96225291D01*
X144082914Y-96113144D01*
X144290961Y-96001940D01*
X144403616Y-95723222D01*
X146252384Y-95723222D01*
X146365039Y-96001940D01*
X146678513Y-96156812D01*
X147016178Y-96247554D01*
X147365057Y-96270676D01*
X147711743Y-96225291D01*
X148042914Y-96113144D01*
X148250961Y-96001940D01*
X148363616Y-95723222D01*
X150074384Y-95723222D01*
X150187039Y-96001940D01*
X150500513Y-96156812D01*
X150838178Y-96247554D01*
X151187057Y-96270676D01*
X151533743Y-96225291D01*
X151864914Y-96113144D01*
X152072961Y-96001940D01*
X152185616Y-95723222D01*
X154034384Y-95723222D01*
X154147039Y-96001940D01*
X154460513Y-96156812D01*
X154798178Y-96247554D01*
X155147057Y-96270676D01*
X155493743Y-96225291D01*
X155824914Y-96113144D01*
X156032961Y-96001940D01*
X156145616Y-95723222D01*
X155090000Y-94667605D01*
X154034384Y-95723222D01*
X152185616Y-95723222D01*
X151130000Y-94667605D01*
X150074384Y-95723222D01*
X148363616Y-95723222D01*
X147308000Y-94667605D01*
X146252384Y-95723222D01*
X144403616Y-95723222D01*
X143348000Y-94667605D01*
X142292384Y-95723222D01*
X141579999Y-95723222D01*
X141579999Y-95679677D01*
X141585089Y-95627998D01*
X141564777Y-95421771D01*
X141504623Y-95223468D01*
X141489584Y-95195333D01*
X141406937Y-95040711D01*
X141275475Y-94880523D01*
X141235325Y-94847573D01*
X140955000Y-94567248D01*
X140955000Y-94545057D01*
X141565324Y-94545057D01*
X141610709Y-94891743D01*
X141722856Y-95222914D01*
X141834060Y-95430961D01*
X142112778Y-95543616D01*
X143168395Y-94488000D01*
X143527605Y-94488000D01*
X144583222Y-95543616D01*
X144861940Y-95430961D01*
X145016812Y-95117487D01*
X145107554Y-94779822D01*
X145123113Y-94545057D01*
X145525324Y-94545057D01*
X145570709Y-94891743D01*
X145682856Y-95222914D01*
X145794060Y-95430961D01*
X146072778Y-95543616D01*
X147128395Y-94488000D01*
X147487605Y-94488000D01*
X148543222Y-95543616D01*
X148821940Y-95430961D01*
X148976812Y-95117487D01*
X149067554Y-94779822D01*
X149083113Y-94545057D01*
X149347324Y-94545057D01*
X149392709Y-94891743D01*
X149504856Y-95222914D01*
X149616060Y-95430961D01*
X149894778Y-95543616D01*
X150950395Y-94488000D01*
X151309605Y-94488000D01*
X152365222Y-95543616D01*
X152643940Y-95430961D01*
X152798812Y-95117487D01*
X152889554Y-94779822D01*
X152905113Y-94545057D01*
X153307324Y-94545057D01*
X153352709Y-94891743D01*
X153464856Y-95222914D01*
X153576060Y-95430961D01*
X153854778Y-95543616D01*
X154910395Y-94488000D01*
X155269605Y-94488000D01*
X156325222Y-95543616D01*
X156603940Y-95430961D01*
X156758812Y-95117487D01*
X156849554Y-94779822D01*
X156872676Y-94430943D01*
X156827291Y-94084257D01*
X156715144Y-93753086D01*
X156603940Y-93545039D01*
X156325222Y-93432384D01*
X155269605Y-94488000D01*
X154910395Y-94488000D01*
X153854778Y-93432384D01*
X153576060Y-93545039D01*
X153421188Y-93858513D01*
X153330446Y-94196178D01*
X153307324Y-94545057D01*
X152905113Y-94545057D01*
X152912676Y-94430943D01*
X152867291Y-94084257D01*
X152755144Y-93753086D01*
X152643940Y-93545039D01*
X152365222Y-93432384D01*
X151309605Y-94488000D01*
X150950395Y-94488000D01*
X149894778Y-93432384D01*
X149616060Y-93545039D01*
X149461188Y-93858513D01*
X149370446Y-94196178D01*
X149347324Y-94545057D01*
X149083113Y-94545057D01*
X149090676Y-94430943D01*
X149045291Y-94084257D01*
X148933144Y-93753086D01*
X148821940Y-93545039D01*
X148543222Y-93432384D01*
X147487605Y-94488000D01*
X147128395Y-94488000D01*
X146072778Y-93432384D01*
X145794060Y-93545039D01*
X145639188Y-93858513D01*
X145548446Y-94196178D01*
X145525324Y-94545057D01*
X145123113Y-94545057D01*
X145130676Y-94430943D01*
X145085291Y-94084257D01*
X144973144Y-93753086D01*
X144861940Y-93545039D01*
X144583222Y-93432384D01*
X143527605Y-94488000D01*
X143168395Y-94488000D01*
X142112778Y-93432384D01*
X141834060Y-93545039D01*
X141679188Y-93858513D01*
X141588446Y-94196178D01*
X141565324Y-94545057D01*
X140955000Y-94545057D01*
X140955000Y-94333664D01*
X140894781Y-94030923D01*
X140776657Y-93745747D01*
X140605168Y-93489096D01*
X140386904Y-93270832D01*
X140359885Y-93252778D01*
X142292384Y-93252778D01*
X143348000Y-94308395D01*
X144403616Y-93252778D01*
X146252384Y-93252778D01*
X147308000Y-94308395D01*
X148363616Y-93252778D01*
X150074384Y-93252778D01*
X151130000Y-94308395D01*
X152185616Y-93252778D01*
X154034384Y-93252778D01*
X155090000Y-94308395D01*
X156145616Y-93252778D01*
X156032961Y-92974060D01*
X155719487Y-92819188D01*
X155381822Y-92728446D01*
X155032943Y-92705324D01*
X154686257Y-92750709D01*
X154355086Y-92862856D01*
X154147039Y-92974060D01*
X154034384Y-93252778D01*
X152185616Y-93252778D01*
X152072961Y-92974060D01*
X151759487Y-92819188D01*
X151421822Y-92728446D01*
X151072943Y-92705324D01*
X150726257Y-92750709D01*
X150395086Y-92862856D01*
X150187039Y-92974060D01*
X150074384Y-93252778D01*
X148363616Y-93252778D01*
X148250961Y-92974060D01*
X147937487Y-92819188D01*
X147599822Y-92728446D01*
X147250943Y-92705324D01*
X146904257Y-92750709D01*
X146573086Y-92862856D01*
X146365039Y-92974060D01*
X146252384Y-93252778D01*
X144403616Y-93252778D01*
X144290961Y-92974060D01*
X143977487Y-92819188D01*
X143639822Y-92728446D01*
X143290943Y-92705324D01*
X142944257Y-92750709D01*
X142613086Y-92862856D01*
X142405039Y-92974060D01*
X142292384Y-93252778D01*
X140359885Y-93252778D01*
X140130253Y-93099343D01*
X139845077Y-92981219D01*
X139542336Y-92921000D01*
X139233664Y-92921000D01*
X138930923Y-92981219D01*
X138645747Y-93099343D01*
X138389096Y-93270832D01*
X138170832Y-93489096D01*
X137999343Y-93745747D01*
X137881219Y-94030923D01*
X137821000Y-94333664D01*
X137821000Y-94642336D01*
X137881219Y-94945077D01*
X137999343Y-95230253D01*
X138170832Y-95486904D01*
X138389096Y-95705168D01*
X138645747Y-95876657D01*
X138930923Y-95994781D01*
X139233664Y-96055000D01*
X139467248Y-96055000D01*
X139476000Y-96063752D01*
X139476000Y-101189851D01*
X139315469Y-101029320D01*
X139069464Y-100864944D01*
X138796117Y-100751721D01*
X138505934Y-100694000D01*
X138210066Y-100694000D01*
X137919883Y-100751721D01*
X137646536Y-100864944D01*
X137400531Y-101029320D01*
X137191320Y-101238531D01*
X137026944Y-101484536D01*
X136913721Y-101757883D01*
X136856000Y-102048066D01*
X135660000Y-102048066D01*
X135602279Y-101757883D01*
X135489056Y-101484536D01*
X135324680Y-101238531D01*
X135115469Y-101029320D01*
X134869464Y-100864944D01*
X134596117Y-100751721D01*
X134305934Y-100694000D01*
X134010066Y-100694000D01*
X133719883Y-100751721D01*
X133446536Y-100864944D01*
X133200531Y-101029320D01*
X132991320Y-101238531D01*
X132826944Y-101484536D01*
X132713721Y-101757883D01*
X132656000Y-102048066D01*
X131460000Y-102048066D01*
X131402279Y-101757883D01*
X131289056Y-101484536D01*
X131124680Y-101238531D01*
X130915469Y-101029320D01*
X130669464Y-100864944D01*
X130396117Y-100751721D01*
X130105934Y-100694000D01*
X129810066Y-100694000D01*
X129519883Y-100751721D01*
X129246536Y-100864944D01*
X129000531Y-101029320D01*
X128791320Y-101238531D01*
X128626944Y-101484536D01*
X128513721Y-101757883D01*
X128456000Y-102048066D01*
X127463435Y-102048066D01*
X127430610Y-101802502D01*
X127321704Y-101483753D01*
X127218959Y-101291531D01*
X126946890Y-101186715D01*
X125937605Y-102196000D01*
X125578395Y-102196000D01*
X124569110Y-101186715D01*
X124297041Y-101291531D01*
X124148660Y-101593929D01*
X124062125Y-101919465D01*
X124040761Y-102255627D01*
X122118000Y-102255627D01*
X122118000Y-101007110D01*
X124748715Y-101007110D01*
X125758000Y-102016395D01*
X126767285Y-101007110D01*
X126662469Y-100735041D01*
X126360071Y-100586660D01*
X126034535Y-100500125D01*
X125698373Y-100478761D01*
X125364502Y-100523390D01*
X125045753Y-100632296D01*
X124853531Y-100735041D01*
X124748715Y-101007110D01*
X122118000Y-101007110D01*
X122118000Y-99082108D01*
X122140542Y-98852200D01*
X122200889Y-98652322D01*
X122298916Y-98467961D01*
X122430876Y-98306161D01*
X122591759Y-98173068D01*
X122775425Y-98073760D01*
X122974878Y-98012019D01*
X123203401Y-97988000D01*
X125453795Y-97988000D01*
X125476000Y-97990187D01*
X125498205Y-97988000D01*
X125564607Y-97981460D01*
X125649810Y-97955614D01*
X125728333Y-97913643D01*
X125797159Y-97857159D01*
X125853643Y-97788333D01*
X125895614Y-97709810D01*
X125921460Y-97624607D01*
X125930187Y-97536000D01*
X125928000Y-97513795D01*
X125928000Y-94333664D01*
X125941000Y-94333664D01*
X125941000Y-94642336D01*
X126001219Y-94945077D01*
X126119343Y-95230253D01*
X126290832Y-95486904D01*
X126509096Y-95705168D01*
X126765747Y-95876657D01*
X127050923Y-95994781D01*
X127353664Y-96055000D01*
X127662336Y-96055000D01*
X127965077Y-95994781D01*
X128250253Y-95876657D01*
X128506904Y-95705168D01*
X128725168Y-95486904D01*
X128896657Y-95230253D01*
X129014781Y-94945077D01*
X129075000Y-94642336D01*
X129075000Y-94333664D01*
X129901000Y-94333664D01*
X129901000Y-94642336D01*
X129961219Y-94945077D01*
X130079343Y-95230253D01*
X130250832Y-95486904D01*
X130469096Y-95705168D01*
X130725747Y-95876657D01*
X131010923Y-95994781D01*
X131313664Y-96055000D01*
X131622336Y-96055000D01*
X131925077Y-95994781D01*
X132210253Y-95876657D01*
X132466904Y-95705168D01*
X132685168Y-95486904D01*
X132856657Y-95230253D01*
X132974781Y-94945077D01*
X133035000Y-94642336D01*
X133035000Y-94333664D01*
X133861000Y-94333664D01*
X133861000Y-94642336D01*
X133921219Y-94945077D01*
X134039343Y-95230253D01*
X134210832Y-95486904D01*
X134429096Y-95705168D01*
X134685747Y-95876657D01*
X134970923Y-95994781D01*
X135273664Y-96055000D01*
X135582336Y-96055000D01*
X135885077Y-95994781D01*
X136170253Y-95876657D01*
X136426904Y-95705168D01*
X136645168Y-95486904D01*
X136816657Y-95230253D01*
X136934781Y-94945077D01*
X136995000Y-94642336D01*
X136995000Y-94333664D01*
X136934781Y-94030923D01*
X136816657Y-93745747D01*
X136645168Y-93489096D01*
X136426904Y-93270832D01*
X136170253Y-93099343D01*
X135885077Y-92981219D01*
X135582336Y-92921000D01*
X135273664Y-92921000D01*
X134970923Y-92981219D01*
X134685747Y-93099343D01*
X134429096Y-93270832D01*
X134210832Y-93489096D01*
X134039343Y-93745747D01*
X133921219Y-94030923D01*
X133861000Y-94333664D01*
X133035000Y-94333664D01*
X132974781Y-94030923D01*
X132856657Y-93745747D01*
X132685168Y-93489096D01*
X132466904Y-93270832D01*
X132210253Y-93099343D01*
X131925077Y-92981219D01*
X131622336Y-92921000D01*
X131313664Y-92921000D01*
X131010923Y-92981219D01*
X130725747Y-93099343D01*
X130469096Y-93270832D01*
X130250832Y-93489096D01*
X130079343Y-93745747D01*
X129961219Y-94030923D01*
X129901000Y-94333664D01*
X129075000Y-94333664D01*
X129014781Y-94030923D01*
X128896657Y-93745747D01*
X128725168Y-93489096D01*
X128506904Y-93270832D01*
X128250253Y-93099343D01*
X127965077Y-92981219D01*
X127662336Y-92921000D01*
X127353664Y-92921000D01*
X127050923Y-92981219D01*
X126765747Y-93099343D01*
X126509096Y-93270832D01*
X126290832Y-93489096D01*
X126119343Y-93745747D01*
X126001219Y-94030923D01*
X125941000Y-94333664D01*
X125928000Y-94333664D01*
X125928000Y-87320000D01*
X172522001Y-87320000D01*
X172522000Y-97513795D01*
%TD*%
M02*
